<svg xmlns="http://www.w3.org/2000/svg" viewBox="0 0 577.98 435.91"><title>athletes-bg-1</title><g id="Layer_2" data-name="Layer 2"><g id="Layer_1-2" data-name="Layer 1"><path d="M161.72,102.57C108.59,131.91,70.58,87.21,55,194.67s30.9,106.84,112.81,128.47S226.92,365,279.62,343.85,370,285.75,418.56,268s134.11-39.2,142.91-60.38,53.08-128.7-54.19-138.7-77.79-33.13-136.43-18c-19.35,5-39.06-7.79-64.62-3.3C256.63,56.27,197.32,82.91,161.72,102.57Z" style="fill:#17242c"/><path d="M7.59,349.74c-7.68-38.43-9.83-113.24,0-136.09s15.54-94,16.24-105,71.56-59.27,94.53-59.27S237,2,270.56,2.32s66.88-7.46,74.18,11.31,82.87,68.1,81.33,122.87S441.41,227,403.19,256.09s-37.79,91.76-84.07,113-77.25,65.79-115.52,65.79-61.59-8.22-85.24-15.3S15.27,388.16,7.59,349.74Z" style="fill:none;stroke:#d6d6d6;stroke-width:2px"/></g></g></svg>