<svg xmlns="http://www.w3.org/2000/svg" width="47.783" height="40.589" viewBox="0 0 47.783 40.589"><g transform="translate(0 -38.441)"><path d="M44.271,203.822v-7.884a3.085,3.085,0,0,0-3.081-3.081H13.78a.7.7,0,1,0,0,1.4H41.19a1.679,1.679,0,0,1,1.678,1.678V203.8h-3.15v-1.608a3.064,3.064,0,0,0-3.061-3.061H29.272a3.064,3.064,0,0,0-3.06,3.061V203.8h-4.64v-1.608a3.064,3.064,0,0,0-3.06-3.061H11.126a3.064,3.064,0,0,0-3.061,3.061V203.8H4.915v-7.859a1.679,1.679,0,0,1,1.678-1.678h4.38a.7.7,0,0,0,0-1.4H6.593a3.085,3.085,0,0,0-3.081,3.081v7.884A3.953,3.953,0,0,0,0,207.745V218.3a.7.7,0,0,0,.7.7H10.973a.7.7,0,0,0,0-1.4H1.4v-7.316H37.26a.7.7,0,0,0,0-1.4H1.4v-1.13A2.547,2.547,0,0,1,3.947,205.2H43.835a2.547,2.547,0,0,1,2.544,2.544v1.13H40.067a.7.7,0,0,0,0,1.4h6.312v7.316H13.78a.7.7,0,0,0,0,1.4h33.3a.7.7,0,0,0,.7-.7V207.745A3.953,3.953,0,0,0,44.271,203.822ZM27.615,202.19a1.659,1.659,0,0,1,1.657-1.657h7.385a1.659,1.659,0,0,1,1.657,1.657V203.8h-10.7Zm-18.146,0a1.659,1.659,0,0,1,1.657-1.657h7.385a1.659,1.659,0,0,1,1.657,1.657V203.8H9.469Z" transform="translate(0 -139.967)"/><path d="M188.664,115.375h3.758a.7.7,0,1,0,0-1.4h-2.163l2.68-2.924a.708.708,0,0,0-.517-1.176h-3.405a.7.7,0,0,0,0,1.4h1.81l-2.68,2.924A.708.708,0,0,0,188.664,115.375Z" transform="translate(-170.379 -64.746)"/><path d="M275.79,46.452h6.056a.7.7,0,1,0,0-1.4h-4.461l4.978-5.432a.708.708,0,0,0-.517-1.176h-5.7a.7.7,0,1,0,0,1.4h4.107l-4.978,5.432A.708.708,0,0,0,275.79,46.452Z" transform="translate(-249.353 0)"/></g></svg>