<svg xmlns="http://www.w3.org/2000/svg" width="45.819" height="41.051" viewBox="0 0 45.819 41.051"><g transform="translate(0 -26.637)"><g transform="translate(14.086 41.371)"><path d="M161.032,191.959a2.089,2.089,0,0,0-3.63,1.374.671.671,0,0,0,.66.682h.012a.671.671,0,0,0,.671-.66.745.745,0,0,1,.759-.733.737.737,0,0,1,.538.242.671.671,0,0,0,.991-.905Z" transform="translate(-157.402 -191.28)"/></g><g transform="translate(17.683 43.071)"><path d="M201.2,211.449a1.917,1.917,0,0,0-3.562.085.671.671,0,1,0,1.258.467.577.577,0,0,1,.74-.34.567.567,0,0,1,.328.313.671.671,0,0,0,1.235-.525Z" transform="translate(-197.594 -210.283)"/></g><g transform="translate(23.835 38.097)"><g transform="translate(0 0)"><path d="M268.117,154.889a.671.671,0,0,0-.949,0l-.633.634a.671.671,0,0,0,.95.948l.633-.634A.671.671,0,0,0,268.117,154.889Z" transform="translate(-266.339 -154.693)"/></g></g><g transform="translate(19.871 46.958)"><g transform="translate(0 0)"><path d="M223.615,253.709h-.895a.671.671,0,0,0,0,1.342h.895a.671.671,0,1,0,0-1.342Z" transform="translate(-222.049 -253.709)"/></g></g><g transform="translate(26.73 46.958)"><g transform="translate(0 0)"><path d="M300.258,253.709h-.895a.671.671,0,1,0,0,1.342h.895a.671.671,0,1,0,0-1.342Z" transform="translate(-298.692 -253.709)"/></g></g><g transform="translate(0 26.637)"><g transform="translate(0 0)"><path d="M45.8,59.06l-.175-.943A1.273,1.273,0,0,0,44.14,57.1l-3.558.654,1.611-1.077a1.268,1.268,0,0,0,.4-1.68l-.488-.863a1.269,1.269,0,0,0-1.275-.636,16.977,16.977,0,0,0,.272-3.031,1.122,1.122,0,0,0-.667-1.025,5.147,5.147,0,0,0,.041-3.894.815.815,0,0,0-.455-.457,5.106,5.106,0,0,0-1.9-.364q-.125,0-.249.006a3.538,3.538,0,0,0-4.263-3.293,5.53,5.53,0,0,0-.313-2.954.825.825,0,0,0-.464-.468,5.516,5.516,0,0,0-4.986.457,6.638,6.638,0,0,0-1.58-2.529,1.139,1.139,0,0,0-1.613,0L21.407,39.2a3.374,3.374,0,0,0-2.252-.857,3.394,3.394,0,0,0-2.423,1.017,3.373,3.373,0,0,0-2.5-.178v-2.51a3.169,3.169,0,0,0-3.108-3.167V32.082a1.119,1.119,0,0,0,.928-1.1V27.756a1.12,1.12,0,0,0-1.119-1.119H5.473a1.12,1.12,0,0,0-1.119,1.119v3.225a1.119,1.119,0,0,0,.928,1.1v1.423a3.169,3.169,0,0,0-3.107,3.167V56.261A6.411,6.411,0,0,0,0,61.027a6.947,6.947,0,0,0,7.187,6.662L34.05,67.68a3.072,3.072,0,0,0,3.04-3.552l5.366.964a1.282,1.282,0,0,0,.226.02,1.273,1.273,0,0,0,1.259-1.084l.145-.975a1.269,1.269,0,0,0-.974-1.426l-1.891-.434,3.555-.653A1.271,1.271,0,0,0,45.8,59.06ZM38.124,46.065a3.764,3.764,0,0,1,1.183.19,3.8,3.8,0,0,1-.321,3.086H37.179l.577-.578a.671.671,0,0,0-.95-.948l-.305.306a3.113,3.113,0,0,0-.721-1.239A3.753,3.753,0,0,1,38.124,46.065ZM34.339,42.7a2.2,2.2,0,0,1,2.2,2.2c0,.023,0,.045,0,.067a5.1,5.1,0,0,0-1.916,1.136c-.089-.034-.178-.065-.27-.09a3.114,3.114,0,0,0-1.855-2.308A2.195,2.195,0,0,1,34.339,42.7Zm-3.548-3.739a4.158,4.158,0,0,1,1.336.22,4.2,4.2,0,0,1-.166,3.1,3.565,3.565,0,0,0-.86,1.192,3.167,3.167,0,0,0-.358.041,3.134,3.134,0,0,0-1.427.651,3.552,3.552,0,0,0-.508-.7l1.539-1.543a.671.671,0,0,0-.95-.948l-1.682,1.686a3.508,3.508,0,0,0-1.03-.306,4.189,4.189,0,0,1,4.106-3.388ZM25.649,49.341h-.582a.671.671,0,0,0-1.249,0h-.684a.671.671,0,0,0-1.047-.825l-.633.634a.668.668,0,0,0-.133.191H19.956a5.309,5.309,0,0,1-.861-2.709H29.743a5.309,5.309,0,0,1-.861,2.709H27.46a.668.668,0,0,0-.133-.191l-.633-.634a.671.671,0,0,0-1.047.825ZM24.088,45.29a2.2,2.2,0,0,1,4.244,0Zm1.372-8.253a5.308,5.308,0,0,1,1.268,2.37,5.528,5.528,0,0,0-.852,1.222.667.667,0,0,0-.35-.1h-.894a.671.671,0,1,0,0,1.342h.785a5.558,5.558,0,0,0-.1.562,3.51,3.51,0,0,0-.759.3,3.388,3.388,0,0,0-2.066-1.578v-.006a3.4,3.4,0,0,0-.27-.86ZM13.327,43.094a2.026,2.026,0,0,1-.089-.336,2.049,2.049,0,0,1,1.667-2.364,2.07,2.07,0,0,1,.354-.031,2.028,2.028,0,0,1,1.222.408.671.671,0,0,0,.961-.167,2.032,2.032,0,0,1,1.357-.888,2.071,2.071,0,0,1,.355-.031,2.036,2.036,0,0,1,2.009,1.692,2.057,2.057,0,0,1,.03.348.671.671,0,0,0,.612.667,2.042,2.042,0,0,1,1.685,1.2,3.539,3.539,0,0,0-.776,1.695H18.889a1.141,1.141,0,0,0-1.055.71,5.122,5.122,0,0,0-4.772-.518.813.813,0,0,0-.455.456,5.142,5.142,0,0,0-.313,1.193,2.042,2.042,0,0,1,.683-3.2A.671.671,0,0,0,13.327,43.094Zm2,6.064.183.184H13.9a3.8,3.8,0,0,1-.123-2.692,3.776,3.776,0,0,1,4.129,1.222,6.63,6.63,0,0,0,.514,1.47H17.408L16.278,48.21a.671.671,0,0,0-.95.948Zm-2.858.184H10.077a2.207,2.207,0,0,1,1.041-1.531,3.374,3.374,0,0,0,1.224,1.014A5.191,5.191,0,0,0,12.47,49.341ZM5.7,27.979h5.011v2.778H5.7ZM9.779,32.1v1.4H6.624V32.1ZM3.517,39.394H7.875a.671.671,0,0,0,0-1.342H3.517v-1.38a1.825,1.825,0,0,1,1.82-1.826h5.73a1.825,1.825,0,0,1,1.82,1.826v1.38H11.634a.671.671,0,0,0,0,1.342h1.253v.6a3.383,3.383,0,0,0-.971,3v.007a3.392,3.392,0,0,0-1.422,3.371c.013.077.03.153.048.228a3.559,3.559,0,0,0-.895.7H3.517Zm0,9.243H8.869a3.521,3.521,0,0,0-.146.7H8.61a1.122,1.122,0,0,0-1.12,1.121A16.984,16.984,0,0,0,7.781,53.6c-.193-.015-.391-.024-.592-.024a6.116,6.116,0,0,0-2.177.363c-.906.358-1.157.866-1.211,1.217-.1.048-.19.1-.284.15V48.637Zm8.5,8.245a2.541,2.541,0,0,1,.475.476h-.025a4.17,4.17,0,0,1-1.839-.583,4.837,4.837,0,0,1-.77-.523.671.671,0,0,0-.868,0,4.809,4.809,0,0,1-.77.523,4.17,4.17,0,0,1-1.839.583H6.356a2.538,2.538,0,0,1,.475-.477.671.671,0,0,0-.341-1.191,3.206,3.206,0,0,1-1.263-.365,3.823,3.823,0,0,1,1.963-.409,4.183,4.183,0,0,1,1.905.373.671.671,0,0,0,.657,0,4.185,4.185,0,0,1,1.906-.373,3.823,3.823,0,0,1,1.963.409,3.2,3.2,0,0,1-1.263.365.671.671,0,0,0-.341,1.191Zm-1.343,8.169.023.124a3.057,3.057,0,0,0,.483,1.171H7.187a5.607,5.607,0,0,1-5.844-5.319,5.272,5.272,0,0,1,3.029-4.659,2.884,2.884,0,0,0,.772.4,1.59,1.59,0,0,0-.226.663,1.093,1.093,0,0,0,.267.828,1.523,1.523,0,0,0,1.2.447A5.543,5.543,0,0,0,8.87,57.95q.293-.162.553-.342.259.179.553.342a5.545,5.545,0,0,0,2.489.751h0a1.523,1.523,0,0,0,1.2-.447,1.093,1.093,0,0,0,.267-.828,1.59,1.59,0,0,0-.226-.663,2.89,2.89,0,0,0,.772-.4,5.43,5.43,0,0,1,2.876,3.453l-4.747,1.8A3.069,3.069,0,0,0,10.673,65.051Zm24.713.663a1.737,1.737,0,0,1-1.336.624h-.7l-.44-2.376a.671.671,0,0,0-1.32.244l.4,2.132H29.671l-.3-1.607a.671.671,0,0,0-1.32.244l.252,1.363-5.372,0-.4-2.182a.671.671,0,0,0-1.32.245l.359,1.938-7.843,0h0a1.735,1.735,0,0,1-1.709-1.415l-.023-.124a1.727,1.727,0,0,1,1.089-1.927l2.638-1,.2,1.061a.671.671,0,0,0,.659.549.68.68,0,0,0,.123-.011.671.671,0,0,0,.538-.782l-.241-1.3L20.91,59.9a.671.671,0,0,0-.477-1.255l-1.822.692a6.8,6.8,0,0,0-3.566-4.188c-.055-.352-.305-.86-1.211-1.217a6.116,6.116,0,0,0-2.177-.363,6.809,6.809,0,0,0-1.563.174v-.405a.671.671,0,0,0-1.086-.527,15.679,15.679,0,0,1-.175-2.132H30.695a.671.671,0,1,0,0-1.342H30.42a6.644,6.644,0,0,0,.669-2.91,1.142,1.142,0,0,0-1.03-1.135,1.769,1.769,0,0,1,.915-.458,1.811,1.811,0,0,1,.309-.027,1.774,1.774,0,0,1,1.751,1.474,1.8,1.8,0,0,1,.026.3.671.671,0,0,0,.612.668,1.779,1.779,0,0,1,1.6,1.467,1.754,1.754,0,0,1,0,.618h-.72a.671.671,0,0,0,0,1.342h5.217a15.471,15.471,0,0,1-.471,3.6l-3.637,2.147a3.081,3.081,0,0,0-4.057-2.022L24.1,57.256a.671.671,0,0,0,.477,1.255l.987-.375.306,1.654a.671.671,0,0,0,.659.549.68.68,0,0,0,.123-.011.671.671,0,0,0,.538-.782l-.351-1.894,5.229-1.986a1.742,1.742,0,0,1,1.473.108,1.724,1.724,0,0,1,.857,1.193L35.758,64.3A1.717,1.717,0,0,1,35.386,65.714Zm2.395-5.254a.671.671,0,0,0-.029,1.314l5,1.146-.125.838-5.793-1.041-.906-4.889,5.046-2.979.42.744-4.256,2.845a.671.671,0,0,0,.494,1.218l6.685-1.228.149.8Z" transform="translate(0 -26.637)"/></g></g></g></svg>