<svg xmlns="http://www.w3.org/2000/svg" viewBox="0 0 330.71 350.95"><title>expertise-bg-1</title><g id="Layer_2" data-name="Layer 2"><g id="Layer_1-2" data-name="Layer 1"><path d="M12.45,287.85c-5.6-28-7.16-82.55,0-99.2S23.79,120.1,24.3,112.07,76.46,68.86,93.21,68.86s86.52-34.52,111-34.27,48.75-5.44,54.07,8.24,60.42,49.65,59.29,89.57,11.18,66-16.68,87.18-27.54,66.9-61.28,82.41-56.32,48-84.22,48-44.9-6-62.14-11.16S18.05,315.87,12.45,287.85Z" style="fill:none;stroke:#ebe5e5;stroke-width:2px"/><rect x="90.12" y="126.05" width="25.89" height="10.7" rx="1" style="fill:#a38348"/><rect x="42.68" y="146.8" width="25.89" height="10.7" rx="1" style="fill:#a38348"/><rect y="174.69" width="25.89" height="10.7" rx="1" style="fill:#a38348"/><rect x="90.12" y="159.49" width="25.89" height="10.7" rx="1" style="fill:#a38348"/><rect x="42.68" y="180.24" width="25.89" height="10.7" rx="1" style="fill:#a38348"/><rect y="208.13" width="25.89" height="10.7" rx="1" style="fill:#a38348"/><rect x="90.12" y="192.93" width="25.89" height="10.7" rx="1" style="fill:#a38348"/><rect x="42.68" y="213.68" width="25.89" height="10.7" rx="1" style="fill:#a38348"/><rect x="90.12" y="226.37" width="25.89" height="10.7" rx="1" style="fill:#a38348"/><rect x="42.68" y="247.11" width="25.89" height="10.7" rx="1" style="fill:#a38348"/><rect x="90.5" y="258.22" width="25.89" height="10.7" rx="1" style="fill:#a38348"/><rect x="42.68" y="280.55" width="25.89" height="10.7" rx="1" style="fill:#a38348"/><rect x="90.12" y="287.16" width="25.89" height="10.7" rx="1" style="fill:#a38348"/><rect x="42.68" y="307.91" width="25.89" height="10.7" rx="1" style="fill:#a38348"/><rect x="132.8" y="138.74" width="25.89" height="10.7" rx="1" style="fill:#a38348"/><rect x="132.8" y="172.18" width="25.89" height="10.7" rx="1" style="fill:#a38348"/><rect x="132.8" y="205.62" width="25.89" height="10.7" rx="1" style="fill:#a38348"/><rect x="132.8" y="239.05" width="25.89" height="10.7" rx="1" style="fill:#a38348"/><rect x="132.8" y="272.49" width="25.89" height="10.7" rx="1" style="fill:#a38348"/><rect x="132.8" y="299.85" width="25.89" height="10.7" rx="1" style="fill:#a38348"/><rect x="178.4" y="144.82" width="25.89" height="10.7" rx="1" style="fill:#a38348"/><rect x="178.4" y="178.26" width="25.89" height="10.7" rx="1" style="fill:#a38348"/><rect x="178.4" y="211.7" width="25.89" height="10.7" rx="1" style="fill:#a38348"/><rect x="178.4" y="245.13" width="25.89" height="10.7" rx="1" style="fill:#a38348"/><path d="M41.74,5.17S42.9,112.7,100.42,167.74c-.3.76,42.22-25.71,42.22-25.71S90.73,64.89,91.25.09C93-.78,41.74,5.17,41.74,5.17Z" style="fill:#3b8090"/><path d="M312.92,168.65s-103.58,29-141.85,98.8c-.81-.1,35.78,34.12,35.78,34.12s61.06-70.12,123.8-86.42C331.94,216.65,312.92,168.65,312.92,168.65Z" style="fill:#3b8090"/></g></g></svg>