<svg xmlns="http://www.w3.org/2000/svg" width="45" height="41.006" viewBox="0 0 45 41.006"><g transform="translate(0 -22.723)"><g transform="translate(0 22.723)"><path d="M44.791,61.579,35.332,46.206a1.41,1.41,0,0,0-2.4,0l-1.228,2a.66.66,0,0,0,1.125.692l1.228-2a.09.09,0,0,1,.153,0l9.459,15.373a.09.09,0,0,1-.076.137H38.352L23.7,38.6a1.406,1.406,0,0,0-.524-.5h0V33.618a6.1,6.1,0,0,0,1.608.213,12.437,12.437,0,0,0,4.3-1.035c1.911-.71,3.717-1.38,5.67-.6a.817.817,0,0,0,1.121-.758V23.982a.816.816,0,0,0-.5-.752c-2.479-1.057-4.652-.251-6.753.529-1.969.731-3.828,1.421-5.852.516a.66.66,0,0,0-.93.6V24.9a.677.677,0,0,0-.018.153V38.1a1.408,1.408,0,0,0-.523.5L14.343,49.9l-2.274-3.7a1.41,1.41,0,0,0-2.4,0L.209,61.579a1.41,1.41,0,0,0,1.2,2.149H43.59a1.41,1.41,0,0,0,1.2-2.149ZM23.16,25.815c2.137.586,4.057-.126,5.921-.818,1.844-.685,3.592-1.333,5.47-.672v6.415c-2.144-.588-4.065.126-5.929.817-1.841.683-3.587,1.331-5.462.672ZM8.2,62.408l2.265-3.681a.66.66,0,0,0-1.125-.692L6.648,62.408H1.41a.09.09,0,0,1-.076-.137L10.792,46.9a.09.09,0,0,1,.153,0l2.623,4.263-2.619,4.257a.66.66,0,1,0,1.125.692l10.35-16.821a.09.09,0,0,1,.153,0L36.8,62.408Z" transform="translate(0 -22.723)"/></g></g></svg>