<?xml version="1.0" encoding="utf-8"?>
<!-- Generator: Adobe Illustrator 23.0.6, SVG Export Plug-In . SVG Version: 6.00 Build 0)  -->
<svg version="1.1" id="Layer_1" xmlns="http://www.w3.org/2000/svg" xmlns:xlink="http://www.w3.org/1999/xlink" x="0px" y="0px"
	 viewBox="0 0 287 33" style="enable-background:new 0 0 287 33;" xml:space="preserve">
<style type="text/css">
	.st0{enable-background:new    ;}
</style>
<g class="st0">
	<path d="M95.1,20.9c-0.4,0.3-0.9,0.4-1.4,0.4c-0.7,0-1.4-0.2-1.9-0.7s-0.9-1.1-1-1.9L89,5.6c0-0.1,0-0.2,0.1-0.3s0.2-0.1,0.3-0.1
		h1.1c0.1,0,0.2,0,0.3,0.1c0.1,0.1,0.1,0.2,0.1,0.3l0.5,3.9c0.1,0.5,0.2,0.5,0.3,0l0.5-3.9c0-0.1,0.1-0.2,0.1-0.3
		c0.1-0.1,0.2-0.1,0.3-0.1h1.2c0.1,0,0.2,0,0.3,0.1c0.1,0.1,0.1,0.2,0.1,0.3l0.5,3.9c0.1,0.5,0.2,0.5,0.3,0l0.8-5.8
		c0.1-0.7,0.5-1.4,1-1.9C97.4,1.2,98.1,1,98.8,1c0.5,0,1,0.1,1.4,0.4c0.1,0.1,0.2,0.2,0.2,0.3s0,0.2-0.1,0.4l-0.8,0.8
		C99.4,3,99.2,3,99.1,2.9c-0.1,0-0.1,0-0.2,0c-0.3,0-0.5,0.1-0.7,0.3c-0.2,0.2-0.3,0.4-0.4,0.7l-1.8,12.9c0,0.1-0.1,0.2-0.1,0.3
		c-0.1,0.1-0.2,0.1-0.3,0.1h-1.2c-0.1,0-0.2,0-0.3-0.1c-0.1-0.1-0.1-0.2-0.1-0.3l-0.5-3.9c-0.1-0.5-0.2-0.5-0.3,0l-0.4,2.9
		c-0.1,0.9-0.1,1.8,0,2.7c0,0.3,0.2,0.5,0.4,0.7c0.2,0.2,0.4,0.3,0.7,0.3c0.1,0,0.2,0,0.2,0c0.2,0,0.3,0,0.4,0.1l0.8,0.8
		c0.1,0.1,0.1,0.2,0.1,0.3S95.3,20.9,95.1,20.9z"/>
	<path d="M100.4,17.1c-0.1,0-0.2,0-0.3-0.1s-0.1-0.2-0.1-0.3V5.6c0-0.1,0-0.2,0.1-0.3s0.2-0.1,0.3-0.1h1.1c0.1,0,0.2,0,0.3,0.1
		s0.1,0.2,0.1,0.3v4.2c0,0.1,0,0.2,0.1,0.3s0.2,0.1,0.3,0.1h1.5c0.1,0,0.2,0,0.3-0.1s0.1-0.2,0.1-0.3V5.6c0-0.1,0-0.2,0.1-0.3
		s0.2-0.1,0.3-0.1h1.1c0.1,0,0.2,0,0.3,0.1s0.1,0.2,0.1,0.3v11.2c0,0.1,0,0.2-0.1,0.3s-0.2,0.1-0.3,0.1h-1.1c-0.1,0-0.2,0-0.3-0.1
		s-0.1-0.2-0.1-0.3v-4.2c0-0.1,0-0.2-0.1-0.3s-0.2-0.1-0.3-0.1h-1.5c-0.1,0-0.2,0-0.3,0.1s-0.1,0.2-0.1,0.3v4.2c0,0.1,0,0.2-0.1,0.3
		s-0.2,0.1-0.3,0.1H100.4z"/>
	<path d="M111.8,17.1c-0.8,0-1.4-0.3-2-0.8s-0.8-1.2-0.8-2V7.9c0-0.8,0.3-1.4,0.8-2s1.2-0.8,2-0.8h0.6c0.8,0,1.4,0.3,2,0.8
		s0.8,1.2,0.8,2v0.9v4.6v0.9c0,0.8-0.3,1.4-0.8,2s-1.2,0.8-2,0.8H111.8z M112.4,7.1h-0.7c-0.2,0-0.4,0.1-0.6,0.2s-0.2,0.3-0.2,0.6
		v6.6c0,0.2,0.1,0.4,0.2,0.6s0.3,0.2,0.6,0.2h0.7c0.2,0,0.4-0.1,0.6-0.2s0.2-0.3,0.2-0.6v-1V8.8v-1c0-0.2-0.1-0.4-0.2-0.6
		S112.7,7.1,112.4,7.1z"/>
	<path d="M124.3,16.7c0,0.1,0,0.2-0.1,0.3s-0.2,0.1-0.3,0.1h-1.1c-0.1,0-0.2,0-0.3-0.1s-0.1-0.2-0.1-0.3V5.6c0-0.1,0-0.2,0.1-0.3
		s0.2-0.1,0.3-0.1h1.1c0.1,0,0.2,0,0.3,0.1s0.1,0.2,0.1,0.3V16.7z"/>
	<path d="M130.2,17.1h-0.6c-0.8,0-1.4-0.3-2-0.8s-0.8-1.2-0.8-2v-0.5c0-0.1,0-0.2,0.1-0.3s0.2-0.1,0.3-0.1h1.1c0.1,0,0.2,0,0.3,0.1
		s0.1,0.2,0.1,0.3v0.5c0,0.2,0.1,0.4,0.2,0.6s0.3,0.2,0.6,0.2h0.7c0.2,0,0.4-0.1,0.5-0.2c0.1-0.1,0.2-0.3,0.2-0.5
		c0-0.5-0.2-1-0.6-1.4s-0.8-0.8-1.3-1.3c-0.4-0.3-0.8-0.7-1.1-1s-0.7-0.8-0.9-1.2s-0.4-1-0.4-1.6c0-0.8,0.3-1.4,0.8-2s1.2-0.8,2-0.8
		h0.6c0.8,0,1.4,0.3,2,0.8s0.8,1.2,0.8,2v0.5c0,0.1,0,0.2-0.1,0.3s-0.2,0.1-0.3,0.1h-1.1c-0.1,0-0.2,0-0.3-0.1S131,8.5,131,8.4V7.9
		c0-0.2-0.1-0.4-0.2-0.6s-0.3-0.2-0.6-0.2h-0.7c-0.2,0-0.4,0.1-0.6,0.2c-0.2,0.2-0.2,0.3-0.2,0.5c0,0.5,0.2,1,0.6,1.4
		s0.8,0.8,1.3,1.3c0.4,0.3,0.8,0.7,1.1,1c0.4,0.4,0.7,0.8,0.9,1.2s0.4,1,0.4,1.6c0,0.8-0.3,1.4-0.8,2S130.9,17.1,130.2,17.1z"/>
	<path d="M150.7,16.7c0,0.1,0,0.2-0.1,0.3s-0.2,0.1-0.3,0.1h-1.1c-0.1,0-0.2,0-0.3-0.1c-0.1-0.1-0.1-0.2-0.1-0.3v-4.2
		c0-0.1,0-0.2-0.1-0.3s-0.2-0.1-0.3-0.1h-1.5c-0.1,0-0.2,0-0.3,0.1s-0.1,0.2-0.1,0.3v5.9c0,0.8-0.3,1.5-0.8,2s-1.2,0.8-2,0.8
		c-0.9,0-1.8-0.2-2.6-0.7c-0.8-0.4-1.4-1.1-1.8-1.8c-0.5-0.8-0.7-1.6-0.7-2.6v-1c0-0.9,0.2-1.7,0.6-2.4c0.4-0.7,0.9-1.3,1.6-1.8
		s1.5-0.7,2.3-0.8c0.1,0,0.2,0,0.3,0.1s0.1,0.2,0.1,0.3v1.1c0,0.1,0,0.2-0.1,0.3s-0.2,0.1-0.3,0.1c-0.8,0.1-1.4,0.5-2,1
		c-0.5,0.6-0.8,1.3-0.8,2v1c0,0.6,0.1,1.1,0.4,1.6s0.7,0.9,1.1,1.1s1,0.4,1.6,0.4c0.3,0,0.5-0.1,0.7-0.3c0.2-0.2,0.3-0.4,0.3-0.6
		V7.7c0-0.2-0.1-0.3-0.2-0.4c-0.1-0.1-0.3-0.1-0.4,0c0,0,0,0,0,0c-0.2,0.1-0.4,0.2-0.6,0.3s-0.5,0.2-0.9,0.2c-0.1,0-0.2,0-0.3-0.1
		S142,7.5,142,7.4V6.3c0-0.1,0-0.2,0.1-0.3s0.1-0.1,0.3-0.1c0.1,0,0.2-0.1,0.3-0.1c0.1,0,0.2-0.1,0.3-0.2c0.2-0.1,0.4-0.2,0.6-0.3
		s0.6-0.2,1-0.2h1.5c0.1,0,0.2,0,0.3,0.1s0.1,0.2,0.1,0.3v4.2c0,0.1,0,0.2,0.1,0.3s0.2,0.1,0.3,0.1h1.5c0.1,0,0.2,0,0.3-0.1
		s0.1-0.2,0.1-0.3V5.6c0-0.1,0-0.2,0.1-0.3c0.1-0.1,0.2-0.1,0.3-0.1h1.1c0.1,0,0.2,0,0.3,0.1s0.1,0.2,0.1,0.3V16.7z"/>
	<path d="M155.4,16.8c0,0.1-0.1,0.2-0.1,0.3s-0.2,0.1-0.3,0.1h-1.1c-0.1,0-0.2,0-0.3-0.1c-0.1-0.1-0.1-0.2-0.1-0.4l2-11.1
		c0-0.1,0.1-0.2,0.1-0.3s0.2-0.1,0.3-0.1h1.2c0.1,0,0.2,0,0.3,0.1s0.1,0.1,0.1,0.3l2,11.1c0,0.1,0,0.3-0.1,0.4s-0.2,0.1-0.3,0.1H158
		c-0.1,0-0.2,0-0.3-0.1s-0.1-0.1-0.1-0.3l-0.3-1.6c0-0.1-0.1-0.2-0.1-0.3c-0.1-0.1-0.2-0.1-0.3-0.1h-0.8c-0.1,0-0.2,0-0.3,0.1
		c-0.1,0.1-0.1,0.2-0.1,0.3L155.4,16.8z M156.5,12.9c0.1,0,0.2,0,0.3-0.1c0.1-0.1,0.1-0.2,0.1-0.3l-0.2-1c-0.1-0.5-0.2-0.5-0.3,0
		l-0.2,1c0,0.1,0,0.2,0.1,0.3C156.3,12.9,156.4,12.9,156.5,12.9z"/>
	<path d="M161.8,17.1c-0.1,0-0.2,0-0.3-0.1s-0.1-0.2-0.1-0.3V5.6c0-0.1,0-0.2,0.1-0.3s0.2-0.1,0.3-0.1h3c0.8,0,1.4,0.3,2,0.8
		c0.5,0.5,0.8,1.2,0.8,2v1.4c0,0.5-0.1,0.9-0.3,1.3s-0.5,0.7-0.8,1c-0.1,0.1-0.2,0.3-0.2,0.5l1.2,4.6c0,0.1,0,0.3-0.1,0.4
		s-0.2,0.2-0.3,0.2h-1c-0.1,0-0.2,0-0.3-0.1s-0.1-0.1-0.2-0.2l-1.1-4.4c0-0.1-0.1-0.2-0.2-0.2c-0.1-0.1-0.2-0.1-0.3-0.1h-0.3
		c-0.1,0-0.2,0-0.3,0.1s-0.1,0.2-0.1,0.3v4.2c0,0.1,0,0.2-0.1,0.3s-0.2,0.1-0.3,0.1H161.8z M164.8,7.1h-1.1c-0.1,0-0.2,0-0.3,0.1
		s-0.1,0.2-0.1,0.3v2.3c0,0.1,0,0.2,0.1,0.3s0.2,0.1,0.3,0.1h1.1c0.2,0,0.4-0.1,0.6-0.2c0.2-0.2,0.2-0.3,0.2-0.6V7.9
		c0-0.2-0.1-0.4-0.2-0.6C165.2,7.2,165.1,7.1,164.8,7.1z"/>
	<path d="M171,16.8l-2-11.1c0-0.1,0-0.3,0.1-0.4c0.1-0.1,0.2-0.1,0.3-0.1h1.1c0.1,0,0.2,0,0.3,0.1s0.1,0.1,0.1,0.3l1,5.5
		c0.1,0.4,0.2,0.4,0.2,0l1-5.5c0-0.1,0.1-0.2,0.1-0.3s0.2-0.1,0.3-0.1h1.1c0.1,0,0.2,0,0.3,0.1s0.1,0.2,0.1,0.4l-2,11.1
		c0,0.1-0.1,0.2-0.1,0.3s-0.2,0.1-0.3,0.1h-1.2c-0.1,0-0.2,0-0.3-0.1S171,16.9,171,16.8z"/>
	<path d="M177,5.6c0-0.1,0-0.2,0.1-0.3s0.2-0.1,0.3-0.1h5.3c0.1,0,0.2,0,0.3,0.1c0.1,0.1,0.1,0.2,0.1,0.3v1.1c0,0.1,0,0.2-0.1,0.3
		c-0.1,0.1-0.2,0.1-0.3,0.1h-3.4c-0.1,0-0.2,0-0.3,0.1s-0.1,0.2-0.1,0.3v2.3c0,0.1,0,0.2,0.1,0.3s0.2,0.1,0.3,0.1h1.5
		c0.1,0,0.2,0,0.3,0.1c0.1,0.1,0.1,0.2,0.1,0.3v1.1c0,0.1,0,0.2-0.1,0.3c-0.1,0.1-0.2,0.1-0.3,0.1h-1.5c-0.1,0-0.2,0-0.3,0.1
		s-0.1,0.2-0.1,0.3v2.3c0,0.1,0,0.2,0.1,0.3s0.2,0.1,0.3,0.1h3.4c0.1,0,0.2,0,0.3,0.1c0.1,0.1,0.1,0.2,0.1,0.3v1.1
		c0,0.1,0,0.2-0.1,0.3c-0.1,0.1-0.2,0.1-0.3,0.1h-5.3c-0.1,0-0.2,0-0.3-0.1s-0.1-0.2-0.1-0.3V5.6z"/>
	<path d="M184.2,5.7c0-0.1,0-0.3,0.1-0.4s0.2-0.2,0.3-0.2h1c0.2,0,0.3,0.1,0.4,0.3l0.9,2.7c0.1,0.2,0.2,0.2,0.2,0l0.9-2.7
		c0.1-0.2,0.2-0.3,0.4-0.3h1c0.1,0,0.3,0.1,0.3,0.2s0.1,0.2,0.1,0.4l-1.9,5.4c0,0,0,0.1,0,0.1v5.5c0,0.1,0,0.2-0.1,0.3
		c-0.1,0.1-0.2,0.1-0.3,0.1h-1.1c-0.1,0-0.2,0-0.3-0.1s-0.1-0.2-0.1-0.3v-5.6L184.2,5.7z"/>
	<path d="M190.9,8.8c-0.1,0-0.2,0-0.3-0.1s-0.1-0.2-0.1-0.3V7.9c0-0.8,0.3-1.4,0.8-2c0.5-0.5,1.2-0.8,2-0.8c0.2,0,0.4,0,0.6,0
		c0.8,0,1.4,0.3,1.9,0.8c0.5,0.5,0.8,1.2,0.9,1.9c0,0.6-0.1,1.2-0.4,1.7c-0.3,0.5-0.6,0.9-1,1.3c-0.4,0.5-0.7,1-0.7,1.6v1.4
		c0,0.1,0,0.2-0.1,0.3c-0.1,0.1-0.2,0.1-0.3,0.1h-1.1c-0.1,0-0.2,0-0.3-0.1c-0.1-0.1-0.1-0.2-0.1-0.3v-1.2c0-1.1,0.4-2.1,1.2-3
		c0.3-0.3,0.5-0.6,0.7-0.9c0.1-0.3,0.2-0.6,0.2-0.9c0-0.2-0.1-0.4-0.2-0.5s-0.3-0.2-0.5-0.2h-0.7c-0.2,0-0.4,0.1-0.6,0.2
		c-0.2,0.2-0.2,0.3-0.2,0.6v0.5c0,0.1,0,0.2-0.1,0.3s-0.2,0.1-0.3,0.1H190.9z M194.6,16.7c0,0.1,0,0.2-0.1,0.3
		c-0.1,0.1-0.2,0.1-0.3,0.1h-1.1c-0.1,0-0.2,0-0.3-0.1s-0.1-0.2-0.1-0.3v-1.1c0-0.1,0-0.2,0.1-0.3c0.1-0.1,0.2-0.1,0.3-0.1h1.1
		c0.1,0,0.2,0,0.3,0.1c0.1,0.1,0.1,0.2,0.1,0.3V16.7z"/>
</g>
</svg>
