<?xml version="1.0" encoding="utf-8"?>
<!-- Generator: Adobe Illustrator 23.0.6, SVG Export Plug-In . SVG Version: 6.00 Build 0)  -->
<svg version="1.1" id="Layer_1" xmlns="http://www.w3.org/2000/svg" xmlns:xlink="http://www.w3.org/1999/xlink" x="0px" y="0px"
	 viewBox="0 0 49 28" style="enable-background:new 0 0 49 28;" xml:space="preserve">
<style type="text/css">
	.st0{fill:#B75A76;}
	.st1{fill:none;}
	.st2{fill:none;stroke:#000000;stroke-width:1.5;}
	.st3{fill:none;stroke:#000000;stroke-width:1.5;stroke-linecap:round;}
</style>
<path class="st0" d="M3,2h38c1.1,0,2,0.9,2,2v22c0,1.1-0.9,2-2,2H3c-1.1,0-2-0.9-2-2V4C1,2.9,1.9,2,3,2z"/>
<g transform="translate(3.49 -0.02)">
	<path class="st1" d="M2.5,0h36c1.7,0,3,1.3,3,3v19c0,1.7-1.3,3-3,3h-36c-1.7,0-3-1.3-3-3V3C-0.5,1.4,0.9,0,2.5,0z"/>
	<path class="st2" d="M2.5,0.8h36c1.2,0,2.2,1,2.2,2.2v19c0,1.2-1,2.2-2.2,2.2h-36c-1.2,0-2.2-1-2.2-2.2V3C0.3,1.8,1.3,0.8,2.5,0.8z
		"/>
</g>
<g transform="translate(49.49 12.98) rotate(180)">
	<path class="st1" d="M24.1,0.5c0.6-0.3,1.3-0.3,1.9,0l16.5,8.7c1,0.5,1.3,1.7,0.8,2.7c-0.3,0.7-1,1.1-1.8,1.1H8.5c-1.1,0-2-0.9-2-2
		c0-0.7,0.4-1.4,1.1-1.8L24.1,0.5z"/>
	<path d="M25,1.7c-0.1,0-0.2,0-0.2,0.1L8.3,10.5C8,10.7,8,10.9,8,11.1c0,0.2,0.2,0.4,0.5,0.4h32.9c0.3,0,0.4-0.2,0.5-0.4
		s0-0.4-0.3-0.6L25.2,1.8C25.2,1.8,25.1,1.7,25,1.7 M25,0.2c0.3,0,0.6,0.1,0.9,0.2l16.5,8.7c1.8,1,1.1,3.8-0.9,3.8H8.5
		c-2.1,0-2.8-2.8-0.9-3.8l16.5-8.7C24.3,0.3,24.7,0.2,25,0.2z"/>
</g>
<line class="st2" x1="19.1" y1="9.6" x2="3.7" y2="21.2"/>
<line class="st2" x1="29.1" y1="9.6" x2="44.5" y2="20.4"/>
<path class="st3" d="M27.5,24.4V19"/>
<line class="st3" x1="24.5" y1="24.4" x2="24.5" y2="18.1"/>
<path class="st3" d="M21.6,24.4v-5.5"/>
<path class="st3" d="M18.7,24.4v-4.7"/>
<line class="st3" x1="15.8" y1="24.4" x2="15.8" y2="21.2"/>
<path class="st3" d="M30.2,24.4v-4.3"/>
<path class="st3" d="M32.7,24.4v-3.2"/>
</svg>
