<svg xmlns="http://www.w3.org/2000/svg" width="49" height="28" viewBox="0 0 49 28"><g transform="translate(-0.49 0.02)"><rect width="42" height="26" rx="2" transform="translate(1.49 1.98)" fill="#b75a76"/><g transform="translate(3.49 -0.02)" fill="none" stroke="#000" stroke-width="1.5"><rect width="42" height="25" rx="3" stroke="none"/><rect x="0.75" y="0.75" width="40.5" height="23.5" rx="2.25" fill="none"/></g><g transform="translate(49.49 12.98) rotate(180)" fill="none"><path d="M23.563.5a2,2,0,0,1,1.875,0L41.9,9.233A2,2,0,0,1,40.964,13H8.036A2,2,0,0,1,7.1,9.233Z" stroke="none"/><path d="M 24.5 1.764111518859863 C 24.4185905456543 1.764111518859863 24.33756065368652 1.784271240234375 24.26564025878906 1.822431564331055 L 7.801849365234375 10.55832195281982 C 7.516521453857422 10.70973205566406 7.507949829101562 10.94774150848389 7.551010131835938 11.12075138092041 C 7.594070434570312 11.29376125335693 7.713199615478516 11.50000190734863 8.036209106445312 11.50000190734863 L 40.96379089355469 11.50000190734863 C 41.28680038452148 11.50000190734863 41.40592956542969 11.29376125335693 41.44898986816406 11.12075138092041 C 41.49205017089844 10.94774150848389 41.48347854614258 10.70973205566406 41.19815063476562 10.55832195281982 L 24.73435020446777 1.822431564331055 C 24.66245079040527 1.784281730651855 24.5814094543457 1.764111518859863 24.5 1.764111518859863 M 24.49999618530273 0.2641086578369141 C 24.8221492767334 0.2641086578369141 25.1443042755127 0.3418769836425781 25.43742942810059 0.4974117279052734 L 41.90121841430664 9.233301162719727 C 43.742431640625 10.21027183532715 43.04814147949219 13.00000190734863 40.96379089355469 13.00000190734863 L 8.036209106445312 13.00000190734863 C 5.951858520507812 13.00000190734863 5.257568359375 10.21027183532715 7.098781585693359 9.233301162719727 L 23.56257057189941 0.4974117279052734 C 23.85569000244141 0.3418769836425781 24.17784309387207 0.2641086578369141 24.49999618530273 0.2641086578369141 Z" stroke="none"/></g><line x1="15.383" y2="11.537" transform="translate(4.23 9.614)" fill="none" stroke="#000" stroke-width="1.5"/><line x2="15.383" y2="10.768" transform="translate(29.612 9.614)" fill="none" stroke="#000" stroke-width="1.5"/><path d="M0,9.593V4.124" transform="translate(27.944 14.816)" fill="none" stroke="#000" stroke-linecap="round" stroke-width="1.5"/><line x1="0.028" y1="6.298" transform="translate(24.998 18.075)" fill="none" stroke="#000" stroke-linecap="round" stroke-width="1.5"/><path d="M0,0H5.531" transform="translate(22.106 24.408) rotate(-90)" fill="none" stroke="#000" stroke-linecap="round" stroke-width="1.5"/><path d="M0,0H4.7" transform="translate(19.188 24.408) rotate(-90)" fill="none" stroke="#000" stroke-linecap="round" stroke-width="1.5"/><line y1="3.256" transform="translate(16.269 21.152)" fill="none" stroke="#000" stroke-linecap="round" stroke-width="1.5"/><path d="M0,0H4.306" transform="translate(30.725 24.408) rotate(-90)" fill="none" stroke="#000" stroke-linecap="round" stroke-width="1.5"/><path d="M0,0H3.219" transform="translate(33.19 24.408) rotate(-90)" fill="none" stroke="#000" stroke-linecap="round" stroke-width="1.5"/></g></svg>