<svg xmlns="http://www.w3.org/2000/svg" width="37.649" height="36.95" viewBox="0 0 37.649 36.95"><g transform="translate(0 0.75)"><g transform="translate(0 0.056)"><path d="M53.7,48.584a8.291,8.291,0,0,1-.252,1.775,10,10,0,0,1-.529,1.725q-.529,1.259-3.072,2.669a9.329,9.329,0,0,1-6,1.2,10.894,10.894,0,0,1-1.448-.315q-.805-.227-1.2-.365t-1.4-.516q-1.006-.378-1.234-.454a22.8,22.8,0,0,1-4.406-2.09A37.347,37.347,0,0,1,27.5,46.784a37.358,37.358,0,0,1-5.426-6.659,22.821,22.821,0,0,1-2.09-4.406q-.075-.226-.453-1.234t-.516-1.4q-.138-.39-.365-1.2a10.918,10.918,0,0,1-.315-1.448,9.331,9.331,0,0,1,1.2-6.005q1.41-2.543,2.669-3.071a10,10,0,0,1,1.725-.529,8.315,8.315,0,0,1,1.774-.251,1.415,1.415,0,0,1,.529.075q.453.151,1.334,1.914.277.478.755,1.359t.881,1.6q.4.717.781,1.346.075.1.441.63a7.123,7.123,0,0,1,.541.894,1.642,1.642,0,0,1,.176.717,2.089,2.089,0,0,1-.717,1.259,12.391,12.391,0,0,1-1.561,1.385A15.119,15.119,0,0,0,27.3,33.1a1.917,1.917,0,0,0-.717,1.158,1.706,1.706,0,0,0,.126.567,5.487,5.487,0,0,0,.214.516q.088.177.353.6t.289.478a26.421,26.421,0,0,0,4.381,5.917,26.441,26.441,0,0,0,5.917,4.381c.034.017.193.113.478.289s.487.294.6.353a5.588,5.588,0,0,0,.516.214,1.707,1.707,0,0,0,.567.126,1.917,1.917,0,0,0,1.158-.717,15.187,15.187,0,0,0,1.334-1.561,12.247,12.247,0,0,1,1.385-1.561,2.089,2.089,0,0,1,1.259-.717,1.646,1.646,0,0,1,.717.176,6.971,6.971,0,0,1,.894.541q.529.365.629.441.629.377,1.347.781t1.6.881q.881.479,1.359.755,1.762.881,1.914,1.334A1.412,1.412,0,0,1,53.7,48.584Z" transform="translate(-18.251 -20.587)" fill="#b75a76"/></g><g transform="translate(1.45)"><path d="M55.95,48.5a8.281,8.281,0,0,1-.252,1.774A10.005,10.005,0,0,1,55.169,52q-.529,1.259-3.072,2.669a9.329,9.329,0,0,1-6,1.2,10.9,10.9,0,0,1-1.448-.315q-.805-.226-1.2-.365t-1.4-.516q-1.006-.378-1.234-.453a22.839,22.839,0,0,1-4.406-2.09A37.4,37.4,0,0,1,29.752,46.7a37.4,37.4,0,0,1-5.426-6.659,22.839,22.839,0,0,1-2.09-4.406q-.075-.227-.453-1.234T21.268,33q-.138-.391-.365-1.2a10.9,10.9,0,0,1-.315-1.448,9.33,9.33,0,0,1,1.2-6q1.41-2.544,2.669-3.072a10,10,0,0,1,1.725-.529,8.281,8.281,0,0,1,1.774-.252,1.415,1.415,0,0,1,.529.075q.453.151,1.334,1.914.277.479.755,1.359t.881,1.6q.4.717.781,1.347.075.1.441.629a7.124,7.124,0,0,1,.541.894,1.646,1.646,0,0,1,.176.717,2.089,2.089,0,0,1-.717,1.259,12.29,12.29,0,0,1-1.561,1.385,15.118,15.118,0,0,0-1.561,1.334,1.917,1.917,0,0,0-.717,1.158,1.706,1.706,0,0,0,.126.567,5.588,5.588,0,0,0,.214.516q.088.176.353.6t.289.478A26.421,26.421,0,0,0,34.2,42.253a26.422,26.422,0,0,0,5.917,4.381q.05.025.478.289t.6.353a5.586,5.586,0,0,0,.516.214,1.706,1.706,0,0,0,.567.126,1.917,1.917,0,0,0,1.158-.717,15.118,15.118,0,0,0,1.334-1.561,12.246,12.246,0,0,1,1.385-1.561,2.089,2.089,0,0,1,1.259-.717,1.646,1.646,0,0,1,.717.176,7.124,7.124,0,0,1,.894.541q.529.365.629.441Q50.284,44.6,51,45t1.6.881q.881.479,1.359.755,1.762.881,1.914,1.334A1.413,1.413,0,0,1,55.95,48.5Z" transform="translate(-20.5 -20.5)" fill="none" stroke="#000" stroke-miterlimit="10" stroke-width="1.5"/></g><line y1="1.934" x2="3.867" transform="translate(1.611 7.412)" fill="none" stroke="#000" stroke-linecap="round" stroke-width="1.5"/><line y1="1.934" x2="3.867" transform="translate(2.256 9.99)" fill="none" stroke="#000" stroke-linecap="round" stroke-width="1.5"/><line y1="2.084" x2="4.109" transform="translate(3.303 12.568)" fill="none" stroke="#000" stroke-linecap="round" stroke-width="1.5"/><line y1="1.934" x2="3.867" transform="translate(4.19 15.147)" fill="none" stroke="#000" stroke-linecap="round" stroke-width="1.5"/><path d="M0,1.9,3.716,0" transform="translate(1.763 4.834)" fill="none" stroke="#000" stroke-linecap="round" stroke-width="1.5"/></g></svg>