<svg xmlns="http://www.w3.org/2000/svg" viewBox="0 0 413.84 413.66"><title>icon-phone</title><g id="Layer_2" data-name="Layer 2"><g id="Layer_1-2" data-name="Layer 1"><path d="M141.6,86.14,67.4,11.94l.6-.6a20,20,0,0,1,28.4,0l45.8,45.8a20.16,20.16,0,0,1,0,28.4Z" style="fill:#b75a76"/><path d="M145.6,82.14c-21.6-21.6-43.5-43.2-65.1-64.9-3.1-3.1-5.6-6.2-9.6-9.3v8c7-6.4,15.6-6.1,22,.2,4,3.9,8.1,8,12.1,11.9l31.5,31.5c6.5,6.5,8.1,15.5,1.1,22.6-5.2,5.2,2.9,13.2,8,8a26.29,26.29,0,0,0,.6-37c-3.6-3.8-7.4-7.4-11.1-11.1-11.4-11.4-22.6-23.2-34.3-34.3-10.9-10.3-26.9-10.4-37.4.2a5.67,5.67,0,0,0,0,8q32.4,32.4,64.9,64.9l9.3,9.3C142.7,95.34,150.8,87.24,145.6,82.14Z" style="fill:#b75a76"/><path d="M301.9,298.14l74.2,74.2-18.4,18.4c-43.3,43.3-153.3,3.5-245.6-88.9S-20.1,99.44,23.2,56.14l18.4-18.4,74.2,74.2-4.8,4.8c-24.1,24.1-3,85.2,48.4,136.6s113.7,73.7,137.8,49.6Z" style="fill:#b75a76"/><path d="M297.9,302.14q32.4,32.4,64.8,64.9c3.1,3.1,6.2,6.2,9.2,9.3v-8c-8,7.8-15.2,17-24.2,23.4-12.1,8.6-27.2,11.1-41.7,10.7-42.4-1.1-83.8-22.8-118.4-45.8-46.4-30.7-87.6-70.7-120.3-115.7-25.7-35.4-49.7-77.2-55.1-121.4-2-16.5-1.3-34.4,7.1-49.1,6.4-11,17.4-19.5,26.3-28.5h-8c21.6,21,43.3,43.2,65,64.8,3.1,3.1,6.4,6.1,9.4,9.2v-8c-5,5.2-10.1,10.2-12.9,17.1-3.4,8.3-4.1,17.5-3.2,26.3,2.4,24.2,14,47.2,27.4,67.1a270.74,270.74,0,0,0,63.9,66c19.9,14.6,43,27.7,67.6,32.2,10.3,1.9,21.3,2.4,31.3-.9,8.2-2.7,13.9-7.8,19.8-13.8,5.2-5.2-2.9-13.2-8-8-4.2,4.2-7.9,8.3-13.6,10.4-7.2,2.8-15.3,2.8-22.9,1.9-22.1-2.8-43.2-14.1-61.4-26.5a257.86,257.86,0,0,1-60.9-58.4c-13.9-18.6-26.1-39.7-30.9-62.6-1.8-8.7-2.5-18,.1-26.6,2-6.9,6.5-11.4,11.4-16.3a5.67,5.67,0,0,0,0-8q-32.4-32.4-64.9-64.9l-9.3-9.3a5.67,5.67,0,0,0-8,0c-8.5,8.5-18.3,16.7-25.2,26.6C3.1,73.34-.1,89.94,0,105.64c.3,44.4,22.3,87.9,46,124.2,31.9,48.7,73.4,91.6,120.5,125.8,37.5,27.3,81.5,51.8,128.3,57.2,16.7,1.9,34,.8,49.4-6.2,12.7-5.7,21.8-16.4,31.4-26l4.5-4.5a5.67,5.67,0,0,0,0-8l-64.9-64.9-9.3-9.3C300.8,288.94,292.7,296.94,297.9,302.14Z" style="fill:#b75a76"/><path d="M402.5,345.94l-.6.6-74.2-74.2.6-.6a20.16,20.16,0,0,1,28.4,0l45.8,45.8A20,20,0,0,1,402.5,345.94Z" style="fill:#b75a76"/><path d="M398.5,342.14c-.2.2-.4-.2-.6.8h8c-21.6-22-43.2-43.5-64.8-65.1-3.1-3.1-6.2-6.4-9.2-9.5v8c6-6.4,15.2-6.1,21.6.1l11.4,11.4c10.6,10.6,21.1,21.1,31.6,31.7,6.3,6.3,8.9,15.1,2,22.4-5,5.3,3,13.4,8,8a26.24,26.24,0,0,0-.1-36.5c-3.8-4-7.8-7.8-11.7-11.7-11.3-11.3-22.3-22.8-33.8-33.8a26.17,26.17,0,0,0-37.2.4,5.67,5.67,0,0,0,0,8l64.9,64.9,9.3,9.3a5.67,5.67,0,0,0,8,0c.2-.2.4-.3.6-.5C411.7,344.84,403.7,336.94,398.5,342.14Z" style="fill:#b75a76"/><path d="M380.1,368.34l-64.9-64.9-9.3-9.3c-5.2-5.2-13.2,2.9-8,8L362.8,367l9.3,9.3c5.2,5.2,13.2-2.9,8-8Z" style="fill:#b75a76"/><path d="M406,342.44l-64.9-64.9-9.3-9.3c-5.2-5.2-13.2,2.9-8,8l64.9,64.9,9.3,9.3c5.1,5.2,13.1-2.8,8-8Z" style="fill:#b75a76"/></g></g></svg>