<svg xmlns="http://www.w3.org/2000/svg" width="18" height="18" viewBox="0 0 18 18"><defs><style>.a{fill:#3b444b;}</style></defs><path class="a" d="M18.946,6.289A6.606,6.606,0,0,0,18.528,4.1a4.412,4.412,0,0,0-1.038-1.594A4.412,4.412,0,0,0,15.9,1.472a6.606,6.606,0,0,0-2.185-.418C12.751,1.01,12.444,1,10,1s-2.751.01-3.711.054A6.606,6.606,0,0,0,4.1,1.472,4.412,4.412,0,0,0,2.511,2.511,4.412,4.412,0,0,0,1.472,4.1a6.606,6.606,0,0,0-.418,2.185C1.01,7.249,1,7.556,1,10s.01,2.751.054,3.711A6.606,6.606,0,0,0,1.472,15.9a4.412,4.412,0,0,0,1.038,1.594A4.411,4.411,0,0,0,4.1,18.528a6.606,6.606,0,0,0,2.185.418C7.249,18.99,7.556,19,10,19s2.751-.01,3.711-.054a6.606,6.606,0,0,0,2.185-.418A4.6,4.6,0,0,0,18.528,15.9a6.606,6.606,0,0,0,.418-2.185C18.99,12.751,19,12.444,19,10S18.99,7.249,18.946,6.289Zm-1.62,7.347a4.978,4.978,0,0,1-.31,1.671,2.98,2.98,0,0,1-1.708,1.708,4.979,4.979,0,0,1-1.671.31c-.949.043-1.234.052-3.637.052s-2.688-.009-3.637-.052a4.979,4.979,0,0,1-1.671-.31,2.788,2.788,0,0,1-1.035-.673,2.788,2.788,0,0,1-.673-1.035,4.978,4.978,0,0,1-.31-1.671C2.631,12.688,2.622,12.4,2.622,10s.009-2.688.052-3.637a4.979,4.979,0,0,1,.31-1.671,2.788,2.788,0,0,1,.673-1.035,2.788,2.788,0,0,1,1.035-.673,4.979,4.979,0,0,1,1.671-.31C7.312,2.631,7.6,2.622,10,2.622s2.688.009,3.637.052a4.979,4.979,0,0,1,1.671.31,2.788,2.788,0,0,1,1.035.673,2.788,2.788,0,0,1,.673,1.035,4.979,4.979,0,0,1,.31,1.671c.043.949.052,1.234.052,3.637S17.369,12.688,17.326,13.637ZM10,5.378A4.622,4.622,0,1,0,14.622,10,4.622,4.622,0,0,0,10,5.378ZM10,13a3,3,0,1,1,3-3A3,3,0,0,1,10,13Zm5.884-7.8a1.08,1.08,0,1,1-1.08-1.08A1.08,1.08,0,0,1,15.884,5.2Z" transform="translate(-1 -1)"/></svg>