<?xml version="1.0" encoding="utf-8"?>
<!-- Generator: Adobe Illustrator 23.0.6, SVG Export Plug-In . SVG Version: 6.00 Build 0)  -->
<svg version="1.1" id="Layer_1" xmlns="http://www.w3.org/2000/svg" xmlns:xlink="http://www.w3.org/1999/xlink" x="0px" y="0px"
	 viewBox="0 0 279 33" style="enable-background:new 0 0 279 33;" xml:space="preserve">
<style type="text/css">
	.st0{enable-background:new    ;}
</style>
<g class="st0">
	<path d="M31.9,20.9c-0.4,0.3-0.9,0.4-1.4,0.4c-0.7,0-1.4-0.2-1.9-0.7s-0.9-1.1-1-1.9L25.7,5.6c0-0.1,0-0.2,0.1-0.3s0.2-0.1,0.3-0.1
		h1.1c0.1,0,0.2,0,0.3,0.1c0.1,0.1,0.1,0.2,0.1,0.3l0.5,3.9c0.1,0.5,0.2,0.5,0.3,0L29,5.5c0-0.1,0.1-0.2,0.1-0.3
		c0.1-0.1,0.2-0.1,0.3-0.1h1.2c0.1,0,0.2,0,0.3,0.1C30.9,5.3,31,5.4,31,5.5l0.5,3.9c0.1,0.5,0.2,0.5,0.3,0l0.8-5.8
		c0.1-0.7,0.5-1.4,1-1.9C34.2,1.2,34.8,1,35.6,1c0.5,0,1,0.1,1.4,0.4c0.1,0.1,0.2,0.2,0.2,0.3s0,0.2-0.1,0.4l-0.8,0.8
		C36.1,3,36,3,35.8,2.9c-0.1,0-0.1,0-0.2,0c-0.3,0-0.5,0.1-0.7,0.3c-0.2,0.2-0.3,0.4-0.4,0.7l-1.8,12.9c0,0.1-0.1,0.2-0.1,0.3
		c-0.1,0.1-0.2,0.1-0.3,0.1h-1.2c-0.1,0-0.2,0-0.3-0.1c-0.1-0.1-0.1-0.2-0.1-0.3l-0.5-3.9c-0.1-0.5-0.2-0.5-0.3,0l-0.4,2.9
		c-0.1,0.9-0.1,1.8,0,2.7c0,0.3,0.2,0.5,0.4,0.7c0.2,0.2,0.4,0.3,0.7,0.3c0.1,0,0.2,0,0.2,0c0.2,0,0.3,0,0.4,0.1l0.8,0.8
		c0.1,0.1,0.1,0.2,0.1,0.3S32,20.9,31.9,20.9z"/>
	<path d="M36.8,5.6c0-0.1,0-0.2,0.1-0.3s0.2-0.1,0.3-0.1h5.3c0.1,0,0.2,0,0.3,0.1s0.1,0.2,0.1,0.3v1.1c0,0.1,0,0.2-0.1,0.3
		s-0.2,0.1-0.3,0.1h-3.4c-0.1,0-0.2,0-0.3,0.1s-0.1,0.2-0.1,0.3v2.3c0,0.1,0,0.2,0.1,0.3s0.2,0.1,0.3,0.1h1.5c0.1,0,0.2,0,0.3,0.1
		s0.1,0.2,0.1,0.3v1.1c0,0.1,0,0.2-0.1,0.3s-0.2,0.1-0.3,0.1h-1.5c-0.1,0-0.2,0-0.3,0.1s-0.1,0.2-0.1,0.3v2.3c0,0.1,0,0.2,0.1,0.3
		s0.2,0.1,0.3,0.1h3.4c0.1,0,0.2,0,0.3,0.1c0.1,0.1,0.1,0.2,0.1,0.3v1.1c0,0.1,0,0.2-0.1,0.3s-0.2,0.1-0.3,0.1h-5.3
		c-0.1,0-0.2,0-0.3-0.1s-0.1-0.2-0.1-0.3V5.6z"/>
	<path d="M45.4,17.1c-0.1,0-0.2,0-0.3-0.1S45,16.8,45,16.7V5.6c0-0.1,0-0.2,0.1-0.3s0.2-0.1,0.3-0.1h1.1c0.1,0,0.2,0,0.3,0.1
		s0.1,0.2,0.1,0.3v9.2c0,0.1,0,0.2,0.1,0.3s0.2,0.1,0.3,0.1h3.4c0.1,0,0.2,0,0.3,0.1c0.1,0.1,0.1,0.2,0.1,0.3v1.1
		c0,0.1,0,0.2-0.1,0.3s-0.2,0.1-0.3,0.1H45.4z"/>
	<path d="M55.3,17.1c-0.8,0-1.4-0.3-2-0.8s-0.8-1.2-0.8-2V7.9c0-0.8,0.3-1.4,0.8-2s1.2-0.8,2-0.8h0.6c0.8,0,1.4,0.3,2,0.8
		s0.8,1.2,0.8,2v0.5c0,0.1,0,0.2-0.1,0.3s-0.2,0.1-0.3,0.1h-1.1c-0.1,0-0.2,0-0.3-0.1s-0.1-0.2-0.1-0.3V7.9c0-0.2-0.1-0.4-0.2-0.6
		S56.2,7.1,56,7.1h-0.7c-0.2,0-0.4,0.1-0.6,0.2s-0.2,0.3-0.2,0.6v6.6c0,0.2,0.1,0.4,0.2,0.6s0.3,0.2,0.6,0.2H56
		c0.2,0,0.4-0.1,0.6-0.2s0.2-0.3,0.2-0.6v-0.5c0-0.1,0-0.2,0.1-0.3s0.2-0.1,0.3-0.1h1.1c0.1,0,0.2,0,0.3,0.1s0.1,0.2,0.1,0.3v0.5
		c0,0.8-0.3,1.4-0.8,2s-1.2,0.8-2,0.8H55.3z"/>
	<path d="M63.6,17.1c-0.8,0-1.4-0.3-2-0.8s-0.8-1.2-0.8-2V7.9c0-0.8,0.3-1.4,0.8-2s1.2-0.8,2-0.8h0.6c0.8,0,1.4,0.3,2,0.8
		s0.8,1.2,0.8,2v0.9v4.6v0.9c0,0.8-0.3,1.4-0.8,2s-1.2,0.8-2,0.8H63.6z M64.3,7.1h-0.7c-0.2,0-0.4,0.1-0.6,0.2s-0.2,0.3-0.2,0.6v6.6
		c0,0.2,0.1,0.4,0.2,0.6s0.3,0.2,0.6,0.2h0.7c0.2,0,0.4-0.1,0.6-0.2s0.2-0.3,0.2-0.6v-1V8.8v-1c0-0.2-0.1-0.4-0.2-0.6
		S64.5,7.1,64.3,7.1z"/>
	<path d="M70.1,17.1c-0.1,0-0.2,0-0.3-0.1s-0.1-0.2-0.1-0.3V5.6c0-0.1,0-0.2,0.1-0.3s0.2-0.1,0.3-0.1h1.2c0.2,0,0.3,0.1,0.4,0.3
		l2.2,7.8c0.1,0.2,0.2,0.2,0.2,0l2.2-7.8c0.1-0.2,0.2-0.3,0.4-0.3h1.2c0.1,0,0.2,0,0.3,0.1s0.1,0.2,0.1,0.3v11.2
		c0,0.1,0,0.2-0.1,0.3s-0.2,0.1-0.3,0.1h-1.1c-0.1,0-0.2,0-0.3-0.1s-0.1-0.2-0.1-0.3V13c0-0.3,0-0.4-0.1-0.4c0,0-0.1,0.1-0.2,0.4
		l-1.1,3.9c-0.1,0.2-0.2,0.3-0.4,0.3h-1.3c-0.2,0-0.3-0.1-0.4-0.3l-1.1-3.9c-0.1-0.3-0.1-0.4-0.2-0.4c0,0-0.1,0.1-0.1,0.4v3.8
		c0,0.1,0,0.2-0.1,0.3s-0.2,0.1-0.3,0.1H70.1z"/>
	<path d="M81.4,5.6c0-0.1,0-0.2,0.1-0.3s0.2-0.1,0.3-0.1h5.3c0.1,0,0.2,0,0.3,0.1s0.1,0.2,0.1,0.3v1.1c0,0.1,0,0.2-0.1,0.3
		s-0.2,0.1-0.3,0.1h-3.4c-0.1,0-0.2,0-0.3,0.1s-0.1,0.2-0.1,0.3v2.3c0,0.1,0,0.2,0.1,0.3s0.2,0.1,0.3,0.1h1.5c0.1,0,0.2,0,0.3,0.1
		s0.1,0.2,0.1,0.3v1.1c0,0.1,0,0.2-0.1,0.3s-0.2,0.1-0.3,0.1h-1.5c-0.1,0-0.2,0-0.3,0.1s-0.1,0.2-0.1,0.3v2.3c0,0.1,0,0.2,0.1,0.3
		s0.2,0.1,0.3,0.1h3.4c0.1,0,0.2,0,0.3,0.1c0.1,0.1,0.1,0.2,0.1,0.3v1.1c0,0.1,0,0.2-0.1,0.3s-0.2,0.1-0.3,0.1h-5.3
		c-0.1,0-0.2,0-0.3-0.1s-0.1-0.2-0.1-0.3V5.6z"/>
	<path d="M93.6,7.1c-0.1,0-0.2,0-0.3-0.1s-0.1-0.2-0.1-0.3V5.6c0-0.1,0-0.2,0.1-0.3s0.2-0.1,0.3-0.1h5.3c0.1,0,0.2,0,0.3,0.1
		s0.1,0.2,0.1,0.3v1.1c0,0.1,0,0.2-0.1,0.3S99,7.1,98.9,7.1h-1.3c-0.1,0-0.2,0-0.3,0.1s-0.1,0.2-0.1,0.3v9.2c0,0.1,0,0.2-0.1,0.3
		s-0.2,0.1-0.3,0.1h-1.1c-0.1,0-0.2,0-0.3-0.1s-0.1-0.2-0.1-0.3V7.5c0-0.1,0-0.2-0.1-0.3s-0.2-0.1-0.3-0.1H93.6z"/>
	<path d="M103.8,17.1c-0.8,0-1.4-0.3-2-0.8s-0.8-1.2-0.8-2V7.9c0-0.8,0.3-1.4,0.8-2s1.2-0.8,2-0.8h0.6c0.8,0,1.4,0.3,2,0.8
		s0.8,1.2,0.8,2v0.9v4.6v0.9c0,0.8-0.3,1.4-0.8,2s-1.2,0.8-2,0.8H103.8z M104.5,7.1h-0.7c-0.2,0-0.4,0.1-0.6,0.2S103,7.6,103,7.9
		v6.6c0,0.2,0.1,0.4,0.2,0.6s0.3,0.2,0.6,0.2h0.7c0.2,0,0.4-0.1,0.6-0.2s0.2-0.3,0.2-0.6v-1V8.8v-1c0-0.2-0.1-0.4-0.2-0.6
		S104.7,7.1,104.5,7.1z"/>
	<path d="M125.6,19.9c-0.8,0.9-1.9,1.3-3.1,1.3c-0.7,0-1.4-0.1-1.9-0.3s-1-0.4-1.4-0.7s-0.7-0.6-1-0.9s-0.6-0.6-0.8-0.9
		c-0.3-0.4-0.6-0.8-0.8-1s-0.5-0.3-0.9-0.3h-1.5c-0.1,0-0.2,0-0.3-0.1s-0.1-0.2-0.1-0.3V5.6c0-0.1,0-0.2,0.1-0.3s0.2-0.1,0.3-0.1
		h1.1c0.1,0,0.2,0,0.3,0.1s0.1,0.2,0.1,0.3v9.7c0.5,0,1,0.1,1.4,0.3s0.7,0.5,1,0.8s0.6,0.6,0.8,0.9c0.3,0.4,0.6,0.7,0.9,1
		c0.3,0.3,0.7,0.6,1.1,0.7s1,0.3,1.7,0.3c0.7,0,1.2-0.2,1.6-0.6c0.1-0.1,0.2-0.1,0.3-0.1c0.1,0,0.2,0,0.3,0.1l0.9,0.6
		c0.1,0.1,0.2,0.2,0.2,0.3S125.7,19.8,125.6,19.9z"/>
	<path d="M120.8,5.6c0-0.1,0-0.2,0.1-0.3s0.2-0.1,0.3-0.1h5.3c0.1,0,0.2,0,0.3,0.1s0.1,0.2,0.1,0.3v1.1c0,0.1,0,0.2-0.1,0.3
		s-0.2,0.1-0.3,0.1h-3.4c-0.1,0-0.2,0-0.3,0.1s-0.1,0.2-0.1,0.3v2.3c0,0.1,0,0.2,0.1,0.3s0.2,0.1,0.3,0.1h1.5c0.1,0,0.2,0,0.3,0.1
		s0.1,0.2,0.1,0.3v1.1c0,0.1,0,0.2-0.1,0.3s-0.2,0.1-0.3,0.1h-1.5c-0.1,0-0.2,0-0.3,0.1s-0.1,0.2-0.1,0.3v2.3c0,0.1,0,0.2,0.1,0.3
		s0.2,0.1,0.3,0.1h3.4c0.1,0,0.2,0,0.3,0.1c0.1,0.1,0.1,0.2,0.1,0.3v1.1c0,0.1,0,0.2-0.1,0.3s-0.2,0.1-0.3,0.1h-5.3
		c-0.1,0-0.2,0-0.3-0.1s-0.1-0.2-0.1-0.3V5.6z"/>
	<path d="M130.2,16.8c0,0.1-0.1,0.2-0.1,0.3s-0.2,0.1-0.3,0.1h-1.1c-0.1,0-0.2,0-0.3-0.1s-0.1-0.2-0.1-0.4l2-11.1
		c0-0.1,0.1-0.2,0.1-0.3s0.2-0.1,0.3-0.1h1.2c0.1,0,0.2,0,0.3,0.1s0.1,0.1,0.1,0.3l2,11.1c0,0.1,0,0.3-0.1,0.4s-0.2,0.1-0.3,0.1
		h-1.1c-0.1,0-0.2,0-0.3-0.1s-0.1-0.1-0.1-0.3l-0.3-1.6c0-0.1-0.1-0.2-0.1-0.3c-0.1-0.1-0.2-0.1-0.3-0.1h-0.8c-0.1,0-0.2,0-0.3,0.1
		c-0.1,0.1-0.1,0.2-0.1,0.3L130.2,16.8z M131.3,12.9c0.1,0,0.2,0,0.3-0.1s0.1-0.2,0.1-0.3l-0.2-1c-0.1-0.5-0.2-0.5-0.3,0l-0.2,1
		c0,0.1,0,0.2,0.1,0.3S131.2,12.9,131.3,12.9z"/>
	<path d="M136.1,5.6c0-0.1,0-0.2,0.1-0.3s0.2-0.1,0.3-0.1h3c0.8,0,1.4,0.3,2,0.8s0.8,1.2,0.8,2v0.9v4.6v0.9c0,0.8-0.3,1.4-0.8,2
		s-1.2,0.8-2,0.8h-3c-0.1,0-0.2,0-0.3-0.1s-0.1-0.2-0.1-0.3V5.6z M139.6,7.1h-1.1c-0.1,0-0.2,0-0.3,0.1s-0.1,0.2-0.1,0.3v7.3
		c0,0.1,0,0.2,0.1,0.3s0.2,0.1,0.3,0.1h1.1c0.2,0,0.4-0.1,0.6-0.2s0.2-0.3,0.2-0.6v-1V8.8v-1c0-0.2-0.1-0.4-0.2-0.6
		S139.8,7.1,139.6,7.1z"/>
	<path d="M146.2,16.8l-2-11.1c0-0.1,0-0.3,0.1-0.4s0.2-0.1,0.3-0.1h1.1c0.1,0,0.2,0,0.3,0.1s0.1,0.1,0.1,0.3l1,5.5
		c0.1,0.4,0.2,0.4,0.2,0l1-5.5c0-0.1,0.1-0.2,0.1-0.3s0.2-0.1,0.3-0.1h1.1c0.1,0,0.2,0,0.3,0.1s0.1,0.2,0.1,0.4l-2,11.1
		c0,0.1-0.1,0.2-0.1,0.3s-0.2,0.1-0.3,0.1h-1.2c-0.1,0-0.2,0-0.3-0.1S146.2,16.9,146.2,16.8z"/>
	<path d="M154.2,16.7c0,0.1,0,0.2-0.1,0.3s-0.2,0.1-0.3,0.1h-1.1c-0.1,0-0.2,0-0.3-0.1s-0.1-0.2-0.1-0.3V5.6c0-0.1,0-0.2,0.1-0.3
		s0.2-0.1,0.3-0.1h1.1c0.1,0,0.2,0,0.3,0.1s0.1,0.2,0.1,0.3V16.7z"/>
	<path d="M157.6,17.1c-0.1,0-0.2,0-0.3-0.1s-0.1-0.2-0.1-0.3V5.6c0-0.1,0-0.2,0.1-0.3s0.2-0.1,0.3-0.1h1.1c0.1,0,0.2,0,0.3,0.1
		s0.1,0.2,0.1,0.3v9.2c0,0.1,0,0.2,0.1,0.3s0.2,0.1,0.3,0.1h3.4c0.1,0,0.2,0,0.3,0.1c0.1,0.1,0.1,0.2,0.1,0.3v1.1
		c0,0.1,0,0.2-0.1,0.3s-0.2,0.1-0.3,0.1H157.6z"/>
	<path d="M165.2,17.1c-0.1,0-0.2,0-0.3-0.1s-0.1-0.2-0.1-0.3V5.6c0-0.1,0-0.2,0.1-0.3s0.2-0.1,0.3-0.1h1.1c0.1,0,0.2,0,0.3,0.1
		s0.1,0.2,0.1,0.3v9.2c0,0.1,0,0.2,0.1,0.3s0.2,0.1,0.3,0.1h3.4c0.1,0,0.2,0,0.3,0.1c0.1,0.1,0.1,0.2,0.1,0.3v1.1
		c0,0.1,0,0.2-0.1,0.3s-0.2,0.1-0.3,0.1H165.2z"/>
	<path d="M172.5,5.6c0-0.1,0-0.2,0.1-0.3s0.2-0.1,0.3-0.1h5.3c0.1,0,0.2,0,0.3,0.1s0.1,0.2,0.1,0.3v1.1c0,0.1,0,0.2-0.1,0.3
		s-0.2,0.1-0.3,0.1h-3.4c-0.1,0-0.2,0-0.3,0.1s-0.1,0.2-0.1,0.3v2.3c0,0.1,0,0.2,0.1,0.3s0.2,0.1,0.3,0.1h1.5c0.1,0,0.2,0,0.3,0.1
		s0.1,0.2,0.1,0.3v1.1c0,0.1,0,0.2-0.1,0.3s-0.2,0.1-0.3,0.1h-1.5c-0.1,0-0.2,0-0.3,0.1s-0.1,0.2-0.1,0.3v2.3c0,0.1,0,0.2,0.1,0.3
		s0.2,0.1,0.3,0.1h3.4c0.1,0,0.2,0,0.3,0.1c0.1,0.1,0.1,0.2,0.1,0.3v1.1c0,0.1,0,0.2-0.1,0.3s-0.2,0.1-0.3,0.1h-5.3
		c-0.1,0-0.2,0-0.3-0.1s-0.1-0.2-0.1-0.3V5.6z"/>
	<path d="M179.6,17.1c-0.1,0-0.2,0-0.3-0.1s-0.1-0.2-0.1-0.3v-1.1c0-0.1,0-0.2,0.1-0.3s0.2-0.1,0.3-0.1h1.1c0.1,0,0.2,0,0.3,0.1
		s0.1,0.2,0.1,0.3v2c0,0.1,0,0.2-0.1,0.3c-0.1,0.1-0.2,0.1-0.3,0.1h-0.1c-0.2,0-0.3-0.1-0.4-0.2l-0.2-0.5
		C179.9,17.2,179.8,17.1,179.6,17.1L179.6,17.1z"/>
	<path d="M189.8,17.1c-0.8,0-1.4-0.3-2-0.8s-0.8-1.2-0.8-2V7.9c0-0.8,0.3-1.4,0.8-2s1.2-0.8,2-0.8h0.6c0.8,0,1.4,0.3,2,0.8
		s0.8,1.2,0.8,2v0.5c0,0.1,0,0.2-0.1,0.3s-0.2,0.1-0.3,0.1h-1.1c-0.1,0-0.2,0-0.3-0.1s-0.1-0.2-0.1-0.3V7.9c0-0.2-0.1-0.4-0.2-0.6
		s-0.3-0.2-0.6-0.2h-0.7c-0.2,0-0.4,0.1-0.6,0.2S189,7.6,189,7.9v6.6c0,0.2,0.1,0.4,0.2,0.6s0.3,0.2,0.6,0.2h0.7
		c0.2,0,0.4-0.1,0.6-0.2s0.2-0.3,0.2-0.6v-0.5c0-0.1,0-0.2,0.1-0.3s0.2-0.1,0.3-0.1h1.1c0.1,0,0.2,0,0.3,0.1s0.1,0.2,0.1,0.3v0.5
		c0,0.8-0.3,1.4-0.8,2s-1.2,0.8-2,0.8H189.8z"/>
	<path d="M198.1,17.1c-0.8,0-1.4-0.3-2-0.8s-0.8-1.2-0.8-2V7.9c0-0.8,0.3-1.4,0.8-2s1.2-0.8,2-0.8h0.6c0.8,0,1.4,0.3,2,0.8
		s0.8,1.2,0.8,2v0.9v4.6v0.9c0,0.8-0.3,1.4-0.8,2s-1.2,0.8-2,0.8H198.1z M198.8,7.1h-0.7c-0.2,0-0.4,0.1-0.6,0.2s-0.2,0.3-0.2,0.6
		v6.6c0,0.2,0.1,0.4,0.2,0.6s0.3,0.2,0.6,0.2h0.7c0.2,0,0.4-0.1,0.6-0.2s0.2-0.3,0.2-0.6v-1V8.8v-1c0-0.2-0.1-0.4-0.2-0.6
		S199.1,7.1,198.8,7.1z"/>
	<path d="M204.7,17.1c-0.1,0-0.2,0-0.3-0.1s-0.1-0.2-0.1-0.3V5.6c0-0.1,0-0.2,0.1-0.3s0.2-0.1,0.3-0.1h1.1c0.1,0,0.2,0,0.3,0.1
		s0.1,0.2,0.1,0.3v9.2c0,0.1,0,0.2,0.1,0.3s0.2,0.1,0.3,0.1h3.4c0.1,0,0.2,0,0.3,0.1c0.1,0.1,0.1,0.2,0.1,0.3v1.1
		c0,0.1,0,0.2-0.1,0.3s-0.2,0.1-0.3,0.1H204.7z"/>
	<path d="M214.6,17.1c-0.8,0-1.4-0.3-2-0.8s-0.8-1.2-0.8-2V7.9c0-0.8,0.3-1.4,0.8-2s1.2-0.8,2-0.8h0.6c0.8,0,1.4,0.3,2,0.8
		s0.8,1.2,0.8,2v0.9v4.6v0.9c0,0.8-0.3,1.4-0.8,2s-1.2,0.8-2,0.8H214.6z M215.3,7.1h-0.7c-0.2,0-0.4,0.1-0.6,0.2s-0.2,0.3-0.2,0.6
		v6.6c0,0.2,0.1,0.4,0.2,0.6s0.3,0.2,0.6,0.2h0.7c0.2,0,0.4-0.1,0.6-0.2s0.2-0.3,0.2-0.6v-1V8.8v-1c0-0.2-0.1-0.4-0.2-0.6
		S215.5,7.1,215.3,7.1z"/>
	<path d="M221.1,17.1c-0.1,0-0.2,0-0.3-0.1s-0.1-0.2-0.1-0.3V5.6c0-0.1,0-0.2,0.1-0.3s0.2-0.1,0.3-0.1h3c0.8,0,1.4,0.3,2,0.8
		s0.8,1.2,0.8,2v1.4c0,0.5-0.1,0.9-0.3,1.3s-0.5,0.7-0.8,1c-0.1,0.1-0.2,0.3-0.2,0.5l1.2,4.6c0,0.1,0,0.3-0.1,0.4s-0.2,0.2-0.3,0.2
		h-1c-0.1,0-0.2,0-0.3-0.1s-0.1-0.1-0.2-0.2l-1.1-4.4c0-0.1-0.1-0.2-0.2-0.2s-0.2-0.1-0.3-0.1H223c-0.1,0-0.2,0-0.3,0.1
		s-0.1,0.2-0.1,0.3v4.2c0,0.1,0,0.2-0.1,0.3s-0.2,0.1-0.3,0.1H221.1z M224.1,7.1H223c-0.1,0-0.2,0-0.3,0.1s-0.1,0.2-0.1,0.3v2.3
		c0,0.1,0,0.2,0.1,0.3s0.2,0.1,0.3,0.1h1.1c0.2,0,0.4-0.1,0.6-0.2s0.2-0.3,0.2-0.6V7.9c0-0.2-0.1-0.4-0.2-0.6S224.4,7.1,224.1,7.1z"
		/>
	<path d="M230.3,16.8c0,0.1-0.1,0.2-0.1,0.3s-0.2,0.1-0.3,0.1h-1.1c-0.1,0-0.2,0-0.3-0.1s-0.1-0.2-0.1-0.4l2-11.1
		c0-0.1,0.1-0.2,0.1-0.3s0.2-0.1,0.3-0.1h1.2c0.1,0,0.2,0,0.3,0.1s0.1,0.1,0.1,0.3l2,11.1c0,0.1,0,0.3-0.1,0.4s-0.2,0.1-0.3,0.1
		h-1.1c-0.1,0-0.2,0-0.3-0.1s-0.1-0.1-0.1-0.3l-0.3-1.6c0-0.1-0.1-0.2-0.1-0.3c-0.1-0.1-0.2-0.1-0.3-0.1H231c-0.1,0-0.2,0-0.3,0.1
		c-0.1,0.1-0.1,0.2-0.1,0.3L230.3,16.8z M231.4,12.9c0.1,0,0.2,0,0.3-0.1s0.1-0.2,0.1-0.3l-0.2-1c-0.1-0.5-0.2-0.5-0.3,0l-0.2,1
		c0,0.1,0,0.2,0.1,0.3S231.3,12.9,231.4,12.9z"/>
	<path d="M236.3,5.6c0-0.1,0-0.2,0.1-0.3s0.2-0.1,0.3-0.1h3c0.8,0,1.4,0.3,2,0.8s0.8,1.2,0.8,2v0.9v4.6v0.9c0,0.8-0.3,1.4-0.8,2
		s-1.2,0.8-2,0.8h-3c-0.1,0-0.2,0-0.3-0.1s-0.1-0.2-0.1-0.3V5.6z M239.7,7.1h-1.1c-0.1,0-0.2,0-0.3,0.1s-0.1,0.2-0.1,0.3v7.3
		c0,0.1,0,0.2,0.1,0.3s0.2,0.1,0.3,0.1h1.1c0.2,0,0.4-0.1,0.6-0.2s0.2-0.3,0.2-0.6v-1V8.8v-1c0-0.2-0.1-0.4-0.2-0.6
		S240,7.1,239.7,7.1z"/>
	<path d="M247.8,17.1c-0.8,0-1.4-0.3-2-0.8s-0.8-1.2-0.8-2V7.9c0-0.8,0.3-1.4,0.8-2s1.2-0.8,2-0.8h0.6c0.8,0,1.4,0.3,2,0.8
		s0.8,1.2,0.8,2v0.9v4.6v0.9c0,0.8-0.3,1.4-0.8,2s-1.2,0.8-2,0.8H247.8z M248.5,7.1h-0.7c-0.2,0-0.4,0.1-0.6,0.2s-0.2,0.3-0.2,0.6
		v6.6c0,0.2,0.1,0.4,0.2,0.6s0.3,0.2,0.6,0.2h0.7c0.2,0,0.4-0.1,0.6-0.2s0.2-0.3,0.2-0.6v-1V8.8v-1c0-0.2-0.1-0.4-0.2-0.6
		S248.7,7.1,248.5,7.1z"/>
</g>
</svg>
