<svg xmlns="http://www.w3.org/2000/svg" width="216.161" height="132.035" viewBox="0 0 216.161 132.035"><g transform="translate(0 0.611)"><circle cx="8.698" cy="8.698" r="8.698" transform="translate(97.499 113.183)" fill="#ffe6b1"/><g transform="translate(44.07 96.959)"><path d="M92.144,260.977a.3.3,0,0,1-.1.165.267.267,0,0,1-.177.062h-.689a.273.273,0,0,1-.267-.324l1.276-7.218a.289.289,0,0,1,.1-.165.264.264,0,0,1,.177-.062h.785a.264.264,0,0,1,.177.062.3.3,0,0,1,.1.165L94.8,260.88a.282.282,0,0,1-.062.228.255.255,0,0,1-.2.1h-.689a.267.267,0,0,1-.177-.062.293.293,0,0,1-.1-.165l-.183-1.048a.309.309,0,0,0-.1-.162.258.258,0,0,0-.177-.066H92.6a.258.258,0,0,0-.177.066.309.309,0,0,0-.1.162Zm.712-2.522a.22.22,0,0,0,.173-.075.218.218,0,0,0,.048-.188l-.119-.671q-.1-.466-.205,0l-.119.671a.22.22,0,0,0,.048.188A.222.222,0,0,0,92.856,258.456Z" transform="translate(-90.909 -253.434)" fill="#1a1818"/><path d="M110.606,261.2a.271.271,0,0,1-.274-.273v-7.225a.272.272,0,0,1,.274-.273h.7a.271.271,0,0,1,.273.273v5.977a.272.272,0,0,0,.273.274h2.2a.28.28,0,0,1,.279.279v.695a.26.26,0,0,1-.082.194.273.273,0,0,1-.2.079Z" transform="translate(-98.935 -253.434)" fill="#1a1818"/><path d="M129.816,261.2a.272.272,0,0,1-.274-.273v-7.225a.272.272,0,0,1,.274-.273h.7a.273.273,0,0,1,.273.273v5.977a.272.272,0,0,0,.273.274h2.2a.269.269,0,0,1,.2.082.273.273,0,0,1,.082.2v.695a.263.263,0,0,1-.082.194.273.273,0,0,1-.2.079Z" transform="translate(-106.874 -253.434)" fill="#1a1818"/><path d="M165.659,260.932a.271.271,0,0,1-.273.273h-.7a.271.271,0,0,1-.274-.273v-7.225a.272.272,0,0,1,.274-.273h.78a.265.265,0,0,1,.255.182L167,257.231c.046.125.084.185.117.18s.048-.076.048-.208v-3.5a.273.273,0,0,1,.274-.273h.694a.273.273,0,0,1,.2.08.259.259,0,0,1,.082.193v7.225a.26.26,0,0,1-.082.194.273.273,0,0,1-.2.079h-.773a.277.277,0,0,1-.263-.182l-1.28-3.615c-.046-.125-.083-.185-.114-.18s-.046.076-.046.208Z" transform="translate(-121.283 -253.434)" fill="#1a1818"/><path d="M185.665,260.977a.3.3,0,0,1-.1.165.267.267,0,0,1-.177.062H184.7a.272.272,0,0,1-.267-.324l1.275-7.218a.3.3,0,0,1,.1-.165.266.266,0,0,1,.177-.062h.785a.264.264,0,0,1,.177.062.3.3,0,0,1,.1.165l1.274,7.218a.282.282,0,0,1-.062.228.255.255,0,0,1-.2.1h-.689a.268.268,0,0,1-.177-.062.3.3,0,0,1-.1-.165l-.182-1.048a.309.309,0,0,0-.1-.162.259.259,0,0,0-.177-.066h-.512a.258.258,0,0,0-.177.066.3.3,0,0,0-.1.162Zm.712-2.522a.217.217,0,0,0,.221-.263l-.119-.671q-.1-.466-.205,0l-.119.671a.218.218,0,0,0,.048.188A.221.221,0,0,0,186.377,258.456Z" transform="translate(-129.555 -253.434)" fill="#1a1818"/><path d="M203.049,254.68a.275.275,0,0,1-.274-.273v-.7a.275.275,0,0,1,.274-.273h3.45a.273.273,0,0,1,.2.08.261.261,0,0,1,.082.193v.7a.261.261,0,0,1-.082.193.273.273,0,0,1-.2.08h-.825a.263.263,0,0,0-.194.08.26.26,0,0,0-.08.193v5.978a.263.263,0,0,1-.082.194.273.273,0,0,1-.2.079h-.694a.26.26,0,0,1-.193-.079.264.264,0,0,1-.081-.194v-5.978a.256.256,0,0,0-.082-.193.273.273,0,0,0-.2-.08Z" transform="translate(-137.136 -253.434)" fill="#1a1818"/><path d="M224.129,261.2a1.793,1.793,0,0,1-1.794-1.793v-5.7a.272.272,0,0,1,.274-.273h.7a.272.272,0,0,1,.273.273v5.744a.485.485,0,0,0,.15.359.5.5,0,0,0,.361.148h.484a.5.5,0,0,0,.361-.148.484.484,0,0,0,.151-.359v-5.744a.273.273,0,0,1,.274-.273h.694a.273.273,0,0,1,.2.08.261.261,0,0,1,.082.193v5.7a1.793,1.793,0,0,1-1.794,1.793Z" transform="translate(-145.219 -253.434)" fill="#1a1818"/><path d="M243.343,261.2a.271.271,0,0,1-.274-.273v-7.225a.272.272,0,0,1,.274-.273h1.935a1.793,1.793,0,0,1,1.793,1.793v.922a1.719,1.719,0,0,1-.2.82,1.805,1.805,0,0,1-.541.625.288.288,0,0,0-.107.3l.757,2.972a.276.276,0,0,1-.052.239.258.258,0,0,1-.216.1h-.678a.26.26,0,0,1-.164-.057.292.292,0,0,1-.1-.148l-.723-2.846a.3.3,0,0,0-.1-.154.266.266,0,0,0-.168-.057h-.188a.271.271,0,0,0-.273.273v2.716a.27.27,0,0,1-.273.273Zm1.969-6.524h-.723a.263.263,0,0,0-.194.08.26.26,0,0,0-.08.193v1.469a.272.272,0,0,0,.273.273h.723a.5.5,0,0,0,.361-.148.49.49,0,0,0,.151-.364v-.991a.488.488,0,0,0-.151-.364A.5.5,0,0,0,245.312,254.68Z" transform="translate(-153.787 -253.434)" fill="#1a1818"/><path d="M263.555,260.977a.3.3,0,0,1-.1.165.268.268,0,0,1-.177.062h-.689a.272.272,0,0,1-.267-.324l1.275-7.218a.292.292,0,0,1,.1-.165.265.265,0,0,1,.177-.062h.786a.265.265,0,0,1,.177.062.3.3,0,0,1,.1.165l1.274,7.218a.282.282,0,0,1-.062.228.255.255,0,0,1-.2.1h-.689a.268.268,0,0,1-.177-.062.3.3,0,0,1-.1-.165l-.183-1.048a.3.3,0,0,0-.1-.162.258.258,0,0,0-.177-.066h-.512a.258.258,0,0,0-.177.066.3.3,0,0,0-.1.162Zm.712-2.522a.217.217,0,0,0,.222-.263l-.119-.671q-.1-.466-.206,0l-.119.671a.217.217,0,0,0,.222.263Z" transform="translate(-161.742 -253.434)" fill="#1a1818"/><path d="M282.016,261.2a.272.272,0,0,1-.274-.273v-7.225a.273.273,0,0,1,.274-.273h.7a.273.273,0,0,1,.273.273v5.977a.271.271,0,0,0,.273.274h2.2a.269.269,0,0,1,.2.082.273.273,0,0,1,.082.2v.695a.262.262,0,0,1-.082.194.273.273,0,0,1-.2.079Z" transform="translate(-169.768 -253.434)" fill="#1a1818"/><path d="M302.64,261.2h-.4a1.793,1.793,0,0,1-1.794-1.793V259.1a.265.265,0,0,1,.08-.194.269.269,0,0,1,.194-.08h.7a.272.272,0,0,1,.274.274v.353a.484.484,0,0,0,.151.359.5.5,0,0,0,.361.148h.484a.484.484,0,0,0,.355-.145.523.523,0,0,0,.157-.357,1.48,1.48,0,0,0-.37-.933,6.575,6.575,0,0,0-.842-.82q-.375-.319-.729-.677a3.232,3.232,0,0,1-.58-.8,2.23,2.23,0,0,1-.234-1.013,1.777,1.777,0,0,1,.547-1.267,1.745,1.745,0,0,1,1.264-.509h.4a1.793,1.793,0,0,1,1.793,1.793v.313a.258.258,0,0,1-.083.193.271.271,0,0,1-.2.08h-.695a.272.272,0,0,1-.273-.273v-.348a.49.49,0,0,0-.15-.364.5.5,0,0,0-.361-.148h-.484a.51.51,0,0,0-.512.5,1.493,1.493,0,0,0,.367.934,6.581,6.581,0,0,0,.84.82q.381.319.735.68a3.35,3.35,0,0,1,.58.8,2.23,2.23,0,0,1,.234,1.011,1.8,1.8,0,0,1-.55,1.266A1.737,1.737,0,0,1,302.64,261.2Z" transform="translate(-177.498 -253.434)" fill="#1a1818"/></g><g transform="translate(0 39.281)"><path d="M58.84,200.147a1.476,1.476,0,0,1-1.312,1.631l-3.738.4a1.479,1.479,0,0,1-1.1-.315,1.4,1.4,0,0,1-.557-.994l-1.581-14.618a1.474,1.474,0,0,0-1.631-1.311l-5.148.557a1.472,1.472,0,0,0-1.311,1.629l2.218,20.5A9.893,9.893,0,0,1,36,218.555a17.827,17.827,0,0,1-16.346-7.083,17.145,17.145,0,0,1-3.369-8.642l-.371-3.433a17.036,17.036,0,0,1,1.21-8.579,17.659,17.659,0,0,1,12.81-10.548,1.46,1.46,0,0,1,1.145.279,1.415,1.415,0,0,1,.577,1.023l.407,3.768a1.506,1.506,0,0,1-.246,1.019,1.321,1.321,0,0,1-.851.589,11,11,0,0,0-6.417,4.306,10.33,10.33,0,0,0-1.926,7.416l.371,3.433a10.628,10.628,0,0,0,2.065,5.327,11.2,11.2,0,0,0,4.365,3.526,10.811,10.811,0,0,0,5.663.907,3.276,3.276,0,0,0,2.2-1.184,3.01,3.01,0,0,0,.679-2.319l-4.059-37.509a1.375,1.375,0,0,0-.858-1.193,1.524,1.524,0,0,0-1.519.149.093.093,0,0,1-.058.037,12.705,12.705,0,0,1-1.938,1.294,11.956,11.956,0,0,1-2.95,1.095,1.5,1.5,0,0,1-1.2-.242,1.41,1.41,0,0,1-.61-1.05l-.408-3.77a1.56,1.56,0,0,1,.219-.985,1.325,1.325,0,0,1,.817-.615,5.129,5.129,0,0,0,1.08-.474,9.994,9.994,0,0,0,1-.682,13.427,13.427,0,0,1,2.114-1.376,9.206,9.206,0,0,1,3.373-.923l5.24-.567a1.474,1.474,0,0,1,1.631,1.311l1.578,14.588a1.456,1.456,0,0,0,.545,1.025,1.426,1.426,0,0,0,1.088.317l5.148-.557a1.43,1.43,0,0,0,1-.542,1.466,1.466,0,0,0,.312-1.119l-1.578-14.586a1.4,1.4,0,0,1,.332-1.091,1.476,1.476,0,0,1,1.01-.543l3.738-.4a1.474,1.474,0,0,1,1.631,1.311Z" transform="translate(-15.803 -157.121)" fill="#1a1818"/><path d="M105.651,198.631a1.586,1.586,0,0,1-.47.923,1.425,1.425,0,0,1-.935.395l-3.723.221a1.415,1.415,0,0,1-1.154-.457,1.429,1.429,0,0,1-.4-1.212l4.586-39.422a1.582,1.582,0,0,1,.471-.923,1.431,1.431,0,0,1,.934-.395l4.246-.251a1.433,1.433,0,0,1,.974.282,1.594,1.594,0,0,1,.576.861l9.2,38.607a1.541,1.541,0,0,1-.265,1.251,1.374,1.374,0,0,1-1.077.589l-3.722.219a1.435,1.435,0,0,1-.975-.282,1.575,1.575,0,0,1-.575-.862l-1.319-5.6a1.649,1.649,0,0,0-.575-.846,1.4,1.4,0,0,0-.975-.3l-2.768.164a1.4,1.4,0,0,0-.934.411,1.644,1.644,0,0,0-.471.908Zm3.04-13.858a1.172,1.172,0,0,0,1.117-1.486l-.86-3.593q-.7-2.491-1.108.066l-.431,3.669a1.172,1.172,0,0,0,1.283,1.344Z" transform="translate(-50.167 -156.116)" fill="#1a1818"/><path d="M145.6,197.917a1.473,1.473,0,0,1-1.513-1.445l-.9-39.1a1.473,1.473,0,0,1,1.445-1.513l10.477-.242a9.706,9.706,0,0,1,9.93,9.482l.116,4.992a9.329,9.329,0,0,1-.976,4.462,9.934,9.934,0,0,1-2.85,3.458,1.546,1.546,0,0,0-.548,1.615l4.469,15.991a1.508,1.508,0,0,1-.247,1.3,1.408,1.408,0,0,1-1.159.581l-3.667.084a1.423,1.423,0,0,1-.9-.288,1.574,1.574,0,0,1-.573-.788l-4.27-15.316a1.625,1.625,0,0,0-.557-.82,1.413,1.413,0,0,0-.917-.287l-1.017.024a1.473,1.473,0,0,0-1.445,1.512l.339,14.7a1.473,1.473,0,0,1-1.445,1.513Zm9.847-35.559-3.913.09a1.474,1.474,0,0,0-1.445,1.513l.183,7.951a1.475,1.475,0,0,0,1.513,1.445l3.914-.09a2.7,2.7,0,0,0,1.939-.846,2.66,2.66,0,0,0,.771-1.991l-.124-5.361a2.655,2.655,0,0,0-.861-1.954A2.7,2.7,0,0,0,155.452,162.358Z" transform="translate(-68.443 -155.333)" fill="#1a1818"/><path d="M197.1,196.044l-6.4-39.17a1.439,1.439,0,0,1,.34-1.229,1.423,1.423,0,0,1,1.133-.509l3.729.049a1.429,1.429,0,0,1,.951.351,1.585,1.585,0,0,1,.512.9l3.172,19.337q.4,2.071.862.012l3.671-19.249a1.585,1.585,0,0,1,.536-.887,1.436,1.436,0,0,1,.961-.326l3.729.049a1.372,1.372,0,0,1,1.1.538,1.547,1.547,0,0,1,.324,1.238l-7.412,38.989a1.582,1.582,0,0,1-.535.887,1.425,1.425,0,0,1-.959.327l-4.254-.055a1.429,1.429,0,0,1-.951-.352A1.576,1.576,0,0,1,197.1,196.044Z" transform="translate(-88.068 -155.137)" fill="#1a1818"/><path d="M239.338,157.456a1.473,1.473,0,0,1,1.552-1.4l18.655.931a1.484,1.484,0,0,1,1.041.484,1.4,1.4,0,0,1,.393,1.069l-.189,3.786a1.4,1.4,0,0,1-.5,1.024,1.476,1.476,0,0,1-1.085.378l-11.913-.595a1.474,1.474,0,0,0-1.552,1.405l-.4,7.942a1.473,1.473,0,0,0,1.405,1.551l5.171.258a1.476,1.476,0,0,1,1.04.483,1.409,1.409,0,0,1,.395,1.07l-.189,3.787a1.4,1.4,0,0,1-.5,1.024,1.474,1.474,0,0,1-1.084.378l-5.171-.258a1.473,1.473,0,0,0-1.552,1.4l-.4,7.943a1.47,1.47,0,0,0,1.4,1.551l11.914.595a1.527,1.527,0,0,1,1.434,1.583l-.187,3.756a1.405,1.405,0,0,1-.5,1.025,1.472,1.472,0,0,1-1.083.377l-18.656-.931a1.471,1.471,0,0,1-1.4-1.551Z" transform="translate(-107.369 -155.514)" fill="#1a1818"/><path d="M285.261,160.292a1.448,1.448,0,0,1,.3-1.335,1.39,1.39,0,0,1,1.252-.509l3.592.314a1.444,1.444,0,0,1,1.3,1.1l2.5,9.594q.312,1.017.829.072l4.1-9.017a1.5,1.5,0,0,1,1.5-.86l3.561.312a1.385,1.385,0,0,1,1.144.719,1.514,1.514,0,0,1,.1,1.37l-8.27,18.182a1.4,1.4,0,0,0-.136.483l-1.679,19.222a1.4,1.4,0,0,1-.536,1.006,1.48,1.48,0,0,1-1.1.338l-3.746-.328a1.473,1.473,0,0,1-1.344-1.6l1.7-19.467Z" transform="translate(-127.132 -156.502)" fill="#1a1818"/><path d="M328.1,169.091a1.473,1.473,0,0,1-1.3-1.638l.427-3.768a1.475,1.475,0,0,1,1.637-1.3l3.768.428a1.474,1.474,0,0,1,1.3,1.638l-.808,7.106a1.473,1.473,0,0,1-.549,1.006,1.4,1.4,0,0,1-1.092.326l-.214-.024a1.513,1.513,0,0,1-1.253-.98l-.632-1.808a1.511,1.511,0,0,0-1.253-.98Z" transform="translate(-144.31 -158.127)" fill="#1a1818"/><path d="M352.108,208.751l-2.136-.313a9.709,9.709,0,0,1-8.2-11.015l.246-1.678a1.474,1.474,0,0,1,1.679-1.249l3.752.551a1.472,1.472,0,0,1,1.248,1.678l-.278,1.891a2.618,2.618,0,0,0,.526,2.04,2.7,2.7,0,0,0,1.82,1.077l2.592.38a2.621,2.621,0,0,0,2.02-.5,2.851,2.851,0,0,0,1.119-1.783,8.04,8.04,0,0,0-1.248-5.292,36.282,36.282,0,0,0-3.87-5.054q-1.762-2-3.37-4.2a17.606,17.606,0,0,1-2.48-4.757,12.111,12.111,0,0,1-.453-5.612A9.611,9.611,0,0,1,349,168.559a9.455,9.455,0,0,1,7.171-1.736l2.135.313a9.711,9.711,0,0,1,8.2,11.017l-.246,1.676a1.407,1.407,0,0,1-.594.973,1.481,1.481,0,0,1-1.114.272l-3.722-.546a1.473,1.473,0,0,1-1.248-1.679l.274-1.861a2.659,2.659,0,0,0-.523-2.07,2.7,2.7,0,0,0-1.82-1.077l-2.593-.381a2.765,2.765,0,0,0-3.139,2.281,8.078,8.078,0,0,0,1.233,5.29,35.141,35.141,0,0,0,3.854,5.051q1.792,2.008,3.4,4.221a18.1,18.1,0,0,1,2.479,4.757,12.046,12.046,0,0,1,.456,5.6,9.759,9.759,0,0,1-3.939,6.354A9.4,9.4,0,0,1,352.108,208.751Z" transform="translate(-150.459 -159.918)" fill="#1a1818"/></g><g transform="translate(82.586 113.767)"><g transform="translate(16.482 0)"><path d="M197.347,290.339l-.615.946-1.367,2.124-.526,1.64.084.967.673,1.43,1.094.568,1.535.063.736-.463.757-.925.442-1.136-.042-1.136-.294-1.009-.547-1.009-.526-.8-.568-.841-.606-.694Z" transform="translate(-188.854 -285.379)" fill="#fff"/><path d="M193.361,299.524a8.722,8.722,0,1,1,8.722-8.723A8.732,8.732,0,0,1,193.361,299.524Zm0-16.811a8.089,8.089,0,1,0,8.089,8.089A8.1,8.1,0,0,0,193.361,282.712Z" transform="translate(-184.639 -282.079)" fill="#040505"/><g transform="translate(5.703 4.38)"><path d="M197.334,298.232a2.787,2.787,0,0,1-1.9-.733,3.34,3.34,0,0,1-.745-3.918,8.6,8.6,0,0,1,.68-1.147c.076-.114.151-.227.224-.341q.488-.758.968-1.519c.049-.079.094-.165.141-.254a2.107,2.107,0,0,1,.5-.7l.1-.081.129.013c.161.015.161.015.733.842l.066.094c.32.456.648.935.972,1.423l.157.232a8.6,8.6,0,0,1,.59.963,3.738,3.738,0,0,1-.711,4.389A2.787,2.787,0,0,1,197.334,298.232Zm.051-7.846c-.043.073-.085.152-.126.229-.055.1-.108.2-.165.3q-.481.766-.972,1.525-.113.175-.23.349a7.957,7.957,0,0,0-.631,1.06,2.71,2.71,0,0,0,.6,3.191,2.2,2.2,0,0,0,2.944,0,3.1,3.1,0,0,0,.576-3.643,8.078,8.078,0,0,0-.548-.89l-.159-.237c-.322-.483-.645-.958-.963-1.408l-.069-.1Z" transform="translate(-194.358 -289.543)" fill="#040505"/></g><path d="M193.361,299.524a8.722,8.722,0,1,1,8.722-8.723A8.732,8.732,0,0,1,193.361,299.524Zm0-16.811a8.089,8.089,0,1,0,8.089,8.089A8.1,8.1,0,0,0,193.361,282.712Z" transform="translate(-184.639 -282.079)" fill="#040505" stroke="#040505" stroke-miterlimit="10" stroke-width="0.424"/><g transform="translate(5.703 4.38)"><path d="M197.334,298.232a2.787,2.787,0,0,1-1.9-.733,3.34,3.34,0,0,1-.745-3.918,8.6,8.6,0,0,1,.68-1.147c.076-.114.151-.227.224-.341q.488-.758.968-1.519c.049-.079.094-.165.141-.254a2.107,2.107,0,0,1,.5-.7l.1-.081.129.013c.161.015.161.015.733.842l.066.094c.32.456.648.935.972,1.423l.157.232a8.6,8.6,0,0,1,.59.963,3.738,3.738,0,0,1-.711,4.389A2.787,2.787,0,0,1,197.334,298.232Zm-.241-7.321q-.481.766-.972,1.525-.113.175-.23.349a7.957,7.957,0,0,0-.631,1.06,2.71,2.71,0,0,0,.6,3.191,2.2,2.2,0,0,0,2.944,0,3.1,3.1,0,0,0,.576-3.643,8.078,8.078,0,0,0-.548-.89l-.159-.237c-.322-.483-.645-.958-.963-1.408l-.069-.1-.258-.372c-.043.073-.085.152-.126.229-.055.1-.108.2-.165.3" transform="translate(-194.358 -289.543)" fill="#040505" stroke="#040505" stroke-miterlimit="10" stroke-width="0.424"/></g></g><g transform="translate(0 8.199)"><g transform="translate(8.853)"><path d="M172.006,296.79h7.241a.368.368,0,1,0,0-.737h-7.241a.368.368,0,1,0,0,.737Z" transform="translate(-171.637 -296.053)" fill="#040505"/></g><g transform="translate(2.823)"><path d="M161.73,296.79h4.211a.368.368,0,1,0,0-.737H161.73a.368.368,0,1,0,0,.737Z" transform="translate(-161.361 -296.053)" fill="#040505"/></g><g transform="translate(0 0.039)"><path d="M156.919,296.857H158.1a.369.369,0,0,0,0-.738h-1.181a.369.369,0,1,0,0,.738Z" transform="translate(-156.55 -296.119)" fill="#040505"/></g></g><g transform="translate(33.622 8.304)"><g transform="translate(0 0.039)"><path d="M221.46,296.3h-7.241a.368.368,0,1,0,0,.737h7.241a.368.368,0,1,0,0-.737Z" transform="translate(-213.851 -296.298)" fill="#040505"/></g><g transform="translate(9.059 0.039)"><path d="M233.87,296.3h-4.211a.368.368,0,1,0,0,.737h4.211a.368.368,0,1,0,0-.737Z" transform="translate(-229.29 -296.298)" fill="#040505"/></g><g transform="translate(14.911)"><path d="M240.814,296.232h-1.182a.368.368,0,1,0,0,.737h1.182a.368.368,0,1,0,0-.737Z" transform="translate(-239.264 -296.232)" fill="#040505"/></g></g></g><path d="M257.166,94.314l-5.322,19.252h10.645Z" transform="translate(-113.343 -90.721)" fill="#73918c"/><path d="M271.744,106.728l-4.278,12.619h8.556Z" transform="translate(-119.799 -95.851)" fill="#73918c"/><path d="M140.335,93.789l-5.323,19.252h10.645Z" transform="translate(-65.064 -90.504)" fill="#73918c"/><path d="M127.65,105.61l-4.278,12.619h8.556Z" transform="translate(-60.254 -95.389)" fill="#73918c"/><path d="M196.747,116.439l5.7-11.071L206.2,99.45l7.021,8.359,1.6,2.625,1.87-.362,2.922.241,3.793,6.677Z" transform="translate(-90.575 -92.843)" fill="#a54563"/><path d="M284.706,134.858q.551.106,1.1.217" transform="translate(-126.923 -107.475)" fill="none" stroke="#040505" stroke-linecap="round" stroke-linejoin="round" stroke-width="1.528"/><path d="M123.9,131.7c13.956-2.961,29.632-3.5,44.761-3.482,16.26.019,32.382.547,47.828,3.518" transform="translate(-60.472 -104.731)" fill="none" stroke="#040505" stroke-linecap="round" stroke-linejoin="round" stroke-width="1.528"/><path d="M118.968,135.109q.5-.11,1-.216" transform="translate(-58.434 -107.49)" fill="none" stroke="#040505" stroke-linecap="round" stroke-linejoin="round" stroke-width="1.528"/><path d="M156.495,114.866l11.677-16.153h5.679l3.407-3.223.94-.173,4.648.671,6.307,6.922-5.81,11.513Z" transform="translate(-73.941 -91.135)" fill="#a54563"/><g transform="translate(84.777)"><path d="M209.208,112.244c-14.2-1.6-48.923-.019-48.923-.019L177.66,88.191l12.074,13.252,3.7-5.756,6.356,7.779,3.355-2.013Z" transform="translate(-160.285 -88.191)" fill="none" stroke="#040505" stroke-linecap="round" stroke-linejoin="round" stroke-width="1.222"/></g><path d="M178.613,102.15h5.031l2.8-2.791a1.022,1.022,0,0,1,.867-.288l4.31.623" transform="translate(-83.081 -92.682)" fill="none" stroke="#040505" stroke-linecap="round" stroke-linejoin="round" stroke-width="1.222"/><line x1="5.443" y2="10.548" transform="translate(108.987 12.936)" stroke-width="1.222" stroke="#040505" stroke-linecap="round" stroke-linejoin="round" fill="none"/><path d="M227.618,114.224l1.432,2.241,1.216-.282a2.18,2.18,0,0,1,.732-.043l2.308.225" transform="translate(-103.332 -98.949)" fill="none" stroke="#040505" stroke-linecap="round" stroke-linejoin="round" stroke-width="1.222"/><g transform="translate(140.549 7.489)"><line x1="0.007" y2="17.695" transform="translate(3.654 0.064)" stroke-width="1.069" stroke="#040505" stroke-linecap="round" stroke-linejoin="round" fill="none"/><g transform="translate(1.649)"><line y1="2.893" x2="1.945" transform="translate(0 0.042)" stroke-width="1.069" stroke="#040505" stroke-linecap="round" stroke-linejoin="round" fill="none"/><line x1="1.971" y1="2.936" transform="translate(1.973)" stroke-width="1.069" stroke="#040505" stroke-linecap="round" stroke-linejoin="round" fill="none"/></g><g transform="translate(1.1 2.915)"><line y1="3.697" x2="2.485" transform="translate(0 0.054)" stroke-width="1.069" stroke="#040505" stroke-linecap="round" stroke-linejoin="round" fill="none"/><line x1="2.519" y1="3.753" transform="translate(2.522)" stroke-width="1.069" stroke="#040505" stroke-linecap="round" stroke-linejoin="round" fill="none"/></g><g transform="translate(0.472 5.831)"><line y1="4.616" x2="3.103" transform="translate(0 0.067)" stroke-width="1.069" stroke="#040505" stroke-linecap="round" stroke-linejoin="round" fill="none"/><line x1="3.145" y1="4.686" transform="translate(3.149)" stroke-width="1.069" stroke="#040505" stroke-linecap="round" stroke-linejoin="round" fill="none"/></g><g transform="translate(0 9.232)"><line y1="5.306" x2="3.567" transform="translate(0 0.078)" stroke-width="1.069" stroke="#040505" stroke-linecap="round" stroke-linejoin="round" fill="none"/><line x1="3.615" y1="5.386" transform="translate(3.619)" stroke-width="1.069" stroke="#040505" stroke-linecap="round" stroke-linejoin="round" fill="none"/></g><g transform="translate(8.596 5.702)"><line x1="0.005" y2="13.19" transform="translate(2.795 0.048)" stroke-width="1.069" stroke="#040505" stroke-linecap="round" stroke-linejoin="round" fill="none"/><g transform="translate(1.261)"><line y1="2.156" x2="1.487" transform="translate(0 0.032)" stroke-width="1.069" stroke="#040505" stroke-linecap="round" stroke-linejoin="round" fill="none"/><line x1="1.507" y1="2.189" transform="translate(1.509)" stroke-width="1.069" stroke="#040505" stroke-linecap="round" stroke-linejoin="round" fill="none"/></g><g transform="translate(0.841 2.173)"><line y1="2.756" x2="1.901" transform="translate(0 0.04)" stroke-width="1.069" stroke="#040505" stroke-linecap="round" stroke-linejoin="round" fill="none"/><line x1="1.926" y1="2.798" transform="translate(1.928)" stroke-width="1.069" stroke="#040505" stroke-linecap="round" stroke-linejoin="round" fill="none"/></g><g transform="translate(0.361 4.347)"><line y1="3.441" x2="2.373" transform="translate(0 0.05)" stroke-width="1.069" stroke="#040505" stroke-linecap="round" stroke-linejoin="round" fill="none"/><line x1="2.405" y1="3.493" transform="translate(2.408)" stroke-width="1.069" stroke="#040505" stroke-linecap="round" stroke-linejoin="round" fill="none"/></g><g transform="translate(0 6.882)"><line y1="3.955" x2="2.728" transform="translate(0 0.058)" stroke-width="1.069" stroke="#040505" stroke-linecap="round" stroke-linejoin="round" fill="none"/><line x1="2.765" y1="4.015" transform="translate(2.768)" stroke-width="1.069" stroke="#040505" stroke-linecap="round" stroke-linejoin="round" fill="none"/></g></g></g><g transform="translate(64.996 7.573)"><g transform="translate(6.601)"><line x1="0.006" y2="16.938" transform="translate(3.424 0.061)" stroke-width="1.069" stroke="#040505" stroke-linecap="round" stroke-linejoin="round" fill="none"/><g transform="translate(1.579)"><line x1="1.859" y1="2.77" transform="translate(1.916 0.04)" stroke-width="1.069" stroke="#040505" stroke-linecap="round" stroke-linejoin="round" fill="none"/><line y1="2.809" x2="1.889" fill="none" stroke="#040505" stroke-linecap="round" stroke-linejoin="round" stroke-width="1.069"/></g><g transform="translate(1.053 2.791)"><line x1="2.376" y1="3.541" transform="translate(2.449 0.052)" stroke-width="1.069" stroke="#040505" stroke-linecap="round" stroke-linejoin="round" fill="none"/><line y1="3.591" x2="2.414" fill="none" stroke="#040505" stroke-linecap="round" stroke-linejoin="round" stroke-width="1.069"/></g><g transform="translate(0.451 5.582)"><line x1="2.967" y1="4.421" transform="translate(3.057 0.065)" stroke-width="1.069" stroke="#040505" stroke-linecap="round" stroke-linejoin="round" fill="none"/><line y1="4.483" x2="3.014" fill="none" stroke="#040505" stroke-linecap="round" stroke-linejoin="round" stroke-width="1.069"/></g><g transform="translate(0 8.837)"><line x1="3.41" y1="5.081" transform="translate(3.514 0.074)" stroke-width="1.069" stroke="#040505" stroke-linecap="round" stroke-linejoin="round" fill="none"/><line y1="5.153" x2="3.464" fill="none" stroke="#040505" stroke-linecap="round" stroke-linejoin="round" stroke-width="1.069"/></g></g><g transform="translate(0 5.453)"><line x1="0.005" y2="12.626" transform="translate(2.619 0.046)" stroke-width="1.069" stroke="#040505" stroke-linecap="round" stroke-linejoin="round" fill="none"/><g transform="translate(1.207)"><line x1="1.422" y1="2.065" transform="translate(1.465 0.03)" stroke-width="1.069" stroke="#040505" stroke-linecap="round" stroke-linejoin="round" fill="none"/><line y1="2.094" x2="1.444" fill="none" stroke="#040505" stroke-linecap="round" stroke-linejoin="round" stroke-width="1.069"/></g><g transform="translate(0.805 2.08)"><line x1="1.817" y1="2.639" transform="translate(1.873 0.039)" stroke-width="1.069" stroke="#040505" stroke-linecap="round" stroke-linejoin="round" fill="none"/><line y1="2.677" x2="1.846" fill="none" stroke="#040505" stroke-linecap="round" stroke-linejoin="round" stroke-width="1.069"/></g><g transform="translate(0.345 4.161)"><line x1="2.269" y1="3.296" transform="translate(2.338 0.048)" stroke-width="1.069" stroke="#040505" stroke-linecap="round" stroke-linejoin="round" fill="none"/><line y1="3.342" x2="2.305" fill="none" stroke="#040505" stroke-linecap="round" stroke-linejoin="round" stroke-width="1.069"/></g><g transform="translate(0 6.588)"><line x1="2.608" y1="3.788" transform="translate(2.687 0.055)" stroke-width="1.069" stroke="#040505" stroke-linecap="round" stroke-linejoin="round" fill="none"/><line y1="3.841" x2="2.649" fill="none" stroke="#040505" stroke-linecap="round" stroke-linejoin="round" stroke-width="1.069"/></g></g></g><path d="M175.409,108.231" transform="translate(-81.757 -96.472)" fill="none" stroke="#040505" stroke-linecap="round" stroke-linejoin="round" stroke-width="0.764"/><path d="M162.733,125.709" transform="translate(-76.519 -103.695)" fill="#1a1818"/><path d="M194.6,125.671" transform="translate(-89.686 -103.679)" fill="#1a1818"/><g transform="translate(86.672 11.759)"><line x2="16.365" transform="translate(0 10.044)" stroke-width="1.222" stroke="#1a1818" stroke-linecap="round" stroke-linejoin="round" fill="none"/><line x2="14.007" transform="translate(1.239 8.035)" stroke-width="1.222" stroke="#1a1818" stroke-linecap="round" stroke-linejoin="round" fill="none"/><line x2="11.414" transform="translate(2.713 6.026)" stroke-width="1.222" stroke="#1a1818" stroke-linecap="round" stroke-linejoin="round" fill="none"/><line x2="8.8" transform="translate(4.208 4.017)" stroke-width="1.222" stroke="#1a1818" stroke-linecap="round" stroke-linejoin="round" fill="none"/><line x2="6.305" transform="translate(5.584 2.009)" stroke-width="1.222" stroke="#1a1818" stroke-linecap="round" stroke-linejoin="round" fill="none"/><line x2="3.707" transform="translate(7.064)" stroke-width="1.222" stroke="#1a1818" stroke-linecap="round" stroke-linejoin="round" fill="none"/></g><g transform="translate(109.854 10.076)"><g transform="translate(1.089 9.772)"><line x2="9.834" fill="none" stroke="#1a1818" stroke-linecap="round" stroke-linejoin="round" stroke-width="1.221"/></g><g transform="translate(1.995 7.818)"><line x2="8.023" fill="none" stroke="#1a1818" stroke-linecap="round" stroke-linejoin="round" stroke-width="1.221"/></g><g transform="translate(3.029 5.863)"><line x2="6.263" fill="none" stroke="#1a1818" stroke-linecap="round" stroke-linejoin="round" stroke-width="1.221"/></g><g transform="translate(4.116 3.909)"><line x2="4.452" fill="none" stroke="#1a1818" stroke-linecap="round" stroke-linejoin="round" stroke-width="1.221"/></g><g transform="translate(5.357 1.954)"><line x2="2.485" fill="none" stroke="#1a1818" stroke-linecap="round" stroke-linejoin="round" stroke-width="1.221"/></g><line x2="0.725" transform="translate(6.392)" stroke-width="1.221" stroke="#1a1818" stroke-linecap="round" stroke-linejoin="round" fill="none"/><g transform="translate(0 11.727)"><line x2="11.468" fill="none" stroke="#1a1818" stroke-linecap="round" stroke-linejoin="round" stroke-width="1.221"/></g></g><g transform="translate(100.919 127.11)"><line x2="3.31" fill="none" stroke="#1a1818" stroke-linecap="round" stroke-linejoin="round" stroke-width="1.221"/></g><g transform="translate(99.843 125.156)"><line x2="2.998" fill="none" stroke="#1a1818" stroke-linecap="round" stroke-linejoin="round" stroke-width="1.221"/></g><g transform="translate(99.326 123.201)"><line x2="2.807" fill="none" stroke="#1a1818" stroke-linecap="round" stroke-linejoin="round" stroke-width="1.221"/></g><g transform="translate(99.485 121.247)"><line x2="2.437" fill="none" stroke="#1a1818" stroke-linecap="round" stroke-linejoin="round" stroke-width="1.221"/></g><g transform="translate(99.947 119.292)"><line x2="2.175" fill="none" stroke="#1a1818" stroke-linecap="round" stroke-linejoin="round" stroke-width="1.221"/></g><line x2="1.649" transform="translate(101.192 117.338)" stroke-width="1.221" stroke="#1a1818" stroke-linecap="round" stroke-linejoin="round" fill="none"/><g transform="translate(102.892 129.065)"><line x2="3.991" fill="none" stroke="#1a1818" stroke-linecap="round" stroke-linejoin="round" stroke-width="1.221"/></g></g></svg>