<svg id="Layer_2" data-name="Layer 2" xmlns="http://www.w3.org/2000/svg" width="30.24" height="62.77" viewBox="0 0 30.24 62.77">
  <g id="Ebene_1" data-name="Ebene 1">
    <rect id="Rectangle_180" data-name="Rectangle 180" width="30.24" height="62.77" fill="#17242c"/>
    <rect id="Rectangle_181" data-name="Rectangle 181" width="27.67" height="60.2" transform="translate(1.286 1.286)" fill="#f7f7f7"/>
    <rect id="Rectangle_182" data-name="Rectangle 182" width="25.617" height="58.509" transform="translate(2.313 2.13)" fill="#17242c"/>
    <path id="Path_36" data-name="Path 36" d="M50.508,42.514V36.2H37V57.225h3.425V54.716l6.658-5.053v7.555l3.425-2.731V47.061l6.054-4.6V37.914Zm-3.425,2.6-6.658,5.057V39.625h6.658Z" transform="translate(-28.635 -28.016)" fill="#f7f7f7"/>
    <path id="Path_37" data-name="Path 37" d="M43.686,125.232h0l-3.208-2.677H37.01v20.993h3.423V127.043l3.253,2.715,3.4-2.715v16.5h3.425V124.31l6.054-4.831V114.95Z" transform="translate(-28.643 -88.962)" fill="#f7f7f7"/>
    <text id="_ACHIEVEMINDS" data-name="#ACHIEVEMINDS" transform="translate(6.24 58.56)" fill="#f7f7f7" font-size="2" font-family="GillSans, Gill Sans" letter-spacing="0.1em"><tspan x="0" y="0">#</tspan><tspan y="0" letter-spacing="0.06em">A</tspan><tspan y="0">CHIEVEMINDS</tspan></text>
  </g>
</svg>
