<svg xmlns="http://www.w3.org/2000/svg" xmlns:xlink="http://www.w3.org/1999/xlink" viewBox="0 0 112.66 79.91"><defs><clipPath id="clip-path"><rect x="15.16" y="11.74" width="3.58" height="25.43" style="fill:none;stroke:#17242c;stroke-miterlimit:10"/></clipPath><clipPath id="clip-path-2"><rect x="0.5" y="0.5" width="111.66" height="78.91" style="fill:none;stroke:#17242c;stroke-miterlimit:10"/></clipPath><clipPath id="clip-path-3"><rect x="15.1" y="11.74" width="15.91" height="3.58" style="fill:none;stroke:#17242c;stroke-miterlimit:10"/></clipPath><clipPath id="clip-path-4"><rect x="13.51" y="22.85" width="28.1" height="3.58" transform="translate(-9.19 20.67) rotate(-35.63)" style="fill:none;stroke:#17242c;stroke-miterlimit:10"/></clipPath><clipPath id="clip-path-5"><rect x="0.5" y="0.5" width="111.66" height="78.91" style="fill:none;stroke:#17242c;stroke-miterlimit:10"/></clipPath><clipPath id="clip-path-6"><rect x="27.43" y="11.74" width="3.58" height="25.71" style="fill:none;stroke:#17242c;stroke-miterlimit:10"/></clipPath><clipPath id="clip-path-8"><rect x="19.34" y="46.26" width="21.21" height="3.58" transform="translate(-21.9 25.31) rotate(-34.38)" style="fill:none;stroke:#17242c;stroke-miterlimit:10"/></clipPath><clipPath id="clip-path-10"><rect x="15.15" y="46.99" width="3.58" height="20.86" style="fill:none"/></clipPath><clipPath id="clip-path-11"><rect x="0.5" y="0.5" width="111.66" height="78.91" style="fill:none"/></clipPath><clipPath id="clip-path-12"><rect x="27.43" y="47.61" width="3.58" height="20.25" style="fill:none"/></clipPath><clipPath id="clip-path-14"><rect x="18.58" y="46.94" width="3.58" height="8.57" transform="translate(-30.26 29.41) rotate(-45)" style="fill:none;stroke:#17242c;stroke-miterlimit:10"/></clipPath><clipPath id="clip-path-16"><rect x="7.78" y="8.45" width="34.88" height="68.3" style="fill:none;stroke:#17242c;stroke-miterlimit:10"/></clipPath><clipPath id="clip-path-17"><rect x="27.43" y="47.58" width="3.58" height="25.39" style="fill:none;stroke:#17242c;stroke-miterlimit:10"/></clipPath><clipPath id="clip-path-19"><rect x="15.16" y="46.99" width="3.58" height="25.71" style="fill:none;stroke:#17242c;stroke-miterlimit:10"/></clipPath></defs><title>logo-dark</title><g id="Layer_2" data-name="Layer 2"><g id="Layer_1-2" data-name="Layer 1"><g style="clip-path:url(#clip-path)"><g style="clip-path:url(#clip-path-2)"><line x1="16.95" y1="37.03" x2="16.95" y2="11.87" style="fill:none;stroke:#17242c;stroke-width:25px"/></g><rect x="0.5" y="0.5" width="111.66" height="78.91" style="fill:none;stroke:#17242c;stroke-miterlimit:10"/></g><rect x="15.16" y="11.74" width="3.58" height="25.43" style="fill:none;stroke:#17242c;stroke-miterlimit:10"/><g style="clip-path:url(#clip-path-3)"><line x1="15.25" y1="13.53" x2="30.86" y2="13.53" style="fill:none;stroke:#17242c;stroke-width:25px"/></g><rect x="15.1" y="11.74" width="15.91" height="3.58" style="fill:none;stroke:#17242c;stroke-miterlimit:10"/><g style="clip-path:url(#clip-path-4)"><g style="clip-path:url(#clip-path-5)"><line x1="16.25" y1="32.74" x2="38.87" y2="16.53" style="fill:none;stroke:#17242c;stroke-width:25px"/></g><rect x="0.5" y="0.5" width="111.66" height="78.91" style="fill:none;stroke:#17242c;stroke-miterlimit:10"/></g><rect x="13.51" y="22.85" width="28.1" height="3.58" transform="translate(-9.19 20.67) rotate(-35.63)" style="fill:none;stroke:#17242c;stroke-miterlimit:10"/><g style="clip-path:url(#clip-path-6)"><g style="clip-path:url(#clip-path-5)"><line x1="29.22" y1="37.31" x2="29.22" y2="11.87" style="fill:none;stroke:#17242c;stroke-width:25px"/></g><rect x="0.5" y="0.5" width="111.66" height="78.91" style="fill:none;stroke:#17242c;stroke-miterlimit:10"/></g><rect x="27.43" y="11.74" width="3.58" height="25.71" style="fill:none;stroke:#17242c;stroke-miterlimit:10"/><g style="clip-path:url(#clip-path-8)"><g style="clip-path:url(#clip-path-2)"><line x1="21.31" y1="53.97" x2="38.59" y2="42.14" style="fill:none;stroke:#17242c;stroke-width:25px"/></g><rect x="0.5" y="0.5" width="111.66" height="78.91" style="fill:none;stroke:#17242c;stroke-miterlimit:10"/></g><rect x="19.34" y="46.26" width="21.21" height="3.58" transform="translate(-21.9 25.31) rotate(-34.38)" style="fill:none;stroke:#17242c;stroke-miterlimit:10"/><g style="clip-path:url(#clip-path-10)"><g style="clip-path:url(#clip-path-11)"><line x1="16.94" y1="67.72" x2="16.94" y2="47.12" style="fill:none;stroke:#000;stroke-width:25px"/></g></g><g style="clip-path:url(#clip-path-12)"><g style="clip-path:url(#clip-path-11)"><line x1="29.22" y1="67.72" x2="29.22" y2="47.74" style="fill:none;stroke:#000;stroke-width:25px"/></g></g><g style="clip-path:url(#clip-path-14)"><g style="clip-path:url(#clip-path-5)"><line x1="17.43" y1="48.29" x2="23.3" y2="54.16" style="fill:none;stroke:#17242c;stroke-width:25px"/></g><rect x="0.5" y="0.5" width="111.66" height="78.91" style="fill:none;stroke:#17242c;stroke-miterlimit:10"/></g><rect x="18.58" y="46.94" width="3.58" height="8.57" transform="translate(-30.26 29.41) rotate(-45)" style="fill:none;stroke:#17242c;stroke-miterlimit:10"/><g style="clip-path:url(#clip-path-16)"><line x1="8.05" y1="8.58" x2="8.05" y2="76.48" style="fill:none;stroke:#17242c;stroke-width:2px"/><line x1="42.37" y1="8.58" x2="42.37" y2="76.48" style="fill:none;stroke:#17242c;stroke-width:2px"/><line x1="7.92" y1="8.71" x2="42.51" y2="8.71" style="fill:none;stroke:#17242c;stroke-width:2px"/><line x1="7.92" y1="76.35" x2="42.51" y2="76.35" style="fill:none;stroke:#17242c;stroke-width:2px"/></g><rect x="7.78" y="8.45" width="34.88" height="68.3" style="fill:none;stroke:#17242c;stroke-miterlimit:10"/><g style="clip-path:url(#clip-path-17)"><g style="clip-path:url(#clip-path-5)"><line x1="29.22" y1="72.83" x2="29.22" y2="47.71" style="fill:none;stroke:#17242c;stroke-width:25px"/></g><rect x="0.5" y="0.5" width="111.66" height="78.91" style="fill:none;stroke:#17242c;stroke-miterlimit:10"/></g><rect x="27.43" y="47.58" width="3.58" height="25.39" style="fill:none;stroke:#17242c;stroke-miterlimit:10"/><g style="clip-path:url(#clip-path-19)"><g style="clip-path:url(#clip-path-2)"><line x1="16.95" y1="72.56" x2="16.95" y2="47.12" style="fill:none;stroke:#17242c;stroke-width:25px"/></g><rect x="0.5" y="0.5" width="111.66" height="78.91" style="fill:none;stroke:#17242c;stroke-miterlimit:10"/></g><rect x="15.16" y="46.99" width="3.58" height="25.71" style="fill:none;stroke:#17242c;stroke-miterlimit:10"/></g></g></svg>