<svg xmlns="http://www.w3.org/2000/svg" xmlns:xlink="http://www.w3.org/1999/xlink" viewBox="0 0 384.49 108.32"><defs><clipPath id="clip-path"><rect x="148.88" y="17.79" width="3.58" height="25.43" style="fill:none"/></clipPath><clipPath id="clip-path-2"><rect x="134.22" y="6.55" width="111.66" height="78.91" style="fill:none"/></clipPath><clipPath id="clip-path-3"><rect x="148.82" y="17.79" width="15.91" height="3.58" style="fill:none"/></clipPath><clipPath id="clip-path-4"><rect x="147.23" y="28.9" width="28.1" height="3.58" transform="translate(12.31 99.69) rotate(-35.63)" style="fill:none"/></clipPath><clipPath id="clip-path-5"><rect x="134.22" y="6.55" width="111.66" height="78.91" style="fill:none"/></clipPath><clipPath id="clip-path-6"><rect x="161.15" y="17.79" width="3.58" height="25.71" style="fill:none"/></clipPath><clipPath id="clip-path-8"><rect x="153.06" y="52.32" width="21.21" height="3.58" transform="translate(-1.96 101.87) rotate(-34.38)" style="fill:none"/></clipPath><clipPath id="clip-path-10"><rect x="148.87" y="53.04" width="3.58" height="20.86" style="fill:none"/></clipPath><clipPath id="clip-path-12"><rect x="161.15" y="53.66" width="3.58" height="20.25" style="fill:none"/></clipPath><clipPath id="clip-path-14"><rect x="152.3" y="53" width="3.58" height="8.57" transform="translate(4.63 125.73) rotate(-45)" style="fill:none"/></clipPath><clipPath id="clip-path-16"><rect x="141.5" y="14.5" width="34.88" height="68.3" style="fill:none"/></clipPath><clipPath id="clip-path-17"><rect x="161.15" y="53.63" width="3.58" height="25.39" style="fill:none"/></clipPath><clipPath id="clip-path-19"><rect x="148.88" y="53.04" width="3.58" height="25.71" style="fill:none"/></clipPath></defs><title>logo-nav</title><g id="Layer_2" data-name="Layer 2"><g id="Layer_1-2" data-name="Layer 1"><path d="M143.08,108.32h0a27,27,0,0,1-9.93-1.9,100.51,100.51,0,0,1-10.73-5.13c-10.68-5.59-26.82-14-59.37-22.62-8.06-2.13-15.71-4-23.11-5.86h-.06C26.79,69.55,14.43,66.48,3.68,63c-1.25-.4-2.49-.81-3.68-1.22V0H384.49c-9.42,3.17-19.08,6.29-28.41,9.31h0c-15.38,5-29.91,9.65-42.23,14.17-5.91,2.17-11.79,4.66-18,7.61-5.51,2.64-11.15,5.6-17.24,9-11.33,6.41-22.13,13.31-33.57,20.62C223.35,74.61,200.91,89,174.9,99.38a199.25,199.25,0,0,1-19.16,6.84,46.86,46.86,0,0,1-12.66,2.1Z" style="fill:#d45640"/><g style="clip-path:url(#clip-path)"><g style="clip-path:url(#clip-path-2)"><line x1="150.67" y1="43.08" x2="150.67" y2="17.92" style="fill:none;stroke:#f7f7f7;stroke-width:25px"/></g></g><g style="clip-path:url(#clip-path-3)"><line x1="148.97" y1="19.58" x2="164.58" y2="19.58" style="fill:none;stroke:#f7f7f7;stroke-width:25px"/></g><g style="clip-path:url(#clip-path-4)"><g style="clip-path:url(#clip-path-5)"><line x1="149.97" y1="38.79" x2="172.59" y2="22.58" style="fill:none;stroke:#f7f7f7;stroke-width:25px"/></g></g><g style="clip-path:url(#clip-path-6)"><g style="clip-path:url(#clip-path-5)"><line x1="162.94" y1="43.37" x2="162.94" y2="17.92" style="fill:none;stroke:#f7f7f7;stroke-width:25px"/></g></g><g style="clip-path:url(#clip-path-8)"><g style="clip-path:url(#clip-path-2)"><line x1="155.03" y1="60.02" x2="172.31" y2="48.19" style="fill:none;stroke:#f7f7f7;stroke-width:25px"/></g></g><g style="clip-path:url(#clip-path-10)"><g style="clip-path:url(#clip-path-5)"><line x1="150.66" y1="73.77" x2="150.66" y2="53.17" style="fill:none;stroke:#000;stroke-width:25px"/></g></g><g style="clip-path:url(#clip-path-12)"><g style="clip-path:url(#clip-path-5)"><line x1="162.94" y1="73.77" x2="162.94" y2="53.79" style="fill:none;stroke:#000;stroke-width:25px"/></g></g><g style="clip-path:url(#clip-path-14)"><g style="clip-path:url(#clip-path-5)"><line x1="151.15" y1="54.35" x2="157.02" y2="60.22" style="fill:none;stroke:#f7f7f7;stroke-width:25px"/></g></g><g style="clip-path:url(#clip-path-16)"><line x1="141.77" y1="14.63" x2="141.77" y2="82.54" style="fill:none;stroke:#f7f7f7;stroke-width:2px"/><line x1="176.09" y1="14.63" x2="176.09" y2="82.54" style="fill:none;stroke:#f7f7f7;stroke-width:2px"/><line x1="141.64" y1="14.76" x2="176.23" y2="14.76" style="fill:none;stroke:#f7f7f7;stroke-width:2px"/><line x1="141.64" y1="82.4" x2="176.23" y2="82.4" style="fill:none;stroke:#f7f7f7;stroke-width:2px"/></g><g style="clip-path:url(#clip-path-17)"><g style="clip-path:url(#clip-path-5)"><line x1="162.94" y1="78.89" x2="162.94" y2="53.76" style="fill:none;stroke:#f7f7f7;stroke-width:25px"/></g></g><g style="clip-path:url(#clip-path-19)"><g style="clip-path:url(#clip-path-2)"><line x1="150.67" y1="78.62" x2="150.67" y2="53.17" style="fill:none;stroke:#f7f7f7;stroke-width:25px"/></g></g></g></g></svg>