<svg xmlns="http://www.w3.org/2000/svg" width="222.908" height="208.089" viewBox="0 0 222.908 208.089"><defs><style>.a{fill:#d45640;}</style></defs><g transform="translate(-802 -642.873)"><g transform="translate(822.987 729.445)"><rect class="a" width="13.896" height="5.856" rx="1" transform="translate(41.783)"/><rect class="a" width="13.896" height="5.856" rx="1" transform="translate(62.675 6.996)"/><rect class="a" width="13.896" height="5.856" rx="1" transform="translate(83.567)"/><rect class="a" width="13.896" height="5.856" rx="1" transform="translate(104.458 13.117)"/><rect class="a" width="13.896" height="5.856" rx="1" transform="translate(125.35 13.117)"/><rect class="a" width="13.896" height="5.856" rx="1" transform="translate(188.025 15.74)"/><rect class="a" width="13.896" height="5.856" rx="1" transform="translate(41.783 12.851)"/><rect class="a" width="13.896" height="5.856" rx="1" transform="translate(62.675 19.847)"/><rect class="a" width="13.896" height="5.856" rx="1" transform="translate(83.567 12.851)"/><rect class="a" width="13.896" height="5.856" rx="1" transform="translate(104.458 25.968)"/><rect class="a" width="13.896" height="5.856" rx="1" transform="translate(125.35 25.968)"/><rect class="a" width="13.896" height="5.856" rx="1" transform="translate(188.025 28.592)"/><rect class="a" width="13.896" height="5.856" rx="1" transform="translate(41.783 25.702)"/><rect class="a" width="13.896" height="5.856" rx="1" transform="translate(62.675 32.698)"/><rect class="a" width="13.896" height="5.856" rx="1" transform="translate(83.567 25.702)"/><rect class="a" width="13.896" height="5.856" rx="1" transform="translate(104.458 38.819)"/><rect class="a" width="13.896" height="5.856" rx="1" transform="translate(125.35 38.819)"/><rect class="a" width="13.896" height="5.856" rx="1" transform="translate(167.133 25.702)"/><rect class="a" width="13.896" height="5.856" rx="1" transform="translate(188.025 41.443)"/><rect class="a" width="13.896" height="5.856" rx="1" transform="translate(41.783 38.554)"/><rect class="a" width="13.896" height="5.856" rx="1" transform="translate(62.675 45.549)"/><rect class="a" width="13.896" height="5.856" rx="1" transform="translate(83.567 38.554)"/><rect class="a" width="13.896" height="5.856" rx="1" transform="translate(104.458 51.671)"/><rect class="a" width="13.896" height="5.856" rx="1" transform="translate(125.35 51.671)"/><rect class="a" width="13.896" height="5.856" rx="1" transform="translate(146.242 38.554)"/><rect class="a" width="13.896" height="5.856" rx="1" transform="translate(167.133 38.554)"/><rect class="a" width="13.896" height="5.856" rx="1" transform="translate(188.025 54.294)"/><rect class="a" width="13.896" height="5.856" rx="1" transform="translate(41.783 51.405)"/><rect class="a" width="13.896" height="5.856" rx="1" transform="translate(62.675 58.401)"/><rect class="a" width="13.896" height="5.856" rx="1" transform="translate(83.567 51.405)"/><rect class="a" width="13.896" height="5.856" rx="1" transform="translate(104.458 64.522)"/><rect class="a" width="13.896" height="5.856" rx="1" transform="translate(125.35 64.522)"/><rect class="a" width="13.896" height="5.856" rx="1" transform="translate(146.242 51.405)"/><rect class="a" width="13.896" height="5.856" rx="1" transform="translate(167.133 51.405)"/><rect class="a" width="13.896" height="5.856" rx="1" transform="translate(0 38.897)"/><rect class="a" width="13.896" height="5.856" rx="1" transform="translate(20.892 64.256)"/><rect class="a" width="13.896" height="5.856" rx="1" transform="translate(41.783 64.256)"/><rect class="a" width="13.896" height="5.856" rx="1" transform="translate(62.675 71.252)"/><rect class="a" width="13.896" height="5.856" rx="1" transform="translate(83.567 64.256)"/><rect class="a" width="13.896" height="5.856" rx="1" transform="translate(104.458 77.373)"/><rect class="a" width="13.896" height="5.856" rx="1" transform="translate(125.35 77.373)"/><rect class="a" width="13.896" height="5.856" rx="1" transform="translate(146.242 64.256)"/><rect class="a" width="13.896" height="5.856" rx="1" transform="translate(167.133 64.256)"/><rect class="a" width="13.896" height="5.856" rx="1" transform="translate(0 51.748)"/><rect class="a" width="13.896" height="5.856" rx="1" transform="translate(20.892 77.107)"/><rect class="a" width="13.896" height="5.856" rx="1" transform="translate(41.783 77.107)"/><rect class="a" width="13.896" height="5.856" rx="1" transform="translate(62.675 84.103)"/><rect class="a" width="13.896" height="5.856" rx="1" transform="translate(83.567 77.107)"/><rect class="a" width="13.896" height="5.856" rx="1" transform="translate(104.458 90.224)"/><rect class="a" width="13.896" height="5.856" rx="1" transform="translate(125.35 90.224)"/><rect class="a" width="13.896" height="5.856" rx="1" transform="translate(146.242 77.107)"/><rect class="a" width="13.896" height="5.856" rx="1" transform="translate(167.133 77.107)"/><rect class="a" width="13.896" height="5.856" rx="1" transform="translate(0 64.599)"/><rect class="a" width="13.896" height="5.856" rx="1" transform="translate(20.892 89.959)"/><rect class="a" width="13.896" height="5.856" rx="1" transform="translate(41.783 89.959)"/><rect class="a" width="13.896" height="5.856" rx="1" transform="translate(188.025 67.223)"/><rect class="a" width="13.896" height="5.856" rx="1" transform="translate(0 77.45)"/><rect class="a" width="13.896" height="5.856" rx="1" transform="translate(20.892 102.81)"/><rect class="a" width="13.896" height="5.856" rx="1" transform="translate(41.783 102.81)"/><rect class="a" width="13.896" height="5.856" rx="1" transform="translate(188.025 80.074)"/><rect class="a" width="13.896" height="5.856" rx="1" transform="translate(0 90.302)"/><rect class="a" width="13.896" height="5.856" rx="1" transform="translate(20.892 115.661)"/><rect class="a" width="13.896" height="5.856" rx="1" transform="translate(188.025 92.925)"/></g><g transform="translate(802 642.873)"><rect class="a" width="13.896" height="5.856" rx="1" transform="translate(41.783)"/><rect class="a" width="13.896" height="5.856" rx="1" transform="translate(62.675 6.996)"/><rect class="a" width="13.896" height="5.856" rx="1" transform="translate(83.567)"/><rect class="a" width="13.896" height="5.856" rx="1" transform="translate(104.458 13.117)"/><rect class="a" width="13.896" height="5.856" rx="1" transform="translate(125.35 13.117)"/><rect class="a" width="13.896" height="5.856" rx="1" transform="translate(41.783 12.851)"/><rect class="a" width="13.896" height="5.856" rx="1" transform="translate(62.675 19.847)"/><rect class="a" width="13.896" height="5.856" rx="1" transform="translate(83.567 12.851)"/><rect class="a" width="13.896" height="5.856" rx="1" transform="translate(104.458 25.968)"/><rect class="a" width="13.896" height="5.856" rx="1" transform="translate(125.35 25.968)"/><rect class="a" width="13.896" height="5.856" rx="1" transform="translate(41.783 25.702)"/><rect class="a" width="13.896" height="5.856" rx="1" transform="translate(62.675 32.698)"/><rect class="a" width="13.896" height="5.856" rx="1" transform="translate(83.567 25.702)"/><rect class="a" width="13.896" height="5.856" rx="1" transform="translate(104.458 38.819)"/><rect class="a" width="13.896" height="5.856" rx="1" transform="translate(125.35 38.819)"/><rect class="a" width="13.896" height="5.856" rx="1" transform="translate(167.133 58.702)"/><rect class="a" width="13.896" height="5.856" rx="1" transform="translate(188.025 41.443)"/><rect class="a" width="13.896" height="5.856" rx="1" transform="translate(41.783 38.554)"/><rect class="a" width="13.896" height="5.856" rx="1" transform="translate(62.675 45.549)"/><rect class="a" width="13.896" height="5.856" rx="1" transform="translate(83.567 38.554)"/><rect class="a" width="13.896" height="5.856" rx="1" transform="translate(104.458 51.671)"/><rect class="a" width="13.896" height="5.856" rx="1" transform="translate(125.35 51.671)"/><rect class="a" width="13.896" height="5.856" rx="1" transform="translate(146.242 38.554)"/><rect class="a" width="13.896" height="5.856" rx="1" transform="translate(167.133 71.554)"/><rect class="a" width="13.896" height="5.856" rx="1" transform="translate(188.025 54.294)"/><rect class="a" width="13.896" height="5.856" rx="1" transform="translate(41.783 51.405)"/><rect class="a" width="13.896" height="5.856" rx="1" transform="translate(62.675 58.401)"/><rect class="a" width="13.896" height="5.856" rx="1" transform="translate(83.567 51.405)"/><rect class="a" width="13.896" height="5.856" rx="1" transform="translate(104.458 64.522)"/><rect class="a" width="13.896" height="5.856" rx="1" transform="translate(125.35 64.522)"/><rect class="a" width="13.896" height="5.856" rx="1" transform="translate(146.242 51.405)"/><rect class="a" width="13.896" height="5.856" rx="1" transform="translate(167.133 84.405)"/><rect class="a" width="13.896" height="5.856" rx="1" transform="translate(0 38.897)"/><rect class="a" width="13.896" height="5.856" rx="1" transform="translate(20.892 64.256)"/><rect class="a" width="13.896" height="5.856" rx="1" transform="translate(41.783 64.256)"/><rect class="a" width="13.896" height="5.856" rx="1" transform="translate(62.675 71.252)"/><rect class="a" width="13.896" height="5.856" rx="1" transform="translate(83.567 64.256)"/><rect class="a" width="13.896" height="5.856" rx="1" transform="translate(104.458 77.373)"/><rect class="a" width="13.896" height="5.856" rx="1" transform="translate(125.35 77.373)"/><rect class="a" width="13.896" height="5.856" rx="1" transform="translate(146.242 64.256)"/><rect class="a" width="13.896" height="5.856" rx="1" transform="translate(167.133 97.256)"/><rect class="a" width="13.896" height="5.856" rx="1" transform="translate(0 51.748)"/><rect class="a" width="13.896" height="5.856" rx="1" transform="translate(20.892 77.107)"/><rect class="a" width="13.896" height="5.856" rx="1" transform="translate(41.783 77.107)"/><rect class="a" width="13.896" height="5.856" rx="1" transform="translate(62.675 84.103)"/><rect class="a" width="13.896" height="5.856" rx="1" transform="translate(83.567 77.107)"/><rect class="a" width="13.896" height="5.856" rx="1" transform="translate(104.458 90.224)"/><rect class="a" width="13.896" height="5.856" rx="1" transform="translate(125.35 90.224)"/><rect class="a" width="13.896" height="5.856" rx="1" transform="translate(146.242 77.107)"/><rect class="a" width="13.896" height="5.856" rx="1" transform="translate(167.133 110.107)"/><rect class="a" width="13.896" height="5.856" rx="1" transform="translate(0 64.599)"/><rect class="a" width="13.896" height="5.856" rx="1" transform="translate(20.892 89.959)"/><rect class="a" width="13.896" height="5.856" rx="1" transform="translate(41.783 89.959)"/><rect class="a" width="13.896" height="5.856" rx="1" transform="translate(188.025 67.223)"/><rect class="a" width="13.896" height="5.856" rx="1" transform="translate(0 77.45)"/><rect class="a" width="13.896" height="5.856" rx="1" transform="translate(20.892 102.81)"/><rect class="a" width="13.896" height="5.856" rx="1" transform="translate(41.783 102.81)"/><rect class="a" width="13.896" height="5.856" rx="1" transform="translate(188.025 80.074)"/><rect class="a" width="13.896" height="5.856" rx="1" transform="translate(0 90.302)"/><rect class="a" width="13.896" height="5.856" rx="1" transform="translate(20.892 115.661)"/><rect class="a" width="13.896" height="5.856" rx="1" transform="translate(188.025 92.925)"/></g></g></svg>