<svg xmlns="http://www.w3.org/2000/svg" width="34.48" height="41.006" viewBox="0 0 34.48 41.006"><path d="M62.439,74.725h.96a10.656,10.656,0,0,0,2.718,6.562l-.679.679a.6.6,0,0,0,.85.85l1.089-1.089,0,0a.6.6,0,0,0,0-.85,9.546,9.546,0,0,1,0-13.5,9.589,9.589,0,0,1,8.547-2.626L73.41,71.382A2.834,2.834,0,0,0,71.772,75.7l-.537,1.416a1.681,1.681,0,0,0,2.256,2.127c.96-.43.944-1.334,1.437-2.4a2.834,2.834,0,0,0,1.6-4.227l2.531-6.669A9.548,9.548,0,0,1,80.88,80.874a.6.6,0,0,0,0,.85l.009.009,1.083,1.083a.6.6,0,0,0,.85-.85l-.679-.679a10.656,10.656,0,0,0,2.718-6.562h.96a.6.6,0,0,0,0-1.2h-.96a10.659,10.659,0,0,0-2.718-6.562l.679-.679a.6.6,0,0,0-.85-.85l-.679.679a10.711,10.711,0,0,0-1.8-1.3l.086-.226a1.679,1.679,0,1,0-3.138-1.192l-.083.219a10.694,10.694,0,0,0-1.629-.214v-.963a.6.6,0,0,0-1.2,0V63.4a10.793,10.793,0,0,0-6.561,2.714l-.68-.68a.6.6,0,0,0-.85.85l.679.679A10.658,10.658,0,0,0,63.4,73.524h-.96A.6.6,0,0,0,62.439,74.725ZM73,78.145a.478.478,0,0,1-.641-.6l.363-.956a2.818,2.818,0,0,0,.9.329C73.267,77.735,73.3,78.011,73,78.145Zm1.131-2.386a1.634,1.634,0,1,1,1.634-1.634A1.636,1.636,0,0,1,74.13,75.758Zm4.328-11.6L75.6,71.7a2.816,2.816,0,0,0-.888-.35l2.858-7.531A.477.477,0,0,1,78.458,64.157Zm0,0" transform="translate(-56.89 -56.884)"/><path d="M185.724,314.355H181.4a.6.6,0,0,0,0,1.2h4.327A.6.6,0,0,0,185.724,314.355Zm0,0" transform="translate(-166.32 -289.179)"/><path d="M93.846,5.049a17.241,17.241,0,0,0-23.613-.723.6.6,0,0,0,.8.9A16.038,16.038,0,0,1,93.669,27.865a.6.6,0,0,0,.9.8,17.241,17.241,0,0,0-.723-23.612Zm0,0" transform="translate(-64.415)"/><path d="M49.229,63.68A14.455,14.455,0,1,0,34.773,49.225,14.472,14.472,0,0,0,49.229,63.68Zm0-27.709A13.254,13.254,0,1,1,35.975,49.225,13.268,13.268,0,0,1,49.229,35.971Zm0,0" transform="translate(-31.988 -31.985)"/><path d="M25.888,103.56H21.3V101.6a17.234,17.234,0,0,0,7.078-3.593.6.6,0,0,0-.776-.917,16.039,16.039,0,0,1-22.6-22.6.6.6,0,0,0-.917-.777,17.251,17.251,0,0,0,9.106,27.9v1.953H8.593a3.43,3.43,0,0,0-3.426,3.426,1.625,1.625,0,0,0,1.623,1.623h20.9a1.625,1.625,0,0,0,1.623-1.623A3.43,3.43,0,0,0,25.888,103.56Zm-11.5-1.71a17.456,17.456,0,0,0,2.855.234,17.224,17.224,0,0,0,2.855-.238v1.714h-5.71v-1.71Zm13.3,5.558H6.79a.422.422,0,0,1-.422-.422,2.227,2.227,0,0,1,2.224-2.224H25.888a2.227,2.227,0,0,1,2.224,2.224A.422.422,0,0,1,27.69,107.408Zm0,0" transform="translate(0 -67.603)"/></svg>