<svg xmlns="http://www.w3.org/2000/svg" width="21.151" height="40" viewBox="0 0 21.151 40"><g transform="translate(-0.5 0)"><path d="M118.162,90.03a.6.6,0,0,0,.6-.6v-.783a.6.6,0,0,0-1.192,0v.783A.6.6,0,0,0,118.162,90.03Zm0,0" transform="translate(-107.921 -81.176)"/><path d="M87.231,89.434v-.783a.6.6,0,0,0-1.192,0v.783a.6.6,0,0,0,1.192,0Zm0,0" transform="translate(-78.856 -81.176)"/><path d="M21.055,38.808H20.047a5.048,5.048,0,0,0-2.055-3.491.6.6,0,0,0-.471-.96h-.762l-.429-6.511a.594.594,0,0,0-.043-.185,7.247,7.247,0,0,0-4.555-3.7,31.563,31.563,0,0,0-.685-5.689l.669.028c3.2.127,6.318.128,6.349.128a.6.6,0,0,0,0-1.192c-2.808,0-5.274-.063-7.286-.165q-.087-.363-.174-.7H20.4a.6.6,0,1,0,0-1.192H10.255a4.007,4.007,0,0,0-1.188-1.6A5.25,5.25,0,0,0,12.745,8.57s0-3.285,0-3.3a.651.651,0,0,0,0-.069A5.289,5.289,0,0,0,7.518,0,5.244,5.244,0,0,0,2.256,5.137a2,2,0,0,0-1.287.7,2.024,2.024,0,0,0,0,2.592,2,2,0,0,0,1.322.7,5.331,5.331,0,0,0,2.525,3.932,4,4,0,0,0-2.148,2.554c-.289,1.044-.535,2.087-.732,3.1a.6.6,0,1,0,1.17.228c.191-.984.43-2,.711-3.011a2.82,2.82,0,0,1,2.719-2.067,2.828,2.828,0,0,1,2.719,2.068c.092.331.186.689.28,1.068a16.191,16.191,0,0,1-4.478-.623.6.6,0,0,0-.832.854c.234.234.695.694,5.59.978a31.336,31.336,0,0,1,.715,5.412,20.8,20.8,0,0,0-7.991.063c.025-.775.09-1.59.195-2.43a.6.6,0,0,0-1.183-.147,26.96,26.96,0,0,0-.216,3.3s0,0,0,.007c0,1.049.167,2.525.359,4.233.383,3.41.861,7.654.254,10.637A.6.6,0,0,0,2.533,40h3.1a.6.6,0,0,0,0-1.192h-.2a45.1,45.1,0,0,0,2.71-9.569l4,.925,1.262,4.469a5.033,5.033,0,0,0-1.567.876.6.6,0,1,0,.759.919,3.855,3.855,0,0,1,6.259,2.38H11.228a3.842,3.842,0,0,1,.175-.7.6.6,0,1,0-1.123-.4,5,5,0,0,0-.255,1.1H9.017a.6.6,0,0,0,0,1.192H21.055a.6.6,0,1,0,0-1.191ZM3.447,5.245A4.053,4.053,0,0,1,7.5,1.192h.013a4.086,4.086,0,0,1,4,3.546A8.444,8.444,0,0,1,6.39,3.425a.6.6,0,0,0-.9.288,3.3,3.3,0,0,1-1.028,1.6.964.964,0,0,1-1.012.049V5.245Zm0,3.267A.569.569,0,0,0,3.437,8.4.6.6,0,0,0,2.8,7.908a.6.6,0,0,0-.123.024A.817.817,0,1,1,2.7,6.338l.02.005a.8.8,0,0,1,.168.065,2.151,2.151,0,0,0,2.278-.137A3.908,3.908,0,0,0,6.333,4.779a9.373,9.373,0,0,0,5.22,1.154V8.57A4.053,4.053,0,0,1,7.5,12.624H7.486A4.1,4.1,0,0,1,3.446,8.512Zm9.3,20.57L8.278,28.048l.132-1.054a.6.6,0,0,0-1.183-.148l-.2,1.588s0,.007,0,.011v.009A43.477,43.477,0,0,1,4.143,38.808h-.9c.449-3.085,0-7.056-.361-10.293-.16-1.417-.3-2.669-.34-3.616,5.4-.987,8.366.058,8.394.068l.036.011.012,0a6.355,6.355,0,0,1,4.166,3.051l.417,6.324H14.555L13.184,29.5A.6.6,0,0,0,12.745,29.082Zm0,0" transform="translate(0)"/></g></svg>