<svg xmlns="http://www.w3.org/2000/svg" width="236" height="164" viewBox="0 0 236 164"><defs><style>.a{opacity:0.6;}.b{fill:#f1e9dc;}</style></defs><g class="a" transform="translate(-852 -671)"><circle class="b" cx="2" cy="2" r="2" transform="translate(852 671)"/><circle class="b" cx="2" cy="2" r="2" transform="translate(860 671)"/><circle class="b" cx="2" cy="2" r="2" transform="translate(868 671)"/><circle class="b" cx="2" cy="2" r="2" transform="translate(876 671)"/><circle class="b" cx="2" cy="2" r="2" transform="translate(884 671)"/><circle class="b" cx="2" cy="2" r="2" transform="translate(892 671)"/><circle class="b" cx="2" cy="2" r="2" transform="translate(900 671)"/><circle class="b" cx="2" cy="2" r="2" transform="translate(908 671)"/><circle class="b" cx="2" cy="2" r="2" transform="translate(916 671)"/><circle class="b" cx="2" cy="2" r="2" transform="translate(924 671)"/><circle class="b" cx="2" cy="2" r="2" transform="translate(932 671)"/><circle class="b" cx="2" cy="2" r="2" transform="translate(940 671)"/><circle class="b" cx="2" cy="2" r="2" transform="translate(948 671)"/><circle class="b" cx="2" cy="2" r="2" transform="translate(956 671)"/><circle class="b" cx="2" cy="2" r="2" transform="translate(964 671)"/><circle class="b" cx="2" cy="2" r="2" transform="translate(972 671)"/><circle class="b" cx="2" cy="2" r="2" transform="translate(980 671)"/><circle class="b" cx="2" cy="2" r="2" transform="translate(988 671)"/><circle class="b" cx="2" cy="2" r="2" transform="translate(996 671)"/><circle class="b" cx="2" cy="2" r="2" transform="translate(1004 671)"/><circle class="b" cx="2" cy="2" r="2" transform="translate(1012 671)"/><circle class="b" cx="2" cy="2" r="2" transform="translate(1020 671)"/><circle class="b" cx="2" cy="2" r="2" transform="translate(1028 671)"/><circle class="b" cx="2" cy="2" r="2" transform="translate(1036 671)"/><circle class="b" cx="2" cy="2" r="2" transform="translate(1044 671)"/><circle class="b" cx="2" cy="2" r="2" transform="translate(1052 671)"/><circle class="b" cx="2" cy="2" r="2" transform="translate(1060 671)"/><circle class="b" cx="2" cy="2" r="2" transform="translate(1068 671)"/><circle class="b" cx="2" cy="2" r="2" transform="translate(1076 671)"/><circle class="b" cx="2" cy="2" r="2" transform="translate(1084 671)"/><circle class="b" cx="2" cy="2" r="2" transform="translate(852 679)"/><circle class="b" cx="2" cy="2" r="2" transform="translate(860 679)"/><circle class="b" cx="2" cy="2" r="2" transform="translate(868 679)"/><circle class="b" cx="2" cy="2" r="2" transform="translate(876 679)"/><circle class="b" cx="2" cy="2" r="2" transform="translate(884 679)"/><circle class="b" cx="2" cy="2" r="2" transform="translate(892 679)"/><circle class="b" cx="2" cy="2" r="2" transform="translate(900 679)"/><circle class="b" cx="2" cy="2" r="2" transform="translate(908 679)"/><circle class="b" cx="2" cy="2" r="2" transform="translate(916 679)"/><circle class="b" cx="2" cy="2" r="2" transform="translate(924 679)"/><circle class="b" cx="2" cy="2" r="2" transform="translate(932 679)"/><circle class="b" cx="2" cy="2" r="2" transform="translate(940 679)"/><circle class="b" cx="2" cy="2" r="2" transform="translate(948 679)"/><circle class="b" cx="2" cy="2" r="2" transform="translate(956 679)"/><circle class="b" cx="2" cy="2" r="2" transform="translate(964 679)"/><circle class="b" cx="2" cy="2" r="2" transform="translate(972 679)"/><circle class="b" cx="2" cy="2" r="2" transform="translate(980 679)"/><circle class="b" cx="2" cy="2" r="2" transform="translate(988 679)"/><circle class="b" cx="2" cy="2" r="2" transform="translate(996 679)"/><circle class="b" cx="2" cy="2" r="2" transform="translate(1004 679)"/><circle class="b" cx="2" cy="2" r="2" transform="translate(1012 679)"/><circle class="b" cx="2" cy="2" r="2" transform="translate(1020 679)"/><circle class="b" cx="2" cy="2" r="2" transform="translate(1028 679)"/><circle class="b" cx="2" cy="2" r="2" transform="translate(1036 679)"/><circle class="b" cx="2" cy="2" r="2" transform="translate(1044 679)"/><circle class="b" cx="2" cy="2" r="2" transform="translate(1052 679)"/><circle class="b" cx="2" cy="2" r="2" transform="translate(1060 679)"/><circle class="b" cx="2" cy="2" r="2" transform="translate(1068 679)"/><circle class="b" cx="2" cy="2" r="2" transform="translate(1076 679)"/><circle class="b" cx="2" cy="2" r="2" transform="translate(1084 679)"/><circle class="b" cx="2" cy="2" r="2" transform="translate(852 687)"/><circle class="b" cx="2" cy="2" r="2" transform="translate(860 687)"/><circle class="b" cx="2" cy="2" r="2" transform="translate(868 687)"/><circle class="b" cx="2" cy="2" r="2" transform="translate(876 687)"/><circle class="b" cx="2" cy="2" r="2" transform="translate(884 687)"/><circle class="b" cx="2" cy="2" r="2" transform="translate(892 687)"/><circle class="b" cx="2" cy="2" r="2" transform="translate(900 687)"/><circle class="b" cx="2" cy="2" r="2" transform="translate(908 687)"/><circle class="b" cx="2" cy="2" r="2" transform="translate(916 687)"/><circle class="b" cx="2" cy="2" r="2" transform="translate(924 687)"/><circle class="b" cx="2" cy="2" r="2" transform="translate(932 687)"/><circle class="b" cx="2" cy="2" r="2" transform="translate(940 687)"/><circle class="b" cx="2" cy="2" r="2" transform="translate(948 687)"/><circle class="b" cx="2" cy="2" r="2" transform="translate(956 687)"/><circle class="b" cx="2" cy="2" r="2" transform="translate(964 687)"/><circle class="b" cx="2" cy="2" r="2" transform="translate(972 687)"/><circle class="b" cx="2" cy="2" r="2" transform="translate(980 687)"/><circle class="b" cx="2" cy="2" r="2" transform="translate(988 687)"/><circle class="b" cx="2" cy="2" r="2" transform="translate(996 687)"/><circle class="b" cx="2" cy="2" r="2" transform="translate(1004 687)"/><circle class="b" cx="2" cy="2" r="2" transform="translate(1012 687)"/><circle class="b" cx="2" cy="2" r="2" transform="translate(1020 687)"/><circle class="b" cx="2" cy="2" r="2" transform="translate(1028 687)"/><circle class="b" cx="2" cy="2" r="2" transform="translate(1036 687)"/><circle class="b" cx="2" cy="2" r="2" transform="translate(1044 687)"/><circle class="b" cx="2" cy="2" r="2" transform="translate(1052 687)"/><circle class="b" cx="2" cy="2" r="2" transform="translate(1060 687)"/><circle class="b" cx="2" cy="2" r="2" transform="translate(1068 687)"/><circle class="b" cx="2" cy="2" r="2" transform="translate(1076 687)"/><circle class="b" cx="2" cy="2" r="2" transform="translate(1084 687)"/><circle class="b" cx="2" cy="2" r="2" transform="translate(852 695)"/><circle class="b" cx="2" cy="2" r="2" transform="translate(860 695)"/><circle class="b" cx="2" cy="2" r="2" transform="translate(868 695)"/><circle class="b" cx="2" cy="2" r="2" transform="translate(876 695)"/><circle class="b" cx="2" cy="2" r="2" transform="translate(884 695)"/><circle class="b" cx="2" cy="2" r="2" transform="translate(892 695)"/><circle class="b" cx="2" cy="2" r="2" transform="translate(900 695)"/><circle class="b" cx="2" cy="2" r="2" transform="translate(908 695)"/><circle class="b" cx="2" cy="2" r="2" transform="translate(916 695)"/><circle class="b" cx="2" cy="2" r="2" transform="translate(924 695)"/><circle class="b" cx="2" cy="2" r="2" transform="translate(932 695)"/><circle class="b" cx="2" cy="2" r="2" transform="translate(940 695)"/><circle class="b" cx="2" cy="2" r="2" transform="translate(948 695)"/><circle class="b" cx="2" cy="2" r="2" transform="translate(956 695)"/><circle class="b" cx="2" cy="2" r="2" transform="translate(964 695)"/><circle class="b" cx="2" cy="2" r="2" transform="translate(972 695)"/><circle class="b" cx="2" cy="2" r="2" transform="translate(980 695)"/><circle class="b" cx="2" cy="2" r="2" transform="translate(988 695)"/><circle class="b" cx="2" cy="2" r="2" transform="translate(996 695)"/><circle class="b" cx="2" cy="2" r="2" transform="translate(1004 695)"/><circle class="b" cx="2" cy="2" r="2" transform="translate(1012 695)"/><circle class="b" cx="2" cy="2" r="2" transform="translate(1020 695)"/><circle class="b" cx="2" cy="2" r="2" transform="translate(1028 695)"/><circle class="b" cx="2" cy="2" r="2" transform="translate(1036 695)"/><circle class="b" cx="2" cy="2" r="2" transform="translate(1044 695)"/><circle class="b" cx="2" cy="2" r="2" transform="translate(1052 695)"/><circle class="b" cx="2" cy="2" r="2" transform="translate(1060 695)"/><circle class="b" cx="2" cy="2" r="2" transform="translate(1068 695)"/><circle class="b" cx="2" cy="2" r="2" transform="translate(1076 695)"/><circle class="b" cx="2" cy="2" r="2" transform="translate(1084 695)"/><circle class="b" cx="2" cy="2" r="2" transform="translate(852 703)"/><circle class="b" cx="2" cy="2" r="2" transform="translate(860 703)"/><circle class="b" cx="2" cy="2" r="2" transform="translate(868 703)"/><circle class="b" cx="2" cy="2" r="2" transform="translate(876 703)"/><circle class="b" cx="2" cy="2" r="2" transform="translate(884 703)"/><circle class="b" cx="2" cy="2" r="2" transform="translate(892 703)"/><circle class="b" cx="2" cy="2" r="2" transform="translate(900 703)"/><circle class="b" cx="2" cy="2" r="2" transform="translate(908 703)"/><circle class="b" cx="2" cy="2" r="2" transform="translate(916 703)"/><circle class="b" cx="2" cy="2" r="2" transform="translate(924 703)"/><circle class="b" cx="2" cy="2" r="2" transform="translate(932 703)"/><circle class="b" cx="2" cy="2" r="2" transform="translate(940 703)"/><circle class="b" cx="2" cy="2" r="2" transform="translate(948 703)"/><circle class="b" cx="2" cy="2" r="2" transform="translate(956 703)"/><circle class="b" cx="2" cy="2" r="2" transform="translate(964 703)"/><circle class="b" cx="2" cy="2" r="2" transform="translate(972 703)"/><circle class="b" cx="2" cy="2" r="2" transform="translate(980 703)"/><circle class="b" cx="2" cy="2" r="2" transform="translate(988 703)"/><circle class="b" cx="2" cy="2" r="2" transform="translate(996 703)"/><circle class="b" cx="2" cy="2" r="2" transform="translate(1004 703)"/><circle class="b" cx="2" cy="2" r="2" transform="translate(1012 703)"/><circle class="b" cx="2" cy="2" r="2" transform="translate(1020 703)"/><circle class="b" cx="2" cy="2" r="2" transform="translate(1028 703)"/><circle class="b" cx="2" cy="2" r="2" transform="translate(1036 703)"/><circle class="b" cx="2" cy="2" r="2" transform="translate(1044 703)"/><circle class="b" cx="2" cy="2" r="2" transform="translate(1052 703)"/><circle class="b" cx="2" cy="2" r="2" transform="translate(1060 703)"/><circle class="b" cx="2" cy="2" r="2" transform="translate(1068 703)"/><circle class="b" cx="2" cy="2" r="2" transform="translate(1076 703)"/><circle class="b" cx="2" cy="2" r="2" transform="translate(1084 703)"/><circle class="b" cx="2" cy="2" r="2" transform="translate(852 711)"/><circle class="b" cx="2" cy="2" r="2" transform="translate(860 711)"/><circle class="b" cx="2" cy="2" r="2" transform="translate(868 711)"/><circle class="b" cx="2" cy="2" r="2" transform="translate(876 711)"/><circle class="b" cx="2" cy="2" r="2" transform="translate(884 711)"/><circle class="b" cx="2" cy="2" r="2" transform="translate(892 711)"/><circle class="b" cx="2" cy="2" r="2" transform="translate(900 711)"/><circle class="b" cx="2" cy="2" r="2" transform="translate(908 711)"/><circle class="b" cx="2" cy="2" r="2" transform="translate(916 711)"/><circle class="b" cx="2" cy="2" r="2" transform="translate(924 711)"/><circle class="b" cx="2" cy="2" r="2" transform="translate(932 711)"/><circle class="b" cx="2" cy="2" r="2" transform="translate(940 711)"/><circle class="b" cx="2" cy="2" r="2" transform="translate(948 711)"/><circle class="b" cx="2" cy="2" r="2" transform="translate(956 711)"/><circle class="b" cx="2" cy="2" r="2" transform="translate(964 711)"/><circle class="b" cx="2" cy="2" r="2" transform="translate(972 711)"/><circle class="b" cx="2" cy="2" r="2" transform="translate(980 711)"/><circle class="b" cx="2" cy="2" r="2" transform="translate(988 711)"/><circle class="b" cx="2" cy="2" r="2" transform="translate(996 711)"/><circle class="b" cx="2" cy="2" r="2" transform="translate(1004 711)"/><circle class="b" cx="2" cy="2" r="2" transform="translate(1012 711)"/><circle class="b" cx="2" cy="2" r="2" transform="translate(1020 711)"/><circle class="b" cx="2" cy="2" r="2" transform="translate(1028 711)"/><circle class="b" cx="2" cy="2" r="2" transform="translate(1036 711)"/><circle class="b" cx="2" cy="2" r="2" transform="translate(1044 711)"/><circle class="b" cx="2" cy="2" r="2" transform="translate(1052 711)"/><circle class="b" cx="2" cy="2" r="2" transform="translate(1060 711)"/><circle class="b" cx="2" cy="2" r="2" transform="translate(1068 711)"/><circle class="b" cx="2" cy="2" r="2" transform="translate(1076 711)"/><circle class="b" cx="2" cy="2" r="2" transform="translate(1084 711)"/><circle class="b" cx="2" cy="2" r="2" transform="translate(852 719)"/><circle class="b" cx="2" cy="2" r="2" transform="translate(860 719)"/><circle class="b" cx="2" cy="2" r="2" transform="translate(868 719)"/><circle class="b" cx="2" cy="2" r="2" transform="translate(876 719)"/><circle class="b" cx="2" cy="2" r="2" transform="translate(884 719)"/><circle class="b" cx="2" cy="2" r="2" transform="translate(892 719)"/><circle class="b" cx="2" cy="2" r="2" transform="translate(900 719)"/><circle class="b" cx="2" cy="2" r="2" transform="translate(908 719)"/><circle class="b" cx="2" cy="2" r="2" transform="translate(916 719)"/><circle class="b" cx="2" cy="2" r="2" transform="translate(924 719)"/><circle class="b" cx="2" cy="2" r="2" transform="translate(932 719)"/><circle class="b" cx="2" cy="2" r="2" transform="translate(940 719)"/><circle class="b" cx="2" cy="2" r="2" transform="translate(948 719)"/><circle class="b" cx="2" cy="2" r="2" transform="translate(956 719)"/><circle class="b" cx="2" cy="2" r="2" transform="translate(964 719)"/><circle class="b" cx="2" cy="2" r="2" transform="translate(972 719)"/><circle class="b" cx="2" cy="2" r="2" transform="translate(980 719)"/><circle class="b" cx="2" cy="2" r="2" transform="translate(988 719)"/><circle class="b" cx="2" cy="2" r="2" transform="translate(996 719)"/><circle class="b" cx="2" cy="2" r="2" transform="translate(1004 719)"/><circle class="b" cx="2" cy="2" r="2" transform="translate(1012 719)"/><circle class="b" cx="2" cy="2" r="2" transform="translate(1020 719)"/><circle class="b" cx="2" cy="2" r="2" transform="translate(1028 719)"/><circle class="b" cx="2" cy="2" r="2" transform="translate(1036 719)"/><circle class="b" cx="2" cy="2" r="2" transform="translate(1044 719)"/><circle class="b" cx="2" cy="2" r="2" transform="translate(1052 719)"/><circle class="b" cx="2" cy="2" r="2" transform="translate(1060 719)"/><circle class="b" cx="2" cy="2" r="2" transform="translate(1068 719)"/><circle class="b" cx="2" cy="2" r="2" transform="translate(1076 719)"/><circle class="b" cx="2" cy="2" r="2" transform="translate(1084 719)"/><circle class="b" cx="2" cy="2" r="2" transform="translate(852 727)"/><circle class="b" cx="2" cy="2" r="2" transform="translate(860 727)"/><circle class="b" cx="2" cy="2" r="2" transform="translate(868 727)"/><circle class="b" cx="2" cy="2" r="2" transform="translate(876 727)"/><circle class="b" cx="2" cy="2" r="2" transform="translate(884 727)"/><circle class="b" cx="2" cy="2" r="2" transform="translate(892 727)"/><circle class="b" cx="2" cy="2" r="2" transform="translate(900 727)"/><circle class="b" cx="2" cy="2" r="2" transform="translate(908 727)"/><circle class="b" cx="2" cy="2" r="2" transform="translate(916 727)"/><circle class="b" cx="2" cy="2" r="2" transform="translate(924 727)"/><circle class="b" cx="2" cy="2" r="2" transform="translate(932 727)"/><circle class="b" cx="2" cy="2" r="2" transform="translate(940 727)"/><circle class="b" cx="2" cy="2" r="2" transform="translate(948 727)"/><circle class="b" cx="2" cy="2" r="2" transform="translate(956 727)"/><circle class="b" cx="2" cy="2" r="2" transform="translate(964 727)"/><circle class="b" cx="2" cy="2" r="2" transform="translate(972 727)"/><circle class="b" cx="2" cy="2" r="2" transform="translate(980 727)"/><circle class="b" cx="2" cy="2" r="2" transform="translate(988 727)"/><circle class="b" cx="2" cy="2" r="2" transform="translate(996 727)"/><circle class="b" cx="2" cy="2" r="2" transform="translate(1004 727)"/><circle class="b" cx="2" cy="2" r="2" transform="translate(1012 727)"/><circle class="b" cx="2" cy="2" r="2" transform="translate(1020 727)"/><circle class="b" cx="2" cy="2" r="2" transform="translate(1028 727)"/><circle class="b" cx="2" cy="2" r="2" transform="translate(1036 727)"/><circle class="b" cx="2" cy="2" r="2" transform="translate(1044 727)"/><circle class="b" cx="2" cy="2" r="2" transform="translate(1052 727)"/><circle class="b" cx="2" cy="2" r="2" transform="translate(1060 727)"/><circle class="b" cx="2" cy="2" r="2" transform="translate(1068 727)"/><circle class="b" cx="2" cy="2" r="2" transform="translate(1076 727)"/><circle class="b" cx="2" cy="2" r="2" transform="translate(1084 727)"/><circle class="b" cx="2" cy="2" r="2" transform="translate(852 735)"/><circle class="b" cx="2" cy="2" r="2" transform="translate(860 735)"/><circle class="b" cx="2" cy="2" r="2" transform="translate(868 735)"/><circle class="b" cx="2" cy="2" r="2" transform="translate(876 735)"/><circle class="b" cx="2" cy="2" r="2" transform="translate(884 735)"/><circle class="b" cx="2" cy="2" r="2" transform="translate(892 735)"/><circle class="b" cx="2" cy="2" r="2" transform="translate(900 735)"/><circle class="b" cx="2" cy="2" r="2" transform="translate(908 735)"/><circle class="b" cx="2" cy="2" r="2" transform="translate(916 735)"/><circle class="b" cx="2" cy="2" r="2" transform="translate(924 735)"/><circle class="b" cx="2" cy="2" r="2" transform="translate(932 735)"/><circle class="b" cx="2" cy="2" r="2" transform="translate(940 735)"/><circle class="b" cx="2" cy="2" r="2" transform="translate(948 735)"/><circle class="b" cx="2" cy="2" r="2" transform="translate(956 735)"/><circle class="b" cx="2" cy="2" r="2" transform="translate(964 735)"/><circle class="b" cx="2" cy="2" r="2" transform="translate(972 735)"/><circle class="b" cx="2" cy="2" r="2" transform="translate(980 735)"/><circle class="b" cx="2" cy="2" r="2" transform="translate(988 735)"/><circle class="b" cx="2" cy="2" r="2" transform="translate(996 735)"/><circle class="b" cx="2" cy="2" r="2" transform="translate(1004 735)"/><circle class="b" cx="2" cy="2" r="2" transform="translate(1012 735)"/><circle class="b" cx="2" cy="2" r="2" transform="translate(1020 735)"/><circle class="b" cx="2" cy="2" r="2" transform="translate(1028 735)"/><circle class="b" cx="2" cy="2" r="2" transform="translate(1036 735)"/><circle class="b" cx="2" cy="2" r="2" transform="translate(1044 735)"/><circle class="b" cx="2" cy="2" r="2" transform="translate(1052 735)"/><circle class="b" cx="2" cy="2" r="2" transform="translate(1060 735)"/><circle class="b" cx="2" cy="2" r="2" transform="translate(1068 735)"/><circle class="b" cx="2" cy="2" r="2" transform="translate(1076 735)"/><circle class="b" cx="2" cy="2" r="2" transform="translate(1084 735)"/><circle class="b" cx="2" cy="2" r="2" transform="translate(852 743)"/><circle class="b" cx="2" cy="2" r="2" transform="translate(860 743)"/><circle class="b" cx="2" cy="2" r="2" transform="translate(868 743)"/><circle class="b" cx="2" cy="2" r="2" transform="translate(876 743)"/><circle class="b" cx="2" cy="2" r="2" transform="translate(884 743)"/><circle class="b" cx="2" cy="2" r="2" transform="translate(892 743)"/><circle class="b" cx="2" cy="2" r="2" transform="translate(900 743)"/><circle class="b" cx="2" cy="2" r="2" transform="translate(908 743)"/><circle class="b" cx="2" cy="2" r="2" transform="translate(916 743)"/><circle class="b" cx="2" cy="2" r="2" transform="translate(924 743)"/><circle class="b" cx="2" cy="2" r="2" transform="translate(932 743)"/><circle class="b" cx="2" cy="2" r="2" transform="translate(940 743)"/><circle class="b" cx="2" cy="2" r="2" transform="translate(948 743)"/><circle class="b" cx="2" cy="2" r="2" transform="translate(956 743)"/><circle class="b" cx="2" cy="2" r="2" transform="translate(964 743)"/><circle class="b" cx="2" cy="2" r="2" transform="translate(972 743)"/><circle class="b" cx="2" cy="2" r="2" transform="translate(980 743)"/><circle class="b" cx="2" cy="2" r="2" transform="translate(988 743)"/><circle class="b" cx="2" cy="2" r="2" transform="translate(996 743)"/><circle class="b" cx="2" cy="2" r="2" transform="translate(1004 743)"/><circle class="b" cx="2" cy="2" r="2" transform="translate(1012 743)"/><circle class="b" cx="2" cy="2" r="2" transform="translate(1020 743)"/><circle class="b" cx="2" cy="2" r="2" transform="translate(1028 743)"/><circle class="b" cx="2" cy="2" r="2" transform="translate(1036 743)"/><circle class="b" cx="2" cy="2" r="2" transform="translate(1044 743)"/><circle class="b" cx="2" cy="2" r="2" transform="translate(1052 743)"/><circle class="b" cx="2" cy="2" r="2" transform="translate(1060 743)"/><circle class="b" cx="2" cy="2" r="2" transform="translate(1068 743)"/><circle class="b" cx="2" cy="2" r="2" transform="translate(1076 743)"/><circle class="b" cx="2" cy="2" r="2" transform="translate(1084 743)"/><circle class="b" cx="2" cy="2" r="2" transform="translate(852 751)"/><circle class="b" cx="2" cy="2" r="2" transform="translate(860 751)"/><circle class="b" cx="2" cy="2" r="2" transform="translate(868 751)"/><circle class="b" cx="2" cy="2" r="2" transform="translate(876 751)"/><circle class="b" cx="2" cy="2" r="2" transform="translate(884 751)"/><circle class="b" cx="2" cy="2" r="2" transform="translate(892 751)"/><circle class="b" cx="2" cy="2" r="2" transform="translate(900 751)"/><circle class="b" cx="2" cy="2" r="2" transform="translate(908 751)"/><circle class="b" cx="2" cy="2" r="2" transform="translate(916 751)"/><circle class="b" cx="2" cy="2" r="2" transform="translate(924 751)"/><circle class="b" cx="2" cy="2" r="2" transform="translate(932 751)"/><circle class="b" cx="2" cy="2" r="2" transform="translate(940 751)"/><circle class="b" cx="2" cy="2" r="2" transform="translate(948 751)"/><circle class="b" cx="2" cy="2" r="2" transform="translate(956 751)"/><circle class="b" cx="2" cy="2" r="2" transform="translate(964 751)"/><circle class="b" cx="2" cy="2" r="2" transform="translate(972 751)"/><circle class="b" cx="2" cy="2" r="2" transform="translate(980 751)"/><circle class="b" cx="2" cy="2" r="2" transform="translate(988 751)"/><circle class="b" cx="2" cy="2" r="2" transform="translate(996 751)"/><circle class="b" cx="2" cy="2" r="2" transform="translate(1004 751)"/><circle class="b" cx="2" cy="2" r="2" transform="translate(1012 751)"/><circle class="b" cx="2" cy="2" r="2" transform="translate(1020 751)"/><circle class="b" cx="2" cy="2" r="2" transform="translate(1028 751)"/><circle class="b" cx="2" cy="2" r="2" transform="translate(1036 751)"/><circle class="b" cx="2" cy="2" r="2" transform="translate(1044 751)"/><circle class="b" cx="2" cy="2" r="2" transform="translate(1052 751)"/><circle class="b" cx="2" cy="2" r="2" transform="translate(1060 751)"/><circle class="b" cx="2" cy="2" r="2" transform="translate(1068 751)"/><circle class="b" cx="2" cy="2" r="2" transform="translate(1076 751)"/><circle class="b" cx="2" cy="2" r="2" transform="translate(1084 751)"/><circle class="b" cx="2" cy="2" r="2" transform="translate(852 759)"/><circle class="b" cx="2" cy="2" r="2" transform="translate(860 759)"/><circle class="b" cx="2" cy="2" r="2" transform="translate(868 759)"/><circle class="b" cx="2" cy="2" r="2" transform="translate(876 759)"/><circle class="b" cx="2" cy="2" r="2" transform="translate(884 759)"/><circle class="b" cx="2" cy="2" r="2" transform="translate(892 759)"/><circle class="b" cx="2" cy="2" r="2" transform="translate(900 759)"/><circle class="b" cx="2" cy="2" r="2" transform="translate(908 759)"/><circle class="b" cx="2" cy="2" r="2" transform="translate(916 759)"/><circle class="b" cx="2" cy="2" r="2" transform="translate(924 759)"/><circle class="b" cx="2" cy="2" r="2" transform="translate(932 759)"/><circle class="b" cx="2" cy="2" r="2" transform="translate(940 759)"/><circle class="b" cx="2" cy="2" r="2" transform="translate(948 759)"/><circle class="b" cx="2" cy="2" r="2" transform="translate(956 759)"/><circle class="b" cx="2" cy="2" r="2" transform="translate(964 759)"/><circle class="b" cx="2" cy="2" r="2" transform="translate(972 759)"/><circle class="b" cx="2" cy="2" r="2" transform="translate(980 759)"/><circle class="b" cx="2" cy="2" r="2" transform="translate(988 759)"/><circle class="b" cx="2" cy="2" r="2" transform="translate(996 759)"/><circle class="b" cx="2" cy="2" r="2" transform="translate(1004 759)"/><circle class="b" cx="2" cy="2" r="2" transform="translate(1012 759)"/><circle class="b" cx="2" cy="2" r="2" transform="translate(1020 759)"/><circle class="b" cx="2" cy="2" r="2" transform="translate(1028 759)"/><circle class="b" cx="2" cy="2" r="2" transform="translate(1036 759)"/><circle class="b" cx="2" cy="2" r="2" transform="translate(1044 759)"/><circle class="b" cx="2" cy="2" r="2" transform="translate(1052 759)"/><circle class="b" cx="2" cy="2" r="2" transform="translate(1060 759)"/><circle class="b" cx="2" cy="2" r="2" transform="translate(1068 759)"/><circle class="b" cx="2" cy="2" r="2" transform="translate(1076 759)"/><circle class="b" cx="2" cy="2" r="2" transform="translate(1084 759)"/><circle class="b" cx="2" cy="2" r="2" transform="translate(852 767)"/><circle class="b" cx="2" cy="2" r="2" transform="translate(860 767)"/><circle class="b" cx="2" cy="2" r="2" transform="translate(868 767)"/><circle class="b" cx="2" cy="2" r="2" transform="translate(876 767)"/><circle class="b" cx="2" cy="2" r="2" transform="translate(884 767)"/><circle class="b" cx="2" cy="2" r="2" transform="translate(892 767)"/><circle class="b" cx="2" cy="2" r="2" transform="translate(900 767)"/><circle class="b" cx="2" cy="2" r="2" transform="translate(908 767)"/><circle class="b" cx="2" cy="2" r="2" transform="translate(916 767)"/><circle class="b" cx="2" cy="2" r="2" transform="translate(924 767)"/><circle class="b" cx="2" cy="2" r="2" transform="translate(932 767)"/><circle class="b" cx="2" cy="2" r="2" transform="translate(940 767)"/><circle class="b" cx="2" cy="2" r="2" transform="translate(948 767)"/><circle class="b" cx="2" cy="2" r="2" transform="translate(956 767)"/><circle class="b" cx="2" cy="2" r="2" transform="translate(964 767)"/><circle class="b" cx="2" cy="2" r="2" transform="translate(972 767)"/><circle class="b" cx="2" cy="2" r="2" transform="translate(980 767)"/><circle class="b" cx="2" cy="2" r="2" transform="translate(988 767)"/><circle class="b" cx="2" cy="2" r="2" transform="translate(996 767)"/><circle class="b" cx="2" cy="2" r="2" transform="translate(1004 767)"/><circle class="b" cx="2" cy="2" r="2" transform="translate(1012 767)"/><circle class="b" cx="2" cy="2" r="2" transform="translate(1020 767)"/><circle class="b" cx="2" cy="2" r="2" transform="translate(1028 767)"/><circle class="b" cx="2" cy="2" r="2" transform="translate(1036 767)"/><circle class="b" cx="2" cy="2" r="2" transform="translate(1044 767)"/><circle class="b" cx="2" cy="2" r="2" transform="translate(1052 767)"/><circle class="b" cx="2" cy="2" r="2" transform="translate(1060 767)"/><circle class="b" cx="2" cy="2" r="2" transform="translate(1068 767)"/><circle class="b" cx="2" cy="2" r="2" transform="translate(1076 767)"/><circle class="b" cx="2" cy="2" r="2" transform="translate(1084 767)"/><circle class="b" cx="2" cy="2" r="2" transform="translate(852 775)"/><circle class="b" cx="2" cy="2" r="2" transform="translate(860 775)"/><circle class="b" cx="2" cy="2" r="2" transform="translate(868 775)"/><circle class="b" cx="2" cy="2" r="2" transform="translate(876 775)"/><circle class="b" cx="2" cy="2" r="2" transform="translate(884 775)"/><circle class="b" cx="2" cy="2" r="2" transform="translate(892 775)"/><circle class="b" cx="2" cy="2" r="2" transform="translate(900 775)"/><circle class="b" cx="2" cy="2" r="2" transform="translate(908 775)"/><circle class="b" cx="2" cy="2" r="2" transform="translate(916 775)"/><circle class="b" cx="2" cy="2" r="2" transform="translate(924 775)"/><circle class="b" cx="2" cy="2" r="2" transform="translate(932 775)"/><circle class="b" cx="2" cy="2" r="2" transform="translate(940 775)"/><circle class="b" cx="2" cy="2" r="2" transform="translate(948 775)"/><circle class="b" cx="2" cy="2" r="2" transform="translate(956 775)"/><circle class="b" cx="2" cy="2" r="2" transform="translate(964 775)"/><circle class="b" cx="2" cy="2" r="2" transform="translate(972 775)"/><circle class="b" cx="2" cy="2" r="2" transform="translate(980 775)"/><circle class="b" cx="2" cy="2" r="2" transform="translate(988 775)"/><circle class="b" cx="2" cy="2" r="2" transform="translate(996 775)"/><circle class="b" cx="2" cy="2" r="2" transform="translate(1004 775)"/><circle class="b" cx="2" cy="2" r="2" transform="translate(1012 775)"/><circle class="b" cx="2" cy="2" r="2" transform="translate(1020 775)"/><circle class="b" cx="2" cy="2" r="2" transform="translate(1028 775)"/><circle class="b" cx="2" cy="2" r="2" transform="translate(1036 775)"/><circle class="b" cx="2" cy="2" r="2" transform="translate(1044 775)"/><circle class="b" cx="2" cy="2" r="2" transform="translate(1052 775)"/><circle class="b" cx="2" cy="2" r="2" transform="translate(1060 775)"/><circle class="b" cx="2" cy="2" r="2" transform="translate(1068 775)"/><circle class="b" cx="2" cy="2" r="2" transform="translate(1076 775)"/><circle class="b" cx="2" cy="2" r="2" transform="translate(1084 775)"/><circle class="b" cx="2" cy="2" r="2" transform="translate(852 783)"/><circle class="b" cx="2" cy="2" r="2" transform="translate(860 783)"/><circle class="b" cx="2" cy="2" r="2" transform="translate(868 783)"/><circle class="b" cx="2" cy="2" r="2" transform="translate(876 783)"/><circle class="b" cx="2" cy="2" r="2" transform="translate(884 783)"/><circle class="b" cx="2" cy="2" r="2" transform="translate(892 783)"/><circle class="b" cx="2" cy="2" r="2" transform="translate(900 783)"/><circle class="b" cx="2" cy="2" r="2" transform="translate(908 783)"/><circle class="b" cx="2" cy="2" r="2" transform="translate(916 783)"/><circle class="b" cx="2" cy="2" r="2" transform="translate(924 783)"/><circle class="b" cx="2" cy="2" r="2" transform="translate(932 783)"/><circle class="b" cx="2" cy="2" r="2" transform="translate(940 783)"/><circle class="b" cx="2" cy="2" r="2" transform="translate(948 783)"/><circle class="b" cx="2" cy="2" r="2" transform="translate(956 783)"/><circle class="b" cx="2" cy="2" r="2" transform="translate(964 783)"/><circle class="b" cx="2" cy="2" r="2" transform="translate(972 783)"/><circle class="b" cx="2" cy="2" r="2" transform="translate(980 783)"/><circle class="b" cx="2" cy="2" r="2" transform="translate(988 783)"/><circle class="b" cx="2" cy="2" r="2" transform="translate(996 783)"/><circle class="b" cx="2" cy="2" r="2" transform="translate(1004 783)"/><circle class="b" cx="2" cy="2" r="2" transform="translate(1012 783)"/><circle class="b" cx="2" cy="2" r="2" transform="translate(1020 783)"/><circle class="b" cx="2" cy="2" r="2" transform="translate(1028 783)"/><circle class="b" cx="2" cy="2" r="2" transform="translate(1036 783)"/><circle class="b" cx="2" cy="2" r="2" transform="translate(1044 783)"/><circle class="b" cx="2" cy="2" r="2" transform="translate(1052 783)"/><circle class="b" cx="2" cy="2" r="2" transform="translate(1060 783)"/><circle class="b" cx="2" cy="2" r="2" transform="translate(1068 783)"/><circle class="b" cx="2" cy="2" r="2" transform="translate(1076 783)"/><circle class="b" cx="2" cy="2" r="2" transform="translate(1084 783)"/><circle class="b" cx="2" cy="2" r="2" transform="translate(852 791)"/><circle class="b" cx="2" cy="2" r="2" transform="translate(860 791)"/><circle class="b" cx="2" cy="2" r="2" transform="translate(868 791)"/><circle class="b" cx="2" cy="2" r="2" transform="translate(876 791)"/><circle class="b" cx="2" cy="2" r="2" transform="translate(884 791)"/><circle class="b" cx="2" cy="2" r="2" transform="translate(892 791)"/><circle class="b" cx="2" cy="2" r="2" transform="translate(900 791)"/><circle class="b" cx="2" cy="2" r="2" transform="translate(908 791)"/><circle class="b" cx="2" cy="2" r="2" transform="translate(916 791)"/><circle class="b" cx="2" cy="2" r="2" transform="translate(924 791)"/><circle class="b" cx="2" cy="2" r="2" transform="translate(932 791)"/><circle class="b" cx="2" cy="2" r="2" transform="translate(940 791)"/><circle class="b" cx="2" cy="2" r="2" transform="translate(948 791)"/><circle class="b" cx="2" cy="2" r="2" transform="translate(956 791)"/><circle class="b" cx="2" cy="2" r="2" transform="translate(964 791)"/><circle class="b" cx="2" cy="2" r="2" transform="translate(972 791)"/><circle class="b" cx="2" cy="2" r="2" transform="translate(980 791)"/><circle class="b" cx="2" cy="2" r="2" transform="translate(988 791)"/><circle class="b" cx="2" cy="2" r="2" transform="translate(996 791)"/><circle class="b" cx="2" cy="2" r="2" transform="translate(1004 791)"/><circle class="b" cx="2" cy="2" r="2" transform="translate(1012 791)"/><circle class="b" cx="2" cy="2" r="2" transform="translate(1020 791)"/><circle class="b" cx="2" cy="2" r="2" transform="translate(1028 791)"/><circle class="b" cx="2" cy="2" r="2" transform="translate(1036 791)"/><circle class="b" cx="2" cy="2" r="2" transform="translate(1044 791)"/><circle class="b" cx="2" cy="2" r="2" transform="translate(1052 791)"/><circle class="b" cx="2" cy="2" r="2" transform="translate(1060 791)"/><circle class="b" cx="2" cy="2" r="2" transform="translate(1068 791)"/><circle class="b" cx="2" cy="2" r="2" transform="translate(1076 791)"/><circle class="b" cx="2" cy="2" r="2" transform="translate(1084 791)"/><circle class="b" cx="2" cy="2" r="2" transform="translate(852 799)"/><circle class="b" cx="2" cy="2" r="2" transform="translate(860 799)"/><circle class="b" cx="2" cy="2" r="2" transform="translate(868 799)"/><circle class="b" cx="2" cy="2" r="2" transform="translate(876 799)"/><circle class="b" cx="2" cy="2" r="2" transform="translate(884 799)"/><circle class="b" cx="2" cy="2" r="2" transform="translate(892 799)"/><circle class="b" cx="2" cy="2" r="2" transform="translate(900 799)"/><circle class="b" cx="2" cy="2" r="2" transform="translate(908 799)"/><circle class="b" cx="2" cy="2" r="2" transform="translate(916 799)"/><circle class="b" cx="2" cy="2" r="2" transform="translate(924 799)"/><circle class="b" cx="2" cy="2" r="2" transform="translate(932 799)"/><circle class="b" cx="2" cy="2" r="2" transform="translate(940 799)"/><circle class="b" cx="2" cy="2" r="2" transform="translate(948 799)"/><circle class="b" cx="2" cy="2" r="2" transform="translate(956 799)"/><circle class="b" cx="2" cy="2" r="2" transform="translate(964 799)"/><circle class="b" cx="2" cy="2" r="2" transform="translate(972 799)"/><circle class="b" cx="2" cy="2" r="2" transform="translate(980 799)"/><circle class="b" cx="2" cy="2" r="2" transform="translate(988 799)"/><circle class="b" cx="2" cy="2" r="2" transform="translate(996 799)"/><circle class="b" cx="2" cy="2" r="2" transform="translate(1004 799)"/><circle class="b" cx="2" cy="2" r="2" transform="translate(1012 799)"/><circle class="b" cx="2" cy="2" r="2" transform="translate(1020 799)"/><circle class="b" cx="2" cy="2" r="2" transform="translate(1028 799)"/><circle class="b" cx="2" cy="2" r="2" transform="translate(1036 799)"/><circle class="b" cx="2" cy="2" r="2" transform="translate(1044 799)"/><circle class="b" cx="2" cy="2" r="2" transform="translate(1052 799)"/><circle class="b" cx="2" cy="2" r="2" transform="translate(1060 799)"/><circle class="b" cx="2" cy="2" r="2" transform="translate(1068 799)"/><circle class="b" cx="2" cy="2" r="2" transform="translate(1076 799)"/><circle class="b" cx="2" cy="2" r="2" transform="translate(1084 799)"/><circle class="b" cx="2" cy="2" r="2" transform="translate(852 807)"/><circle class="b" cx="2" cy="2" r="2" transform="translate(860 807)"/><circle class="b" cx="2" cy="2" r="2" transform="translate(868 807)"/><circle class="b" cx="2" cy="2" r="2" transform="translate(876 807)"/><circle class="b" cx="2" cy="2" r="2" transform="translate(884 807)"/><circle class="b" cx="2" cy="2" r="2" transform="translate(892 807)"/><circle class="b" cx="2" cy="2" r="2" transform="translate(900 807)"/><circle class="b" cx="2" cy="2" r="2" transform="translate(908 807)"/><circle class="b" cx="2" cy="2" r="2" transform="translate(916 807)"/><circle class="b" cx="2" cy="2" r="2" transform="translate(924 807)"/><circle class="b" cx="2" cy="2" r="2" transform="translate(932 807)"/><circle class="b" cx="2" cy="2" r="2" transform="translate(940 807)"/><circle class="b" cx="2" cy="2" r="2" transform="translate(948 807)"/><circle class="b" cx="2" cy="2" r="2" transform="translate(956 807)"/><circle class="b" cx="2" cy="2" r="2" transform="translate(964 807)"/><circle class="b" cx="2" cy="2" r="2" transform="translate(972 807)"/><circle class="b" cx="2" cy="2" r="2" transform="translate(980 807)"/><circle class="b" cx="2" cy="2" r="2" transform="translate(988 807)"/><circle class="b" cx="2" cy="2" r="2" transform="translate(996 807)"/><circle class="b" cx="2" cy="2" r="2" transform="translate(1004 807)"/><circle class="b" cx="2" cy="2" r="2" transform="translate(1012 807)"/><circle class="b" cx="2" cy="2" r="2" transform="translate(1020 807)"/><circle class="b" cx="2" cy="2" r="2" transform="translate(1028 807)"/><circle class="b" cx="2" cy="2" r="2" transform="translate(1036 807)"/><circle class="b" cx="2" cy="2" r="2" transform="translate(1044 807)"/><circle class="b" cx="2" cy="2" r="2" transform="translate(1052 807)"/><circle class="b" cx="2" cy="2" r="2" transform="translate(1060 807)"/><circle class="b" cx="2" cy="2" r="2" transform="translate(1068 807)"/><circle class="b" cx="2" cy="2" r="2" transform="translate(1076 807)"/><circle class="b" cx="2" cy="2" r="2" transform="translate(1084 807)"/><circle class="b" cx="2" cy="2" r="2" transform="translate(852 815)"/><circle class="b" cx="2" cy="2" r="2" transform="translate(860 815)"/><circle class="b" cx="2" cy="2" r="2" transform="translate(868 815)"/><circle class="b" cx="2" cy="2" r="2" transform="translate(876 815)"/><circle class="b" cx="2" cy="2" r="2" transform="translate(884 815)"/><circle class="b" cx="2" cy="2" r="2" transform="translate(892 815)"/><circle class="b" cx="2" cy="2" r="2" transform="translate(900 815)"/><circle class="b" cx="2" cy="2" r="2" transform="translate(908 815)"/><circle class="b" cx="2" cy="2" r="2" transform="translate(916 815)"/><circle class="b" cx="2" cy="2" r="2" transform="translate(924 815)"/><circle class="b" cx="2" cy="2" r="2" transform="translate(932 815)"/><circle class="b" cx="2" cy="2" r="2" transform="translate(940 815)"/><circle class="b" cx="2" cy="2" r="2" transform="translate(948 815)"/><circle class="b" cx="2" cy="2" r="2" transform="translate(956 815)"/><circle class="b" cx="2" cy="2" r="2" transform="translate(964 815)"/><circle class="b" cx="2" cy="2" r="2" transform="translate(972 815)"/><circle class="b" cx="2" cy="2" r="2" transform="translate(980 815)"/><circle class="b" cx="2" cy="2" r="2" transform="translate(988 815)"/><circle class="b" cx="2" cy="2" r="2" transform="translate(996 815)"/><circle class="b" cx="2" cy="2" r="2" transform="translate(1004 815)"/><circle class="b" cx="2" cy="2" r="2" transform="translate(1012 815)"/><circle class="b" cx="2" cy="2" r="2" transform="translate(1020 815)"/><circle class="b" cx="2" cy="2" r="2" transform="translate(1028 815)"/><circle class="b" cx="2" cy="2" r="2" transform="translate(1036 815)"/><circle class="b" cx="2" cy="2" r="2" transform="translate(1044 815)"/><circle class="b" cx="2" cy="2" r="2" transform="translate(1052 815)"/><circle class="b" cx="2" cy="2" r="2" transform="translate(1060 815)"/><circle class="b" cx="2" cy="2" r="2" transform="translate(1068 815)"/><circle class="b" cx="2" cy="2" r="2" transform="translate(1076 815)"/><circle class="b" cx="2" cy="2" r="2" transform="translate(1084 815)"/><circle class="b" cx="2" cy="2" r="2" transform="translate(852 823)"/><circle class="b" cx="2" cy="2" r="2" transform="translate(860 823)"/><circle class="b" cx="2" cy="2" r="2" transform="translate(868 823)"/><circle class="b" cx="2" cy="2" r="2" transform="translate(876 823)"/><circle class="b" cx="2" cy="2" r="2" transform="translate(884 823)"/><circle class="b" cx="2" cy="2" r="2" transform="translate(892 823)"/><circle class="b" cx="2" cy="2" r="2" transform="translate(900 823)"/><circle class="b" cx="2" cy="2" r="2" transform="translate(908 823)"/><circle class="b" cx="2" cy="2" r="2" transform="translate(916 823)"/><circle class="b" cx="2" cy="2" r="2" transform="translate(924 823)"/><circle class="b" cx="2" cy="2" r="2" transform="translate(932 823)"/><circle class="b" cx="2" cy="2" r="2" transform="translate(940 823)"/><circle class="b" cx="2" cy="2" r="2" transform="translate(948 823)"/><circle class="b" cx="2" cy="2" r="2" transform="translate(956 823)"/><circle class="b" cx="2" cy="2" r="2" transform="translate(964 823)"/><circle class="b" cx="2" cy="2" r="2" transform="translate(972 823)"/><circle class="b" cx="2" cy="2" r="2" transform="translate(980 823)"/><circle class="b" cx="2" cy="2" r="2" transform="translate(988 823)"/><circle class="b" cx="2" cy="2" r="2" transform="translate(996 823)"/><circle class="b" cx="2" cy="2" r="2" transform="translate(1004 823)"/><circle class="b" cx="2" cy="2" r="2" transform="translate(1012 823)"/><circle class="b" cx="2" cy="2" r="2" transform="translate(1020 823)"/><circle class="b" cx="2" cy="2" r="2" transform="translate(1028 823)"/><circle class="b" cx="2" cy="2" r="2" transform="translate(1036 823)"/><circle class="b" cx="2" cy="2" r="2" transform="translate(1044 823)"/><circle class="b" cx="2" cy="2" r="2" transform="translate(1052 823)"/><circle class="b" cx="2" cy="2" r="2" transform="translate(1060 823)"/><circle class="b" cx="2" cy="2" r="2" transform="translate(1068 823)"/><circle class="b" cx="2" cy="2" r="2" transform="translate(1076 823)"/><circle class="b" cx="2" cy="2" r="2" transform="translate(1084 823)"/><circle class="b" cx="2" cy="2" r="2" transform="translate(852 831)"/><circle class="b" cx="2" cy="2" r="2" transform="translate(860 831)"/><circle class="b" cx="2" cy="2" r="2" transform="translate(868 831)"/><circle class="b" cx="2" cy="2" r="2" transform="translate(876 831)"/><circle class="b" cx="2" cy="2" r="2" transform="translate(884 831)"/><circle class="b" cx="2" cy="2" r="2" transform="translate(892 831)"/><circle class="b" cx="2" cy="2" r="2" transform="translate(900 831)"/><circle class="b" cx="2" cy="2" r="2" transform="translate(908 831)"/><circle class="b" cx="2" cy="2" r="2" transform="translate(916 831)"/><circle class="b" cx="2" cy="2" r="2" transform="translate(924 831)"/><circle class="b" cx="2" cy="2" r="2" transform="translate(932 831)"/><circle class="b" cx="2" cy="2" r="2" transform="translate(940 831)"/><circle class="b" cx="2" cy="2" r="2" transform="translate(948 831)"/><circle class="b" cx="2" cy="2" r="2" transform="translate(956 831)"/><circle class="b" cx="2" cy="2" r="2" transform="translate(964 831)"/><circle class="b" cx="2" cy="2" r="2" transform="translate(972 831)"/><circle class="b" cx="2" cy="2" r="2" transform="translate(980 831)"/><circle class="b" cx="2" cy="2" r="2" transform="translate(988 831)"/><circle class="b" cx="2" cy="2" r="2" transform="translate(996 831)"/><circle class="b" cx="2" cy="2" r="2" transform="translate(1004 831)"/><circle class="b" cx="2" cy="2" r="2" transform="translate(1012 831)"/><circle class="b" cx="2" cy="2" r="2" transform="translate(1020 831)"/><circle class="b" cx="2" cy="2" r="2" transform="translate(1028 831)"/><circle class="b" cx="2" cy="2" r="2" transform="translate(1036 831)"/><circle class="b" cx="2" cy="2" r="2" transform="translate(1044 831)"/><circle class="b" cx="2" cy="2" r="2" transform="translate(1052 831)"/><circle class="b" cx="2" cy="2" r="2" transform="translate(1060 831)"/><circle class="b" cx="2" cy="2" r="2" transform="translate(1068 831)"/><circle class="b" cx="2" cy="2" r="2" transform="translate(1076 831)"/><circle class="b" cx="2" cy="2" r="2" transform="translate(1084 831)"/></g></svg>