<svg xmlns="http://www.w3.org/2000/svg" width="96.504" height="96.504" viewBox="0 0 96.504 96.504"><g transform="translate(17 16.493)" fill="none" stroke="#fff" stroke-width="4"><circle cx="31.5" cy="31.5" r="31.5" stroke="none"/><circle cx="31.5" cy="31.5" r="29.5" fill="none"/></g><g transform="translate(36.806 -0.003)" fill="none"><path d="M11.467,0s5.891,20.282,11.081,20.282H.232C4.855,20.285,11.467,0,11.467,0Z" stroke="none"/><path d="M 11.3646764755249 7.572282791137695 C 10.90999984741211 8.717535972595215 10.40779399871826 9.931862831115723 9.87138843536377 11.15096282958984 C 8.676712036132812 13.86611366271973 7.560453414916992 16.06258583068848 6.485557556152344 17.78529357910156 L 16.07918548583984 17.78529357910156 C 14.99325275421143 16.04627418518066 13.89477729797363 13.8321590423584 12.75542831420898 11.10906219482422 C 12.25165367126465 9.905023574829102 11.78484439849854 8.70557689666748 11.3646764755249 7.572282791137695 M 11.46736812591553 0.002933502197265625 C 11.46736812591553 0.002933502197265625 17.35846900939941 20.28529167175293 22.54865837097168 20.28529167175293 C 18.97365570068359 20.28529167175293 -0.2250499725341797 20.28529167175293 -0.2250499725341797 20.28529167175293 C -0.2250499725341797 20.28529167175293 -0.0805511474609375 20.28529167175293 0.2315292358398438 20.28529167175293 C 4.854598999023438 20.28529167175293 11.46736812591553 0.002933502197265625 11.46736812591553 0.002933502197265625 Z M 22.54865837097168 20.28529167175293 C 22.91572761535645 20.28529167175293 23.117919921875 20.28529167175293 23.117919921875 20.28529167175293 C 23.117919921875 20.28529167175293 22.93861961364746 20.28529167175293 22.54865837097168 20.28529167175293 Z" stroke="none" fill="#fff"/></g><g transform="translate(59.923 96.504) rotate(180)" fill="none"><path d="M11.692,0s5.891,20.282,11.081,20.282H.457C5.08,20.282,11.692,0,11.692,0Z" stroke="none"/><path d="M 11.58971881866455 7.569353103637695 C 11.13504219055176 8.714606285095215 10.63283634185791 9.928933143615723 10.09643077850342 11.14803314208984 C 8.901754379272461 13.86318397521973 7.785495758056641 16.05965614318848 6.710599899291992 17.78236389160156 L 16.30423164367676 17.78236389160156 C 15.21829605102539 16.04334449768066 14.11981964111328 13.8292293548584 12.98047065734863 11.10613250732422 C 12.4766960144043 9.902093887329102 12.00988674163818 8.70264720916748 11.58971881866455 7.569353103637695 M 11.69241046905518 3.814697265625e-06 C 11.69241046905518 3.814697265625e-06 17.58351135253906 20.28236198425293 22.77371025085449 20.28236198425293 C 19.19870185852051 20.28236198425293 -7.62939453125e-06 20.28236198425293 -7.62939453125e-06 20.28236198425293 C -7.62939453125e-06 20.28236198425293 0.1444911956787109 20.28236198425293 0.4565715789794922 20.28236198425293 C 5.079641342163086 20.28236198425293 11.69241046905518 3.814697265625e-06 11.69241046905518 3.814697265625e-06 Z M 22.77371025085449 20.28236198425293 C 23.14078140258789 20.28236198425293 23.34296989440918 20.28236198425293 23.34296989440918 20.28236198425293 C 23.34296989440918 20.28236198425293 23.16367149353027 20.28236198425293 22.77371025085449 20.28236198425293 Z" stroke="none" fill="#fff"/></g><g transform="translate(96.504 36.58) rotate(90)" fill="none"><path d="M11.692,0s5.891,20.282,11.081,20.282H.457C5.08,20.282,11.692,0,11.692,0Z" stroke="none"/><path d="M 11.58971881866455 7.569353103637695 C 11.13504219055176 8.714606285095215 10.63283634185791 9.928933143615723 10.09643077850342 11.14803314208984 C 8.901754379272461 13.86318397521973 7.785495758056641 16.05965614318848 6.710599899291992 17.78236389160156 L 16.30423164367676 17.78236389160156 C 15.21829605102539 16.04334449768066 14.11981964111328 13.8292293548584 12.98047065734863 11.10613250732422 C 12.4766960144043 9.902093887329102 12.00988674163818 8.70264720916748 11.58971881866455 7.569353103637695 M 11.69241046905518 3.814697265625e-06 C 11.69241046905518 3.814697265625e-06 17.58351135253906 20.28236198425293 22.77371025085449 20.28236198425293 C 19.19870185852051 20.28236198425293 -7.62939453125e-06 20.28236198425293 -7.62939453125e-06 20.28236198425293 C -7.62939453125e-06 20.28236198425293 0.1444911956787109 20.28236198425293 0.4565715789794922 20.28236198425293 C 5.079641342163086 20.28236198425293 11.69241046905518 3.814697265625e-06 11.69241046905518 3.814697265625e-06 Z M 22.77371025085449 20.28236198425293 C 23.14078140258789 20.28236198425293 23.34296989440918 20.28236198425293 23.34296989440918 20.28236198425293 C 23.34296989440918 20.28236198425293 23.16367149353027 20.28236198425293 22.77371025085449 20.28236198425293 Z" stroke="none" fill="#fff"/></g><g transform="translate(0 59.923) rotate(-90)" fill="none"><path d="M11.692,0s5.891,20.282,11.081,20.282H.457C5.08,20.282,11.692,0,11.692,0Z" stroke="none"/><path d="M 11.58971881866455 7.569353103637695 C 11.13504219055176 8.714606285095215 10.63283634185791 9.928933143615723 10.09643077850342 11.14803314208984 C 8.901754379272461 13.86318397521973 7.785495758056641 16.05965614318848 6.710599899291992 17.78236389160156 L 16.30423164367676 17.78236389160156 C 15.21829605102539 16.04334449768066 14.11981964111328 13.8292293548584 12.98047065734863 11.10613250732422 C 12.4766960144043 9.902093887329102 12.00988674163818 8.70264720916748 11.58971881866455 7.569353103637695 M 11.69241046905518 3.814697265625e-06 C 11.69241046905518 3.814697265625e-06 17.58351135253906 20.28236198425293 22.77371025085449 20.28236198425293 C 19.19870185852051 20.28236198425293 -7.62939453125e-06 20.28236198425293 -7.62939453125e-06 20.28236198425293 C -7.62939453125e-06 20.28236198425293 0.1444911956787109 20.28236198425293 0.4565715789794922 20.28236198425293 C 5.079641342163086 20.28236198425293 11.69241046905518 3.814697265625e-06 11.69241046905518 3.814697265625e-06 Z M 22.77371025085449 20.28236198425293 C 23.14078140258789 20.28236198425293 23.34296989440918 20.28236198425293 23.34296989440918 20.28236198425293 C 23.34296989440918 20.28236198425293 23.16367149353027 20.28236198425293 22.77371025085449 20.28236198425293 Z" stroke="none" fill="#fff"/></g><g transform="translate(75.207 5.88) rotate(45)" fill="none"><path d="M11.692,0s5.891,20.282,11.081,20.282H.457C5.08,20.282,11.692,0,11.692,0Z" stroke="none"/><path d="M 11.58971881866455 7.569353103637695 C 11.13504219055176 8.714606285095215 10.63283634185791 9.928933143615723 10.09643077850342 11.14803314208984 C 8.901754379272461 13.86318397521973 7.785495758056641 16.05965614318848 6.710599899291992 17.78236389160156 L 16.30423164367676 17.78236389160156 C 15.21829605102539 16.04334449768066 14.11981964111328 13.8292293548584 12.98047065734863 11.10613250732422 C 12.4766960144043 9.902093887329102 12.00988674163818 8.70264720916748 11.58971881866455 7.569353103637695 M 11.69241046905518 3.814697265625e-06 C 11.69241046905518 3.814697265625e-06 17.58351135253906 20.28236198425293 22.77371025085449 20.28236198425293 C 19.19870185852051 20.28236198425293 -7.62939453125e-06 20.28236198425293 -7.62939453125e-06 20.28236198425293 C -7.62939453125e-06 20.28236198425293 0.1444911956787109 20.28236198425293 0.4565715789794922 20.28236198425293 C 5.079641342163086 20.28236198425293 11.69241046905518 3.814697265625e-06 11.69241046905518 3.814697265625e-06 Z M 22.77371025085449 20.28236198425293 C 23.14078140258789 20.28236198425293 23.34296989440918 20.28236198425293 23.34296989440918 20.28236198425293 C 23.34296989440918 20.28236198425293 23.16367149353027 20.28236198425293 22.77371025085449 20.28236198425293 Z" stroke="none" fill="#fff"/></g><g transform="translate(23.475 90.624) rotate(-135)" fill="none"><path d="M11.692,0s5.891,20.282,11.081,20.282H.457C5.08,20.282,11.692,0,11.692,0Z" stroke="none"/><path d="M 11.58971881866455 7.569353103637695 C 11.13504219055176 8.714606285095215 10.63283634185791 9.928933143615723 10.09643077850342 11.14803314208984 C 8.901754379272461 13.86318397521973 7.785495758056641 16.05965614318848 6.710599899291992 17.78236389160156 L 16.30423164367676 17.78236389160156 C 15.21829605102539 16.04334449768066 14.11981964111328 13.8292293548584 12.98047065734863 11.10613250732422 C 12.4766960144043 9.902093887329102 12.00988674163818 8.70264720916748 11.58971881866455 7.569353103637695 M 11.69241046905518 3.814697265625e-06 C 11.69241046905518 3.814697265625e-06 17.58351135253906 20.28236198425293 22.77371025085449 20.28236198425293 C 19.19870185852051 20.28236198425293 -7.62939453125e-06 20.28236198425293 -7.62939453125e-06 20.28236198425293 C -7.62939453125e-06 20.28236198425293 0.1444911956787109 20.28236198425293 0.4565715789794922 20.28236198425293 C 5.079641342163086 20.28236198425293 11.69241046905518 3.814697265625e-06 11.69241046905518 3.814697265625e-06 Z M 22.77371025085449 20.28236198425293 C 23.14078140258789 20.28236198425293 23.34296989440918 20.28236198425293 23.34296989440918 20.28236198425293 C 23.34296989440918 20.28236198425293 23.16367149353027 20.28236198425293 22.77371025085449 20.28236198425293 Z" stroke="none" fill="#fff"/></g><g transform="translate(37.816 20.221) rotate(135)" fill="none"><path d="M11.692,20.282S17.584,0,22.774,0H.457C5.08,0,11.692,20.282,11.692,20.282Z" stroke="none"/><path d="M 11.58969593048096 12.71310806274414 C 12.00942897796631 11.58098125457764 12.47569465637207 10.38286781311035 12.97887229919434 9.180071830749512 C 14.11875343322754 6.455308437347412 15.21786689758301 4.239738941192627 16.30421447753906 2.500001907348633 L 6.710461139678955 2.500001907348633 C 7.785365581512451 4.222799301147461 8.902013778686523 6.419962882995605 10.09674263000488 9.135261535644531 C 10.63311290740967 10.35428714752197 11.13505363464355 11.56795024871826 11.58969593048096 12.71310806274414 M 11.69242191314697 20.28236198425293 C 11.69242191314697 20.28236198425293 5.080251216888428 0.002478202106431127 0.4572203457355499 2.630405560921645e-06 C 3.964551210403442 3.946378001273843e-06 13.09501361846924 6.360046882036841e-06 18.26719665527344 6.359863164107082e-06 C 20.1213493347168 6.359797225741204e-06 21.89091682434082 6.220971954462584e-06 22.76992034912109 5.570178018388106e-06 C 17.58065414428711 0.009904230944812298 11.69242191314697 20.28236198425293 11.69242191314697 20.28236198425293 Z M 22.76992034912109 5.570178018388106e-06 C 22.77118682861328 3.152922772642341e-06 22.77244567871094 1.945800704561407e-06 22.77371215820312 1.945800704561407e-06 C 23.66387748718262 3.660888751255698e-06 23.7016429901123 4.880351298197638e-06 22.76992034912109 5.570178018388106e-06 Z M 0.4572203457355499 2.630405560921645e-06 C -1.21605396270752 2.002582732529845e-06 -0.5389128923416138 1.945800704561407e-06 0.4565821588039398 1.945800704561407e-06 C 0.4568643271923065 1.945800704561407e-06 0.4569381475448608 2.479299382684985e-06 0.4572203457355499 2.630405560921645e-06 Z" stroke="none" fill="#fff"/></g><g transform="translate(60.865 76.282) rotate(-45)" fill="none"><path d="M11.692,20.282S17.584,0,22.774,0H.457C5.08,0,11.692,20.282,11.692,20.282Z" stroke="none"/><path d="M 11.58969593048096 12.71310806274414 C 12.00942897796631 11.58098125457764 12.47569465637207 10.38286781311035 12.97887229919434 9.180071830749512 C 14.11875343322754 6.455308437347412 15.21786689758301 4.239738941192627 16.30421447753906 2.500001907348633 L 6.710461139678955 2.500001907348633 C 7.785365581512451 4.222799301147461 8.902013778686523 6.419962882995605 10.09674263000488 9.135261535644531 C 10.63311290740967 10.35428714752197 11.13505363464355 11.56795024871826 11.58969593048096 12.71310806274414 M 11.69242191314697 20.28236198425293 C 11.69242191314697 20.28236198425293 5.080251216888428 0.002478202106431127 0.4572203457355499 2.630405560921645e-06 C 3.964551210403442 3.946378001273843e-06 13.09501361846924 6.360046882036841e-06 18.26719665527344 6.359863164107082e-06 C 20.1213493347168 6.359797225741204e-06 21.89091682434082 6.220971954462584e-06 22.76992034912109 5.570178018388106e-06 C 17.58065414428711 0.009904230944812298 11.69242191314697 20.28236198425293 11.69242191314697 20.28236198425293 Z M 22.76992034912109 5.570178018388106e-06 C 22.77118682861328 3.152922772642341e-06 22.77244567871094 1.945800704561407e-06 22.77371215820312 1.945800704561407e-06 C 23.66387748718262 3.660888751255698e-06 23.7016429901123 4.880351298197638e-06 22.76992034912109 5.570178018388106e-06 Z M 0.4572203457355499 2.630405560921645e-06 C -1.21605396270752 2.002582732529845e-06 -0.5389128923416138 1.945800704561407e-06 0.4565821588039398 1.945800704561407e-06 C 0.4568643271923065 1.945800704561407e-06 0.4569381475448608 2.479299382684985e-06 0.4572203457355499 2.630405560921645e-06 Z" stroke="none" fill="#fff"/></g><g transform="translate(17 16.493)" fill="none" stroke="#fff" stroke-width="4"><circle cx="31.5" cy="31.5" r="31.5" stroke="none"/><circle cx="31.5" cy="31.5" r="29.5" fill="none"/></g><line x2="25.045" transform="translate(28.354 68.885)" fill="none" stroke="#fff" stroke-linecap="round" stroke-width="1.5"/><line x2="21.25" transform="translate(25.318 65.09)" fill="none" stroke="#fff" stroke-linecap="round" stroke-width="1.5"/><line x2="19.732" transform="translate(23.041 61.295)" fill="none" stroke="#fff" stroke-linecap="round" stroke-width="1.5"/><line x2="18.214" transform="translate(20.764 57.501)" fill="none" stroke="#fff" stroke-linecap="round" stroke-width="1.5"/><line x2="16.696" transform="translate(20.005 53.706)" fill="none" stroke="#fff" stroke-linecap="round" stroke-width="1.5"/><line x2="15.179" transform="translate(20.005 49.911)" fill="none" stroke="#fff" stroke-linecap="round" stroke-width="1.5"/><line x2="14.42" transform="translate(20.005 46.117)" fill="none" stroke="#fff" stroke-linecap="round" stroke-width="1.5"/><line x2="13.661" transform="translate(20.005 42.322)" fill="none" stroke="#fff" stroke-linecap="round" stroke-width="1.5"/><line x2="12.143" transform="translate(21.523 38.528)" fill="none" stroke="#fff" stroke-linecap="round" stroke-width="1.5"/><line x2="11.384" transform="translate(23.041 34.733)" fill="none" stroke="#fff" stroke-linecap="round" stroke-width="1.5"/><line x2="9.866" transform="translate(25.318 30.938)" fill="none" stroke="#fff" stroke-linecap="round" stroke-width="1.5"/><line x2="8.348" transform="translate(28.354 27.144)" fill="none" stroke="#fff" stroke-linecap="round" stroke-width="1.5"/></svg>