<svg xmlns="http://www.w3.org/2000/svg" width="40.48" height="40.48" viewBox="0 0 40.48 40.48"><g transform="translate(0.002 0.001)"><g transform="translate(-0.002 -0.001)"><path d="M1.992,26.225a4.95,4.95,0,0,0,.7.4c.292.149.781.4.815.574a1.165,1.165,0,0,1-.079.683c-.1.216-.206.4-.3.562-.248.436-.66,1.166-.037,1.676.146.135.4.33.627.506a1.7,1.7,0,0,0-.22.974.974.974,0,0,0,.4.661c.152.108.314.2.472.293.4.226.552.331.607.54a1.863,1.863,0,0,1-.074.817c-.04.175-.078.35-.1.53a3.966,3.966,0,0,0,.228,1.817,2.528,2.528,0,0,0,2.39,1.842,2.745,2.745,0,0,0,.551-.058,51.149,51.149,0,0,0,5.688-1.7c1.519.892,2.48,3.6,2.73,4.622a.675.675,0,0,0,.655.511l16.934-.047a.675.675,0,0,0,.642-.877,5.212,5.212,0,0,0-.683-1.282,6.261,6.261,0,0,1-.437-.729,12.845,12.845,0,0,1-.762-1.921,22.736,22.736,0,0,1-.8-3.991,11.421,11.421,0,0,1,.886-5.924,15.081,15.081,0,0,1,1.832-2.9c.4-.546.825-1.112,1.2-1.707a10.434,10.434,0,0,0,1.39-3.286.675.675,0,0,0-1.314-.3,9.108,9.108,0,0,1-1.214,2.867c-.35.554-.755,1.1-1.147,1.627a16.3,16.3,0,0,0-1.985,3.161,12.763,12.763,0,0,0-.989,6.625,23.944,23.944,0,0,0,.851,4.232,14.07,14.07,0,0,0,.837,2.113,7.376,7.376,0,0,0,.523.877l.045.067-15.3.046a10.759,10.759,0,0,0-2.375-4.308l.607-.211c.453-.159.8-.278.972-.337,2.889-.921,4.334-2.236,4.294-3.913a.663.663,0,0,0-.689-.655.675.675,0,0,0-.658.69c.016.69-.553,1.7-3.357,2.594-.184.059-.54.182-1.006.346-.5.175-1.137.4-1.838.636h0a52.541,52.541,0,0,1-5.8,1.754,1.2,1.2,0,0,1-1.39-.9,2.7,2.7,0,0,1-.167-1.2c.02-.135.051-.277.082-.414a2.944,2.944,0,0,0,.067-1.453,2.236,2.236,0,0,0-1.245-1.377L4.9,31.3a2.483,2.483,0,0,1,.26-.418.675.675,0,0,0-.13-.961c-.161-.119-.54-.4-.823-.63.032-.059.067-.123.1-.181.106-.186.227-.4.345-.652a2.518,2.518,0,0,0,.179-1.509c-.161-.823-.95-1.227-1.525-1.521a3.9,3.9,0,0,1-.556-.323,2.874,2.874,0,0,1-.4-.328c0-.1.11-.35.623-.976a27.219,27.219,0,0,0,3.087-5.016,2.005,2.005,0,0,0,.26-.912,2.361,2.361,0,0,0-.99-1.687c-.273-.251-.532-.487-.561-.686a1.326,1.326,0,0,1,.109-.48c.11-.289.237-.572.364-.856a9.9,9.9,0,0,0,.675-1.829,18.1,18.1,0,0,1,.607-2.232A11.567,11.567,0,0,1,8.945,6.153,11.11,11.11,0,0,1,14.991,3.28a43.84,43.84,0,0,1,6.33-.912,14.767,14.767,0,0,1,2.149.046A.676.676,0,1,0,23.6,1.067,16.411,16.411,0,0,0,21.25,1.02a45.032,45.032,0,0,0-6.525.936A12.265,12.265,0,0,0,7.964,5.226,12.9,12.9,0,0,0,5.257,9.64a19.723,19.723,0,0,0-.665,2.438,8.737,8.737,0,0,1-.579,1.538c-.135.307-.274.614-.4.933a2.357,2.357,0,0,0-.184,1.133,2.594,2.594,0,0,0,.987,1.5c.331.3.548.516.551.7a1.143,1.143,0,0,1-.115.293,26.041,26.041,0,0,1-2.952,4.8,2.808,2.808,0,0,0-.894,1.985A2.067,2.067,0,0,0,1.992,26.225Z" transform="translate(-0.998 -0.999)"/><path d="M12.06,12.775a8.888,8.888,0,0,1,1.851-3.036,8.629,8.629,0,0,1,4.623-2.084.675.675,0,1,0-.262-1.324,9.9,9.9,0,0,0-5.34,2.479,10.228,10.228,0,0,0-2.137,3.5,17.158,17.158,0,0,0-.554,2.058l1.318.292A16.124,16.124,0,0,1,12.06,12.775Z" transform="translate(-4.005 -2.729)"/><path d="M29.675,4.778,29.27,6.8a8.032,8.032,0,0,0-1.136.472L26.421,6.122a1.349,1.349,0,0,0-1.695.176l-1.12,1.119a1.349,1.349,0,0,0-.178,1.71l1.142,1.7a8.032,8.032,0,0,0-.472,1.136l-2.016.4A1.349,1.349,0,0,0,21,13.7v1.592a1.349,1.349,0,0,0,1.079,1.323l2.019.4a8.032,8.032,0,0,0,.472,1.136l-1.147,1.713a1.349,1.349,0,0,0,.176,1.695l1.12,1.12a1.353,1.353,0,0,0,1.71.177l1.7-1.141a8.033,8.033,0,0,0,1.136.472l.4,2.016A1.349,1.349,0,0,0,31,25.287H32.59a1.349,1.349,0,0,0,1.323-1.079l.4-2.019a8.032,8.032,0,0,0,1.136-.472l1.713,1.147a1.349,1.349,0,0,0,1.695-.176l1.119-1.119a1.349,1.349,0,0,0,.178-1.71l-1.141-1.7a8.033,8.033,0,0,0,.472-1.136l2.016-.4a1.344,1.344,0,0,0,.929-.7l1.017.681a1.232,1.232,0,0,0,.655.19,1.214,1.214,0,0,0,.862-.358l.9-.9a1.225,1.225,0,0,0,.157-1.534l-.87-1.3a6.342,6.342,0,0,0,.327-.784l1.527-.3a1.214,1.214,0,0,0,.98-1.2V9.136a1.214,1.214,0,0,0-.975-1.195l-1.533-.306a6.245,6.245,0,0,0-.325-.784l.884-1.318a1.219,1.219,0,0,0-.169-1.517l-.9-.9a1.224,1.224,0,0,0-1.534-.157l-1.3.87a6.342,6.342,0,0,0-.784-.327l-.3-1.527A1.214,1.214,0,0,0,39.85,1H38.581a1.214,1.214,0,0,0-1.195.975l-.306,1.533a6.245,6.245,0,0,0-.784.327l-1.318-.884a1.22,1.22,0,0,0-1.517.169l-.607.607A1.382,1.382,0,0,0,32.59,3.7H31A1.349,1.349,0,0,0,29.675,4.778ZM39.989,7.423l-.315-.315a2.684,2.684,0,0,1,.839,5.065l-1.024-.2a8.032,8.032,0,0,0-.472-1.136l1.147-1.713a1.349,1.349,0,0,0-.174-1.7ZM34.342,4.147l1.542,1.036a.675.675,0,0,0,.721.02,4.935,4.935,0,0,1,1.235-.516.675.675,0,0,0,.486-.519l.362-1.817h1.055l.362,1.822a.675.675,0,0,0,.486.519,4.935,4.935,0,0,1,1.235.516.675.675,0,0,0,.721-.024l1.542-1.035.749.749L43.8,6.44a.675.675,0,0,0-.02.721A4.935,4.935,0,0,1,44.3,8.395a.675.675,0,0,0,.519.486l1.822.362V10.3l-1.818.362a.675.675,0,0,0-.519.486,4.935,4.935,0,0,1-.516,1.235.675.675,0,0,0,.02.721l1.035,1.542-.749.749-1.5-1.006V13.7a1.353,1.353,0,0,0-.472-1.027A4.038,4.038,0,0,0,39.3,5.723a3.9,3.9,0,0,0-1.2.2,1.368,1.368,0,0,0-.945.208l-1.7,1.142A8.032,8.032,0,0,0,34.319,6.8l-.4-2.016a1.237,1.237,0,0,0-.047-.159Zm-3.83,3.315L31,5.048H32.59l.485,2.415a.675.675,0,0,0,.485.518,6.646,6.646,0,0,1,1.593.661.675.675,0,0,0,.714-.023l2.041-1.365,1.131,1.125-1.37,2.044a.675.675,0,0,0-.023.714,6.646,6.646,0,0,1,.661,1.593.675.675,0,0,0,.518.485l2.413.482v1.593l-2.415.485a.675.675,0,0,0-.518.485,6.646,6.646,0,0,1-.661,1.593.675.675,0,0,0,.023.714l1.365,2.041-1.125,1.131-2.044-1.37a.675.675,0,0,0-.714-.023,6.646,6.646,0,0,1-1.593.661.675.675,0,0,0-.485.518l-.483,2.413H31l-.485-2.415A.675.675,0,0,0,30.028,21a6.646,6.646,0,0,1-1.593-.661.675.675,0,0,0-.714.023L25.68,21.732l-1.131-1.125,1.37-2.044a.675.675,0,0,0,.023-.714,6.646,6.646,0,0,1-.661-1.593.675.675,0,0,0-.518-.485l-2.413-.483V13.7l2.415-.485a.675.675,0,0,0,.518-.485,6.646,6.646,0,0,1,.661-1.593.675.675,0,0,0-.023-.714L24.555,8.379,25.68,7.248l2.044,1.37a.675.675,0,0,0,.714.023,6.646,6.646,0,0,1,1.593-.661A.675.675,0,0,0,30.513,7.461Z" transform="translate(-7.506 -0.999)"/><path d="M34.723,23.445A4.723,4.723,0,1,0,30,18.723,4.723,4.723,0,0,0,34.723,23.445Zm0-8.1a3.373,3.373,0,1,1-3.373,3.373A3.373,3.373,0,0,1,34.723,15.349Z" transform="translate(-10.434 -5.229)"/><circle cx="0.675" cy="0.675" r="0.675" transform="translate(23.614 12.819)"/><circle cx="0.675" cy="0.675" r="0.675" transform="translate(5.399 13.494)"/></g></g></svg>