<svg xmlns="http://www.w3.org/2000/svg" width="1718.086" height="1274.795" viewBox="0 0 1718.086 1274.795"><g opacity="0.036"><path d="M1585.91,188.107c-44.008-22.059-89.515-44.868-134.447-3.047-37.8,35.184-70.909,37.616-95.083,39.391-21.8,1.6-37.559,2.758-39.949,29.545-1.5,16.805-2.471,31.479-3.328,44.425-4.972,75.109-6.309,95.3-85.668,167.288-32.98,29.918-67.831,49.257-106.544,59.123-56.528,14.406-94.967,40.282-108.232,72.861-9.073,22.276-5.946,46.557,9.289,72.167,30.3,50.925,52.327,133.772,33.486,187.005-8.1,22.881-22.885,38.317-43.949,45.871-57.318,20.561-89.424,42.809-104.1,72.137-13.474,26.924-10.724,57.556-7.539,93.024,3.475,38.69,7.412,82.543-6.906,136.052-8.844,33.038-30.269,32.14-65.759,30.648-29.86-1.256-67.007-2.809-113.061,14.5h8.636c42.02-14.207,76.384-12.773,104.306-11.6,35.647,1.495,59.205,2.486,68.645-32.79,14.454-54.013,10.493-98.142,7-137.075-6.433-71.637-10.682-118.962,109.743-162.16,21.915-7.862,37.287-23.886,45.692-47.631,11.227-31.719,7.311-69.3,2.049-95.246-6.671-32.88-19.711-67.229-35.778-94.235-14.741-24.781-17.8-48.185-9.1-69.563,12.725-31.249,51.463-57.182,106.281-71.152,39.176-9.983,74.425-29.536,107.759-59.776,80.23-72.78,81.583-93.218,86.617-169.256.856-12.931,1.826-27.588,3.323-44.359,2.172-24.329,15.393-25.3,37.3-26.91,24.6-1.806,58.281-4.28,96.816-40.149,43.483-40.476,86.109-19.109,131.234,3.51,9.68,4.852,19.679,9.859,29.622,14.173v-3.164C1604.759,197.546,1595.188,192.756,1585.91,188.107Z" transform="translate(103.825 25.696)" fill="gray"/><path d="M1446.6,970.284c-18.614,1.247-36.9,9.479-52.885,23.806-43.12,38.648-68.375,56.541-83.465,67.23-24.365,17.261-26.017,18.45-38.888,59.578h3.008c12.313-39.315,13.615-40.259,37.526-57.2,15.14-10.725,40.478-28.677,83.72-67.437,15.5-13.9,33.2-21.878,51.175-23.083,26.9-1.8,58.138-3.129,86.454.53v-2.925C1504.78,967.152,1473.524,968.477,1446.6,970.284Z" transform="translate(184.843 153.896)" fill="gray"/><path d="M449.822,1035.815C509.1,972.821,567.847,975.2,615.048,977.1c37.246,1.505,66.661,2.7,78.5-32.44,10.373-30.775,4.848-70.042-13.747-97.709-10.861-16.157-30.889-35.757-64.631-37.364q-11.03-.523-21.3-1.034c-114-5.6-161.181-7.921-186.774,44.439q-1.527,3.126-3.044,6.247c-24.42,50.173-47.485,97.561-100.879,81.653-123.486-36.783-161.631-97.049-195.284-150.22C81.489,748.962,58.646,712.908,0,698.421v2.995c57.028,14.331,79.512,49.8,105.478,90.828,33.925,53.6,72.377,114.349,196.888,151.439,25.076,7.472,46,2.05,63.968-16.57,15.914-16.491,27.756-40.825,40.295-66.585q1.517-3.117,3.042-6.242c12.193-24.945,29.032-37.247,58.12-42.459,28.718-5.146,69.5-3.144,125.944-.37q10.276.5,21.3,1.036c32.559,1.55,51.9,20.485,62.394,36.1,18.113,26.948,23.5,65.182,13.4,95.136-11.151,33.084-38.211,31.994-75.674,30.476-23.438-.946-50-2.021-78.53,5.119-33.106,8.286-62.181,26.111-88.887,54.492-13.482,14.33-31.562,36.942-41.125,63.289-9.075,25-8.288,47.428,2.273,66.711h3.278C382.952,1113.261,433.55,1053.111,449.822,1035.815Z" transform="translate(0 110.982)" fill="gray"/><path d="M701.713,1162.168c19.244-26.6,44.828-42.031,78.218-47.18,23.451-3.615,43.309-11.569,57.429-23,16.819-13.617,24.925-31.419,24.093-52.913-2.292-59.258,15.311-115.787,32.337-170.456q2.57-8.257,5.123-16.518c8.47-27.522,26.818-48.629,54.532-62.734,32.506-16.546,32.569-23.916,27.444-60.283-3.4-24.147-7.013-45.408-10.2-64.166C956.257,579.9,949.012,537.23,997.8,448.751c11.292-20.484,7.119-34.367,1.628-42.407-9.456-13.848-29.754-20.649-51.713-17.333-27.792,4.2-49.56,23.142-58.229,50.671-4.438,14.1-7.141,26.843-9.754,39.166-5.642,26.612-10.516,49.6-30.822,74.475-43,52.685-49.32,86.68-54.4,113.994-5.818,31.312-9.664,52-68.964,79.979-39.257,18.522-76.726,15.288-114.548-9.888-77.174-51.366-139.258-72.062-189.788-63.268-44.727,7.783-74.892,36.873-104.062,65.005-13.739,13.25-26.716,25.765-41,36.005-31.92,22.879-82.836,27.241-115.916,9.929-15.451-8.085-33.874-24.335-33.892-55.822-.013-21.95.7-44.286,1.4-65.887.947-29.459,1.925-59.921,1.067-89.86-2.592-90.426-42.688-127.746-66.645-150.045-11.282-10.5-19.433-18.088-18.759-26.26.659-7.97,9.879-17.4,29.9-30.581,63.986-42.131,80.275-110.073,44.692-186.406-26.391-56.614-69.647-62.329-107.81-67.372-3.419-.451-6.812-.9-10.175-1.384V114.4q4.864.69,9.8,1.333c39.264,5.188,79.866,10.552,105.588,65.732,34.9,74.876,18.988,141.479-43.662,182.733-21.113,13.9-30.441,23.7-31.19,32.773-.791,9.589,7.793,17.581,19.677,28.64,23.623,21.988,63.161,58.79,65.718,147.99.856,29.851-.123,60.268-1.067,89.682-.694,21.625-1.412,43.986-1.4,65.985.019,32.948,19.285,49.944,35.443,58.4,34.515,18.062,85.627,13.706,118.889-10.138,14.458-10.363,27.508-22.95,41.325-36.274,28.859-27.832,58.7-56.611,102.57-64.245,49.782-8.665,111.189,11.889,187.727,62.833,38.722,25.772,77.1,29.075,117.334,10.092,60.636-28.612,64.59-49.88,70.573-82.074,5.014-26.987,11.257-60.574,53.789-112.683,20.753-25.426,25.695-48.731,31.417-75.715,2.6-12.255,5.286-24.929,9.683-38.893,8.328-26.451,29.233-44.649,55.918-48.682,20.565-3.107,40.229,3.368,48.932,16.112,7.208,10.555,6.594,24.159-1.775,39.339-49.276,89.376-41.975,132.385-27.427,218.071,3.182,18.74,6.787,39.979,10.186,64.085,4.914,34.864,5.8,41.147-25.893,57.278-28.436,14.474-47.271,36.163-55.982,64.464q-2.541,8.259-5.12,16.509c-17.1,54.906-34.78,111.681-32.467,171.444,1.462,37.807-28.1,65.072-79.088,72.934-34.182,5.27-60.383,21.08-80.1,48.335-24.9,34.422-47.474,42.283-78.714,53.166-23.576,8.21-52.9,18.428-91.6,43.464h5.373c36.526-23.078,64.512-32.831,87.158-40.719C653.351,1205.311,676.28,1197.325,701.713,1162.168Z" transform="translate(0 17.712)" fill="gray"/><path d="M1536.6,1078.052c-60.152-6.849-60.151-6.851-139.543,28.256l-8.3,3.667c-22.533,9.955-38.513,10.4-50.285,1.392-10.964-8.388-17.953-24.26-26.047-42.64-13.218-30.016-29.669-67.373-71.962-90.5-53.881-29.468-91.38-47.038-118.759-59.865-65.773-30.819-65.773-30.819-74.734-97.595-1.84-13.7-4.126-30.743-7.431-51.3-5.508-34.27-16.131-69.242-33.427-110.059-9.2-21.721-10.373-40.208-3.574-56.517,13.605-32.636,56.172-49.194,93.731-63.8q4.079-1.587,8.031-3.136c26.8-10.536,68.675-33.455,105.864-66.183,48.757-42.908,77.337-91.083,84.946-143.187,8.553-58.566,37.5-68.341,71.012-79.658,20.819-7.03,44.414-15,66.01-35.691,36.434-34.912,71.6-20.457,116.117-2.158,8.074,3.319,16.42,6.744,25.114,10.016v-3.1c-8.294-3.143-16.294-6.42-24.035-9.6-21.917-9.009-42.619-17.519-62.042-19.079-21.626-1.736-39.777,5.194-57.126,21.818-21.134,20.251-44.409,28.11-64.945,35.046-34.412,11.62-64.133,21.656-72.942,81.988C1276,437.574,1161.524,510.337,1103.265,533.246q-3.943,1.549-8.025,3.133c-38.091,14.817-81.264,31.61-95.345,65.384-7.019,16.84-5.814,36.619,3.582,58.792,17.2,40.594,27.762,75.351,33.232,109.381,3.3,20.514,5.584,37.538,7.419,51.22,9.174,68.352,9.174,68.352,76.372,99.837,27.346,12.813,64.8,30.36,118.6,59.786,41.433,22.66,57.664,59.517,70.7,89.131,12.137,27.56,22.349,50.751,48.66,50.751,8.565,0,18.839-2.459,31.44-8.025l8.3-3.667c78.688-34.8,78.687-34.8,138.074-28.032,10.549,1.2,22.474,2.558,37.087,4v-2.918C1558.9,1080.591,1547.069,1079.245,1536.6,1078.052Z" transform="translate(144.721 29.723)" fill="gray"/><path d="M1398.643,1070.308c-20.963,4.991-31.479,7.5-46.824-4.279-12.045-9.242-21.766-19.512-28.111-29.7-36.214-58.14-95.144-93.465-147.137-124.632-56.055-33.6-104.467-62.623-116.79-111.513-4.709-18.684-9.144-35.892-13.058-51.075-20-77.591-30.038-116.538-22.959-141.589,7.009-24.806,31.3-36.633,79.685-60.2,13.053-6.357,27.847-13.56,44.527-22.1,37.548-19.227,126.3-83.709,145.458-150.072,2.53-8.767,5.7-17.554,8.766-26.05,3.3-9.137,6.7-18.585,9.349-28.084,8.029-28.848,27.558-47.185,59.7-56.061,46.987-12.976,70.477-26.7,87.629-36.723,18.669-10.906,28.038-16.38,50.972-9.4,9.264,2.82,13.493,4.371,17.225,5.74,6.979,2.56,12.062,4.422,42.913,12.255v-2.995c-30.1-7.651-35.347-9.574-41.936-11.991-3.767-1.381-8.036-2.947-17.374-5.791-24.129-7.344-34.464-1.3-53.234,9.665-17.015,9.942-40.321,23.559-86.95,36.436-33.195,9.168-53.379,28.165-61.705,58.075-2.615,9.393-6,18.789-9.282,27.875-3.081,8.541-6.267,17.373-8.824,26.232-18.892,65.461-106.8,129.247-144,148.3-16.653,8.528-31.433,15.725-44.474,22.075-49.161,23.941-73.837,35.956-81.2,62.015-7.3,25.815,2.811,65.018,22.942,143.121,3.911,15.178,8.346,32.382,13.055,51.061,12.616,50.057,61.5,79.361,118.1,113.292,51.714,31,110.329,66.135,146.172,123.683,6.529,10.48,16.489,21.013,28.806,30.465,8.691,6.669,16.045,9.031,24.177,9.031,7.234,0,15.084-1.869,25.037-4.241,27.409-6.529,73.217-17.434,170.686-3.72v-2.932C1472.256,1052.784,1426.21,1063.743,1398.643,1070.308Z" transform="translate(148.1 33.819)" fill="gray"/><path d="M244.679,970.952C155.739,902.229,119.187,858.75,92.5,827,66.315,795.854,48.952,775.215,0,753.425V756.6c47.439,21.3,63.683,40.6,90.314,72.28,26.772,31.849,63.44,75.468,152.624,144.379,71.862,55.524,77.244,78.1,86.16,115.494,4.249,17.82,9.074,37.985,21.823,66.317h3.149c-13.048-28.721-17.9-49.052-22.184-67C322.821,1050.051,317.349,1027.1,244.679,970.952Z" transform="translate(0 119.723)" fill="gray"/><path d="M730.23,1197.865c24.612-19.882,55.259-29.019,84.9-37.856,29.421-8.769,57.209-17.054,75.931-35.122,21.053-20.318,27.617-50.045,20.656-93.552-10.378-64.872,6.02-164.023,74.972-181.345,37.913-9.524,60.265-23.335,68.331-42.223,10.911-25.553-6.065-56.173-22.483-85.787-9.211-16.615-17.912-32.309-21.963-47.044-32.528-118.314,35.484-185.742,80.489-230.361,22.226-22.035,38.285-37.957,35.406-52.534-1.807-9.155-10.983-16.792-28.876-24.034-37.81-15.3-87.007-25.341-113.438-30.733-7.831-1.6-13.489-2.751-15.74-3.424-24.775-7.415-56.572.278-82.984,20.073-33.693,25.255-53.246,66.032-53.644,111.876-.415,47.67-14.175,66.223-33.221,91.9-17.359,23.4-38.964,52.53-58.51,114.329-11.515,36.4-52.957,56.458-92.417,44.741-4.234-1.853-151.045-66.075-193.69-79.809-66.7-21.478-109.077,17.3-146.468,51.524-10.727,9.817-20.858,19.088-31.246,26.778-27.712,20.509-52.991,27.206-73.1,19.364-16.593-6.468-28.288-22.5-32.912-45.076-.443-4.6-10.928-113.248-17.487-160.36-3.634-26.117-7.028-46.605-9.755-63.068-7.292-44.022-10.021-60.495-1.505-85.511,24.984-73.39,47.521-174.546,13.006-239.678C128.437,91.8,89.006,91.122,29.321,90.1c-9.373-.16-19.067-.33-29.321-.694v2.9c10.241.363,19.917.534,29.272.694,58.673,1,97.434,1.668,122.676,49.3,34.026,64.208,11.609,164.517-13.189,237.36C130,405.38,132.766,422.05,140.145,466.6c2.725,16.446,6.115,36.914,9.745,62.992,6.549,47.053,17.029,155.637,17.471,160.237.006.051.021.176.031.227,4.845,23.651,17.171,40.441,34.705,47.276,14.693,5.727,39.774,6.953,75.828-19.73,10.509-7.776,20.694-17.1,31.476-26.967,36.817-33.7,78.545-71.886,143.676-50.909,42.915,13.82,192,79.084,193.5,79.741a1.41,1.41,0,0,0,.165.06c20.3,6.054,41.464,4.395,59.591-4.673,17.761-8.885,30.706-23.781,36.451-41.943,19.4-61.334,40.842-90.243,58.071-113.471,19.376-26.12,33.373-44.991,33.8-93.617.535-61.505,33.112-95.048,52.483-109.568,25.7-19.264,56.532-26.785,80.463-19.624,2.373.71,8.084,1.875,15.987,3.488,26.342,5.374,75.372,15.375,112.94,30.581,16.678,6.751,25.551,13.916,27.129,21.908,2.574,13.034-13.832,29.3-34.6,49.891-45.487,45.1-114.226,113.248-81.245,233.213,4.144,15.073,13.336,31.653,22.225,47.688,16.075,29,32.7,58.979,22.35,83.213-7.688,18-29.4,31.266-66.388,40.557-70.719,17.766-87.666,118.659-77.112,184.627,14.849,92.806-35.855,107.922-94.566,125.424-29.905,8.916-60.827,18.133-85.878,38.369-35.287,28.506-64.441,38.2-92.633,47.581-15.242,5.071-29.644,9.865-44.188,17.414h6.5c12.615-6.015,25.276-10.229,38.583-14.656C665.137,1236.476,694.539,1226.694,730.23,1197.865Z" transform="translate(0 14.207)" fill="gray"/><path d="M364.251,1073.432c.938-32.836,1.616-56.563-43.832-83.016C164.945,899.925,131.706,857,102.38,819.121,81.39,792.013,61.548,766.4,0,727.495v3.431c59.917,38.09,79.468,63.312,100.122,89.987C129.61,859,163.033,902.16,318.99,992.934c43.96,25.586,43.3,48.583,42.394,80.414-.639,22.4-1.421,50.17,13.811,85.845h3.127C362.829,1123.57,363.58,1096.942,364.251,1073.432Z" transform="translate(0 115.602)" fill="gray"/><path d="M711.488,1189.746c29.633-30.142,68.27-42.311,102.154-50.241,37.168-8.7,58.4-20.953,68.849-39.738,9.852-17.711,9.778-40.179,9.687-68.625-.13-40.09-.291-89.982,25.19-156.088,12.907-33.484,42.875-43.963,69.316-53.208,20.028-7,37.325-13.051,43.986-27.651,4.476-9.815,3.524-22.683-2.914-39.34-3.833-9.919-8.753-19.661-13.513-29.081-6.672-13.206-13.57-26.861-17.4-40.953-32.69-120.309,15.783-185.086,47.858-227.951,15.189-20.3,27.186-36.332,24.7-51.107-1.408-8.367-7.446-16.024-18.457-23.408-23.219-15.568-47.517-25.125-72.218-28.406-22.43-2.978-44.42-.488-63.6,7.2-29.059,11.655-49.41,34.163-55.834,61.756-3.634,15.61-6.1,31.709-8.477,47.277-1.137,7.438-2.314,15.13-3.6,22.661-5.145,30.078-19.791,51.17-35.3,73.5-17.217,24.8-35.022,50.434-43.787,91.672-10.331,48.6-35.8,71.948-87.893,80.6-21.84,3.625-56-13.776-95.565-33.923-75.671-38.54-169.846-86.5-240.992-22.01-6.5,5.891-13.06,11.926-19.4,17.763-17.105,15.737-34.793,32.01-53.038,47.067-20.536,16.95-52.389,22.552-77.463,13.616-15.128-5.389-34.521-18.271-41-49.037-5.041-23.922-5.626-53.989-6.247-85.82-1.236-63.325-2.636-135.1-37.423-194.348-15.637-26.632-5.74-41.632,9.242-64.338,11.649-17.655,26.145-39.626,32.716-74.449,11.161-59.162,3.795-106.524-23.182-149.051-24.659-38.875-75.526-42.519-112.667-45.18C9.822,98.52,4.729,98.15,0,97.7v2.916c4.686.439,9.7.805,15.006,1.184,36.536,2.618,86.573,6.2,110.456,43.853,26.555,41.862,33.791,88.552,22.777,146.937-6.461,34.243-20.779,55.944-32.283,73.381-15.026,22.774-25.884,39.229-9.323,67.434,34.4,58.593,35.793,129.957,37.021,192.922.623,31.974,1.212,62.176,6.309,86.368,5.274,25.032,20.494,43.205,42.856,51.172,25.966,9.251,58.957,3.45,80.229-14.105,18.3-15.105,36.02-31.405,53.154-47.167,6.341-5.834,12.9-11.866,19.388-17.747,69.689-63.175,162.9-15.7,237.791,22.439,40.008,20.377,74.557,37.976,97.317,34.2,53.467-8.875,79.609-32.879,90.233-82.852,8.643-40.659,26.276-66.053,43.329-90.61,15.7-22.606,30.523-43.957,35.777-74.676,1.293-7.558,2.471-15.263,3.61-22.713,2.372-15.513,4.827-31.556,8.435-47.056,6.206-26.654,25.924-48.421,54.1-59.721,39.955-16.024,89.74-8.2,133.178,20.922,10.315,6.916,15.946,13.94,17.213,21.474,2.279,13.536-9.388,29.127-24.156,48.865C1010,498.435,961.013,563.9,994.078,685.59c3.907,14.381,10.873,28.171,17.61,41.506,4.728,9.357,9.617,19.033,13.4,28.816,6.138,15.884,7.113,28.007,2.98,37.065-6.149,13.478-22.91,19.34-42.319,26.125-27.028,9.451-57.66,20.161-71.049,54.9-25.681,66.62-25.518,116.817-25.388,157.154.182,56.485.283,87.6-76.314,105.523-34.283,8.022-73.394,20.357-103.54,51.022-22.95,23.344-42.867,30.269-68.084,39.039-20.012,6.959-42.69,14.851-72.965,32.533h5.813c27.864-15.788,49.174-23.21,68.084-29.786C667.872,1220.591,688.069,1213.568,711.488,1189.746Z" transform="translate(0 15.525)" fill="gray"/><path d="M1385.67,1086.414c-7.763,9.034-15.792,18.372-24.563,28.228h3.853c8.118-9.158,15.614-17.875,22.875-26.321,47.391-55.136,76.124-88.54,132.359-74.368v-2.99C1462.68,996.826,1431.946,1032.578,1385.67,1086.414Z" transform="translate(197.892 160.154)" fill="gray"/><path d="M946.737,1203.761c21.483-40.925,18.991-85.955,16.79-125.684-2.834-51.185-5.281-95.391,38.169-123.087,16.588-10.574,32.236-18.513,46.043-25.52,28.9-14.666,51.727-26.248,61.947-51.627,13.335-33.109,15.182-68.059,5.493-103.876-8.183-30.246-22.74-55.336-33.369-73.656-4.441-7.651-8.273-14.258-10.422-19.229-10.536-24.373-10.726-47.619-.562-69.093,14.21-30.024,48.807-54.5,94.92-67.145,75.531-20.715,95.954-30.433,160.468-95.4,26.073-26.259,40.605-57.786,42.025-91.173,1.269-29.837-8.125-60.2-26.455-85.5-18.226-25.16-43.871-43.475-72.212-51.57-31.329-8.949-64.1-5.076-94.772,11.2-5.113,2.713-10.275,5.566-15.267,8.324-15.061,8.322-30.635,16.928-46.916,22.849-71.74,26.088-110.7,12.319-148.374-1-33.08-11.691-64.325-22.734-113.705-1.943C719.231,315.919,716.81,385.565,714.673,447.014c-1.5,43.149-2.8,80.414-45.553,108.156C583.787,610.529,525.8,593.316,464.406,575.1c-23.435-6.956-47.667-14.148-73.343-16.8-16.521-1.708-31.082-3.049-43.93-4.232-48.1-4.429-72.249-6.653-85.718-17.7-13.386-10.979-16.752-31.273-23.46-71.7-3.913-23.585-8.783-52.938-17.333-91.345-14.836-66.649,6.265-100.625,50.395-140.007,50.372-44.953,130.593-44.986,195.051-45.013,48.915-.021,91.159-.037,108.294-19.18,6.558-7.327,9.162-16.907,7.962-29.288q-.713-7.341-1.406-14.312C574.833,63.947,570.809,23.134,589.694,0H586.03c-18,24.307-13.968,65.084-7.966,125.8q.689,6.971,1.4,14.307c1.118,11.518-1.247,20.369-7.232,27.055-16.281,18.188-57.936,18.205-106.17,18.225-64.941.028-145.761.06-196.946,45.74-25.775,23-40.257,41.533-48.428,61.963-9.145,22.871-10.057,48.565-2.867,80.86,8.532,38.33,13.4,67.637,17.3,91.187,6.827,41.15,10.254,61.8,24.483,73.477,14.146,11.6,38.581,13.854,87.263,18.336,12.84,1.183,27.393,2.523,43.9,4.23,25.413,2.628,49.516,9.782,72.826,16.7,29.677,8.808,60.386,17.906,93.775,17.617,37.458-.336,74.517-12.728,113.293-37.886,44.025-28.562,45.409-68.361,46.874-110.5,2.105-60.576,4.492-129.232,134.1-183.806,48.366-20.368,79.109-9.5,111.656,2,21.466,7.586,44.612,15.77,74.933,15.769,21.051,0,45.566-3.948,75.357-14.782,16.49-6,32.164-14.657,47.319-23.032,4.983-2.754,10.134-5.6,15.224-8.3,67.222-35.675,130.472-5.859,163.341,39.514,32.839,45.332,40.848,116.374-15.281,172.9-67.041,67.516-86.7,74.778-159.2,94.659-46.918,12.868-82.185,37.905-96.756,68.692-10.54,22.27-10.365,46.33.521,71.511,2.217,5.129,6.091,11.806,10.576,19.536,21.671,37.348,57.94,99.859,27.694,174.967-9.814,24.367-31.108,35.172-60.577,50.126-13.865,7.036-29.58,15.01-46.287,25.659-44.88,28.608-42.268,75.773-39.5,125.708,2.286,41.272,4.649,83.948-16.458,124.157-16.536,31.5-40.9,35.1-77.785,40.541-29.408,4.339-65.994,9.742-111,31.857h6.708c42.125-19.738,76.7-24.85,104.708-28.984C903.226,1240.439,929.52,1236.559,946.737,1203.761Z" transform="translate(30.976)" fill="gray"/><path d="M851.61,1218.469c39.506-9.027,64.416-26.953,76.152-54.8,17.353-41.166,15.657-78.906,14.162-112.2-2.591-57.64-4.637-103.169,84.841-142.43,31.6-13.865,53.7-35.893,63.917-63.7,9.862-26.852,7.633-56.648-6.446-86.165-5.5-11.52-12.441-22.6-19.158-33.32-3.629-5.792-7.382-11.78-10.855-17.757-22.665-39.009-26.384-78.144-10.754-113.173,18.736-41.989,64.444-73.8,122.271-85.083,16.78-3.275,35.8-6.987,52.224-14.631,33.966-15.809,63.135-40.989,91.794-79.247,24.625-32.87,24.328-71.506-.795-103.348-24.706-31.312-50.792-46.481-82.1-47.735-27.84-1.114-56.307,8.922-86.452,19.551-26.84,9.464-54.594,19.249-84.279,22.083-29.54,2.822-56.265-5.753-82.119-14.044-34.182-10.962-66.467-21.315-103.115-6.226C744.5,338.278,743.749,422.749,743.3,473.219c-.089,10.114-.167,18.848-1.255,25.58-6.022,37.221-39.407,78.862-83.074,103.619-52.154,29.569-111.914,33.031-168.269,9.751-94.033-38.849-125.495-32.189-182.613-20.1-15.706,3.324-33.506,7.091-55.028,10.342-8.332,1.259-21.171-1.3-32.235-12.261-13.96-13.827-28.839-44.379-20.444-111.41,3.16-25.234-.023-51.885-3.394-80.1-4.467-37.393-9.085-76.058,1.932-112.129,5.954-19.5,17.148-36.563,27.973-53.071,3.53-5.383,7.179-10.948,10.611-16.538,18.331-29.857,32.174-57.273,15.842-90.481-4.137-8.413-3.784-14.711,1.046-18.72,7.714-6.4,18.688.583,35.3,11.153,23.728,15.1,60.518,38.513,117.415,38.512A230.084,230.084,0,0,0,448.3,153.51c72.414-13.164,74.753-56.784,78.293-122.811.527-9.814,1.077-19.963,1.87-30.7h-2.876c-.787,10.683-1.334,20.779-1.858,30.541-3.591,66.945-5.757,107.354-75.936,120.111-79.916,14.522-126.048-14.832-156.576-34.257-17.663-11.24-29.333-18.665-38.643-10.94-4.128,3.426-7.791,10.069-1.8,22.259,15.674,31.869,2.158,58.551-15.709,87.655-3.41,5.552-7.048,11.1-10.565,16.465-10.937,16.679-22.247,33.925-28.324,53.82-11.2,36.662-6.541,75.639-2.039,113.334,3.348,28.033,6.512,54.511,3.4,79.388C189,546.59,204.4,577.939,218.821,592.226c14.869,14.726,30.289,13.716,34.664,13.057,21.6-3.263,39.45-7.039,55.192-10.371,56.565-11.971,87.725-18.565,180.943,19.946,57.18,23.624,117.823,20.1,170.755-9.905,44.387-25.167,78.346-67.637,84.5-105.683,1.125-6.953,1.2-15.791,1.293-26.025.441-49.746,1.18-133.005,125.811-184.322,35.692-14.694,67.5-4.494,101.169,6.3,26.127,8.378,53.147,17.042,83.254,14.166,30.031-2.867,57.952-12.711,84.954-22.232,60.393-21.293,112.551-39.682,165.363,27.255,24.25,30.736,24.532,68.037.751,99.781-28.362,37.863-57.186,62.763-90.707,78.363-16.109,7.5-34.948,11.174-51.568,14.419-58.741,11.465-105.225,43.891-124.342,86.739-16.03,35.926-12.263,75.982,10.9,115.841,3.5,6.017,7.263,12.028,10.905,17.839,6.672,10.649,13.573,21.66,19,33.028,13.732,28.787,15.925,57.8,6.343,83.89-9.935,27.05-31.5,48.508-62.37,62.052-91.293,40.056-89.1,88.794-86.567,145.226,1.483,32.988,3.162,70.375-13.932,110.932-11.351,26.931-35.6,44.3-74.148,53.109-55.281,12.632-99.611,34.11-128.946,48.323-9.862,4.778-17.668,8.558-23.5,10.837h7.413c4.868-2.186,10.615-4.966,17.326-8.217C752.489,1252.421,796.643,1231.027,851.61,1218.469Z" transform="translate(27.513)" fill="gray"/><path d="M1457.874,1039.745c-20.507,12.36-44.186,34.556-76.725,71.923h3.83c31.467-35.968,54.474-57.441,74.362-69.428,19.623-11.828,37.026-15.2,57.939-11.216v-2.948C1496.118,1024.175,1477.712,1027.787,1457.874,1039.745Z" transform="translate(200.806 163.127)" fill="gray"/><path d="M871.9,1228.389c39.459-9.456,63.958-32.432,74.9-70.244,9.2-31.793,6.847-67.558,4.958-96.3-.88-13.384-1.639-24.942-1.026-33.487,4.726-65.9,44.084-86.644,82.144-106.7,22.474-11.844,43.7-23.032,58.234-42.779,16.457-22.365,21.246-51.714,15.068-92.364-4.4-28.974-20.752-54.434-35.176-76.9-22.808-35.517-28.264-71.106-15.777-102.92,13.7-34.9,49.865-64.155,92.139-74.53,5.376-1.32,10.889-2.6,16.221-3.845,19.924-4.639,40.526-9.436,59.361-17.319,23.8-9.957,60.345-34.125,88.352-65.666,23.495-26.459,48.68-67.076,35.246-110.322-11.276-36.3-34.223-64.723-64.614-80.038-30.774-15.508-66.518-16.677-103.368-3.38-9.715,3.5-19.212,7.918-28.4,12.185-7.213,3.352-14.669,6.817-22.161,9.807-81.482,32.533-121.117,17.935-156.082,5.055-10-3.685-19.453-7.165-29.566-9.538-40.481-9.494-85.034-.071-125.456,26.528-37.436,24.635-66.882,61-80.785,99.774-5.889,16.419-6.382,34.918-6.9,54.5-1.143,42.8-2.437,91.315-65.059,127.294-63.6,36.539-123.05,42.219-181.758,17.358-64.106-27.143-120.581-24.846-165.961-23-35.476,1.444-63.494,2.583-79.254-12.419-10.042-9.559-14.955-25.122-15.463-48.978-1.27-59.788-7.744-100.58-12.472-130.366-10.147-63.933-13.566-85.472,50.013-159.563,36.413-42.436,96.344-45.11,154.3-47.7,62.77-2.8,122.058-5.449,133.147-64.13a1.474,1.474,0,0,0,.025-.224C546.742,107.853,548,73.834,560.281,0h-2.908c-11.881,71.568-13.416,105.728-13.505,107.975-4.88,25.656-19.26,41.8-45.244,50.789-23.472,8.123-53.452,9.461-85.193,10.879-55.834,2.493-119.118,5.318-156.34,48.695-31.935,37.215-47.376,61.824-53.294,84.94-5.93,23.157-2.53,44.573,2.615,76.988,4.714,29.7,11.171,70.38,12.437,129.968.525,24.687,5.725,40.9,16.365,51.03,16.637,15.838,45.187,14.677,81.333,13.206,45.1-1.833,101.22-4.116,164.739,22.778,59.586,25.229,119.862,19.5,184.283-17.512,64.028-36.787,65.346-86.171,66.51-129.742.516-19.343,1-37.613,6.732-53.59,26.918-75.062,116.864-144.643,202.9-124.464,9.944,2.333,19.313,5.783,29.233,9.438,19.5,7.182,40.424,14.892,69.049,14.891,23.4,0,51.957-5.158,89.068-19.973,7.565-3.02,15.059-6.5,22.3-9.869,9.128-4.242,18.567-8.627,28.163-12.09,36.1-13.025,71.066-11.9,101.126,3.245,29.687,14.96,52.115,42.771,63.156,78.309,23.771,76.519-76.244,153.3-121.958,172.433-18.614,7.789-39.1,12.559-58.909,17.171-5.34,1.243-10.86,2.529-16.254,3.853-43.813,10.753-79.881,39.982-94.128,76.279-12.846,32.729-7.3,69.235,16.039,105.576,14.267,22.216,30.438,47.4,34.747,75.755,13.266,87.3-28.05,109.071-71.793,132.124-38.759,20.427-78.837,41.55-83.68,109.067-.628,8.748.139,20.4,1.026,33.891,3.734,56.812,9.378,142.666-77.655,163.52-92.723,22.217-97.4,25.179-109.915,33.088-5.768,3.649-12.951,8.188-30.971,16.145h7.054a189.8,189.8,0,0,0,25.437-13.682C775.067,1253.386,779.638,1250.5,871.9,1228.389Z" transform="translate(29.174)" fill="gray"/><path d="M840.43,1207.908c54.892-11.332,87.725-31.534,103.335-63.574,14.34-29.434,13.542-66.385,12.619-109.17-.232-10.729-.472-21.825-.484-33.263-.065-65.865,43.394-89.063,85.423-111.5,30.067-16.05,58.464-31.208,66.588-61.209,7.63-28.173-3.429-65.4-34.8-117.153-43.216-71.292-33.637-134.847,28.474-188.894,26.679-23.214,58.59-32.03,89.45-40.556,26.086-7.207,53.061-14.659,76.343-30.8,26.1-18.1,44.77-45.487,57.066-83.736,4.412-13.728-6.327-33.164-9.725-38.794-23.615-39.143-56.537-52.544-106.745-43.447-30.186,5.468-51.956,11.448-69.448,16.253C1090,315.4,1067.847,321.48,965,290.143c-27.417-8.356-65.5-.1-99.385,21.528-41.832,26.7-69.789,67.989-76.7,113.271A374.433,374.433,0,0,0,784.9,475.3c-1.151,43.929-1.538,58.729-107.135,150.228-34.941,30.275-98.613,23.975-194.66-19.26-78.063-35.138-137.731-9.418-181.3,9.362-24.943,10.751-44.646,19.24-59.6,13.068-8.352-3.45-15.031-11.513-20.419-24.651-19.7-48.047-18.558-72.018-16.476-115.532,1.114-23.318,2.5-52.34,1.145-93.65-.19-5.781-.388-11.284-.578-16.549-2.4-66.543-3.395-94.086,30.954-162.255,14.119-28.018,14-55.194-.349-80.773-28.251-50.35-45.163-74.458-70.692-84.213C140,41.218,105.463,46.163,42.765,55.141,30.012,56.968,15.6,59.031,0,61.146v2.93c15.759-2.135,30.3-4.217,43.166-6.059,125.5-17.973,135.757-19.443,190.827,78.7,13.844,24.675,13.942,50.926.289,78.02-34.689,68.84-33.617,98.56-31.267,163.679.191,5.263.389,10.763.578,16.541,1.353,41.191-.032,70.146-1.144,93.412-2.1,43.935-3.258,68.137,16.694,116.786,5.7,13.891,12.887,22.469,21.984,26.226,16.058,6.631,36.248-2.069,61.805-13.085,43.082-18.57,102.085-44,179.007-9.379,97.16,43.737,161.824,49.89,197.691,18.812C786.2,535.394,786.591,520.27,787.768,475.375a371.809,371.809,0,0,1,3.977-49.989c6.785-44.451,34.266-85,75.4-111.258,33.207-21.2,70.389-29.321,97.028-21.2,103.642,31.577,126.039,25.425,175.109,11.948,17.439-4.79,39.143-10.75,69.2-16.2,48.871-8.856,80.884,4.129,103.794,42.1,6.666,11.05,12.649,26.411,9.444,36.383-26.927,83.759-77.691,97.784-131.436,112.632-31.167,8.611-63.4,17.513-90.565,41.156-63.341,55.116-73.114,119.921-29.049,192.616,30.5,50.321,41.78,87.892,34.476,114.865-7.794,28.786-35.658,43.661-65.159,59.407-40.79,21.773-87.02,46.451-86.953,114.069.011,11.47.251,22.579.483,33.325.916,42.4,1.705,79.024-12.323,107.822-15.184,31.17-47.385,50.875-101.335,62.014-38.769,8-59.582,19.728-81.617,32.144-18.017,10.151-36.648,20.646-66.751,30.332H700.6c25.644-8.984,42.594-18.532,59.034-27.8C781.471,1227.443,802.1,1215.823,840.43,1207.908Z" transform="translate(0 7.255)" fill="gray"/><path d="M840.708,1189.938c107.216-32.552,103.733-82,100.047-134.353-.891-12.634-1.811-25.7-1.188-38.741,5.081-106.458,44.5-121.421,82.616-135.89,23.319-8.852,47.432-18,62.931-47.841,22.661-43.628.83-78.736-20.281-112.686-11.8-18.972-24-38.589-28.818-59.834C1012.448,556.782,1094.975,483.18,1181.7,458.7c21.325-6.018,43.376-12.24,61.01-27.125,43.22-36.483,41.422-67.546,36.5-82.814-7.031-21.819-28.793-37.59-54.155-39.246-30.186-1.97-59.471,3.807-89.311,10.428-56.327,12.494-102.535-.158-139.663-10.322-13.656-3.74-26.554-7.271-38.105-8.994-33.566-5.006-75.567,11.5-109.614,43.08-30.22,28.029-48,62.5-46.408,89.962,4.7,81-28.111,119.169-69.653,167.5-12.668,14.737-25.767,29.975-39.131,47.81-15.672,20.917-34.932,27.006-64.405,20.36-46.718-10.537-83.513-25.4-115.975-38.513-36.419-14.711-67.871-27.415-101.039-28.587-35.749-1.257-71.785,11.364-113.4,39.731C273,659.252,246.79,677.124,226.4,666.768c-24.555-12.473-38.16-63.874-42.815-161.761-.925-19.448,1.117-47.676,3.09-74.974,1.8-24.834,3.492-48.29,2.814-63.231-2.764-60.783,8.847-99.957,18.175-131.434,13.766-46.449,22.861-77.134-25.1-136.223C148.356,56.988,110.349,60,47.38,64.982,33.252,66.1,17.282,67.36,0,68.187v2.908C17.377,70.266,33.418,69,47.6,67.877c62.041-4.911,99.485-7.876,132.751,33.11,46.987,57.9,38.068,87.991,24.567,133.545-9.391,31.689-21.08,71.125-18.294,132.4.671,14.768-1.019,38.141-2.809,62.886-1.98,27.385-4.028,55.7-3.095,75.326,4.71,99.042,18.815,151.224,44.393,164.217,21.883,11.116,48.805-7.237,74.842-24.986,88.794-60.534,137.717-40.77,211.772-10.856C544.3,646.674,581.2,661.584,628.146,672.17c30.321,6.843,51.082.227,67.315-21.436,13.306-17.759,26.373-32.96,39.01-47.661,41.972-48.826,75.124-87.392,70.352-169.572-1.545-26.612,15.883-60.2,45.483-87.65,33.426-31,74.524-47.23,107.258-42.348,11.384,1.7,24.2,5.207,37.773,8.922,37.43,10.248,84.015,23,141.027,10.356,29.631-6.574,58.7-12.313,88.513-10.366,24.2,1.581,44.943,16.549,51.611,37.25,4.694,14.57,6.31,44.3-35.613,79.684-17.161,14.485-38.91,20.623-60.023,26.581-48.764,13.762-90.655,40.544-117.959,75.413-30.006,38.32-40.268,83.24-29.675,129.9,4.932,21.724,17.262,41.552,29.187,60.729,21.629,34.787,42.062,67.643,20.169,109.788-14.99,28.858-37.532,37.414-61.4,46.474-38.988,14.8-79.3,30.1-84.475,138.468-.63,13.215.3,26.367,1.192,39.087,1.849,26.24,3.594,51.024-8.165,73.271-13.237,25.045-41.786,43.5-89.843,58.095-57.695,17.517-79.228,29.719-100.053,41.52-18.567,10.522-37.768,21.4-82.636,36.236h9.081c39.365-13.534,57.441-23.776,74.957-33.7C762.875,1218.946,783.316,1207.362,840.708,1189.938Z" transform="translate(0 9.883)" fill="gray"/><path d="M1524.134,1042.218c-62.325-5.359-85.646-7.363-107.761-5.4-56.423,5.005-75.241-19.421-95.161-45.281-8.367-10.861-17.017-22.091-28.639-30.862-49.5-37.352-86.765-63.554-116.712-84.609-100.434-70.614-100.434-70.614-125.083-191.223q-1.881-9.208-3.971-19.374c-15.577-75.6,19.423-92.568,72.4-118.243,29.985-14.533,67.3-32.62,103.442-66.142,5.957-5.526,11.829-10.584,17.507-15.476,30.7-26.441,57.206-49.279,78.1-126.856,14.493-53.8,63.77-70.707,106.169-63.6,25.956,4.349,43.478,17.284,42.612,31.454-2.98,48.777-7.725,83.467-11.19,108.8-4.365,31.914-6.556,47.932.015,56.435,3.442,4.455,9.191,6.814,19.221,7.889,29.664,3.175,66.925-8.28,91.772-28.008V447.98c-24.271,20.18-61.782,32.033-91.469,28.853-9.184-.984-14.347-3.014-17.265-6.79-5.822-7.534-3.687-23.146.567-54.247,3.472-25.375,8.225-60.127,11.213-109.015.959-15.711-17.548-29.9-45.007-34.5-21.791-3.652-45-.511-63.65,8.618-22.89,11.2-38.711,30.94-45.754,57.084-20.666,76.712-46.864,99.28-77.2,125.41-5.7,4.908-11.59,9.984-17.587,15.547-35.822,33.229-72.928,51.213-102.742,65.664-26.419,12.8-49.236,23.861-63.039,41.257-15.074,19-18.445,43.73-10.932,80.2q2.1,10.178,3.971,19.371c24.88,121.744,24.88,121.744,126.254,193.018,29.93,21.043,67.177,47.232,116.635,84.553,11.312,8.538,19.841,19.611,28.09,30.319,17.841,23.162,36.23,47.044,83.553,47.041q6.665,0,14.122-.652c21.87-1.94,45.124.06,107.267,5.4,12.6,1.084,26.827,2.306,42.968,3.663v-2.915C1550.819,1044.512,1536.669,1043.3,1524.134,1042.218Z" transform="translate(151.226 43.031)" fill="gray"/><path d="M735.181,1216.186c3-1.911,6.011-3.945,8.92-5.913,7.817-5.285,15.9-10.751,24.595-14.3,20.806-8.484,42.864-15.2,61.906-20.833,105.516-31.2,101.46-96.016,97.538-158.695-1.871-29.9-3.806-60.823,6.415-87.488,11.429-29.817,37.31-51.258,79.122-65.55,38.393-13.123,53.775-34.072,59.92-49.333,7.743-19.234,4.592-37.778-.457-47.813-5.875-11.672-12.454-23.247-18.818-34.437-6.007-10.567-12.22-21.494-17.811-32.46-22.284-43.708-26.267-87.162-11.839-129.156,19.293-56.149,72.218-107.522,145.206-140.944,14.529-6.652,27-16.91,40.63-28.648,10.967-9.442,14.952-24.583,9.916-37.676-5.16-13.418-17.926-21.065-34.179-20.43-98.789,3.8-170.782-13.268-209.455-22.438-11.525-2.732-19.851-4.705-25.583-5.4-27.06-3.287-62.8,11.865-91.034,38.59-30.069,28.46-46.268,65.122-44.446,100.587,2.892,56.273-17.924,84.249-44.28,119.669-16.845,22.638-35.939,48.3-52.224,86.1-8.305,19.281-19.277,31.305-33.543,36.759-30.548,11.684-72.194-8.034-120.417-30.859-36.749-17.4-78.4-37.109-120.082-44.174-47.952-8.124-88.813,1.667-124.924,29.933-6.831,5.347-13.8,11.179-20.544,16.817C270.7,692.372,240.7,717.462,217.4,707.057c-28.462-12.712-45.17-77.906-51.082-199.3-3.526-72.258,5.446-141.033,13.362-201.712,7.7-59.032,14.352-110.015,7.524-148.945-7.5-42.776-31.087-66.931-74.224-76.016-36.088-7.6-46.221-6.571-64.621-4.7A433.963,433.963,0,0,1,0,78.926v2.9a436.785,436.785,0,0,0,48.644-2.561c18.115-1.84,28.1-2.856,63.749,4.654,90.87,19.138,79.783,104.119,64.44,221.738-7.932,60.8-16.922,129.715-13.383,202.235,6.053,124.308,22.828,188.437,52.789,201.82a31,31,0,0,0,12.792,2.674c22.244,0,47.731-21.319,72.512-42.047,6.723-5.625,13.676-11.441,20.469-16.759,79.6-62.312,165.9-21.465,242.037,14.572,48.811,23.105,90.966,43.059,122.646,30.946,15.026-5.745,26.527-18.278,35.158-38.315,16.15-37.493,35.136-63.007,51.886-85.519,26.706-35.89,47.8-64.238,44.855-121.566-1.78-34.607,14.091-70.442,43.54-98.316,27.644-26.165,62.464-41.01,88.733-37.827,5.574.676,14.266,2.736,25.269,5.345,38.807,9.2,111.023,26.324,210.219,22.512,14.978-.563,26.7,6.373,31.4,18.582,4.594,11.941.937,25.771-9.1,34.411-13.465,11.593-25.766,21.718-39.955,28.214-73.7,33.748-127.183,85.737-146.732,142.636-14.7,42.775-10.66,87,12,131.442,5.62,11.025,11.85,21.981,17.874,32.577,6.346,11.16,12.906,22.7,18.746,34.306,4.776,9.489,7.736,27.073.359,45.4-5.918,14.7-20.816,34.907-58.18,47.677-95.208,32.541-91.282,95.291-87.484,155.975,1.933,30.9,3.933,62.841-7.5,90.066-12.794,30.457-41.571,51.933-87.975,65.656-19.109,5.651-41.247,12.393-62.174,20.927-8.971,3.658-17.177,9.209-25.116,14.577-2.892,1.955-5.884,3.977-8.853,5.867-40.664,25.874-56.233,30.374-74.261,35.584a265.343,265.343,0,0,0-38.047,13.561H628.7a266.644,266.644,0,0,1,31.481-10.767C678.42,1246.831,694.172,1242.28,735.181,1216.186Z" transform="translate(0 11.924)" fill="gray"/><path d="M240.006,1002.166C170.8,942.248,134.248,897.365,104.878,861.3,71.179,819.923,48.83,792.5,0,775.293v3.08c47.386,16.928,68.317,42.6,102.664,84.774,27.888,34.245,66.082,81.142,135.478,141.227,42.571,36.855,62.348,81.543,78.24,117.45,4.709,10.64,9.178,20.718,13.842,29.774h3.237c-4.876-9.314-9.536-19.832-14.462-30.96C302.99,1084.465,283.066,1039.448,240.006,1002.166Z" transform="translate(0 123.198)" fill="gray"/><path d="M1452.565,1020.54c-76.348-6.411-76.348-6.411-140.2-61.639-31.684-27.4-79.567-68.816-160.317-131.324-50.822-39.341-69.84-54.06-87.662-172.65-8.326-55.4,25.172-79.969,62.61-98.273,75.607-36.965,127.533-72.458,158.745-108.507,27.069-31.266,34.279-57.737,40.641-81.092,2.021-7.414,3.927-14.416,6.358-21.127,5.521-15.248,13.9-32.01,34.212-40.722,18.588-7.97,35.8-6.124,48.489,5.194,16.339,14.583,21.411,34.306,15.5,60.3-5.22,22.961-18.276,47.777-29.795,69.671l-.654,1.242c-10.471,19.906-8.244,40.766,6.111,57.229,16.08,18.443,43.179,25.862,64.433,17.639,16.109-6.23,69.169-27.181,92.907-41.727v-3.419c-22.659,14.422-77.522,36.088-93.931,42.433-20.177,7.807-45.941.72-61.258-16.848-13.518-15.5-15.607-35.165-5.729-53.942l.653-1.241c23.241-44.173,52.167-99.148,13.657-133.513-13.558-12.1-31.85-14.121-51.5-5.69-21.319,9.144-30.055,26.562-35.788,42.4-2.47,6.824-4.394,13.881-6.429,21.354-12.743,46.78-28.6,105-197.87,187.755-24.669,12.062-40.986,24.321-51.344,38.579-12.424,17.1-16.628,37.625-12.852,62.748,17.23,114.645,33.831,132,88.756,174.519,80.688,62.459,128.535,103.842,160.2,131.224,64.559,55.837,64.559,55.837,141.829,62.324,26.035,2.185,61.621,5.176,111.612,11.387V1031.9C1514.078,1025.705,1478.563,1022.722,1452.565,1020.54Z" transform="translate(154.144 47.259)" fill="gray"/><path d="M1505.412,990.111C1384,975.5,1384,975.5,1297.36,899.283c-22.446-19.743-50.381-44.316-87.7-75.578-9.516-7.973-18.395-15.277-26.226-21.721-64.708-53.24-82.1-67.55-96.711-155.275-11.26-67.6,25.6-85.685,76.615-110.714,14.3-7.014,29.078-14.265,44.264-23.309,15.031-8.952,29.553-19.139,43.6-28.991,9.431-6.616,19.184-13.457,28.992-19.856,36.252-23.644,56.148-3.781,77.212,17.25,5.4,5.394,10.987,10.97,16.875,15.809,58.163,47.787,85.2,33.186,150.509-2.088,10.675-5.767,22.721-12.267,36.005-19.076v-3.255c-13.828,7.064-26.319,13.807-37.355,19.769-64.126,34.634-90.669,48.97-147.351,2.4-5.781-4.749-11.315-10.276-16.669-15.621-20.94-20.908-42.591-42.529-80.78-17.623-9.849,6.424-19.622,13.28-29.072,19.909-14,9.823-28.48,19.978-43.418,28.875-15.087,8.985-29.817,16.211-44.06,23.2-50.177,24.617-89.811,44.062-78.194,113.81,14.792,88.8,32.361,103.26,97.729,157.044,7.829,6.441,16.7,13.741,26.208,21.705,37.292,31.241,65.212,55.8,87.646,75.534,87.312,76.8,87.312,76.8,209.595,91.52,16.261,1.956,34.655,4.171,55.72,6.863v-2.927C1539.87,994.258,1521.584,992.058,1505.412,990.111Z" transform="translate(157.292 71.544)" fill="gray"/><path d="M1521.987,975.074C1384.53,956.22,1384.53,956.22,1230.132,810.567q-27.522-25.966-62.525-58.8c-39.339-36.794-57.546-73.245-57.295-114.714.333-54.938,22.018-63.741,57.943-78.326,21.341-8.664,47.9-19.446,78.021-42.847,48.677-37.816,78.728-18.123,113.525,4.678,5.695,3.733,11.585,7.593,17.606,11.2,53.621,32.148,81.911,16.425,133.271-12.114,13.471-7.485,28.7-15.935,46.4-24.655v-3.232c-18.3,8.971-33.954,17.662-47.776,25.341-52.077,28.938-78.219,43.464-130.429,12.161-5.971-3.58-11.838-7.424-17.508-11.141-34.224-22.425-66.548-43.607-116.83-4.545-29.809,23.157-56.164,33.857-77.343,42.455-37.041,15.038-59.4,24.116-59.744,81-.256,42.343,18.243,79.476,58.216,116.864q35.063,32.794,62.518,58.788c155.063,146.283,155.063,146.283,293.424,165.26,11.165,1.531,22.707,3.115,35.472,4.928v-2.933C1544.463,978.157,1533.038,976.588,1521.987,975.074Z" transform="translate(161.011 78.144)" fill="gray"/><path d="M1405.135,1008.367q-7.568,8.115-14.9,15.95c-37.109,39.673-69.2,73.985-82.453,94.883h3.422c13.69-20.8,45.024-54.3,81.114-92.886q7.323-7.83,14.909-15.952c29.478-31.6,81.665-31.135,120.725-25.017v-2.937C1488.249,976.25,1435.356,975.971,1405.135,1008.367Z" transform="translate(190.138 155.595)" fill="gray"/><path d="M626.383,132.946c13.865,19.886,27.29,42.425,21.744,58.827-3.4,10.057-13.537,17.569-30.99,22.967-30.655,9.481-61.284,4.259-100.06-2.354-35.362-6.031-75.445-12.868-126.345-10.263-58.535,2.995-114.991,30.984-143.83,71.31-20.384,28.5-26.284,61.61-17.064,95.737L232.98,380.8c20.44,75.729,30.7,113.741,45.159,134.068,14.67,20.626,33.331,23.059,70.5,27.906,31.694,4.133,75.1,9.793,140.842,29.3a198.862,198.862,0,0,0,56.28,7.857c40.438,0,81.036-11.306,109.712-32.148s44.587-50.309,45.975-85.188c.3-7.489.405-15.149.507-22.557.29-20.91.59-42.531,5.245-62.807,9.839-42.844,48.486-86.342,100.86-113.521,53.2-27.61,109.8-32.433,155.277-13.234l.238.1c19.833,8.373,40.343,17.031,63.8,18.526,53.428,3.4,80.355-14.417,108.871-33.287,35.914-23.766,73.047-48.34,168.258-32.624,12.681,2.094,23.226,2.541,32.24,1.366,28.5-3.71,28.359-32.776,28.109-85.545-.149-31.5-.327-70.646,4.977-119.023h-2.884c-5.286,48.395-5.111,87.533-4.961,119.036.25,52.779.375,79.269-25.606,82.652-8.736,1.137-19.01.7-31.413-1.352-96.309-15.9-133.916,8.992-170.288,33.06-28.105,18.6-54.645,36.165-107.123,32.819-22.976-1.464-43.26-10.027-62.875-18.308l-.238-.1c-46.256-19.528-103.731-14.669-157.689,13.33-53.1,27.558-92.321,71.794-102.344,115.448-4.726,20.581-5.028,42.36-5.32,63.423-.1,7.389-.207,15.03-.505,22.48-1.352,33.952-16.837,62.634-44.783,82.945C612.164,575.7,544.924,585.512,490.292,569.3c-65.957-19.576-109.493-25.254-141.281-29.4-36.352-4.74-54.6-7.119-68.545-26.722-14.156-19.9-24.37-57.745-44.72-133.136l-3.141-11.634c-8.984-33.251-3.237-65.5,16.62-93.269,28.348-39.641,83.95-67.162,141.652-70.113,50.587-2.589,90.506,4.22,125.724,10.225,37.6,6.412,70.072,11.951,101.375,2.267,18.395-5.688,29.146-13.8,32.865-24.8,5.948-17.592-7.113-39.927-22.114-61.443-35.576-51.028-28.868-81.808-21.767-114.4C608.153,11.4,609.376,5.744,610.394,0h-2.916c-.991,5.513-2.168,10.966-3.319,16.251C596.917,49.482,590.076,80.87,626.383,132.946Z" transform="translate(32.801)" fill="gray"/><path d="M653.419,103.271c9.085,12.9,21.528,30.558,39.451,59.806,11.125,18.154,11.248,38.611,9.9,56.228-.879,11.5-11.442,28.39-32.171,29.96-76.454,5.794-113.213,3.407-209.4-23.551-64.914-18.195-146.816,1.544-190.517,45.909-25.843,26.236-34.783,57.18-25.854,89.489,16.269,58.864,28.643,97.748,43.747,122.3,13.667,22.215,29.819,33.252,57.611,39.369,23.417,5.154,45.258,10.295,64.527,14.831,54.876,12.916,98.219,23.118,135.316,23.726q1.727.029,3.434.029c37.349,0,68.338-10.18,100.028-32.775,32.089-22.879,32.554-60.162,33.093-103.334.561-44.916,1.2-95.823,37.721-143.159,13.6-17.629,28.247-30,152.459-60.926,33.165-8.256,62.725-5.691,87.857,7.619,31.66,16.769,55.493,24.306,77.169,24.3,35.331,0,64.921-20.031,113.249-52.748,6.151-4.164,12.606-8.534,19.421-13.1,20.05-13.428,43.658-17.543,66.489-21.523,6.69-1.167,13.607-2.372,20.355-3.8,59.225-12.492,60.613-45.661,63.967-125.8.455-10.846.969-23.1,1.664-36.138h-2.873c-.692,13-1.2,25.205-1.656,36.015-3.383,80.809-4.649,111.045-61.687,123.076-6.7,1.413-13.59,2.613-20.256,3.776-23.122,4.032-47.032,8.2-67.585,21.964q-10.227,6.849-19.433,13.106c-76.948,52.094-105.739,71.584-187.5,28.285-25.77-13.65-56.009-16.3-89.871-7.867-58.727,14.62-94.868,25.454-117.187,35.132-20.4,8.847-28.69,16.252-36.847,26.825-37.122,48.108-37.764,99.537-38.329,144.911-.528,42.375-.985,78.971-31.876,101-67.725,48.287-124.12,35.011-236.477,8.564-19.278-4.538-41.13-9.681-64.567-14.84-27.289-6.005-42.408-16.322-55.785-38.067-14.858-24.153-27.63-64.415-43.421-121.548-10.908-39.469,7.642-68.91,25.123-86.657,43.028-43.68,123.728-63.1,187.721-45.161,96.608,27.077,133.54,29.472,210.381,23.65,22.423-1.7,33.858-20.1,34.815-32.632,1.384-18.085,1.239-39.116-10.323-57.983-17.97-29.326-30.445-47.032-39.553-59.961C634.842,71.9,634.842,71.9,635.125,21.465c.036-6.316.076-13.427.08-21.465h-2.869c0,8.031-.044,15.138-.079,21.449C631.969,72.824,631.969,72.824,653.419,103.271Z" transform="translate(35.107)" fill="gray"/><path d="M1424.087,1105.895h4.388c31.6-27.327,59.33-40.8,82.562-40.06v-2.9C1486.481,1062.205,1457.246,1076.64,1424.087,1105.895Z" transform="translate(207.048 168.9)" fill="gray"/><path d="M1402.4,1108.555h3.933c29.666-31.858,65.5-62.946,107.86-59.184v-2.913C1469.855,1042.665,1432.835,1075.567,1402.4,1108.555Z" transform="translate(203.895 166.24)" fill="gray"/><path d="M621.173,13.121c-.38,3.345-.774,6.805.457,9.777,2.285,5.513,4.281,10.378,6.075,14.749,15.895,38.729,15.895,38.729,59.07,106.3l7.093,11.1c15.076,23.606,37.616,35.962,68.909,37.776,27.084,1.57,57.248-4.994,83.859-10.784,24.023-5.228,46.711-10.169,63.265-8.377,16.016,1.729,24.539,10.311,32.78,18.61,5.128,5.165,10.432,10.505,17.355,13.838a55.97,55.97,0,0,0,24.368,5.66c13.846,0,27.618-5.283,39.4-15.554,14.486-12.627,21.655-29.66,17.839-42.385-2.134-7.115-8.593-16.079-27.244-18.381-4.192-.517-9.006-.84-14.1-1.182-19.061-1.277-42.783-2.868-51.345-16.2-4.581-7.134-4.531-16.879.153-29.793,9.651-26.617,26.058-44.057,97.765-77.044,17.876-8.226,33.611-8.193,46.768.1,17.449,11,24.644,33.372,24.74,36.54.358,11.671,7.552,17.087,14.524,17.276,8.416.254,17.481-6.708,18.627-20.4.5-6,.406-12.1.314-18-.079-5.057-.163-10.285.136-15.379.16-2.74,2.038-6.652,3.545-9.8.261-.544.507-1.064.746-1.57h-3.181c-.049.1-.1.2-.145.3-1.7,3.552-3.634,7.576-3.829,10.893-.3,5.2-.222,10.486-.141,15.6.091,5.83.185,11.858-.3,17.708-.981,11.718-8.415,17.746-15.37,17.746-.108,0-.217,0-.325,0-5.213-.141-11.413-4.013-11.732-14.462-.118-3.887-7.613-27.272-26.091-38.916-14.021-8.837-30.666-8.928-49.472-.277C973.039,42,956.347,59.867,946.409,87.272c-4.947,13.639-4.9,24.533.135,32.376,9.345,14.555,33.861,16.2,53.561,17.519,5.056.34,9.831.659,13.944,1.167,13.55,1.672,22.143,7.324,24.847,16.343,3.491,11.642-3.326,27.452-16.966,39.34-17.9,15.6-40.573,19.143-60.663,9.472-6.48-3.12-11.378-8.052-16.565-13.275-8.594-8.652-17.48-17.6-34.5-19.438s-39.914,3.148-64.172,8.425c-54.869,11.938-117.058,25.469-149.756-25.729l-7.093-11.1c-43.036-67.35-43.036-67.35-58.83-105.837-1.795-4.373-3.792-9.241-6.079-14.757-.942-2.271-.607-5.21-.253-8.322C624.537,8.927,625.1,3.922,621.751,0h-4.42C622.293,3.141,621.781,7.772,621.173,13.121Z" transform="translate(89.754)" fill="gray"/><path d="M244.316,1097.412c-47.18-45.573-91.786-16.491-124.357,4.742-16.837,10.978-31.378,20.458-41.429,16.714-5.482-2.044-9.628-8.007-12.675-18.233-22.219-74.547-13.895-84.594,2.689-104.612l1.659-2.006c21.628-26.234,29.012-56.292,21.351-86.921C81.47,866.767,46.428,830.019,0,810.989v3.142c45.06,18.813,78.988,54.542,88.775,93.678C96.2,937.5,89.016,966.666,68,992.157l-1.654,2c-17.248,20.818-25.905,31.267-3.239,107.317,3.326,11.157,8.046,17.738,14.431,20.118,11.392,4.247,26.489-5.6,43.973-17,33.539-21.865,75.28-49.077,120.824-5.083,15.79,15.252,29.773,31.854,41.544,46.412h3.71C275.465,1130.874,260.882,1113.414,244.316,1097.412Z" transform="translate(0 128.87)" fill="gray"/><path d="M601.224,13.964c6.389,49.774,6.883,50.535,32.779,90.4,11.1,17.09,26.308,40.5,48.6,77.751,27.953,46.708,61.751,38.578,104.539,28.282,37.491-9.02,84.147-20.243,139.891,5.448,2.023.933,4.051,1.884,6.083,2.838,12.194,5.718,24.8,11.632,37.99,14.226a107.706,107.706,0,0,0,20.794,2.186c30.341,0,47.622-15.937,68.542-35.228,24.14-22.261,54.185-49.967,116.1-66.461,48.327-12.873,49.337-54.694,50.617-107.643.2-8.311.413-16.9.8-25.76H1225.1c-.387,8.842-.6,17.4-.8,25.689-1.3,53.751-2.237,92.588-48.48,104.905-62.6,16.675-92.932,44.647-117.3,67.123-25.645,23.649-44.174,40.731-86.858,32.338-12.846-2.526-25.293-8.364-37.33-14.01-2.04-.956-4.073-1.91-6.1-2.845-56.641-26.1-103.827-14.753-141.742-5.63-41.65,10.022-74.552,17.938-101.422-26.962-22.322-37.3-37.545-60.732-48.658-77.842C610.371,62.7,610.371,62.7,604.069,13.589,603.407,8.432,606.276,2.508,608.023,0H604.64C602.719,3.385,600.572,8.888,601.224,13.964Z" transform="translate(87.395)" fill="gray"/><path d="M1507.787,112.462C1413.037,56.681,1380.018,37.24,1363.64,0h-3.128c16.572,38.87,49.5,58.259,145.834,114.973l13.934,8.206v-3.36Z" transform="translate(197.805)" fill="gray"/><path d="M200.48,1014.119c-24.949-19.715-46.495-36.742-80.085-100.8C84.469,844.816,55.7,826.17,15.871,800.365c-5.095-3.3-10.362-6.718-15.871-10.377v3.47c4.949,3.274,9.712,6.364,14.324,9.352,40.927,26.52,67.965,44.041,103.538,111.875,33.877,64.6,55.646,81.8,80.853,101.723,26.782,21.163,57.11,45.138,110.083,132.855h3.361C258.348,1059.853,227.608,1035.556,200.48,1014.119Z" transform="translate(0 125.533)" fill="gray"/><path d="M1390.1,8.468c-2.6-2.919-5.089-5.712-7.695-8.468H1378.4c3.3,3.374,6.35,6.8,9.568,10.412,17.383,19.524,39.01,43.812,129.708,97.752v-3.37C1428.589,51.688,1407.259,27.738,1390.1,8.468Z" transform="translate(200.406)" fill="gray"/><path d="M1399.346,0h-3.479c11.669,17.477,27.861,34.862,119.272,92.985V89.555C1428.689,34.5,1410.46,16.127,1399.346,0Z" transform="translate(202.946)" fill="gray"/><path d="M184.518,1078.6c-16.66.525-34.553,7.95-59.76,24.8H130c39.9-26.024,67.085-32.208,106.375,0h4.514C220.1,1085.694,202.693,1078.053,184.518,1078.6Z" transform="translate(18.139 171.391)" fill="gray"/><path d="M1497.895,62.376c-10.87-8.7-30.912-24.748-80.323-62.376H1412.8c51.624,39.278,72.234,55.78,83.317,64.654,7.747,6.2,10.826,8.666,16.562,12.537v-3.5C1507.982,70.452,1504.825,67.926,1497.895,62.376Z" transform="translate(205.407)" fill="gray"/><path d="M1516.946,203.2c-48.769-26.315-115.562-62.358-165.465-16.731-20.851,19.063-37.638,21.863-48.043,20.852a32.443,32.443,0,0,1-23.288-12.846c-11.677-15.7-12.95-34.163-14.425-55.544-.849-12.316-1.726-25.051-4.6-38.893-7.358-35.414-10.511-68.152-9.65-100.033H1248.6c-.859,32.087,2.315,65.021,9.712,100.631,2.835,13.646,3.705,26.279,4.548,38.5,1.506,21.842,2.806,40.7,14.994,57.089a35.273,35.273,0,0,0,25.306,13.991c10.984,1.062,28.614-1.818,50.239-21.588,48.407-44.26,114.175-8.773,162.2,17.138,7.447,4.019,14.483,7.809,20.973,11.048v-3.247C1530.467,210.479,1523.893,206.944,1516.946,203.2Z" transform="translate(181.515)" fill="gray"/><path d="M1458.433,15.587c-6.54-5.162-13.259-10.463-19.821-15.587h-4.7c7.473,5.814,15.238,11.944,22.755,17.877,17.436,13.764,35.456,27.986,52.94,40.783V55.068C1492.692,42.622,1475.291,28.9,1458.433,15.587Z" transform="translate(208.477)" fill="gray"/><path d="M1448.808,1103.278h5.118c24.894-16.816,38.9-20.689,53.517-21v-2.9C1491.593,1079.7,1476.544,1083.987,1448.808,1103.278Z" transform="translate(210.642 171.518)" fill="gray"/><path d="M1464.582,0h-4.121a555.75,555.75,0,0,0,45.287,40.161V36.477C1492.515,25.965,1478.083,13.178,1464.582,0Z" transform="translate(212.337)" fill="gray"/><path d="M1502.309,12.749C1497.814,8.6,1492.835,4.007,1488.356,0h-4.348c5.027,4.428,11.04,9.977,16.369,14.9l1.948,1.8v-3.93Z" transform="translate(215.76)" fill="gray"/><path d="M23.54,725.166c3.22.489,6.514,1.218,9.7,1.923,5.918,1.311,11.936,2.644,18.109,2.644a35.092,35.092,0,0,0,18.9-5.282c8.8-5.381,16.282-10.642,18.657-20.545,24.167-100.741,42.757-196.309,5.307-258.4C75.575,414.6,44.744,394.166,0,383.059v2.992c43.6,10.954,73.636,30.9,91.769,60.966,36.878,61.142,18.372,156.078-5.646,256.2-2.119,8.832-8.817,13.527-17.354,18.745-12.03,7.357-23.146,4.894-34.918,2.288-3.23-.715-6.571-1.454-9.886-1.957-5.651-.858-12.336-3.265-18.8-5.593-1.776-.64-3.5-1.254-5.165-1.829v3.069c1.37.48,2.766.978,4.2,1.5C10.8,721.811,17.614,724.267,23.54,725.166Z" transform="translate(0 60.87)" fill="gray"/><path d="M708.7,140.616c15.176,19.82,38.92,30.3,67.912,30.3a131.7,131.7,0,0,0,16.638-1.088c49.2-6.264,96.774-38.509,113.123-76.672C920.5,60.183,947.363,27.4,982.021.84c.463-.353.82-.629,1.089-.84h-4.718c-34.127,26.59-60.6,59.184-74.654,92-15.972,37.282-62.591,68.8-110.851,74.948-35.492,4.52-64.583-5.465-81.925-28.113-47.4-61.892-57.324-90.615-67.837-121.023C641.138,12.067,639.076,6.131,636.762,0h-3.07c2.464,6.463,4.633,12.719,6.726,18.773C650.544,48.062,661.014,78.35,708.7,140.616Z" transform="translate(92.133)" fill="gray"/><path d="M276.644,67.972c12.567,10.574,24.437,20.562,31.754,30.176,19.576,25.72,57.428,41.3,94.246,41.3a117.124,117.124,0,0,0,34.508-5c36.371-11.251,57.8-39.733,60.34-80.2.805-12.827.6-25.9.4-38.539-.08-5.152-.159-10.464-.173-15.71h-2.868c.014,5.267.093,10.59.174,15.756.195,12.583.4,25.6-.4,38.31-2.458,39.173-23.168,66.734-58.315,77.606-44.086,13.637-100.451-2.2-125.645-35.3-7.509-9.868-19.5-19.955-32.192-30.636C256.909,47.592,232.54,27.079,219.667,0H216.5C229.48,28.277,254.519,49.357,276.644,67.972Z" transform="translate(31.477)" fill="gray"/><path d="M777.814,148.315q1.9,0,3.832-.082c27.557-1.187,68.086-15.823,104.682-78.805C893.137,57.712,927.342,8.38,941.43,0H936.5c-16.673,13.655-47.415,58.96-52.642,67.955-35.942,61.858-75.487,76.22-102.333,77.378-29.921,1.29-53.86-13.163-64.293-28.058C694.311,84.553,669.236,45.091,656.42,0h-2.986C666.3,45.843,691.7,85.839,714.891,118.953,725.322,133.847,748.593,148.315,777.814,148.315Z" transform="translate(95.003)" fill="gray"/><path d="M1516.886,190.388c-31.74-18.013-79.706-45.234-152.44-55.192-67.808-9.283-88.075-88.627-89.461-135.2h-2.869c1.393,47.483,22.194,128.526,91.945,138.074,72.194,9.884,119.873,36.941,151.423,54.846,6.671,3.786,12.468,7.073,17.648,9.717v-3.255C1528.335,196.885,1522.972,193.843,1516.886,190.388Z" transform="translate(184.953)" fill="gray"/><path d="M80.329,638.614C108.423,569.681,111.143,505.6,87.793,462.8,70.912,431.859,41.374,412.4,0,404.931v2.952c40.216,7.373,68.909,26.311,85.283,56.322,22.926,42.022,20.153,105.188-7.607,173.3C58.772,683.9,31.932,684.042,8.251,684.17c-2.857.016-5.578.036-8.251.129v2.907c2.665-.095,5.4-.116,8.267-.131C31.625,686.947,60.7,686.789,80.329,638.614Z" transform="translate(0 64.345)" fill="gray"/><path d="M93.267,322.193c25.815-23.131,33.056-55.4,22.139-98.662C95.621,145.13,46,133.539,13.163,125.869,8.448,124.767,4,123.717,0,122.572v3.013c3.858,1.079,8.069,2.074,12.518,3.113,34.081,7.961,80.756,18.865,100.109,95.553,10.626,42.1,3.671,73.428-21.261,95.767-21.4,19.175-52.541,28.416-77.561,35.841C8.943,357.3,4.335,358.676,0,360.051v3.043c4.554-1.459,9.441-2.915,14.612-4.448C39.907,351.139,71.386,341.8,93.267,322.193Z" transform="translate(0 19.477)" fill="gray"/><path d="M757.486,122.031a78.161,78.161,0,0,0,21.5,3.253c39.248,0,64.363-36.4,105.1-95.457C890.638,20.323,897.421,10.49,904.81,0h-3.522c-6.937,9.872-13.351,19.165-19.559,28.166C858.177,62.31,839.575,89.279,820.9,105.24c-19.6,16.75-38.33,20.934-62.631,14-46.228-13.2-77.02-97.718-84.17-119.236h-3.024C677.7,20.171,709.192,108.242,757.486,122.031Z" transform="translate(97.567)" fill="gray"/><path d="M396.39,116.768a104.131,104.131,0,0,0,26.094-3.74c20.958-5.423,34.221-18.668,40.547-40.492,5.395-18.613,4.86-40.287,4.387-59.41C467.3,8.519,467.2,4.154,467.18,0h-2.868c.021,4.186.125,8.571.239,13.2.939,38.049,2.11,85.4-42.777,97.017-49.379,12.777-70.813-8.137-134.436-70.227C275.224,28.166,261.555,14.831,245.92,0h-4.194c16.566,15.675,30.937,29.7,43.623,42.079C337.717,93.186,361.877,116.768,396.39,116.768Z" transform="translate(35.145)" fill="gray"/><path d="M63.762,609.8a157.459,157.459,0,0,0,24.249-84.7C87.677,499.3,80.3,476.3,66.67,458.607,51.3,438.65,28.864,426.138,0,421.375v2.947c52.646,8.906,84.442,46.472,85.143,100.826a154.452,154.452,0,0,1-23.789,83.078C45.347,633.253,23.615,649.632,0,654.531v2.959C24.6,652.581,47.2,635.695,63.762,609.8Z" transform="translate(0 66.958)" fill="gray"/><path d="M1420.724,131.837C1337.9,93.779,1303.285,77.859,1292.737,0h-2.9c5.165,38.486,16.467,63.276,37.681,82.709,20.787,19.042,50.664,32.77,92.016,51.773,29.871,13.725,67.011,30.8,111.016,54.74v-3.292C1487.063,162.328,1450.325,145.439,1420.724,131.837Z" transform="translate(187.531)" fill="gray"/><path d="M101.7,254.03c.473-25.98-10.43-54.183-29.913-77.378C51.993,153.088,25.9,138.369,0,136.086V139c55.951,5.06,99.713,66.6,98.831,114.974C98,299.663,61.994,327.221,0,329.755v2.913C90.516,329.044,101.289,276.531,101.7,254.03Z" transform="translate(0 21.625)" fill="gray"/><path d="M1453.681,133.551c-117.809-62.486-117.809-62.486-141.13-121.676q-2.194-5.568-4.7-11.875h-3.095c1.846,4.61,3.546,8.924,5.134,12.952,23.714,60.187,23.714,60.187,142.461,123.171,21.728,11.524,46.337,24.577,76.038,40.6v-3.29C1499.282,157.738,1475.08,144.9,1453.681,133.551Z" transform="translate(189.698)" fill="gray"/><path d="M731.387,76.947c12.847,14.5,26.686,21.814,41.228,21.814a44.653,44.653,0,0,0,6.552-.488C809.037,93.847,841.708,58.04,868.883,0H865.7c-26.634,56.41-58.256,91.147-86.95,95.4-15.926,2.355-31.151-4.5-45.229-20.392-8.28-9.345-13.312-18.888-34.491-59.051Q695.2,8.682,690.611,0h-3.253q5.017,9.493,9.144,17.324C717.813,57.738,722.876,67.339,731.387,76.947Z" transform="translate(99.935)" fill="gray"/><path d="M55.086,588.667C66.262,569.895,72.4,545.3,72.837,517.553c.862-54.9-48.582-74.047-67.2-81.256-2.4-.931-4.378-1.7-5.641-2.3v3.175c1.23.525,2.768,1.122,4.617,1.838,18.1,7.009,66.182,25.627,65.351,78.5C69.526,545.6,61.78,611.919,0,625.369v2.959C23.877,623.28,42.414,609.955,55.086,588.667Z" transform="translate(0 68.964)" fill="gray"/><path d="M410.858,82.2c27.1-14,26.666-44.15,26.245-73.308-.043-2.99-.081-5.954-.092-8.888h-2.869c.011,2.947.048,5.925.092,8.931.409,28.269.832,57.5-24.68,70.678C380.135,94.809,351.972,72.618,268.74,0h-4.393c69.064,60.292,101.341,87.1,127.547,87.1A40.528,40.528,0,0,0,410.858,82.2Z" transform="translate(38.433)" fill="gray"/><path d="M39.248,303.09C67.576,292.61,82.411,271.375,81.02,243.3,79.25,207.532,48.49,163.077,0,150v3.013C46.795,166,76.446,208.9,78.156,243.445c1.322,26.7-12.846,46.91-39.893,56.917-8.526,3.155-17.994,4.624-27.15,6.045C7.454,306.975,3.7,307.579,0,308.269v2.948c3.822-.724,7.737-1.348,11.547-1.939C20.842,307.835,30.454,306.344,39.248,303.09Z" transform="translate(0 23.835)" fill="gray"/><path d="M1475.762,132.772C1378.079,78.4,1337.039,55.554,1322.272,0H1319.3c14.906,57.292,56.194,80.281,155.075,135.317,15.5,8.627,33.046,18.394,51.892,29.086v-3.328C1507.951,150.69,1490.878,141.186,1475.762,132.772Z" transform="translate(191.814)" fill="gray"/><path d="M1347.14,21.255C1343.407,15.2,1339.2,8.373,1333.39,0h-3.51c6.375,9.086,10.865,16.365,14.824,22.793,19.967,32.417,24.746,40.163,180.029,127.809v-3.325C1371.477,60.745,1366.73,53.063,1347.14,21.255Z" transform="translate(193.352)" fill="gray"/><path d="M1471.836,102.668C1391.829,55.6,1366.79,40.871,1348.972,0h-3.127c18.221,42.622,43.168,57.3,124.55,105.179,15.237,8.964,32.492,19.116,52.018,30.819v-3.374C1503.483,121.287,1486.693,111.408,1471.836,102.668Z" transform="translate(195.673)" fill="gray"/><path d="M170.243,13.877c1.2-.393,2.558-.736,3.994-1.1C180.5,11.194,188.944,9.038,189.761,0h-2.869c-.782,6.78-7.164,8.4-13.351,9.96-1.484.377-2.889.731-4.182,1.154C52.838,49.291,33.783,51.5,13.61,53.832c-4.146.48-8.43.978-13.61,1.811v2.941c5.321-.868,9.7-1.378,13.936-1.868C34.255,54.364,53.448,52.143,170.243,13.877Z" fill="gray"/><path d="M55.155,504.243C49.977,478.355,28.89,458.276,0,451.6v2.981c27.448,6.566,47.432,25.68,52.343,50.241C58.723,536.716,39.657,571.4,0,600.306v3.572C41.756,574.043,61.858,537.762,55.155,504.243Z" transform="translate(0 71.761)" fill="gray"/><path d="M32.825,951.341c25.037-17.035,28.657-37.5,27.284-51.665C57.431,872.025,33.874,844.842,0,830.2v3.166c31.84,14.16,54.747,40.7,57.255,66.594,1.858,19.187-7.143,36.121-26.03,48.972-6.988,4.753-14.926,8.583-22.6,12.286-2.843,1.371-5.752,2.794-8.624,4.249v3.244c3.252-1.673,6.6-3.3,9.857-4.871C17.628,960.091,25.661,956.214,32.825,951.341Z" transform="translate(0 131.923)" fill="gray"/><path d="M748.521,56.728c8.53,6.1,17,9.172,25.285,9.172a33.4,33.4,0,0,0,7.243-.8c23.627-5.235,40.871-35.4,52.283-55.361,2.032-3.556,3.952-6.9,5.689-9.744h-3.366c-1.5,2.516-3.118,5.337-4.806,8.288-11.158,19.521-28.021,49.018-50.414,53.979-9.726,2.156-19.907-.505-30.257-7.911-15.99-11.441-25-27.825-34.551-45.172-1.656-3.011-3.371-6.1-5.121-9.185H707.2c2.031,3.542,4.009,7.124,5.922,10.6C722.83,28.241,732,44.906,748.521,56.728Z" transform="translate(102.82)" fill="gray"/><path d="M56.626,238.985C58.466,208.126,25.189,176.325,0,166.543v3.114c24.224,9.9,55.5,40.024,53.763,69.152C52.528,259.536,33.94,274.887,0,283.277v2.985C45.071,275.307,55.7,254.543,56.626,238.985Z" transform="translate(0 26.464)" fill="gray"/><path d="M380.748,38.323c10.191-3.571,13.544-14.485,17.1-26.041C399.1,8.2,400.4,4,402.031,0h-3.089c-1.47,3.775-2.68,7.649-3.838,11.42-3.474,11.305-6.474,21.069-15.3,24.159C366.6,40.212,340.8,28.891,298.8,0h-5.083c38.655,26.909,63.852,39.486,79.573,39.486A22.412,22.412,0,0,0,380.748,38.323Z" transform="translate(42.704)" fill="gray"/><path d="M17.952,557.068c14.111-14.418,20.289-34.195,16.124-51.611C30.236,489.406,18.144,477.177,0,470.9v3.078c16.665,6.033,27.754,17.383,31.287,32.158,3.933,16.446-1.957,35.176-15.372,48.884A92.024,92.024,0,0,1,3.7,564.876c-1.224.878-2.467,1.781-3.7,2.694v3.614c1.757-1.341,3.583-2.661,5.363-3.938A94.163,94.163,0,0,0,17.952,557.068Z" transform="translate(0 74.829)" fill="gray"/><path d="M103.468,0C72.668,22.348,34.425,37.61,0,41.228v2.919C36.177,40.411,76.533,23.978,108.332,0Z" fill="gray"/><path d="M0,853.356v4.559c24.661,30.5,22.828,37.135,0,65.127v4.549C26.552,895.262,28.474,888.055,0,853.356Z" transform="translate(0 135.602)" fill="gray"/><path d="M0,186.047v5.308c23.88,37.256,20.609,40.966,6.664,56.7C4.633,250.35,2.4,252.869,0,255.763v4.568c3.213-4.026,6.176-7.375,8.8-10.334C24.673,232.082,26.841,227.348,0,186.047Z" transform="translate(0 29.564)" fill="gray"/><path d="M64.231,0C47.06,10.08,23.395,22.457,0,26.98v2.96C25.985,25.047,52.221,10.612,69.907,0Z" fill="gray"/><path d="M770.941,14.441c.4,0,.8-.009,1.2-.031C780.217,13.975,787.9,9.121,794.974,0h-3.7c-6.121,7.273-12.6,11.15-19.283,11.51-7.429.4-15.338-3.481-23.589-11.51h-4.063C753.487,9.583,762.428,14.441,770.941,14.441Z" transform="translate(108.219)" fill="gray"/><path d="M29.461.792,30.441,0H25.826C20.08,4.546,13.817,8.472,0,8.248v2.909c.367,0,.749.02,1.106.02C16.638,11.176,23.153,5.9,29.461.792Z" fill="gray"/><path d="M1430.094,1013.172c-26.943,19.819-53.21,53.965-89.565,101.223l-2.078,2.7h3.635l.705-.917c72.8-94.632,103.149-134.053,180.7-117.045v-2.97C1485.449,987.943,1457.428,993.061,1430.094,1013.172Z" transform="translate(194.598 157.699)" fill="gray"/><g transform="translate(555.182 1153.638)"><path d="M510.476,997.045l-1.388.284c-14.3,2.887-23.625,9.436-24.335,17.092-.356,3.827,1.23,11.139,15.835,17.116a35.009,35.009,0,0,0,13.132,2.5,29.868,29.868,0,0,0,15.737-4.094,16.986,16.986,0,0,0,8.223-13.608c.58-8.355-1-14.068-4.832-17.468C526.958,993.64,517.432,995.607,510.476,997.045Zm-1.1,1.708h0Zm25.438,17.377a14,14,0,0,1-6.882,11.349c-6.741,4.261-17.789,4.836-26.274,1.365-9.409-3.85-14.532-9.009-14.055-14.151.578-6.233,9.231-11.93,22.042-14.516l1.4-.287a56.873,56.873,0,0,1,11.129-1.524c3.357,0,6.5.665,8.778,2.684C534.024,1003.772,535.323,1008.846,534.817,1016.13Z" transform="translate(-484.71 -995.456)" fill="gray"/></g><g transform="translate(448.836 1112.737)"><path d="M587.166,974.39c-48.707-16.784-83.123-18.632-111.6-6-26.515,11.77-48.553,36.885-71.456,81.431-15.425,30-16.109,42.117-3.042,54.013,5.111,4.653,8.716,7.082,14.708,7.082,8.058,0,20.428-4.4,46.559-13.68,21.423-7.612,53.8-19.115,101.26-34.35,29.731-9.542,52.324-33.333,52.553-55.336C616.307,992.662,606.013,980.884,587.166,974.39ZM405.4,1050.5h0Zm157.334,9.627c-47.5,15.249-79.9,26.76-101.343,34.378-44.985,15.981-47.679,16.941-58.4,7.178-11.785-10.729-10.961-22.059,3.669-50.513,22.58-43.919,44.188-68.627,70.064-80.111,11.966-5.312,25.047-7.986,39.9-7.986,19.614,0,42.316,4.662,69.617,14.07,17.835,6.146,27.186,16.652,27.043,30.385C613.071,1027.989,590.866,1051.093,562.732,1060.123Z" transform="translate(-391.863 -960.163)" fill="gray"/></g><g transform="translate(1294.499 1066.087)"><path d="M1163.087,920.318a9.7,9.7,0,0,0-1.924.028c-12.687,2.433-21.246,7.429-26.169,15.277-7.6,12.121-4.723,28.823-1.364,42.021,3.915,15.38,16.833,26.935,34.559,30.912a59.833,59.833,0,0,0,13.086,1.454c14.724,0,28.393-5.53,36.307-15.273,6.586-8.108,12.287-22.747,2.048-46.441C1210.5,927.178,1191.481,917.765,1163.087,920.318Zm-1.647,1.456h0Zm53.927,71.118c-9.564,11.772-28.274,16.926-46.558,12.827-16.9-3.789-28.708-14.287-32.4-28.8-4.775-18.762-4.465-31.018,1.007-39.742,4.472-7.129,12.411-11.7,24.27-13.977a11.293,11.293,0,0,1,1.335.022,1.931,1.931,0,0,0,.215,0c27.481-2.5,45.057,6.088,53.766,26.239C1224.645,967.146,1224.08,982.165,1215.367,992.892Z" transform="translate(-1130.182 -919.909)" fill="gray"/></g><g transform="translate(1078.093 1040.725)"><path d="M960.169,898.4l.254,1.429-.254-1.429c-10.319,1.882-17.105,10.055-18.619,22.425-2.213,18.084,7.6,42.875,30.156,53.2A19.966,19.966,0,0,0,980,976.06a12.642,12.642,0,0,0,9.577-4.287c9.322-10.183,8.485-37.66-1.721-56.536C980.906,902.389,971.081,896.417,960.169,898.4Zm27.3,71.4c-3.531,3.859-8.435,4.39-14.583,1.577-20.528-9.4-30.607-32.9-28.49-50.2,1.349-11.021,7.282-18.283,16.282-19.923a19.562,19.562,0,0,1,3.532-.327c10.894,0,17.819,9.583,21.127,15.7C994.856,934.239,995.913,960.575,987.469,969.8Z" transform="translate(-941.245 -898.025)" fill="gray"/></g><g transform="translate(1255.748 1023.681)"><path d="M1209.063,894.066c-24.276-9.9-49.305-12.917-76.506-9.231-30.71,4.163-34.658,30.439-36.071,57-1.03,19.339,3.735,39.36,14.565,61.2,17.24,34.778,53.364,52.6,107.366,52.962l.681,0c26.9,0,41.439-10.963,45.727-34.457C1272.213,981.064,1259.8,914.752,1209.063,894.066Zm-76.3-7.791h0ZM1262,1021.013c-4.046,22.169-17.282,32.083-42.886,32.082l-.68,0c-52.838-.357-88.1-17.637-104.824-51.36-10.6-21.382-15.267-40.924-14.265-59.745,1.348-25.342,5.052-50.406,33.589-54.274a159.756,159.756,0,0,1,21.5-1.49,139.869,139.869,0,0,1,53.55,10.534C1257.227,916.835,1269.217,981.5,1262,1021.013Z" transform="translate(-1096.349 -883.318)" fill="gray"/></g><g transform="translate(1050.149 1003.049)"><path d="M957.7,865.9c-13.187,1.765-24.467,9.691-31.758,22.318-7.941,13.753-10.756,32.232-8.141,53.438,5,40.553,24.467,70.81,53.41,83.01a61.733,61.733,0,0,0,23.9,4.981c10.965,0,21.28-3.226,29.361-9.542,13.345-10.431,19.111-27.669,16.234-48.536C1030.326,896.286,991.088,861.423,957.7,865.9Zm65.021,151.907c-13.037,10.188-32.352,11.792-50.41,4.179-27.965-11.788-46.795-41.2-51.666-80.69-5.657-45.876,14.723-69.479,37.43-72.517,31.985-4.285,69.67,29.786,79.79,103.191C1040.592,991.758,1035.214,1008.036,1022.718,1017.8Z" transform="translate(-916.849 -865.515)" fill="gray"/></g><g transform="translate(1032.32 977.515)"><path d="M971.273,843.482c-51.188,0-69.715,46.774-69.988,90.548-.4,64.536,35.72,134.1,90.13,134.793,2.915.037,5.877.074,8.868.074,21.406,0,44.188-1.937,60.683-19.909,6.661-7.259,11.4-18.093,12.073-27.6,4.162-58.856-21.016-109.483-43.415-147.015C1017.778,854.526,998.709,844.422,971.273,843.482Zm98.9,177.7a45.444,45.444,0,0,1-11.314,25.833c-17.932,19.537-44.218,19.2-67.413,18.906-52.7-.672-87.688-68.729-87.3-131.872.262-42.377,18.033-87.661,67.071-87.662,26.341.9,44.641,10.55,55.943,29.488C1049.349,913.037,1074.282,963.139,1070.178,1021.179Z" transform="translate(-901.282 -843.482)" fill="gray"/></g><g transform="translate(1016.55 949.942)"><path d="M1124.458,1070.69c-11.516-39.754-20.713-72.79-28.827-101.937-21.692-77.91-32.579-117.016-46.857-135.176-14.779-18.8-33.457-15.151-67.372-8.534a161.268,161.268,0,0,0-58.85,24.687c-22.8,15.6-33.9,37.755-34.953,69.713-.966,29.429,6.409,65.837,14.949,108,1.834,9.058,3.732,18.425,5.625,28.1,4.689,23.952,14.5,38.917,30.882,47.1,11.056,5.522,25.176,8.072,45.725,8.072,4.777,0,9.9-.138,15.417-.408,95.919-4.705,118.419-10.959,124.87-20.171,3.593-5.133,1.858-11.041-.151-17.882Zm-1.732,17.765c-6.836,9.763-40.081,14.9-122.668,18.949-50.617,2.478-79.814-5.136-89.071-52.427-1.9-9.687-3.795-19.058-5.631-28.121-17.337-85.6-28.791-142.143,18.8-174.721a158.357,158.357,0,0,1,57.786-24.241c67.807-13.234,67.806-13.23,110.924,141.647,8.116,29.154,17.316,62.2,28.838,101.966l.459,1.573C1124.037,1079.446,1125.515,1084.475,1122.727,1088.455Z" transform="translate(-887.514 -819.689)" fill="gray"/></g><g transform="translate(427.113 948.5)"><path d="M546.168,830.2c-26.005-9.278-61.762-13.1-106.222-11.346-21.677,0-42.54,16.018-55.811,42.848-13.225,26.737-14.962,55.558-4.227,70.087,4.838,6.547,11.984,9.905,20.916,9.905a41.77,41.77,0,0,0,7.471-.712c36.183-6.592,64.126-11.477,84.529-15.044,58.015-10.143,66.933-11.7,77-19.036,15.813-11.521,22.445-28.066,17.309-43.183C583.8,853.911,573.987,840.13,546.168,830.2Zm21.982,74.346c-9.533,6.945-18.363,8.488-75.815,18.532-20.407,3.567-48.356,8.454-84.548,15.046l.254,1.43-.254-1.43c-11.473,2.088-20.08-.627-25.583-8.074-9.95-13.467-8.06-41.664,4.494-67.046,12.775-25.827,32.68-41.245,53.3-41.247,44.155-1.734,79.551,2.026,105.212,11.182,26.738,9.539,36.08,22.517,39.209,31.725C589.131,878.527,582.9,893.808,568.151,904.55Z" transform="translate(-372.897 -818.445)" fill="gray"/></g><path d="M1488.539,833.612c.313-2.954,4.635-6.084,13.547-9.794v-3.129c-11.148,4.514-15.93,8.2-16.4,12.614-.567,5.365,5.575,10.711,16.4,18.045v-3.5C1494.548,842.644,1488.134,837.448,1488.539,833.612Z" transform="translate(215.999 130.411)" fill="gray"/><g transform="translate(210.458 894.498)"><path d="M244.1,772.373c-46.609-3.211-57.429,9.054-59.726,16.652-3.144,10.391,5.719,24.153,21.553,33.468,8.534,5.022,19.388,8.773,30.229,8.773,10.294,0,20.575-3.382,28.844-12.268,8.658-9.3,11.481-19.447,7.951-28.565C269.066,780.4,257.742,773.314,244.1,772.373Zm18.813,44.633,1.043,1-1.043-1c-15.828,17.006-39.815,12.233-55.546,2.977-14.675-8.635-23-21.015-20.252-30.107,2.963-9.795,18.346-15.11,42.9-15.11,4.347,0,8.984.167,13.888.5,12.541.865,22.894,7.233,26.375,16.222C273.382,799.508,270.766,808.568,262.912,817.006Z" transform="translate(-183.744 -771.848)" fill="gray"/></g><g transform="translate(738.057 824.971)"><path d="M687.365,711.992c-1.574-.018-6.3-.138-6.3-.138h-.03c-10.643-.01-24.555,5.7-31.837,18.6-5.821,10.318-9.3,28.516,7.21,56.621,4.912,8.366,20.279,21.44,35.606,21.44a25.4,25.4,0,0,0,4.58-.409c15.4-2.824,25.863-19.135,31.082-48.479,2.63-14.781.562-26.438-6.145-34.649C714.636,716.531,703.141,712.162,687.365,711.992Zm37.491,47.119c-4.916,27.634-14.865,43.588-28.771,46.137-16.495,3.018-33.079-12.623-37.21-19.659-15.8-26.9-12.628-44.048-7.184-53.7,6.686-11.847,19.478-17.136,29.233-17.136h.087c.3.008,4.792.121,6.325.137,14.891.161,25.653,4.175,31.987,11.931C725.467,734.348,727.328,745.211,724.856,759.111Z" transform="translate(-644.372 -711.854)" fill="gray"/></g><g transform="translate(470.453 784.998)"><path d="M445.025,683.861c-8.173-7.732-17.623-8.606-25.924-2.4l.852,1.168-.852-1.168c-6.663,4.979-9.367,9.8-8.036,14.332,1.967,6.7,12.36,10.253,21.787,10.806.835.049,1.685.075,2.54.075,7.125,0,14.669-1.789,16.836-6.909C454.05,695.459,451.626,690.11,445.025,683.861Zm4.567,14.758c-1.495,3.532-8.152,5.58-16.573,5.078-9.81-.575-17.888-4.249-19.2-8.733-1.184-4.03,3.148-8.3,6.989-11.168a16.025,16.025,0,0,1,9.7-3.537c5.426,0,9.879,3.19,12.558,5.725C448.614,691.233,450.869,695.6,449.592,698.619Z" transform="translate(-410.736 -677.362)" fill="gray"/></g><g transform="translate(682.918 784.555)"><path d="M746.9,681.745c-13.991-7.386-36.194-6.168-64.206,3.521-22.893,7.92-49.374,21.5-72.652,37.259A31.927,31.927,0,0,0,596.7,742.488a21.884,21.884,0,0,0,3.1,16.723l5.658,8.351c19.367,28.61,39.395,58.193,61.827,85.317,9.052,10.946,19.568,16.6,30.453,16.6a33.712,33.712,0,0,0,12.008-2.276c15.569-5.906,29.638-22.841,39.613-47.682,11.023-27.451,16.439-62.824,15.66-102.294C764.671,699.849,758.576,687.911,746.9,681.745ZM708.733,864.487c-13.8,5.233-27.74.451-39.255-13.472-22.343-27.015-42.33-56.541-61.661-85.094l-5.659-8.354a19.019,19.019,0,0,1-2.645-14.531,28.96,28.96,0,0,1,12.124-18.1l-.8-1.207.8,1.207c44.5-30.126,105.393-55.689,133.937-40.618,10.675,5.637,16.25,16.729,16.571,32.968C763.853,803.855,735.655,854.274,708.733,864.487Z" transform="translate(-596.232 -676.98)" fill="gray"/></g><g transform="translate(1544.386 780.26)"><path d="M1411.715,673.511c-16.685,2.726-32.7,14.044-45.1,31.868-11.342,16.309-18.17,36.413-18.267,53.775-.166,29.758,10.28,53.459,31.047,70.446,21.976,17.972,50.607,23.781,68.517,23.781a53.675,53.675,0,0,0,11.282-1.019c5.214-1.166,10.139-2.268,12.928-6.891,6.455-10.7,1.246-39.952-25.329-142.264C1441.516,682.879,1424.4,671.453,1411.715,673.511Zm.24,1.435h0Zm57.722,169.012c-2.048,3.4-5.552,4.329-11.1,5.569-13.762,3.077-50.585-.271-77.378-22.185-20.055-16.4-30.142-39.34-29.982-68.172.187-33.715,26.854-77.224,60.953-82.791a16.393,16.393,0,0,1,2.663-.212c11.066,0,24.673,10.4,29.187,27.78C1470.042,804.117,1475.556,834.212,1469.678,843.958Z" transform="translate(-1348.349 -673.274)" fill="gray"/></g><g transform="translate(383.345 755.176)"><path d="M423.237,651.65c-20.224,0-42.307,8.277-60.585,22.709-17.118,13.514-27.834,30.318-27.966,43.851-.1,10.146,5.651,27.283,45.275,28.075,27.6.552,48.4.858,64.325.858,47.05,0,51.522-2.674,63.05-9.573,1.3-.779,2.7-1.613,4.261-2.506,8.69-4.958,11.854-14.589,8.68-26.424C513.774,684.39,479.351,650.671,423.237,651.65Zm86.951,80.883c-1.582.9-2.994,1.748-4.311,2.537-14.835,8.878-17.506,10.479-125.859,8.309-27.536-.549-42.617-9.477-42.464-25.14.26-26.634,43.485-63.685,85.708-63.685q1.153-.021,2.289-.021c29.239,0,50.006,9.767,62.382,18.081,15.055,10.115,26.11,23.867,29.576,36.786C520.311,719.849,517.643,728.28,510.188,732.533Z" transform="translate(-334.685 -651.629)" fill="gray"/></g><path d="M1503.073,905.336c-65.48-14.457-101.548-22.421-133.042-48.979-28.986-24.443-44.034-46.491-47.359-69.387-3-20.656,3.017-40.85,14.426-68.75,15.874-38.827,35.584-77,85.916-80.222,50.9-3.237,55.818,37.3,61.018,80.237,4.382,36.189,8.932,73.582,42.276,84.992V800.15c-30.806-11.232-35.2-47.325-39.429-82.269-5.132-42.385-10.452-86.226-64.045-82.779-51.975,3.324-72.874,44.073-88.385,82.008-20.758,50.766-29.624,88.038,33.749,141.48,32.032,27.012,68.344,35.029,134.264,49.584q11.333,2.5,23.847,5.3V910.5Q1514.123,907.762,1503.073,905.336Z" transform="translate(191.778 100.89)" fill="gray"/><g transform="translate(162.279 729.631)"><path d="M439.964,629.587c-58.047,0-93.289,42.721-121.6,77.047-6.069,7.357-11.8,14.3-17.306,20.254l1.047.992-1.047-.992c-22.873,24.716-52.721,28.9-87.281,33.752-16.018,2.247-32.581,4.57-49.592,9.163-13.284,3.588-21.673,14.369-22.442,28.838-1.4,26.434,22.091,62.835,77.741,84.565,17.3,6.754,31.964,10.116,44.571,10.116,10.065,0,18.818-2.143,26.546-6.413,15.613-8.627,25.192-24.911,35.332-42.15,17.091-29.055,36.465-61.989,90.636-65.839,3.771-.268,10.5-.417,19.025-.607,49.96-1.108,153.919-3.414,169.014-35.124,3.745-7.865,1.794-16.977-5.8-27.077C533.739,629.587,465.611,629.587,439.964,629.587ZM602.019,741.93c-14.332,30.107-120.96,32.473-166.493,33.482-8.561.19-15.324.341-19.164.613-55.666,3.957-75.447,37.583-92.9,67.251-9.934,16.887-19.317,32.839-34.241,41.085-16.615,9.178-38.448,7.953-68.71-3.864-54.308-21.205-77.257-56.313-75.908-81.7.708-13.346,8.113-22.892,20.316-26.187,16.841-4.549,33.315-6.859,49.247-9.094,33.639-4.72,65.413-9.176,88.98-34.644,5.561-6.009,11.319-12.988,17.413-20.377,27.934-33.862,62.7-76,119.4-76,25.258,0,92.354,0,156.555,85.381C603.407,727.035,605.258,735.127,602.019,741.93Z" transform="translate(-141.68 -629.587)" fill="gray"/></g><path d="M1521.455,940.968C1404.133,919.082,1345.244,908.1,1286.9,798.562c-19.884-37.332-9.305-56.916,4.089-81.712,10.3-19.07,21.974-40.683,21.018-74.712-.469-16.765,8.343-27.142,25.487-30.009,18.981-3.173,34.449-4.324,48.1-5.338,36.973-2.746,63.688-4.732,125.193-40.55,7.905-4.605,18.012-4.441,22.2-3.041v-3.006a34.519,34.519,0,0,0-23.634,3.529c-60.938,35.489-87.38,37.453-123.975,40.172-13.707,1.019-29.244,2.174-48.354,5.369-18.492,3.092-28.4,14.8-27.886,32.955.933,33.244-10.542,54.492-20.668,73.238-13.264,24.556-24.719,45.765-4.1,84.484,27.978,52.525,57.866,85.022,96.911,105.369,37.252,19.412,82.44,27.843,139.647,38.514q5.927,1.107,12.055,2.254v-2.954Q1527.139,942.027,1521.455,940.968Z" transform="translate(185.095 88.9)" fill="gray"/><path d="M1501.709,615.594v-9.349c-19.629,56.444-16.19,125.438,0,150.006v-5.759C1488.723,724.972,1486.321,666.529,1501.709,615.594Z" transform="translate(216.376 96.335)" fill="gray"/><path d="M1517.233,957.981c-131.383-21.886-131.383-21.886-277.556-174.348-12.816-13.368-26.751-27.9-41.995-43.724-38.019-39.463-56.538-79.437-49.536-106.931,4.056-15.927,16.479-27.171,36.924-33.421,34.027-10.4,55.146-26.745,72.115-39.878,25.921-20.058,43.047-33.308,84.739-11.163,86.472,45.93,114.332,27.446,152.888,1.861,15.512-10.291,33.057-21.911,56.971-30.6v-3.087c-24.731,8.838-42.686,20.736-58.542,31.257-37.737,25.038-65,43.129-149.983-2-43.317-23.007-61.98-8.566-87.813,11.428-16.786,12.989-37.675,29.155-71.2,39.405-21.47,6.563-34.548,18.5-38.872,35.475-7.254,28.485,11.535,69.488,50.261,109.683,15.242,15.819,29.175,30.353,41.989,43.719C1384.45,938.8,1384.45,938.8,1516.768,960.845c10.494,1.749,22.356,3.726,35.015,5.9V963.8C1539.3,961.657,1527.6,959.708,1517.233,957.981Z" transform="translate(166.303 82.105)" fill="gray"/><g transform="translate(123.736 577.283)"><path d="M892.114,500.294c-7.046-4.683-13.788-.636-17.412,1.538-.5.3-.941.566-1.312.761-51.789,27.26-57.481,68.683-62.5,105.23-3.867,28.13-7.2,52.423-30.952,64.589-60.852,31.173-96.645,47.183-123.4,48.162-25.57.93-42.962-11.436-74.511-33.9q-4.939-3.517-10.346-7.345c-37.094-26.178-78.119-42.867-115.518-46.988-43.406-4.787-81.875,7.161-111.255,34.542-20,18.643-33.607,32.673-44.539,43.946-36.384,37.521-36.384,37.521-122.677,46.7-11.781,1.254-25.134,2.674-40.4,4.382-18.6,2.081-28.992,13.77-29.254,32.914-.346,25.235,16.872,58.357,44.931,86.439a216.186,216.186,0,0,0,122.051,61.087,105.354,105.354,0,0,0,14.62,1.089c37.133,0,50.064-23.877,64.779-51.054,17.4-32.138,37.121-68.562,104.011-73.4,13.375-.969,27.1-.723,40.369-.493,10.976.2,22.326.393,33.469-.086,12.338-.531,23.823-1.785,34.93-2.995,51.471-5.616,88.661-9.67,130.2,65.985,3.951,7.2,7.724,14.2,11.375,20.98,23.393,43.433,40.295,74.817,59.827,75.871q.495.028.987.028c9.037,0,18.032-6.718,27.46-20.494,29.375-42.925,43.648-91.236,55.753-137.04,3.227-12.212,5.906-23.14,8.27-32.778,10.545-43,15.837-64.588,42.23-91.7,15.484-15.908,22.78-33.972,23.658-58.57C928.053,606.954,919,518.163,892.114,500.294Zm31.974,137.287c-.851,23.817-7.894,41.284-22.837,56.637-26.943,27.682-32.3,49.525-42.971,93.041-2.361,9.628-5.036,20.541-8.257,32.728-12.037,45.558-26.226,93.6-55.338,136.137-9.159,13.382-17.64,19.674-25.936,19.221-17.933-.97-35.378-33.358-57.462-74.363q-5.479-10.171-11.386-21c-31.943-58.178-62.469-70.124-97.17-70.124-11.429,0-23.309,1.3-35.843,2.662-11.061,1.208-22.5,2.453-34.744,2.981-11.058.477-22.365.279-33.3.086-13.335-.236-27.124-.477-40.624.5-68.45,4.954-88.57,42.116-106.322,74.9-15.99,29.532-29.8,55.042-76.489,48.485A213.3,213.3,0,0,1,154.982,879.2c-27.107-27.128-44.409-60.232-44.079-84.332.239-17.49,9.722-28.168,26.7-30.069,15.262-1.707,28.611-3.126,40.388-4.38,87.319-9.284,87.319-9.284,124.425-47.55,10.909-11.25,24.486-25.249,44.435-43.843,65.2-60.77,158.041-33.29,223.19,12.691q5.415,3.821,10.337,7.337c62.9,44.787,72.571,51.671,200.852-14.048,25.087-12.85,28.686-39.046,32.5-66.778,4.926-35.851,10.51-76.485,60.984-103.054h0c.411-.216.9-.508,1.453-.84,3.3-1.98,8.829-5.294,14.377-1.607C915.267,519.153,925.263,604.7,924.087,637.581Z" transform="translate(-108.03 -498.128)" fill="gray"/></g><g transform="translate(1510.748 392.728)"><path d="M1340.7,338.917a10.5,10.5,0,0,0-2.031.022c-19.481,3.689-20.42,22.584-19.433,36.475.65,9.132,5.949,10.541,9.154,10.541h.14c11.247-.142,29.941-17.432,30.6-31.62C1359.36,349.343,1357.281,340.7,1340.7,338.917ZM1328.5,383.051l-.112,0c-3.853,0-5.909-2.568-6.285-7.847-.908-12.778-.127-30.144,17.087-33.41a11.083,11.083,0,0,1,1.276.015c7.432.8,16.206,3.6,15.8,12.389C1355.7,366.508,1338.309,382.927,1328.5,383.051Z" transform="translate(-1318.981 -338.879)" fill="gray"/></g><g transform="translate(497.555 373.646)"><path d="M459.621,322.464c-11.016-.437-18.546,1.957-22.358,7.116-3.491,4.723-3.792,11.526-.9,20.223,3.261,9.793,12.51,18.712,24.744,23.86a52.45,52.45,0,0,0,20.167,4.266,35.575,35.575,0,0,0,15.881-3.452,20.2,20.2,0,0,0,10.569-14.594,22.94,22.94,0,0,0-5.137-19.421C492.135,328.626,479.285,323.244,459.621,322.464Zm45.29,36.864a17.332,17.332,0,0,1-9.02,12.544c-9.045,4.512-21.636,4.178-33.68-.891-11.481-4.832-20.127-13.1-23.127-22.1-2.576-7.738-2.417-13.644.474-17.557,2.947-3.987,8.837-6,17.527-6q1.177,0,2.424.05c18.812.746,31.056,5.84,40.942,17.031A19.993,19.993,0,0,1,504.91,359.327Z" transform="translate(-434.398 -322.413)" fill="gray"/></g><g transform="translate(444.403 338.669)"><path d="M527.6,319.59c-29.839-21.017-75.112-25.638-106.57-27.288-16.623-.863-24.656,6.376-28.463,12.609-7.7,12.613-5.56,32.841,5.593,52.789,14.977,26.792,48.2,55.168,96.764,55.168.545,0,1.1,0,1.65-.01,27.773-.367,48.165-13.176,54.549-34.262C557.454,357.674,548,333.961,527.6,319.59Zm20.781,58.155c-6,19.82-25.382,31.861-51.845,32.209l.019,1.452-.019-1.452c-.541.007-1.073.01-1.61.01-47.329,0-79.694-27.621-94.27-53.7-10.636-19.025-12.8-38.119-5.649-49.831,4.875-7.981,13.823-11.867,25.876-11.236,31.106,1.631,75.844,6.178,105.08,26.771C545.335,335.621,554.344,358.035,548.377,377.745Z" transform="translate(-387.992 -292.232)" fill="gray"/></g><g transform="translate(393.75 308.954)"><path d="M520.164,294.826c-16.216-4.514-29.082-8.248-40.432-11.544-41.517-12.05-54.046-15.688-91.116-16.67-13.723-.362-31.468,3.787-40.134,16.533-5.884,8.654-6.265,19.931-1.1,32.612,14.934,36.668,31.86,78.228,74.473,100.649,27.961,14.711,56.061,22.1,83.875,22.1a157.079,157.079,0,0,0,29.4-2.779c28.789-5.475,47.447-27.822,48.693-58.321a80.058,80.058,0,0,0-14.807-49.163C557.59,312.1,540.7,300.543,520.164,294.826Zm60.79,82.463c-1.188,29.075-18.95,50.374-46.357,55.586-36.658,6.971-74.148.564-111.42-19.046-41.684-21.931-58.4-62.971-73.145-99.18-4.845-11.9-4.571-21.94.812-29.857,6.381-9.384,20.41-15.3,36.049-15.3q.821,0,1.648.021c36.7.974,49.152,4.587,90.4,16.56,11.357,3.3,24.231,7.033,40.461,11.552C563.667,309.948,582.211,346.516,580.954,377.289Z" transform="translate(-343.769 -266.591)" fill="gray"/></g><g transform="translate(292.87 233.815)"><path d="M594.54,245.509c-14.729-2.281-31.423-4.866-51.539-8.957-13.03-2.65-28.812-7.476-45.521-12.586-35.409-10.829-75.533-23.089-111.052-22.162-17.453,0-39.937,5.558-60.144,14.868-16.642,7.667-39.721,21.437-55.153,43.495-16.458,23.525-19.775,49.927-9.856,78.475,19.186,55.224,33.5,86.067,49.391,106.458,15.361,19.7,32.831,30.2,60.3,36.208,16.821,3.681,33.527,7.868,49.681,11.917,42.256,10.59,83.2,20.852,121.856,20.852,31.109,0,60.738-6.652,88.342-25.136,19.485-13.047,30.57-32.689,32.058-56.806q.627-10.176,1.216-19.565c4.8-76.856,7.208-115.435-1.466-136.44C653.8,254.688,634,251.62,594.54,245.509Zm66.719,166.879q-.587,9.4-1.216,19.567c-1.43,23.172-12.072,42.04-30.778,54.565-60.855,40.745-132.294,22.84-207.926,3.887-16.175-4.055-32.9-8.247-49.764-11.937-51.046-11.173-72.162-38.8-107.6-140.791-9.591-27.609-6.4-53.122,9.492-75.834,24.691-35.292,77.858-57.137,112.994-57.137,35.09-.922,74.983,11.273,110.185,22.038,16.775,5.13,32.622,9.977,45.786,12.654,20.181,4.1,36.91,6.694,51.671,8.98,38.395,5.946,57.666,8.932,65.9,28.872C668.425,297.631,666.03,335.983,661.259,412.388Z" transform="translate(-255.694 -201.755)" fill="gray"/></g><g transform="translate(357.255 283.98)"><path d="M549.908,287.492c-6.278-1.908-14.736-4.688-24.529-7.906-44.553-14.644-119.124-39.157-149.054-33.789-17.282,3.1-30.338,8.189-38.806,15.132-28.915,23.707-32.35,39.964-15.316,72.478,48.634,92.828,87.148,112.413,155.08,121.2a327.156,327.156,0,0,0,41.65,2.968c36.428,0,61.212-8.425,75.238-25.446,17.283-20.974,18.365-54.521,3.309-102.561C591.311,309.877,574.416,294.934,549.908,287.492Zm42.061,142.775c-18.162,22.039-55.559,29.057-114.323,21.458-66.913-8.655-104.87-27.988-152.908-119.68C308.365,300.8,311.5,286,339.324,263.185c8.086-6.629,20.7-11.518,37.5-14.529,29.222-5.237,103.369,19.131,147.668,33.692,9.81,3.225,18.282,6.009,24.59,7.926,23.572,7.159,39.79,21.425,45.664,40.17C609.483,377.463,608.574,410.114,591.969,430.266Z" transform="translate(-311.907 -245.042)" fill="gray"/></g><g transform="translate(331.965 264.262)"><path d="M556.631,273.615c-44.38-11.427-74.519-21.611-98.736-29.8-36.033-12.178-55.879-18.884-81.713-14.389-18.169,3.163-35.528,9.624-48.878,18.193-38.915,24.974-47.574,58.012-25.738,98.194C358.139,449.926,375.6,456.045,517.343,479.989a88.447,88.447,0,0,0,14.725,1.2c37.941,0,79.214-22.385,90.544-51.313,9.372-23.93,7.009-49.513,3.783-73.667C620.6,312.8,607.767,286.78,556.631,273.615ZM619.945,428.8c-5.882,15.017-20.772,29.052-40.854,38.508-20.028,9.432-42.365,13.01-61.278,9.812C377.31,453.39,360,447.333,304.078,344.417c-20.973-38.6-12.643-70.336,24.761-94.342,13.037-8.367,30.024-14.683,47.829-17.782,25.118-4.375,43.566,1.86,80.318,14.28,22.981,7.767,54.457,18.4,98.938,29.856,49.559,12.758,62,38.019,67.63,80.168C626.727,380.37,629.063,405.526,619.945,428.8Z" transform="translate(-289.827 -228.027)" fill="gray"/></g><g transform="translate(310.522 249.511)"><path d="M596.188,266.614c-28.969-8.015-52.853-14.683-73.926-20.566-105.046-29.328-113.624-31.73-144.851-30.5-16.932.661-72.027,18.751-95.775,55.573-11.816,18.319-13.7,38.164-5.6,58.984C326.828,460.614,347.7,464.611,483.5,490.62c12.053,2.309,24.517,4.7,38.185,7.393a76.27,76.27,0,0,0,14.448,1.219c22.588,0,55.658-7.147,79.708-26.336,19.742-15.752,30.3-36.611,31.391-62,2.172-50.664-.356-82.951-8.194-104.689C631.353,284.9,618.137,272.687,596.188,266.614Zm48.178,144.157c-1.049,24.5-11.244,44.639-30.3,59.844-29.249,23.337-72.092,28.444-91.832,24.548-13.676-2.7-26.143-5.088-38.2-7.4C415.39,474.62,377.577,467.378,349.5,447.123c-29.186-21.05-46.736-56.283-70.787-118.087-7.742-19.894-5.948-38.847,5.33-56.332,22.092-34.253,75.542-53.559,93.486-54.259,3.708-.145,7.09-.238,10.36-.238,23.869,0,41.574,4.942,133.617,30.639,21.074,5.884,44.96,12.553,73.932,20.568C636.572,280.8,648.464,315.145,644.366,410.771Z" transform="translate(-271.106 -215.299)" fill="gray"/></g><path d="M1455.227,420.288c-15.9-8.059-25.329-32.41-4.128-76.589,5.969-12.436,18.168-18.638,27.02-18.339,13.877.468,22.363,6.228,31.195,21.192v-5.425c-8.591-13.03-17.389-18.208-31.1-18.669-11.694-.391-23.864,7.819-29.7,19.971-22.115,46.082-11.7,71.774,5.422,80.453a32.234,32.234,0,0,0,14.6,3.328c14.1,0,30.134-8.109,40.767-25.36v-5.807C1496.015,420.837,1470.93,428.245,1455.227,420.288Z" transform="translate(208.772 51.238)" fill="gray"/></g></svg>