<svg xmlns="http://www.w3.org/2000/svg" viewBox="0 0 1604.15 771.86"><title>tree-background-2</title><g id="Layer_2" data-name="Layer 2"><g id="Layer_1-2" data-name="Layer 1"><path d="M1602.65,1.5s-17.17,376.22-368.87,371.9-512.66-93.94-711.84-26.2S1.5,770.36,1.5,770.36" style="fill:none;stroke:#ddd;stroke-linecap:round;stroke-width:3px;stroke-dasharray:10,10"/><path d="M125.11,339.73l13.52,39.87h-27Z" style="fill:#73918c"/><line x1="124.41" y1="348.74" x2="124.42" y2="388.63" style="fill:none;stroke:#040505;stroke-linecap:round;stroke-linejoin:round;stroke-width:2.299999952316284px"/><line x1="119.76" y1="355.21" x2="124.25" y2="348.69" style="fill:none;stroke:#040505;stroke-linecap:round;stroke-linejoin:round;stroke-width:2.299999952316284px"/><line x1="128.88" y1="355.21" x2="124.32" y2="348.59" style="fill:none;stroke:#040505;stroke-linecap:round;stroke-linejoin:round;stroke-width:2.299999952316284px"/><line x1="118.49" y1="363.63" x2="124.24" y2="355.29" style="fill:none;stroke:#040505;stroke-linecap:round;stroke-linejoin:round;stroke-width:2.299999952316284px"/><line x1="130.15" y1="363.62" x2="124.32" y2="355.16" style="fill:none;stroke:#040505;stroke-linecap:round;stroke-linejoin:round;stroke-width:2.299999952316284px"/><line x1="117.05" y1="372.3" x2="124.22" y2="361.89" style="fill:none;stroke:#040505;stroke-linecap:round;stroke-linejoin:round;stroke-width:2.299999952316284px"/><line x1="131.61" y1="372.3" x2="124.32" y2="361.74" style="fill:none;stroke:#040505;stroke-linecap:round;stroke-linejoin:round;stroke-width:2.299999952316284px"/><line x1="115.96" y1="381.55" x2="124.21" y2="369.58" style="fill:none;stroke:#040505;stroke-linecap:round;stroke-linejoin:round;stroke-width:2.299999952316284px"/><line x1="132.7" y1="381.54" x2="124.33" y2="369.41" style="fill:none;stroke:#040505;stroke-linecap:round;stroke-linejoin:round;stroke-width:2.299999952316284px"/><path d="M234.56,543.25l13.52,39.87H221Z" style="fill:#73918c"/><line x1="233.85" y1="552.26" x2="233.87" y2="592.15" style="fill:none;stroke:#040505;stroke-linecap:round;stroke-linejoin:round;stroke-width:2.299999952316284px"/><line x1="229.2" y1="558.73" x2="233.7" y2="552.21" style="fill:none;stroke:#040505;stroke-linecap:round;stroke-linejoin:round;stroke-width:2.299999952316284px"/><line x1="238.33" y1="558.73" x2="233.76" y2="552.11" style="fill:none;stroke:#040505;stroke-linecap:round;stroke-linejoin:round;stroke-width:2.299999952316284px"/><line x1="227.94" y1="567.15" x2="233.68" y2="558.81" style="fill:none;stroke:#040505;stroke-linecap:round;stroke-linejoin:round;stroke-width:2.299999952316284px"/><line x1="239.6" y1="567.14" x2="233.77" y2="558.68" style="fill:none;stroke:#040505;stroke-linecap:round;stroke-linejoin:round;stroke-width:2.299999952316284px"/><line x1="226.49" y1="575.82" x2="233.66" y2="565.41" style="fill:none;stroke:#040505;stroke-linecap:round;stroke-linejoin:round;stroke-width:2.299999952316284px"/><line x1="241.05" y1="575.82" x2="233.77" y2="565.26" style="fill:none;stroke:#040505;stroke-linecap:round;stroke-linejoin:round;stroke-width:2.299999952316284px"/><line x1="225.41" y1="585.07" x2="233.65" y2="573.1" style="fill:none;stroke:#040505;stroke-linecap:round;stroke-linejoin:round;stroke-width:2.299999952316284px"/><line x1="242.14" y1="585.06" x2="233.77" y2="572.93" style="fill:none;stroke:#040505;stroke-linecap:round;stroke-linejoin:round;stroke-width:2.299999952316284px"/><path d="M1295.53,451l16.82,60.83h-33.63Z" style="fill:#73918c"/><line x1="1296.3" y1="464.75" x2="1296.32" y2="518.27" style="fill:none;stroke:#040505;stroke-linecap:round;stroke-linejoin:round;stroke-width:2.299999952316284px"/><line x1="1290.23" y1="473.44" x2="1296.1" y2="464.69" style="fill:none;stroke:#040505;stroke-linecap:round;stroke-linejoin:round;stroke-width:2.299999952316284px"/><line x1="1302.15" y1="473.43" x2="1296.19" y2="464.56" style="fill:none;stroke:#040505;stroke-linecap:round;stroke-linejoin:round;stroke-width:2.299999952316284px"/><line x1="1288.57" y1="484.73" x2="1296.08" y2="473.54" style="fill:none;stroke:#040505;stroke-linecap:round;stroke-linejoin:round;stroke-width:2.299999952316284px"/><line x1="1303.82" y1="484.72" x2="1296.19" y2="473.38" style="fill:none;stroke:#040505;stroke-linecap:round;stroke-linejoin:round;stroke-width:2.299999952316284px"/><line x1="1286.68" y1="496.37" x2="1296.06" y2="482.4" style="fill:none;stroke:#040505;stroke-linecap:round;stroke-linejoin:round;stroke-width:2.299999952316284px"/><line x1="1305.72" y1="496.36" x2="1296.19" y2="482.19" style="fill:none;stroke:#040505;stroke-linecap:round;stroke-linejoin:round;stroke-width:2.299999952316284px"/><line x1="1285.26" y1="508.77" x2="1296.04" y2="492.72" style="fill:none;stroke:#040505;stroke-linecap:round;stroke-linejoin:round;stroke-width:2.299999952316284px"/><line x1="1307.14" y1="508.76" x2="1296.2" y2="492.48" style="fill:none;stroke:#040505;stroke-linecap:round;stroke-linejoin:round;stroke-width:2.299999952316284px"/><path d="M1245,426.74l13.52,39.87h-27Z" style="fill:#84a29d"/><line x1="1244.31" y1="435.74" x2="1244.33" y2="475.64" style="fill:none;stroke:#040505;stroke-linecap:round;stroke-linejoin:round;stroke-width:2.299999952316284px"/><line x1="1239.66" y1="442.22" x2="1244.16" y2="435.69" style="fill:none;stroke:#040505;stroke-linecap:round;stroke-linejoin:round;stroke-width:2.299999952316284px"/><line x1="1248.79" y1="442.22" x2="1244.22" y2="435.6" style="fill:none;stroke:#040505;stroke-linecap:round;stroke-linejoin:round;stroke-width:2.299999952316284px"/><line x1="1238.4" y1="450.63" x2="1244.14" y2="442.29" style="fill:none;stroke:#040505;stroke-linecap:round;stroke-linejoin:round;stroke-width:2.299999952316284px"/><line x1="1250.06" y1="450.63" x2="1244.23" y2="442.17" style="fill:none;stroke:#040505;stroke-linecap:round;stroke-linejoin:round;stroke-width:2.299999952316284px"/><line x1="1236.95" y1="459.31" x2="1244.12" y2="448.9" style="fill:none;stroke:#040505;stroke-linecap:round;stroke-linejoin:round;stroke-width:2.299999952316284px"/><line x1="1251.51" y1="459.3" x2="1244.23" y2="448.74" style="fill:none;stroke:#040505;stroke-linecap:round;stroke-linejoin:round;stroke-width:2.299999952316284px"/><line x1="1235.87" y1="468.56" x2="1244.11" y2="456.59" style="fill:none;stroke:#040505;stroke-linecap:round;stroke-linejoin:round;stroke-width:2.299999952316284px"/><line x1="1252.6" y1="468.55" x2="1244.23" y2="456.41" style="fill:none;stroke:#040505;stroke-linecap:round;stroke-linejoin:round;stroke-width:2.299999952316284px"/></g></g></svg>