<svg xmlns="http://www.w3.org/2000/svg" width="744.16" height="406.244" viewBox="0 0 744.16 406.244"><g transform="translate(-139.369 -690.696)"><path d="M881.616,623.038l.342,2,.342,2,.342,2,.342,1.982.342,1.983.342,1.982.342,1.982.342,1.982.342,1.969.342,1.969.342,1.969.342,1.969.342,1.955.342,1.955.342,1.955.342,1.955.314.889.26,1.436,1.818,4.225.533,1.777-.15.738.232.629.6.519-.109.6-.82.684-.533.82-.383,1.463h0l-.766,2.57-.014,1.559.738,2.133h0l.15.943-.492,4.156.328,2.666.779,1.736-4.156.014H856.323l-.178,1.066.082,1.025.451.971,1.859,1.846.178.451-.328,1.422.055,1.012-.205.52-.451.465-.123.506-.3.137-1.408,1.531-4.936.506.274-.342,1.039-.068,1.463-.492-.3-.82-.56-.9-.52-.1-.342-.533.014-1.668-.328-.971-.807-1-.273.192-.588,1.709L849.6,692.9l-.246.725-1.463.055-1.3-.15-.642.041-.164-3.062-.137-2.789-.137-2.8-.137-2.8-.137-2.817-.137-2.816-.137-2.83-.137-2.83.314-2.789.314-2.789.314-2.8.314-2.8.314-2.816.314-2.816.314-2.83.314-2.83.315-2.83.314-2.844.314-2.844.314-2.857.314-2.857.314-2.871.314-2.871.314-2.885.082-.738.014-.246.041-.369-1.135-1.025-.219-.205-.164-.191.164-.014,2.064.027,2.065.027,2.064.027,2.065.027,2.064.027,2.064.027,2.065.027,2.065.028,2.064.027,2.065.027,2.064.027,2.065.027,2.064.027,2.065.027,2.064.027,2.01-.068Zm-31.5,72.256-1.135.314-1.682-.027-.342-.109.67-.219,2-.287.492.328Z" transform="translate(-238.517 318.634)" fill="#ebebeb" stroke="#d9d9d9" stroke-width="1"/><path d="M850.3,613.559l-.055.287.26.629v.356l-.191.219-.437.137-.328.15-.068.273-.014.123.027.3.055.26-.205.356-1.49.875-.629,1.121.219,1.381-.52,1.394-1.271,1.408-.533,1.559.191,1.736-.642,1.408L843.2,628.6l-.478.656v.533l.15.383-.492.725-1.23.738-.67.725-.1.711-.287.342-.533.15-.314,1.039-.273,2.461-.656,1.395-1.066.342-.561.547-.082.752-.629.861-1.189.984-.4.93.41.889-.082.355-.369.287-1.285.424-.219.205-.123.232.26.451.15.67-.192,1.135-.314.478-.3.451-1.066.807-.3.615.479.424-.041.479-.533.506.15.56.123.383.506.342.164.943-.356,1.217.068,1,.6.82.123.355-.588,2.707.041.383h-2.529l-2.311.014h-6.945l-2.311.014h-6.932l-2.311.014H801.42l-2.31.014h-4.621l-.014-2.078-.027-2.078-.014-2.078-.027-2.078-.656-.356-1.189-.178-.615.123-.725-.1-.479.342-.328.068-.26-.082-.15-.3-.547-.219-.67-.752.041-1.668.027-1.682.041-1.668.041-1.682.027-1.682.041-1.682.041-1.7.027-1.682.041-1.7.041-1.7.027-1.7.041-1.7.041-1.7.027-1.709.041-1.709.027-1.7-.287-2.2-.287-2.187-.287-2.2-.287-2.2-.287-2.2-.287-2.215-.287-2.2-.287-2.229h57.354l.561,1.258.56.807.1.588-.109.6-.943,1.285-.861.6-.479.643-.642.6-1.012,1.7,2.119-.041,2.119-.027,2.119-.041Z" transform="translate(-259.726 312.363)" fill="#ebebeb" stroke="#d9d9d9" stroke-width="1"/><path d="M671.256,599.777v5.687l-.014,5.647v76.576h-2.926l-4.553.014-4.553.014-4.539.014h-4.553l-4.553.014-6.1-2.215-6.111-2.229-6.1-2.228-6.1-2.229-6.111-2.242-6.1-2.242-6.111-2.242-6.1-2.242.615-.861.807-2.283.055-.137h0l1.791-.164.848-.574.492-1.053.109-1.08-.273-1.08-.779-.82-1.244-.533-.725-1.49-.191-2.475.219-1.34.656-.192.629-.6.588-1.012.451-1.107.287-1.2.055-1.518-.178-1.846,1.162-2.27,1.148-1.408L605.4,643.1l.492-.519v-.465l-.438-.6-1.914-1.2-.82-.861-.068-.793-.027-.014-.246-.766-2.051-3.2-.684-1.75V631.51l.246-5.565-.738-1.928-.178-1.094.219-1.34-.055-.848-.355-.725-.082-1.326-.041-1.641-.588-1.053-.109-.465.328-1.135.6-.588.984-.41,1.121-.137,1.271.123.971.52.643.889.629.451.629.014.82-.725.738-1.572.246-.1.027-6.863.014-6.262h12.045l4.019.014h12.045l4.02.014h16.064l4.02.014h12.059Z" transform="translate(-329.609 310.203)" fill="#ebebeb" stroke="#d9d9d9" stroke-width="1"/><path d="M563.216,538.976V589.59l3.022,2.693,3.021,2.693,3.008,2.68,3.021,2.68L578.3,603l3.022,2.666,3.022,2.652,3.008,2.652,2.365,2.229,2.365,2.229,2.365,2.229,2.365,2.215,2.365,2.215,2.365,2.215,2.365,2.2,2.365,2.2,3.268,3.158,3.268,3.144,3.268,3.145,3.268,3.131,3.268,3.131,3.268,3.117,3.268,3.117,3.5,3.309v1.313l.684,1.764,2.051,3.186.246.766.028.014.082.793.807.861,1.914,1.2.437.588v.055l-.014.424-.492.52-2.133,1.723-1.148,1.408-1.162,2.269.178,1.846-.055,1.518-.287,1.2-.438,1.107-.6,1.012-.629.6-.656.191-.232,1.34.191,2.461.725,1.5,1.258.533.766.807.287,1.094-.109,1.066-.506,1.053-.848.574-1.791.15h0l-.055.137-1.477.164-3.678.328-3.678.328-3.678.328-3.678.328-3.678.328-3.678.328-3.678.328-3.678.328-.027-.1-.082-1.668-.6-.588-.766.369-.356-2.16.191-1.025-.1-1-.725-2.461-1.914-2.994-4.129-3.732-2.105-1.244-1.654-1.586-1.053-.437-1.312-.123-.383.711-1.49-.492.219-1.764-1.463-2.461L581.3,668.8l-2.994.164-4.006-1.353-1.189-.807-.41-1.449-1.887-1.258-2.475-1.23-1.381.287-1.8-.191-2.57-.889-1.5-.109-2.926.26-1.094-.191-1.012-1.121-1.094-.56.232-1.381-.137-1.258.164-.971-.492-2.146.383-2-.328-.725-.615-.547-1.941-.82-.355-1.025.314-1.422-.506-.943-1.586-.875-1.476-2-1.873-1.094-.766-1.832-1.162-1.135-.4-1.012-2.57-3.6-2.748-2.816-.424-1.627-.109-2.228,1.08-1.354.574-1.2-.055-1.094-.164-.807-.943-1.408-3.65-.834-2.967-3.473-.178-2.666-1.162-2.734-.014-1.777-.178-1.928.889-.424.793.15-.082.766.26,1.381.93,1.039.889.451.807,1.012.6.3.629.068-.342-.643-.356-.41-.437-1.34-.82-1.709-.943-.943-.478-1.723-.41-.4-.26-.643.916-.766,1.258-.547,1.682-.15,4.758.246,1.012-.438.834.15.615-.055-1.285-.451-.725.151-.861-.1-1.7.1-.684-.191-.766-.547-.492-.055-1.572.943-.7-.109-1.654-1.025-.725-.15-1.162.588-.137,2.529.356,1.873-.7.191-.807-.779-1.244-.465-1.025-.7-1.449-1.313-.766-.478-.861,1.094-.027-.506.424-1.258-.123-2.119,1.3,1.7-.4-1.189-1.012-1.313-.766-.451-.971-2.352-2.174-1.422-1.736-2.3-3.555-3.814-.232-3.363-1.3-4.266.547-2.434-.068-1.723-.643-2.611-.67-1.422-2.885-3.91-2.775-2.639-.424-2-.191-2.023.6-1.8.519-1.9.383-.506.15.205-.109.41.4.123.15-.834.232-.437-.41-.055.041-.26.246-.533.861-2.5-.082-3.158.916-3.9-.041-1.285-.588-2.776-.588-1.668-1.053-1.189.465-1.736-.041-1.654-.219-.273h54.359Zm1.518,129.131,2.625.793,1.408-.383.26.383-.164.328-3.186.6-.971-.424-.082-.574-.328-.547Zm-5.455.848-.684.041-1.053-.164.369-.356.588-.26.191.191.588.547Zm3.391,1.627-.9.219-.684-.205-1.094-1.477,2.324-.191,1,.643.137.178-.779.834Zm21.82,8.2.656,1.135-.93-.137-.984.068-.3-.615-.287-.861-.191-.219-.67-.082-.055-.082-.082-.41.191-.205,2.105.957.547.451Zm-14.027,2.584-.574.027-.793-.137-.41-.82.643-.055.6.109.478.643.055.232Zm13.986,5.961-.752.137-.834-.314-.711-1.477-.793-1.148.424-.328.643,1.107,1.6,1.682.424.342Z" transform="translate(-362.554 287.893)" fill="#ebebeb" stroke="#d9d9d9" stroke-width="1"/><path d="M741.616,568.34l.014,3.145V574.6l.014,3.117.014,3.117v3.09l.014,3.09.014,3.09v3.076l.014,3.062.014,3.063.014,3.049V605.4l.014,3.035.014,3.021v3.021l.014,3.008H651.245V551.5H741.6l.014,2.119V568.34Z" transform="translate(-309.598 292.49)" fill="#ebebeb" stroke="#d9d9d9" stroke-width="1"/><path d="M1008.5,539.028l.014.93v1.3l.014.943.014,1.285v1.477l.014,1.354.014,1.176-.041.7-.068,1.066-.328.41-.164.984-1.121-.1-1.859.246-2.461.588-1.367-.342-1.395.615-4.73.178-1-.328-1.271,1.162-2.037.7-5.168,2.611-.6.52-.67-1.067-.52-.848,1.039-.67.793-.506.752-.465.492-.314-.4-.656-.383-.656.1-1.627.109-1.613.1-1.627.109-1.627.1-1.641.109-1.627.1-1.641.109-1.641,1.08.055,1.08.041,1.08.041,1.094.055,1.08.041,1.08.055,1.08.041,1.08.041.014.451.561-.055.068-.4,1.545.027,1.531.027,1.545.027,1.531.027,1.545.014,1.531.027,1.545.027,1.531.027Z" transform="translate(-187.499 287.636)" fill="#ebebeb" stroke="#d9d9d9" stroke-width="1"/><path d="M952.94,577.856l-.287-.424-.629-.342-.26-.123,1.025-1.121.684.971.752,1.066-1.148,1.34Z" transform="translate(-199.25 301.431)" fill="#ebebeb" stroke="#d9d9d9" stroke-width="1"/><path d="M969.03,566.211l-.56.588-.478,1.053-1.107,1.272.082.861.191.6-.1,1.271.7,1.231,1.381,2.01.26,3.117,1.053,2.078,1.613,2.434,1.244.684.055.9-.561,1.477-.766.683.984-.137.492.342.478,1.231-.027.779-1.381.014h-7.233l-.123-2.6-.123-2.6-.123-2.611-.137-2.611-.123-2.625-.123-2.625-.123-2.625-.123-2.639.971-1.34.41-.41.547-.205,1.6-.068Z" transform="translate(-194.627 297.722)" fill="#ebebeb" stroke="#d9d9d9" stroke-width="1"/><path d="M931.628,671.655l.6,1.353.916,5.51.629,1.914,1.135,5.141,1.859,4.963,2.639,5.975,4.32,7.205.52,1.025-.561.861-.178.9-.055,1.354.15,1.313.506,1.613.984,2.461-.547-.492-1.422-3.527-.164-2.078.205-2.953-.328.068-.273.957-.15,1.121-.356.438-.492-1.723.041-.779.52-.9-.15-.328-.848-.465-.178-.738.109-.725-.478-.383-.383.014.26,1.777.4,1.094.492,2.611.807,1.586.465,1.326,5.455,14.082,1.285,1.791.478,1.285.492,2.68.109,3.432-.889,6.248-.2,4.238-.123-.123-.082-.451-.205-.055-.779,1.941-1.053,1.75-.342,2.721-.506,1.354-1.518,1.436-.943-.041-2.3,1.08-1.613-.287-1.928.6-1.271-.068-.738-1.285.109-.574.287-.574.492-.137,1.709,1.34.314-.56-.52-.67-.984-.369-.725-.41-1.463-3.062-1.518-2.105-.26-1.408-2.611-.861-1.9-1.3-1.231-2.324-.711-4.129-.834-.465-.355-.328.82-1.531.861-1.285-.683.314-.506.478-.643,1.135-.465.178-.424-.178-.492-2.174.137-2.68.7-1.012-1.066-.027-1.094.383.164.9-.15.492-.807-.123-.6-.314-.82-.93-1.121-1.777-2.31-4.908-.451-.7-.766-.725.356-.232.656-.137,1.477-2.215,1.162-1.34.383-.93-.068-.4-.519-.574-.67.506-.287-.15-.766-1.162-.725-.328-.506.26.533.957.478.355-.191,1.395-.191.451-.451.4-.7-.219-.356.342-.424-.355-.41-.615-.465-1.012,1.217-5.674,1.135-3.623.123-4.143L916.9,700l-.1-1.107-1.518-2.406-6.713-5.879-5.2-6.986-4.5-2.625-3.418.574-.588.533-.26.7.219.779-.314.328-.916-.041-1.231.178-3.227,1.846-1.135-.068-1.039.478-.779.356-2.023.191-1.709.41-.738-.219-.478-1.066v-1.107l.4.848.6.656.273-.26.109-.588-.6-1.148-1.941-1.477-2.2-2.16.67.068.164-.465-.684-.6.287-.7.479-.738-.93.109-.834.52-.027.643-.164.506-.451-.068-.834-.629-4.115-1.75-3.6-.984,2.762-.451,1.49.342-.178-.533-.356-.342-1.176-.424-1.5.164-.943-.205-.971.424-1.066.629-.943.328-3.705.451-3.008.492.479-.519.519-.328,1.777-.506.26-1.053-.424-1.012-.465.246-.492.793-.6-.574h-.67l-.178,1.272-.861.848-.383.848-2.5.67-.328-.219.738-.807-.055-.451-.533.246.123-.506.451-.465.205-.52-.055-1.012.328-1.422-.178-.451-1.859-1.846-.451-.971-.082-1.025.178-1.066h29.094l4.156-.014.533,1.176L888,671.285l.041.574,1.2.082,2.051.137,2.051.137,2.051.137,2.051.137,2.051.137,2.051.137,2.051.137,2.051.137,2.051.137,2.051.137,2.051.137,2.051.137,2.051.137,2.051.137,2.051.137,2.051.137.014.492.342.766.082.875.15.424.41.26.643.068.656-.492.41-1.08.109-1.217-.246-1.395.041-1.176.328-.684.383-.164.328-.369.273-.082.711.191,2.666.984,2.27.123Zm-43.8,16.133-1.3.533-1.395-.383.861-.068.629.15,1.586-.766.834-.574.971-.219Zm60.758,34.426.205,1.066-1.189-2.461-1.463-3.869-.779-2.994.533.807.519,1.682,2.174,5.77Zm-24.418,10.432-.014.834-.643-1.408-.438-1.559.615.506.478,1.627Zm.6,1.408-.465.369-.93-.273-.506-.492-.219-.957.807,1.012.287.232,1.025.109Zm21.3,18.648-2.557,2.652.287-.67,1-1.422.328-.67.67-.424.629-.766.041-.9.916-.629.3-.1-1.613,2.926Zm-3.295,3.377-.342.068.506-.6.137.041Zm-2.461,1.408h-.246l.123-.205.506-.4.178.15-.027.205Zm-2.762,1.217-.588.328-.615-.246.67-.328,2-.356-.752.451Zm-3.746.93-.383.287-.178-.1V759.4l-.547-.93.014-.246,1.258.916.027.246-.191.246Zm-2.981.725-.834.137.67-.561.219-.848.4.656-.014.4-.437.219Zm-2.789.779-.328.027-.027-.219.561-.26.369.014-.014.287-.561.15Z" transform="translate(-235.51 335.15)" fill="#ebebeb" stroke="#d9d9d9" stroke-width="1"/><path d="M932.889,668.6l-.656,1.272-1.572.793-.478-.027-.4.232.232.574.4.41-.014.383-.41.52-.82.15-.465.6.15.561.273.314-.055.533-.93.547-.219.533.465.15.355-.15.26.109-.56.889-.506.547-.478.971-1.107.273.041.314.629.273.519.752-.984,1.381-.615-.109-.369-.3-.232,1.094.1.574-.232,1.189-.383,1.422-.26.588.055,1.08.164,1.053-2.174-.137-2.666-.984-.711-.191-.273.082-.328.369-.383.164-.328.684-.041,1.176.246,1.395-.109,1.217-.41,1.08-.656.492-.643-.068-.41-.26-.15-.424-.082-.875-.342-.766-.014-.492-2.051-.137-2.051-.137-2.051-.137-2.051-.137-2.051-.137L903,689.74l-2.051-.137-2.051-.137-2.051-.137-2.051-.137-2.051-.137-2.051-.137-2.051-.137-2.051-.137-2.051-.137-2.051-.137-1.2-.082-.041-.574-1.025-2.434-.533-1.176-.779-1.736-.328-2.666.492-4.156-.15-.943h0l-.738-2.133.014-1.559.766-2.57h0l.383-1.463.533-.82.82-.684.109-.6-.6-.52-.232-.629.15-.738-.533-1.777-1.818-4.225-.26-1.436-.314-.889-.342-1.955-.342-1.955-.342-1.955-.342-1.955-.342-1.969-.342-1.969-.342-1.969-.342-1.969-.342-1.982-.342-1.982-.342-1.982-.342-1.983-.342-1.982-.342-2-.342-2-.342-2,4.184.055,4.184.055,4.184.055,4.184.055,3.9-.055,3.9-.055,3.9-.055,3.9-.055-.082.014-.629,1.053-1.887,1.982-.506,1.518,2.434,1.7.014.014,1.449,1.367,1,.533,1.012.164.629.451.369,1.094h0l2.953,5.4h0l3.063,2.775,1.231,1.367.615,1.313,2.611,2.16.889,1.162.041.875.314.629.574.369.547.793.533,1.2,1.039,1.053,1.559.889,1.135,2.037.725,3.158.738,1.832,1.121.766,1.531,2.693.492,1.6-.027,1.408.779,1.094,2.57,1.176Zm-7.041,15.887-.574,3.637-.246-1.285L925,685.6l.438-.738Z" transform="translate(-228.636 318.733)" fill="#ebebeb" stroke="#d9d9d9" stroke-width="1"/><path d="M845.073,537.136l.779,1.19,1.353,1.066.766,1,.191.93.82,1,1.463,1.053.848.93.232.807-.041,1.244-.314,1.682-.533,1.217-.752.738-.547,1.039-.369,1.34-1.148,1.217-1.928,1.135-2.16.766-2.365.41-1.408.971-.438,1.518.191,1.258.848,1.025.478,1.08.123,1.135-.588,1.887-1.313,2.625-1.463,1.7-1.586.766-.711,1.135.178,1.5-.137.848-.656.3-1.135-.889-.205-.629-.916-.629-.137-.4-.7-.355-.643-1.231-3.24.027-3.254.014-3.24.027-3.254.027-3.24.027-3.254.014-3.24.027-3.24.027-3.254.027-3.24.027-3.254.014-3.24.027-3.254.027-3.24.027-3.254.027-3.213.014-.779-1.258-.424-1.162.26-.561.055-1.887-.15-3.24-.314-1.832-.465-.41-.055-.574.355-.711-.109-.492-.574-.26-.178-.615.219-1-.137-.6-.492-.219-.191-.342.082-.465-.273-.287-.6-.137-.246-1.121.109-2.119-.219-1.49-.574-.889-.3-.82v-.779l-.6-1.217-1.217-1.668-.779-2.215-.356-2.734-.861-1.531-.4-.082-.328-1.435-.342-.643-.068-.492-1.066-1.244-.068-.478.137-.6.7-1.176.629-1.928.137-1.3.52-.984.014-.533-.1-.711-.273-.629-.848-.451-.1-.205-.082-.711.342-.451.109-.506-.1-.629-.506-1.08-.219-1.107,1.859-.068h16.748l4.184-.014h41.85l4.252-.014.1,1.107.246.793.52.643.793.478.123.943-.52,1.381-.178,1.709.164,2.037.4,1.832.615,1.627,1.422,1.19,2.2.766,1.3,1.149.383,1.572Z" transform="translate(-266.669 280.846)" fill="#ebebeb" stroke="#d9d9d9" stroke-width="1"/><path d="M653.621,529.415v2.8l.014,2.789V573.4H591.209l-4.785.014h-9.57v-3.855l-.014-3.883V561.79l-.014-3.9v-7.848l-.014-3.937v-4.348l-.014-.1.82-2.68.164-1.312-.205-.738.137-.711.492-.684-.014-.766-.52-.807-.984-.547-1.422-.26-.738-.971-.055-1.654,1.067-2.557,2.187-3.459,1.189-2.447.219-1.449,1.313-3.336,2.42-5.25.93-3.377-.561-1.477-1.244-1.422-1.9-1.354-1.34-1.586-.356-.807-.438-1-.219-1.258.328-.725-.273-1.272-.861-1.818-.369-1.23.082-.437.1-.178-.014-2.98v-3.008l-.014-3.008L576.7,482.1l-.014-3.022-.014-3.035v-3.049l-.014-3.049-.014-3.062-.014-3.063v-3.09l-.014-3.09-.014-3.1-.014-3.1v-3.117l-.027-3.117h12.742v19.141l1.381,1.928,1.025,1.176.656,1.271,1,1.326.191.479.355,1.422-.26,1.025.533,1.053-.1.506-.4.273-.082.082.014.109.137.164,1.408,1,1.381,1.395,1.75.957.56.561,2.311,2.762,1.2,1.764,1.258,1.285.629,1.463,1.3,1.271.328.656.082.137.178.014.807-.3.205.082.4.506.082.766.287.328.506.178.574.055,1.764-.369h.383l.191.15.082.41-.027.67-.178.957-.533.943.1.875-.424,2.023-.4,1.367-.041,1.312-.492.766.273.9-.191,1.367.178.355.629.629.246,1.682-.109.314-1.121.656-.383.424-.15.615.492,1.764-.479.971-.055.834.109.219,1.039.451,1.258.984.4.219.287-.041.533-.328.588-.67,1.2-.684,1.422-1.449.068-.41.109-.219h.191l.451.205.889.875.779.492.137.109.068.246-.041.875.437.684.123,1.121.451,1.135.314,1.354,1.162,1.75.629,1.244.7.574.424.656.3.793.123.643-.41,1.162.109.479.369.52,1.2,1.2.232.1,1.121-.123.6.191.6.6.6.9.4.916.109,1.08.615,1.189.082,1.053.383.465.766.629.738.383.287.027.205-.164.068-.588.287-.438.916-.629.875.014,3.295.52.219-.027.15-.178.56-.957.451-.383.7-.123,2.023.246,2.338-.137,1.217.273,1.777-.356,2.051.26.273-.15.055-.205L648,527.87l-.027-.711.41-.848.137-.725.424-.41.547-.219.451.027.438.383.492.642.875,1.75.465.629.56.547Z" transform="translate(-337.787 253.458)" fill="#ebebeb" stroke="#d9d9d9" stroke-width="1"/><path d="M863.887,532.763l-.014,2.707.2,2.242.383,1,.451.738.478.465.561,1.449.629,2.434.588,1.6.465.656-.027,4.58-.014,5.113-.014,5.1-.027,5.059-.014,5.059-.013,5.018-.028,5-.014,4.7v.082l-.6.506-.41.875.109.943-.164.67-.41.41.205,1.025.807,1.641.492,1.627.164,1.6-.15,1.135-.7,1.039-.67,2.242-.574.889-.711.3-.629.834-.547,1.367-.588.656-.629-.041-.465.26-.3.533.041.561.369.6-.123.547-.615.506.014.246.191.15-.068.232-.4.246-.232.752.028,1.244L860.7,610l-.41.027-.055.342.684,1.408-.4.287-.711,1.162-.15,1.271.424,1.395-1.066,1.135-2.57.848-1.353.766-.15.656.178,1,.506,1.34.1.93-.328.519-1.832-.355-3.336-1.217-2.229.041-1.135,1.3-.4.984.137.793-.9-.971-.615-.437-.109.027-.137.123-.055.3.041.219.082.246-.041.15-.15.014-.656-.369-.793-1.08-.943-1.777-.205-1.408.533-1.053v-1.094l-.533-1.162-.26-1.135v-1.107l-1.285-1.668-2.57-2.215-1.887-1.381-1.217-.519-1.408-1.107-1.613-1.709-.861-1.312-.109-.9.738-2.42,2.133-5.3.246-.615.068-.232-.1-.232-.205-.219-.9-.629-1.723-.533-1.6-.287-1.271.629-1.107-1.285-.957-3.213-2.338-3.391-3.746-3.582-2.174-2.447-.6-1.285-.533-1.941-.437-2.6.014-2.147.752-2.584.656-.3.137-.848-.178-1.5.711-1.135,1.586-.766,1.463-1.7,1.313-2.625.588-1.887-.123-1.135-.478-1.08L822,554.98l-.191-1.258.438-1.518,1.408-.971,2.365-.41,2.16-.766,1.928-1.135,1.149-1.217.369-1.34.547-1.039.752-.738.533-1.217.314-1.682.041-1.244-.232-.807-.848-.93-1.463-1.053-.82-1-.191-.93-.766-1-1.354-1.066-.779-1.189,5.906.055,5.8.041,5.8.041,5.8.041,5.8.055,5.8.041Z" transform="translate(-248.952 285.506)" fill="#ebebeb" stroke="#d9d9d9" stroke-width="1"/><path d="M890.929,543.008l-.041,5.578-.055,5.551-.041,5.51-.041,5.5-.041,5.469-.041,5.428-.055,5.414-.014,5.5-.205.15-.3.711.328.725-.014.588-.355.451.123.328.6.219.232.52-.137.807-1.3.807-2.475.93-.547.26-.437.123-.205-.055h0l-.328-.178-.451-.369-.779-.178-1.271.123-.506.766.26,1.422-.438,1.094-1.121.752-.807,1-.478,1.244-.779.752-1.053.26-.861,1.149-.656,2.023-.711,1.244-.766.492-1.067-.123-1.34-.738-.766-.738-.205-.779-.4-.547-.369-.246h-.246l-.014.109.109.219-.137.232-.834.082-.355.315.123.56-.191.383-.479.232-.26.533-.027.834-.342.766-.643.684-.957-.232-1.244-1.149-1.271-.273-1.3.629-.957.834-.643,1.053-.6.26-.889-.807-2.092-1.107-1.094-.232-.793.26-.547-.123-.191-.3-.15-.123-.15.15-.014.971-.191.6-.355.26-.273-.205-.191-.656-.451-.219-.711.232-.725-.1-.629-.4-.232.041-.178.191.055.752-.137.6-.328.4-.465.1-.615-.205-.26.191-.684-1.408.055-.342.41-.027.219-.629-.027-1.244.232-.752.4-.246.068-.232-.191-.15-.014-.246.615-.506.123-.547-.369-.6-.041-.56.3-.533.465-.26.629.041.588-.656.547-1.367.629-.834.711-.3.574-.889.67-2.242.7-1.039.15-1.135-.164-1.6-.492-1.627-.807-1.641-.205-1.025.41-.41.164-.67-.109-.943.41-.875.6-.506v-.082l.014-4.7.027-5,.014-5.018.014-5.059.027-5.059.014-5.1.014-5.113.027-4.58.082.123.479.437.383.246.287.041.164.383.725.219,1.326.1,1.217-.15,1.107-.4L864.337,542h7.082l3.9.014h15.613Z" transform="translate(-237.18 289.002)" fill="#ebebeb" stroke="#d9d9d9" stroke-width="1"/><path d="M812.665,612.967H717.5l-.014-3.008v-3.021l-.014-3.022-.014-3.035v-3.049l-.014-3.049-.014-3.062-.014-3.062v-3.076l-.014-3.09-.014-3.09v-3.09l-.014-3.117-.014-3.117V566.96l-.014-3.144h85.941l2.967,2.16.779.027.916-.342.7.492.479,1.34-.068.67-.6.027-.766.807-.9,1.559.219,1.477,1.353,1.367.9,1.381.451,1.394.9,1.08,2,1.149-.028.629v2.147l.014,2.147v4.279l.014,2.146v2.119l.014,2.133v4.238l.014,2.119v2.105l.014,2.105v4.211l.014,2.092Z" transform="translate(-285.326 297.014)" fill="#ebebeb" stroke="#d9d9d9" stroke-width="1"/><path d="M924.089,585.6l.3.451.137,2.42-.1.479-.437.984.027.519.369.82,1.367,1.887.137.738.533.725.465,1.066,1.463,2.283,2.269,1.887,1.777.506-4.867,3.924-2.228,1.422-2.119,1.135-.178.191-.479,1.258-1.285,1.107-.807,1.162-1.928.971-1.367,1.326-3.432,1.3-1.928.451-1.3.766-.1.041-.1.041-.1.041-.1.041-.1.041-.1.041-.1.041-.1.041-4.471-.15-4.471-.15-4.471-.15-4.471-.15-4.471-.15-4.471-.15-4.471-.15-4.471-.15-4.279.082-4.279.082-4.279.082-4.279.082-.383-.492-1.121-.109-1.736-.178h-.068l.506,1.641.014,1.422-.041.014H836.068l.684-1.395.588-.369.273-.068.643.26.314.1.684-.492.6-1.436.342-1.531.1-1.613-.41-1.285-.137-.793.4-.984,1.135-1.3,2.228-.041,3.336,1.217,1.832.356.328-.52-.1-.93-.506-1.34-.178-1,.15-.656,1.354-.752,2.557-.861,1.066-1.121-.424-1.395.15-1.271.711-1.162.4-.287.26-.191.6.205.465-.1.328-.383.137-.6-.055-.766.178-.178.232-.041.629.4.711.1.711-.232.451.219.191.67.273.205.355-.26.192-.615.014-.971.15-.15.15.123.191.3.547.123.793-.273,1.094.232,2.105,1.121.875.807.615-.26.629-1.053.971-.834,1.285-.615,1.271.26,1.258,1.149.957.232.656-.684.342-.752.027-.834.26-.533.479-.232.178-.4-.109-.56.355-.315.834-.082.137-.232-.1-.219.014-.109h.246l.356.246.4.547.205.766.779.752,1.34.725,1.053.123.779-.478.711-1.258.656-2.023.861-1.148,1.053-.26.766-.752.478-1.244.807-1,1.135-.752.438-1.094-.26-1.422.506-.766,1.271-.123.779.164.451.383.328.178h0l.205.055.437-.109.533-.273,2.475-.916,1.3-.82.137-.807-.232-.52-.6-.219-.123-.342.355-.451.014-.588-.328-.725.3-.711.205-.15.725-.547.752-.068.6.574.848.137,1.107-.287,1.012.191.93.684.875,1.244.807,1.8,1.463,1.094,2.119.4,1.545.711.971,1.012.807.328.943-.547,1-.287,1,.342,1.34.861,1.982-.191,2.611-1.23,1.545.055.465,1.354,1.107,1.422,1.764,1.477.137-.041Zm-88.471,31.418-.9.027-.041-.191.055-.438.068-.191.178-.041h.2l.287.41Z" transform="translate(-242.244 300.936)" fill="#ebebeb" stroke="#d9d9d9" stroke-width="1"/><path d="M850.676,687.823l-.875.4-4.7-1.518-1.176-1.231-1.039-.26-1.271-.15-1.367,1.5L839.2,688.6l1.654,1.107,1.408.533,2.338-.451,1.285-.984,1.053.027.506-.205.465-.52.9.41.027.41-.643.574-.807.478-.492.574.916,1.148,1.449.383.547-.164.342-1.285.889-.834,1.2.178-.178.519.164.492.561.834-.068,1.2.109.287-1.3.533-.971.178-.779.7.41.4-.793.355-.533-.137-.273.137-.082.424-.41.4.588,1.19,1.217.779.861.971,3.445,1.271.834-.041.82,1.285.656.438.643.219-.069.889-1.135.643-.3.766-.287.438-.506-.547-.52-.4-1.217,1.2-.588.26.287-1.3-.465-.506-.7-1.312-1.012-.807-.711-.273-.561-.52-.67-.205-.574.055-.971-.3-.068-.7-.273-.52-.752-.615-3.623-1.162-.027.479.246.355.519.246.629.465v1.395l-.273.588-.109.834-.232.848-.451.67-.984.451-.437-.383-.711-1.832-1-.574-1.586-.068-1.08.41-1.176,1.777-.943.287-3.24-.916-3.705-1.395.1-.465.588-.15,1.121.191-.055-.478-1.135-1.572-.205-.711.15-.861-.369.014-.684.725-2.352-.615-.656-.738-1.381-2.078-1.955-.068-.916-1.231-1.6.533-.807.588-.711.9.273.465.711.738-.328.355-2.269.533-5.277-.588-1.545-.56-2.078-1.176-2.871-.957-1.381-.15-1.354.191-3.937.1-.916.26-.779.41-.506-.451-.232-.807.451-.137.506-.465.465-.93.055-.561-.314-.369.861-1.477.205-.533-.137-2.516-.383-.916.055-.533.41-1.381-.068-1.258.711-1.531.52-.793.588-1.627.137-1.053.246-.793-.178-.861.41-.615-.273-.861-.082-1.135-.506-.437-.889-1.7.027-.738-.93-1.586-.014-.547-.889-.82-.178-.533-.082-2.2-.246-.643-.766-1.271-1.777-1.846V645.44h34.658l2.529-.014.068.752.615.451.041.807-.547,1.162v.807l.561.451-.027.478-.615.506-.1.547.437.588.191.684-.041.779.574,1.012.889.643.588.766.055.424.041.4-.123.56-.738.82-.561.6-.342.219-.178.41-.055.875-.82,1.135-1.668,1.313-1.107,1.668-.547,2.01-.574,1.271-.6.547-.3,1.053v1.559l-.383.861-.766.164-.164.889.437,1.613-.191.67-.533.533-.055.41,3.076.014h21.629l-.383,1.723-.9,2.311-.041.6.232.752v.424l.342.629.738.629.656.943.574,1.7.15.779.479,1.08.246.205.355.123.4.055Zm3.828,1.613.041.684-.629-.342-.93-.027.41-.232.287-.232.15-.246,1.176-.861-.342.629-.164.629Zm5.1,4.088-.356.465.356-2.256-.506-1.9.533.834.178.984-.205,1.873Zm-.793,1.395-.7.766.027-.287.52-.779.369-.3-.219.6Zm-37.379,3.131-.479.205-2.133-1.271-.137-.547,1.053-.492.643.041,1.012.643.369.178.178.26-.1.41-.41.574Z" transform="translate(-257.739 326.98)" fill="#ebebeb" stroke="#d9d9d9" stroke-width="1"/><path d="M1020.548,527.862l-.3.9.369.9.246.916.588.9.506.082.547-.164.4.041.26.383-.109.465-.629.109-1.162.807-1.026.315-.506.971-.766,1.121-1.49,1.75.643.533,2.3.6,1.026.629,1.559,3.254-.355.328-.137.6,1.381.834.438,2.324,1.135.793,1.7.492,2.064-.7,1.723-.971-.055-.793-1.08-1.846-.26-.875-.807-.56-.3.478-.52-.615-.055-.356.479-.164.561.068.656.328,1.682,2.023.465,2.639.1,1.682-.191.574-.492-.123-.943.109-4.443.861-.984.766-2.256.82-.137-.41.164-.861-.137-1.75-.451-.082-3.514,2.857-1.354.178-1.135.834-.26-.465-.205-2.133.711-1.791-.383.027-.711.643-.437-.766-.479-.41-.465-.4.014-.643.027-.971-.533-.191-.055-1.189-.041-.779-.971.014-.793.014-1.272.027-1.326.014-.971.014-.014-.191-1.545-.027-1.545-.027-1.545-.027-1.545-.027-1.545-.027-1.531-.027-1.545-.027-1.545-.027-.068.4-.561.055-.014-.451-1.08-.041-1.08-.041-1.08-.041-1.08-.041-1.08-.041-1.08-.041-1.08-.041-1.08-.041-.342-.424.41-1.449.41-1.449.41-1.463.41-1.463.41-1.463.41-1.463.41-1.463.41-1.463,1.258.055,1.271.055,1.272.055,1.258.055,1.271.055,1.258.041,1.272.055,1.271.055,1.832.055,1.832.055,1.832.055,1.832.055,1.832.055,1.832.055,1.832.055,1.832.055,1.121-.478,1.326-1.367.807-.3,1.313-.82.656-.178,1.463.1Zm3.815,25.949-3.541.834-.561-.533.889-.246,1.121-1.285.738-.15,1.162.725Zm6.85,1.887-1,.273-2.3-.629,1.887-.533.314-.191.246-.779.027-.4.711,1.682.109.574Z" transform="translate(-186.754 283.776)" fill="#ebebeb" stroke="#d9d9d9" stroke-width="1"/><path d="M977.151,567.226l.123,2.639.123,2.625.123,2.625.123,2.625.123,2.611.123,2.611.123,2.6.123,2.6h7.233l1.381-.014-.014.478-.164.711-.3.287.014-.725-.205-.246-.342.314-.219.355-.1,1.408-.232.7-.848.205-.861,1.846-.793,1.039-.287.656-1.2.164-1.942.26-.506.738-.971-.314-1.49.041.287-1,.438-.875-.779-.875-.465-.109-.478-.356.561-.725.273-.766-.164-.943.232-.711-.383.109-.629.752-.383.3-.232-.67-.273.15-.178.451-.4.246-.834-.629-1.231-.711-.684-1.23-.383-.957.4-1.723.848-.3,1.094.287h1.436l-.205-.383-.52.068-1.518-1.408-.492-.848-.848-.232-.383.82-.424.219.52-1.791.684-.068,1.012-.492-.3-1.039-.643-.451-1.162.574.014-.725.219-.93h.875l.766.3.656-1.5.027-.67-1.08.984-.246-2.119,1.066-2.037,1.012-.889,1.272.027,1.285-.15-.807-.369-.834-.205.629-.807.533-.15.52-.711-1.258.109.15-1.34-.615.273-.725.123-.287.574.055.943-.219.615-.574.492-.957.383-.1-.67-.315-.3-.123,1.436-.246.492-.7-1.34-.205.273.027.383-.178.656-.6.342.041.848-.232.465-1.928-.738-.041.246,1.094,1.586.793.533.1.861-.684.711-.943-.615-.164.041.506,1.053.328.916-.328.779.055.943-.068.861-.2.752.451,3.459.547.93.547.9.287.834-.574.123-.916-.683-.807-.52-.957-1.682-.164-.67-.232-.533.109,1.217.342,1.367,3.008,3.035.561,1.162.424.916-.109.875-.779-.615-.67-.793-1.791-.889-2.256-.561-1.272-2.078v.875l-.287.738-.779-.9-.492-.766-.164-.834-.971.055-1.025.725-.984-.178-.109-1.422.26-.752,1.107-1.791,1.039-.916.465-1.176L961.1,581.1l.137,1.367,1.135-1.34-.738-1.053-.684-.984-1.025,1.121-.875-.424-1.422-1.395-2.311-.984-.328-.492.041-.547.314-.752-.711-.738-1.736-.725-.738-.615-.164-.137-.068-.752-.232-.479-.383-.205-.068-.328.232-.451-.232-.479-.711-.52-.246-.451.219-.4-.355-.178-.93.027-.916-.369-.9-.779-1.08-.137-1.859.779-1.053.191-.465.437-.232.752-.451.383-1.025.014-.164-.027-1.162-.246-.82-.465-.15-.191.1-.4-.15-.178-.246-.027-.232.232-.246.711-2.01,1.941-.971-.383-.369.014-2.8,2.734-.848.437-1.654,1.23.027-2.119.027-2.119.041-2.133.027-2.133h47.523Zm7.192,27.7-.342.041.342-.574,1.135-2.734.506-.943-.492,1.914-.861,1.764-.287.533Z" transform="translate(-207.423 298.266)" fill="#ebebeb" stroke="#d9d9d9" stroke-width="1"/><path d="M1034.709,469.931l.069.4.588.7.848.479.643.164.752-.014,2.064-.943,2.42-.615,1.326-.574.246-.533.6-.191.971.164,1.791,1.34,2.078,2.023,1.654,1.6.055,2.762.027,2.926.041,3.076.027,2.188.041,2.994.027,2.379.041,3.09.027,1.654.233.478-.137.643-.055.328.014.26.1.328-.014.451-.205.41-.109.479-.027.779.232.479.383.287h.314l.41.287.533.492.807.424.834.15.574-.109.7.287.246.684-.137.643-.4.3-.424.232-.069.492.205.52.3.451.328.793-.137.684-.3.574-.137.6.26.52.683.684.424.656.67.369.315-.26.26-.342.273-.26.465.15.547.191.588.232-.068.561.355.93.287,1.791-.437.807.1,1.08,1.189.314.287.328.055.4-2.625,2.748-2.229-.383-1.2.725-1.258.219-.561,1.23-.7.26-.943-.068-.82-.342-.629.164-.875,2.2-.711-.191-.287.793-.369.342-.547.3-.479-.984-.3-.93-.451-.205-.588-.232-.615.014-.41.137-.506.6-.738.52-.561-.424-.437-.7-.369,1.107-.533,1.176.1,1.367-.232.807-.52-.219-.506-.711-1.436-.574-1.135.055.232-.766,1.08-1.094-.328-.219-.533.15-.233-.15.383-1,.041-1.094-.478.383-.6,1.162-1.463.916.068,1.545-1.381,3.145-.068,1.34-.889,1.066-1.148.916-1.531-.26-1.162.793-.588.916-.52.137-.273-1.162-.192-.356-.424,1.709-.437.109-.164-1.217-.205-.807-.6.7-.4,1.832-.41-.15-.137-.684-.3-.205-.1.779.151,1.094-.219.588-.41-.314-.41-.519-.684.4-.629.164v-.533l.123-.656-1.244.369-1.5,1.217-1.162,1.682.4.273.451.533-2.023,2.584-2.078,2.324-1.572,3.773-.629.437-.547.684-1.025-1.641-.205-1.326-1.162-1.572-.465-1.08-.15-1.217.068-1.313-.1-1.969-.1-1.969-.1-1.969-.1-1.969-.1-1.982-.1-1.982-.1-1.982-.1-1.982-.1-2-.1-2-.1-2-.1-2.01-.1-2.01-.1-2.01-.1-2.01-.1-1.8.314-.273.779-.52.506.068.438.779.369.52.424-.15.369-.725-.014-1.012.492-.711.588-.109.547.027.273-.342-.028-.492-.191-.793.068-.957,1.367-1.7,1.668-1.148.588-.574.164-1.176.957-1.217.478-.7.123-.615-.246-.752.027-1.436.328-1.709.4-1.873.889-1.682,1.449-1.846.369-2.434.4-2.57,1.75-2.516,1.982-2.857,1.135-1.627,2.037-2.967,1.449-2.119.725-.971.766-1.162,1.244.342,1.23.342-.178,1.682.014.779Zm11.157,54.537-.752.355-.82-.15.013.943-.1.342-.916-.492-.328-.315.027-1.258.807-1.189.615-.465.793.328.6,1.326.055.574Zm-5.619,2.447-.492.355-.519-.109-.014-.889.164-.3.178-.137.273.246Z" transform="translate(-178.356 261.385)" fill="#ebebeb" stroke="#d9d9d9" stroke-width="1"/><path d="M845.416,461.585l-.068.314.465.1-.082.164-.506.287-1.435.588-.971.191-.492-.205-.055-.4.4-.574v-.287h-.4l.1-.232.588-.451,5.031-2.9,2.146-1.053,1.149-.342.191.164-1.244,1.094-.205.451.055.3-.41.574-3.678,2.023-.574.191Zm9.434,13.6-.232.615.041.369-1.559,1.613-.574,1.025-.478.164-.383-.7v-.561l.383-.424.383-.6.055-.834-.15-.3-.478.752.26.164.082.123-.1.273-1.791-.4-.547-.588.082-.807.6-1.039,2.16-2.2.957-.615,2.707-.971,1.49-.219h1.5l1.08.314.67.643-.643.424-2.967.355-.082.109.56.342.109.246-.519.643-2.625,2.078Zm49.725,13.248.4.246.273.41.67,1.148.328.779.205,1.148.137.383-.014.67-.451.451-.123.356.273.355,1.518.1.7.356.26.4-.178.438.1.465.369.492,1.217.752.3.355-.082.383-.369.246-.643.109-4.662-.711-1.367-.109-.205.26-.137.041-.219-.068-.4-.014-.205-.164-.164-.465-.41-.3-.643-.137-.561.355-.643,1.395.1.26-.109.9.164.246-.014.205-.178.164-.383-.027-.574-.219-2.187-2.119L895,496.913l-2.051-.779-1.627-.383-1.189.014-.984.547-.766,1.066-1.2.6-1.627.15-.889.287-.137.424-.588.014-1.039-.41-1.066-.109-1.107.178-.807.424-.861,1.313-.164.643-.615.561-1.641.875-.082.328-.861,1-.273.547v.533l-.287-.027-.588-.6-.027-.807.533-1.025.479-.492.424.027.26-.451.1-.93-.15-.465-.82.178-.424.369-.547.082-.656-.219-.574.506-.506,1.23-.6.807-.7.383-.465-.424-.232-1.217V500.7l.287-1.162-.15-.232-.287.369-.438.971-.588,2.105-.383.684-.506.287-.807,1.271-1.107,2.256-1.244,2.188-1.381,2.105-.834,1.135-.273.164-.123.383-.041.875-.615-.246-.52-.711-.314-.738-.027-.752.752-1.873.068-.3-.082-.178-.41-.205-.93.342-.943.068-.3-.123-.123-.328.014-.506.191-.6.561-1.107v-1.053l.26-.6-.246-1.121.068-.533-.4-.588-1.067-.766-2.488-1.025.26-1.148-.109-.492-.615-.738-2.611-.861-1.777-.4L849.6,497.5l-1.258-.315-1.422-.1-.9-.52-.9-.52-.9-.52-.9-.519-1.613-.451-1.613-.451-1.613-.451-1.613-.451-1.613-.451-1.613-.451-1.613-.451L830.4,491.4l-.355-.779-.355-.779-.356-.779-.355-.779-.738-.328-.4-.178-.287-.41-.656.178-.26-.684.068-.15.848-.178,2.42-.971,2.064-1.189,1.709-1.408,2.133-.861,2.557-.314,1.818-.492,1.107-.684,1.477-1.326.834-.383,1.039-.123.779-.52.533-.9,1-1.025,1.463-1.162.834-.465.205.219.082.41-.055.6.369.479.793.369.355.492-.068.615.219.52.492.424.137.93-.232,1.435-.028.93.178.424.178.232.287-.232.355-.506.123-.314.1-.314,2.146-1.449.424-.068.7.369,3.24.52,1.285.369,1.354.834.451.314,1.654,2.68.752,1.053.465.287.26.41.219.943.26.287,2.406.205L869.52,488l.67-.383.738.246.807.875.793.246.793-.383.738.014.7.41.328.3.205-.014,1.367-1.326,1.654-1.176,2.2-1.285,1.271-.574.355.137,2.037-.424,1.832-.041,2.42.26,2.242-.3,2.064-.861,1.832-.479,1.6-.109.6.246-.4.574-.205,1-.027,1.408-.137.889-.246.369-.027.355.178.342,1.545.219.807.451.93.014,1.053-.41.807.15.561.725.807.137.793-.52.561-.492.478-.219.328.068Zm2.9,2.652v.4l-.4-.1-.328-.273-.26-.451-.328-1.121-.506-.793.752-.9.451-.109.492.205.068.533-.356.848.014.875.4.889Zm.164,2.16-.178.109-.643-.725-.137-.451.1-.369.246-.014.41.342.232.4.055.451Zm7.943,4.307.123.41-.314.6-.9.314-1.832-.027-1.19-.232-.547-.437-.123-.219.055-.479.26-.027.4.26.588-.109.779-.492.41-.369.041-.246-.246-.465.205-.191.971.178.355.3.656,1.039.314.191Zm-13.563,3.555,1.654.26.164-.137.465.492.068.41-.191.342-.287.191-.369.027-.588-.355-.971-.93.055-.3Zm-2.639.52.916.342,1.654,1.135,1.559.656,1.477.191,1.08.4.684.615.492.684.3.752.711.424,1.107.1.875.315.643.547,3.541,1.408,1.477.738.82.725.232.465-.068.465.082.492.6.957.232.082.137.465.055.834.178.561.3.287-.178.109-1.094-.479-.615.15-.287.629-.041.588.205.561,1.395,1.668.369,1.518.068,1.832-.178.711-.15,1.572-.109,2.434-.027.834-.465.807-1.244,1.162-.014-.219-.3-.055-.328.178-.451,1-.383,1.818-.465.984-.547.15-.328.26-.109.369-.588.246-1.08.123-.738.547-.547,1.545.028.738-.26.916.014.793.287.656.875.656,1.449.656.861.1.6-.273.629-1.08.6-.424.738-.178.273-.492,1.217-2.147v-.479l-.438-.178.068-.137.574-.082.492-.287.424-.492.738-.369,1.8-.56.971-.643.615-.109.889.342,1.162.793.916,1.148.683,1.5.861,3.9,1.039,6.262.711,3.486.383.738.192.369-.916,4.867-.738,2-1.285,1.162-1.271,1.121-1.586,1.887-1.75.93-.889.547-.191.355-.219-.109-.478,1.025-.424,1.408-.164,1.08.15.6-.369.383-.656.711-.123.26.041.424-.137.205-.314-.014-.246.205-.588.752-1.025,1.955-.164.355-.123.109-4.279.164-4.279.164-4.279.164-4.279.164v-1H872.486l.834-.479,1.367-1.121.766-1,.738-1.313.711-1.627,1.449-2.447.711-1.477.684-1.887.52-1.969.342-2.064.164-2.147-.014-2.229-.342-2.242-.67-2.269-.369-1.162-.137-.314-1.217-2.912-1.381-4.074.014-.342,1.285-2.434.027-.328-.137-1.982-.273-1-.656-1.34.027-.342,1.34-1.709.807-1.3.725-1.586.479-1.846.219-2.119v-1.408l-.232-.711.027-.547.287-.383,1.436-.492.478-.834.109-1.477.287-.738.478.014.451-.3.41-.615.547-.178.683.273.943-.916,1.217-2.106.93-1.176.656-.246.123.191-.41.629-.123.7.164.752-.137.725-.3,1,.191.315-.52,1.6-.027.793.314.6.383-.205.437-1.025.137-.547-.178-.068.068-.437.3-.807.273-.383.232.041.068.437-.109.834-.7,1.982-.137.6.15.164.834-1.23.7-1.969.533-1.518.1-.82-.164-2.133.027-.875.205-.6.725-.684,1.244-.766,1.23-.41,1.217-.055.848-.205.479-.369-.164-.287-.82-.219-.615-.479-.424-.738-.137-.848.137-.957.519-.943.9-.916.287-.684-.328-.437.383-.15,1.107.123L899,502l.438-.369h-.055Zm-10.158,3.486-.438.1-.342-.219.055-.861.451-1.5.437-.684.588.273-.123.178.123,1.6-.219.711Zm-5.469,9.133-.15.26-.355-.027-.287-.246-.273-.793.1-.178.7.109.246.342Z" transform="translate(-245.192 257.713)" fill="#ebebeb" stroke="#d9d9d9" stroke-width="1"/><path d="M812.053,454.521l1.545-.232,1.326.068,1.326.109.711.164,2.051.848,1.34.7,1.928,1.3,1.067.574.506,1.34.6,1.723h.848l.643-1.012,1.627-.178,2.146.711,1.887,2.01,2.721,1.791,1.654.889h1.682l2.147-.889,2.283-1.709,1.64-.3.971.164.547,1.34.684.506,1.764-.15,3.691.26,2.94-.369.67.766.6,1.2,1.19.383,1.613-.383,2.543.26-.356.191-.369-.041-.492.287-.615.615-1.408.875-2.2,1.148-2.543,1.039L847.8,472.4l-3.213,1.955-1.422,1.176-5.523,5.852-3.336,3.1-5.4,4.348-.506.547-.041.506-.232-.014-.889,1.053-.383.67-.875.191v10.719l-.424.274-.533.629-.738.15-3.473,2.187-.574.629-.629,1.463-1.135,1.641-.287.875.055,1.176,1.736.943.643.9.315,1.107-.041.957-.875,1.873-.15.752.1,2.283-.438.711.355,1.846.027.643-.273,2.024-.191.588.342,1.053.041.109,1.627,1.449,1.367.807,1.23.26.957.615.7.984.93.643,1.176.3,1.2.82,1.832,2,.916,1.7,1.6,1.2,2.6,1.285,1.7,1.135.807.971.533,2.475.424,5.223-4.252.014H772.418V516.96l-.984-1.354-2.146-1.094-.533-.656-1-1.641-.4-.7-.068-.547.479-.615,1.941-1.777.615-.82.3-.793.451-1.832-.178-1.408.123-2.2-.4-1.654-.082-.82-.246-1.025-1.463-2.707-.356-2.187-.369-1.08-.123-2.789.041-.793.287-1.518-.615-1.025-.1-.848-.287-6.7-.191-.957.055-3.117-1.121-3.295-.533-1.121-.273-1.367.027-.656-.916-2.256-.615-2.5.055-2.174-.191-1.641.068-1.285-.164-1.928.191-1.094.014-1.709-1.258-6.084h23.5l3.035.027.055-4.143.041-3.281,2.775.4.834.6.26.287-.082.9.232,2.734.506,2.283,1.162,2.721v.014l.1,1.066.383.67.7.615,2.666.752,4.621.875,2.625,1,.615,1.135,1.23.451,1.846-.219,1.3-.478,1.189-1.08Zm0,0h0Z" transform="translate(-268.759 251.475)" fill="#ebebeb" stroke="#d9d9d9" stroke-width="1"/><path d="M831.909,560.285l-.752,2.584-.014,2.146.437,2.6.533,1.941.6,1.285,2.174,2.447,3.746,3.582,2.338,3.391.957,3.213,1.107,1.285,1.272-.629,1.6.287,1.723.533.9.629.205.219.1.232-.069.232-.246.615-2.133,5.3-.738,2.42.109.9.861,1.313,1.613,1.709,1.408,1.107,1.217.52,1.887,1.381,2.57,2.215,1.285,1.668v1.107l.26,1.135.533,1.162v1.094l-.533,1.053.205,1.408.943,1.777.793,1.08.656.369.15-.014.041-.15-.082-.246-.041-.219.055-.3.137-.123.109-.027.615.437.9.971.41,1.285-.082,1.613-.356,1.531-.6,1.436-.683.492-.3-.082-.656-.26-.26.082-.6.369-.67,1.395-.027.041-.246.137-.178-.137-.027-.082-.123-.41-.287-.424h-.219l-.178.027-.068.205-.068.438.041.191.219,1.19-.191.848-.629.342-.1.479.356.547v.246l-.137.191-.438.068-.328.123-.26.437.52.834-.109,1-.711,1.176-.1.465-2.352.027-2.119.041-2.119.027-2.119.041,1.012-1.7.643-.6.479-.642.861-.6.943-1.285.109-.6-.1-.588-.56-.807-.561-1.258H791.03v-10.09l-.014-2.092v-4.211L791,605.28v-2.105l-.014-2.119v-4.238l-.014-2.133v-2.119l-.014-2.146v-4.279l-.014-2.147v-2.146l.027-.629-2-1.148-.9-1.08-.451-1.395-.9-1.381-1.354-1.367-.219-1.477.9-1.559.766-.807.6-.027.068-.67-.479-1.34-.7-.492-.916.342-.779-.027-2.967-2.16-.205-.15-.916-1.435-.383-1.709-.738-1.121-1.107-.52-.7-1.121-.3-1.75-.711-1.764-.328-.519,3.213-.014,3.254-.027,3.24-.027,3.254-.027,3.24-.027,3.254-.014,3.24-.027,3.254-.027,3.24-.027,3.24-.027,3.254-.014,3.24-.027,3.254-.027,3.24-.027,3.254-.014,3.24-.027.643,1.231.7.355.137.4.916.629.205.629Z" transform="translate(-263.691 294.201)" fill="#ebebeb" stroke="#d9d9d9" stroke-width="1"/><path d="M859.771,622.973,860.906,624l-.041.369-.014.246-.082.738-.315,2.885-.314,2.871-.314,2.871-.314,2.857-.314,2.857-.314,2.844-.314,2.844-.314,2.83-.314,2.83-.314,2.83-.314,2.816L857,659.5l-.314,2.8-.314,2.8-.314,2.789-.314,2.789.137,2.83.137,2.83.137,2.816.137,2.816.137,2.8.137,2.8.137,2.789.164,3.063-3.76.232-1.641-.752-.684-.15-.41.014-1.914.7-2.187.533-.519-.164-.738-.027-1.586,1.818-1,.451-.314-.123-.355-.123-.246-.205-.478-1.08-.15-.779-.574-1.7-.656-.943-.738-.629-.342-.629v-.424l-.232-.752.041-.6.9-2.311.383-1.723H818.031l-3.076-.014.055-.41.533-.533.191-.67-.438-1.613.164-.889.766-.164.383-.861V677.36l.3-1.053.6-.547.574-1.272.547-2.01,1.107-1.668,1.668-1.312.82-1.135.055-.875.178-.41.342-.219.56-.6.738-.82.123-.561-.041-.4-.055-.424-.588-.766-.889-.642-.574-1.012.041-.779-.191-.684-.438-.588.1-.547.615-.506.027-.479-.561-.451V656.8l.547-1.162-.041-.807-.615-.451-.068-.752-.041-.383.588-2.707-.137-.355-.588-.82-.068-1,.356-1.217-.178-.943-.492-.342-.123-.383-.15-.561.533-.519.027-.479-.478-.437.3-.615,1.08-.793.3-.451.314-.478.191-1.135-.15-.684-.26-.451.123-.232.219-.205,1.285-.41.369-.287.082-.355-.41-.875.4-.93,1.19-.984.629-.861.068-.752.574-.547,1.066-.342.656-1.395.26-2.447.314-1.039.547-.15.287-.342.1-.711.67-.725,1.231-.738.492-.725-.15-.383v-.492H856.3l3.473.027Zm-4.949,72.762-.164.164-1.135-.314-.7-.287-.123-.287,1.914.519Z" transform="translate(-249.485 318.726)" fill="#ebebeb" stroke="#d9d9d9" stroke-width="1"/><path d="M740.255,503.11l.014,4.279.027,4.252.014,4.252.027,4.225v.055l-.014.055v.109H649.651v6.809l-.014,2.27-.848-.479-.56-.547-.465-.629-.875-1.75-.492-.643-.437-.383-.451-.027-.547.219-.424.41-.137.725-.41.848.027.711.178.355-.055.205-.273.15-2.051-.26-1.777.356-1.217-.273-2.338.137-2.023-.246-.7.123-.451.383-.56.957-.15.178-.219.027-3.295-.519-.875-.014-.916.629-.287.438-.068.588-.205.164-.287-.027-.738-.383-.766-.629-.383-.465-.082-1.053-.615-1.189-.109-1.08-.4-.916-.6-.9-.6-.6-.6-.191-1.121.123-.232-.1-1.2-1.2-.369-.52-.109-.478.41-1.162-.123-.643-.3-.793-.424-.656-.7-.574-.629-1.244-1.162-1.75-.314-1.354-.451-1.135-.123-1.121-.437-.684.041-.875-.068-.246-.137-.109-.779-.492-.889-.875-.451-.205h-.191l-.109.219-.068.41-1.422,1.449-1.2.684-.588.67-.533.328-.287.041-.4-.219-1.258-.984-1.039-.451-.109-.219.055-.834.479-.971-.492-1.764.15-.615.383-.424,1.121-.656.109-.314-.246-1.682-.629-.629-.178-.355.191-1.367-.273-.9.492-.766.041-1.312.4-1.367.424-2.023-.1-.875.533-.943.178-.957.027-.67-.082-.41-.191-.15h-.383l-1.764.369-.574-.055-.506-.178-.287-.328-.082-.766-.4-.506-.205-.082-.807.3-.178-.014-.082-.137-.328-.656-1.3-1.271-.629-1.463-1.258-1.285-1.2-1.764-2.311-2.762-.56-.561-1.75-.957-1.381-1.395-1.408-1-.137-.164-.014-.109.082-.082.4-.273.1-.506-.533-1.053.26-1.025-.356-1.422-.191-.479-1-1.326-.656-1.272-1.025-1.176-1.381-1.928V445.2h154.63l.027,3.705.027,3.705.014,3.691.014,3.691.014,3.664.027,3.65.014,3.637.014,3.623.027,3.623.014,3.6.014,3.582.027,3.582.014,3.555.014,3.555.027,3.527Z" transform="translate(-333.803 253.458)" fill="#ebebeb" stroke="#d9d9d9" stroke-width="1"/><path d="M991.528,605.316l-.342,1.244.178.711.684.738.752,1.832.6,2.461-.807-1-.861-.533-1.34-.41-1.2-.711.082,1.025-.109,1.107-.916-.342-.629-.369.561,1.176-1.2-.355-.807.068-.52,1.039-.7.629-1.039.205-1.545-.957-.492-1.148-.205-1.285-.082,1.518.273,1.586-.1,1.2,1.477.219,1.381-.191,1.873.055,1.217-.232.738-.383,1.764.328.123,1.449-.205,1.435-.1,1.531.492-.014.574-.492.287-2.748L993,614.695l.533.068.52.889.178.9.178,1.231-.383,1.873-2.475,2.188-1.764,2.01-.9.41-1.3-.232-1.477-.506-.725-.1-.547.164-.342-.615-.219-1.135-.574-.383-.437.041-.3,1.2-1.381.342-1.873-.492-1.969-1.012.848,1.08,4.881,2.023.547.383.52.547-.684.861-.533.971-.082.766-.191.479-1.941,1.3-1.053-.232-2.693-2.338,1.231,2.023.984.861,1.983.451,3.705-.752,1.217.82-1,1.463-1,1.026-1.3.109-1.149.273-.342.7-.82.041-1.271.041-1.982.068-1.08-.164-1.517,1.435-.574.191-.793-.273-.342-1.148-.356-.574-.014,2.16.137.574.287.437-1.777,1.176-1.7,1.463-.615.4-.7.725-1.422,2.105-.355,1.531-.506,1.709-.068-.766.082-1.3-.355-1.477-.219,2.721-.547,1.258-5.059-.082-2.037.629-1.859-1.873L954.5,643.6l-1.736-1.764-1.736-1.764-1.736-1.777-1.736-1.777-1.736-1.777-1.736-1.777-1.818-.068-1.818-.055-1.818-.068-1.818-.055-1.818-.068-1.818-.055-1.818-.068-1.818-.055-.068-1.231-.055-.875-1.135-1.49-.67-.875-1.436.752-.082-.369.055-.656-.123-.232-.4-.164-2.037-.1-2.037-.1-2.037-.1-2.037-.1-2.037-.1-2.037-.1-2.037-.1-2.037-.1-.465-.15-.916.52-2.42.779-1.189.684-.438-.041-2.051.67-2.051.67h-.232l-3.9.055-3.9.055-3.9.055-3.9.055.479-3.336.328-.766.369-.178,1.34-.014.848-.383.752-2.01,1.709-1.586.766-.4,1.148-.314,2.721-.383L897.369,619l2.106-1.463,1.668-.41.52-.533.383-.7.232-.957.178-.205.971.068.738-.834.711-.478.711-.273.438-.014.164.246.123.711.15.232.3.014.41-.164.547-.451,1.422-1.422.943-.547,1.449-.314,1.053.752.629-.26,1.846-2.912.738-.533.547-.205.957-.041.014-.807.328-1.217.041-.834.588-1.217.219.246,4.662.041,4.662.041,4.662.041,4.662.041,4.662.041,4.662.041,4.662.041,4.662.041,4.662.041,4.662.041,4.662.041,4.662.041,4.662.041,4.662.041,4.662.041,3.1.219Zm1,.027h.41l1.285,5.113,2.57,5.551.314.957-.6-.834-1.9-3.664-1.067-2.68Zm3.254,11.02-.191.328-.861-1.75.875.561.15.465.027.4Zm1.176,9.707-1.723.424-.15-.137,1.982-.889.629-3.158.082-1.463-.3-2.57.014-.533.328.834.287,2.406-.109,1.818-.574,2.639-.465.629Zm-3.062.779-2.338,1.121-.26-.068,1.531-.807Zm-9.283,8.545-.314.178,1.176-1.941,2.324-2.475.629-.383-1.941,2.106Zm-.547-.178-.287.041-.506-.178-.7-.328-.15-.246.67.082.971.629Z" transform="translate(-224.138 311.855)" fill="#ebebeb" stroke="#d9d9d9" stroke-width="1"/><path d="M794.661,503.11H698.725l-.014-3.527-.027-3.527-.014-3.555-.014-3.555-.027-3.582-.014-3.582-.014-3.6-.027-3.623-.014-3.623-.014-3.637-.027-3.65-.014-3.664-.014-3.691-.014-3.691-.027-3.705-.027-3.705h87.624l1.258,6.084-.014,1.709-.192,1.094.164,1.914-.068,1.285.191,1.641-.055,2.174.615,2.5.916,2.256-.027.656.273,1.353.533,1.121,1.135,3.309-.055,3.117.192.957.287,6.7.1.834.615,1.025-.287,1.518-.041.779.123,2.789.356,1.08.355,2.2L793.882,496l.246,1.025.082.82.4,1.654-.123,2.2Z" transform="translate(-292.274 253.458)" fill="#ebebeb" stroke="#d9d9d9" stroke-width="1"/><path d="M795.613,534.8l.4.082.861,1.531.356,2.734.779,2.215,1.217,1.668.6,1.217v.779l.3.82.574.889.219,1.49-.109,2.119.246,1.121.6.137.273.287-.082.465.191.342.492.219.137.6-.219,1,.178.615.574.26.109.492-.355.711.055.574.465.41.314,1.832.151,3.24-.055,1.887-.26.561.424,1.162.779,1.258.328.519.711,1.764.3,1.75.7,1.121,1.107.52.738,1.121.383,1.709.916,1.436.205.15h-85.94V562.887l-.014-2.119H698.571l-.014-4.266-.014-4.266-.014-4.293v-4.307l-.014-4.32-.014-4.348-.014-4.348-.014-4.375H770.39l3.842,2.611,2.283.807,1.094-.766,2.352-.438,3.623-.109,2.283.356.957.82,1.859.93,2.776,1.025,1.654,1.121.547,1.2.971.752Z" transform="translate(-292.255 283.218)" fill="#ebebeb" stroke="#d9d9d9" stroke-width="1"/><path d="M1018.194,536.038l-.574,2.269-.369,1.121-1.5-.082-.656.178-1.313.807-.807.3L1011.646,542l-1.121.479-1.832-.068-1.832-.055-1.832-.055-1.832-.068-1.818-.055-1.832-.068-1.832-.055-1.832-.068-.219-.615-.711-1.121-.178-.465.041-.52.4-1.408.287-.438.3-.82.451-3.268.4-1.9.287-3.473.287-1.025.328-.629.52-1.641.957-1.354.629-1.654.752-1.449.123-.848.561-1.846.4-3.295.383-.52,1.723-.451.547-.342,1.832-1.367.574-.574.369-.574.287-.93.205-.246.041-.506-.642-2.174-.027-.793,1.422-2.475-.3-1.435.205-.356,1.258-3.514,1.189-1.627,1.613.547.861-.055.642-.561.1,1.8.1,2.01.109,2.01.1,2.01.1,2.01.1,2,.1,2,.109,2,.1,1.982.1,1.983.1,1.982.1,1.982.109,1.969.1,1.969.1,1.969.1,1.969-.068,1.3.164,1.217.465,1.08,1.162,1.572.205,1.326Z" transform="translate(-183.457 272.21)" fill="#ebebeb" stroke="#d9d9d9" stroke-width="1"/><path d="M987.59,553.27l-.219,1.326-1.271,2.68-.533.615-.629.547-.478.232-.438.424-.506.67-.479,1.34.287,1.217,2.461.451.656-.383.342.875.191,1.217-.191,1.313-.41,1.326-.314,1.654-.26,2.5-.4,2.256-.055-.684.246-2.734-.4.287-.273.629-.752,3.527-1.039,1.873-.957,1.3-.984-.219.219,1.025-.273.533-.232,1.121-.588.738-.547-.068-.793.506-.314.4-.027.738-.533.656-1.914,3.4-1.654,1-.4-.15.438-1.6.3-1.627-1.012-.711-.971-.369-1.107.055-1.217-1.258L969,580.983l-2.2-2.488.068-.7-.055-1.162.67-1.846.643-1.285.889-.67,2.57-.684.642-1.025.383-.861.656-.574,1.477-1.039,2.242-1.258-3.1-4.225-.738-.246-.82-2.064-.943-.574-.232-.328-.041-1.586.082-.916.137-.533.807-.451.465-.916.014-.479-.615-1.477v-.465l1.176-.9,1.531-1.764.916-1.928.369-.56.451-.4,1.012-.547,1.271.779,1.271.779,1.271.779,1.272.779,1.271.779,1.271.779,1.271.779,1.244.779ZM984.7,575.337l-1.5,2.516-.027-.478,1.887-3.131Z" transform="translate(-193.731 290.852)" fill="#ebebeb" stroke="#d9d9d9" stroke-width="1"/><path d="M729.055,607.764l-.533.014-.014,4.471-.027,4.457-.014,4.443-.027,4.416-.014,4.416-.014,4.389-.027,4.389-.014,4.361-.014,4.348-.027,4.334-.014,4.32-.027,4.307-.014,4.293L728.262,669l-.027,4.266-.014,4.252h-8.682l-2.9.014H693.508l-2.9.014h-8.75l1.313,2.734h-.014l1.559.779-.1-.028-2.83-.027-2.83-.014-2.83-.014-2.83-.014-2.83-.027-2.83-.014-2.83-.014-2.83-.014v1.7l-.014,1.682v1.7l-.014,1.682-4.553.014-4.539.014h-1.627V611.1l.014-5.647v-5.687h77.807v8Z" transform="translate(-309.601 310.214)" fill="#ebebeb" stroke="#d9d9d9" stroke-width="1"/><path d="M624.837,622.05l-.014,6.262-.027,6.863-.246.1-.738,1.572-.82.725-.629-.014-.629-.451-.643-.889-.971-.52-1.271-.123-1.121.137-.984.41-.6.588-.328,1.135.109.465.588,1.053.041,1.641.082,1.326.355.725.055.848-.219,1.34.178,1.094.738,1.928-.246,5.565v.109l-3.5-3.322-3.268-3.1-3.268-3.117-3.268-3.131-3.268-3.131-3.268-3.145-3.268-3.158-3.268-3.158-2.352-2.2-2.365-2.2-2.365-2.2-2.352-2.215-2.365-2.215-2.352-2.229-2.365-2.228-2.365-2.229-3.008-2.652-3.021-2.652-3.008-2.666-3.008-2.666-3.022-2.68-3.008-2.68-3.022-2.68-3.008-2.693v-3.1l-.014-3.1V538.98H596.1l4.785-.014H624.81v31.869l.014,2.611v33.469l.014,2.529V622.05Z" transform="translate(-347.462 287.889)" fill="#ebebeb" stroke="#d9d9d9" stroke-width="1"/><path d="M1010.726,540.2l-.41,1.463-.41,1.463-.41,1.463-.41,1.463-.41,1.463-.41,1.463-.41,1.449-.41,1.449.342.424-.109,1.641-.109,1.641-.109,1.641-.109,1.627-.109,1.627-.109,1.627-.109,1.627-.109,1.627.4.656.4.656-.478.3-.752.479-.793.506-1.039.656.52.848.67,1.066-.533.438-1.381,1.477-.93.793-.766.26-.465.67-.52.438.492-1.477.533-1.244.451-2.42-.137-1.969-.561-.807-.574-.547.67,1.941.109,2.379-.014.068-1.23-.766-1.271-.779-1.272-.779-1.271-.779-1.271-.779-1.271-.779-1.272-.779-1.271-.779-.274-.643-.465-.492-2.3-.861-.588-.574-.533-.779-.369-.957-.191-1-.014-.793.164-.889-.533-.588-.014-.56-.342-.369-1.5-.67-.451-.943-1-.889H926.795v-4.744l.752-.424,2.475-1.572,1.231-1.148,1.3-.957,1.367-.752,1.08-.971.807-1.189.889-.889.971-.588.519-.615.068-.643-.178-.875-.424-1.094-.055-.861.315-.629.068-.424-.178-.219-2.037-.629.082-3.022-.027-.082.109-.041,4.676-1.34,2.98-.465,3.637-.123,4.334.656,1.682.6,1.066.766,1.231.205,1.394-.356,1.928-.123,2.474.123,1.326.178.178.246.164-.068.164-.383.656-.424,1.846-.643.246.137.383-.328.519-.779.943-.861,1.381-.943,1.244-.492,1.108-.041.738-.232.369-.424.109-.383-.15-.328.068-.355.055-.178-.055-.15-.137-.3-.109-1.559-.219-.725-.3-.533-.191-.424.041-.369.67-.451-.055.424.178.123.315-.191.711-.93.082-.355.492-.369.356-.56-.4-.082-.943.164-.219-.164.492-.752-.1-.424-.15-.178-.315-.068-1.066.656-.328.055-.041-.342-.547-.779,1.477-1.381,5.223-3.842.533-.588.192-.519-.137-.451-.15-.109.082-.109,5.031-4.963,2.857-2.3,2.365-1.285,1.791-.615,1.217.082.683-.082h3.582l5.359-.014,5.359-.014h3.172l.1,1.2-.274,1.422.219,1.545-.3,3.213.807,2.475-.191,1.654.054,1.777-.136.438-.629,1.025-.369,1-.205,1.012.014.656.547,2.9.109,1.271-.014.738-.478,2.379-.028.67.137.191h.178l.547-.738.246-.109.314.178.766,1.121-.041,2.01-.028,1.449-.027,1.613-.055,2.42-.041,1.764-.027,1.613-.027,1.231-.178.9.26,1.08Zm-36.791-26.961-.41.15-.1-.205.068-.205.342-.246h.56l-.068.192-.4.314Zm-1.928,5.127-.191.055.014-.383.191-.246.383-.109-.014.191Zm-34.344,17.1-.4.6-.383-.055-.273-.191-.1-.383.068-.478.342-.205.916.178.027.191-.205.342Zm82.633,35.151-.916,1.094.82.109.711-.328.67-.656,1.559-.889,1.34-.383.424-.082.629.615,1.258-.492,1.3-.273-5.605,2.83-1.149.314-1.64.834-1.545.6-1.121.219-5.551,2.092-.437.041-.478-.205-4.58,1.08-1.873.123-1.709.369,1.258-.861.027-.328-.3-.26-.67.068-.7.889-1.107.3-.219-.971.369-.752.506-.711,1.094-1.121,1.572-.711.793-.615.547.547.123-.738.424-.424.465-.232h1.108l.6-.109.437-.246.451-.041,1.217.328,1.189-.1.957-.465,1-.15,2.639-.109,2.625-.342,1.053-.6,2.2-1.682,1.272-.465-1.969,1.941-1.067.943Zm-21.6,7.834-.615.068.615-1.613,1.135-.738.41.15.014.574-.164.492-.752.752-.642.314Z" transform="translate(-208.418 273.616)" fill="#ebebeb" stroke="#d9d9d9" stroke-width="1"/><path d="M934.656,562.03l-1.518.738-.287.684.465.861.246,1.121.027,1.367-.848,3.008-1.75,4.621-.875,2.9-.027,1.19-1.149,1.545-2.269,1.914-1.586,1.148-.9.4-.766-.027-.6-.465-.684.314-.766,1.094-.7.561-.656.027-.561.711-.465,1.367-.437.793-.41.205-.027.7.342,1.176-.027.424-.191.014-.178-.068-.451.26-.492.656-.191.014-.137-.109-.137-.861-.41-.6-.656-.356-.916.793-1.176,1.941-.506,1.258.191.875.109,1.271-.3.52-.629.191-.506.7-.342,1.176-.889.752-1.422.314-1.49-.547-.109-.041-1.764-1.477-1.107-1.422-.465-1.354-1.531-.068-2.625,1.244-1.969.178-1.34-.848-1-.342-1,.287-.957.547-.793-.328-.984-1.012-1.545-.711-2.119-.4-1.477-1.107-.807-1.791-.875-1.244-.916-.684-1.026-.191-1.094.273-.848-.137-.6-.574-.766.068-.711.547.014-5.5.055-5.414.041-5.428.041-5.469.041-5.5.041-5.51.055-5.551.041-5.578,4.279-.164,4.293-.15,4.279-.178,4.293-.15.123-.109-.027.055.178.3,1.162.191.793.356.615.533,2.242,1.053.684.643.67.355.683.068.451-.205.26-.465.314-.041.383.41,1.258.451.041.137-3.486.779-.725.369.875.246.875-.055.889-.369,1.025.014.889.178.287-.15.109-.082,1.518,1.025.574.164.588-.123.615-.383,1.34-.506,2.078-.615,2-.26,1.914.123,1.217-.178,1.107-.642,2.447-2.105,2.8-1.7,4.635-2.119,4.484-1.654v21.123Z" transform="translate(-225.863 287.944)" fill="#ebebeb" stroke="#d9d9d9" stroke-width="1"/><path d="M816.04,607.764l.287,2.228.287,2.2.287,2.215.287,2.2.287,2.2.287,2.2.287,2.188.287,2.2-.027,1.7-.041,1.709-.027,1.709-.041,1.7-.041,1.7-.027,1.7-.041,1.7-.041,1.7-.027,1.682-.041,1.7-.041,1.682-.027,1.682-.041,1.682-.041,1.668-.027,1.682-.041,1.668-2.9-.779-.725-.492-1.34-.574-1.189-1.148-2.365-1.449-.9-.342-.287.041-.479.711-1.271.56-.684.014-1.23-.205-.246-.178-.178-.437-.492-.287-.369.232-1.8.588-.26.424-1.025.014-1.012-.3-2.543.943-.875.738-.916.246-.465.725-.287-.109-.957-.889-.971-.26-1.353-.875-.041-.779-.15-.1-.232-.082-.3.068-.588.67-.342.164-.328-.027-1.312-.437-.547-.793-.26-.246-.3-.055-.561.246-.314.861-.26.246-.533.137.027.438-.479,1.2-.26.246-.342-.041-.342-.3-.26-.424-.109-.369.191-.943-.123-.328-.26-.1-.629.451-.56-.027-.725.451-.437.137-.41-.109-.67-.725-1.149-.465-.451-.861-.205-.246-.246-.068-.246.027-.41.273-1.326,1.135-.6.356-.52.068-.506-.109-.314-.287-.055-1.149-.3-.342-1.23-.724-.26-.67-.109-.943-1.49.15-1.832-.1-.82.82-.437.15-.506-.164-1.477-1.121-1.572.232-.889-.123-2.187-.834-1.709-.082-.711-.151-.383-.191-.164-1.285-.684-1.08-.219-.3-1.162-.752-.191-.027-.123.164-.26.861-.356.041-1.34-.246-1.23.26-.684-.424-2.338-1.982-.943-.52-.766-.164v-7.465l-.014-1.873v-9.42l-.014-1.887v-7.588l-.014-1.914H708.154v-8H816.038v8Z" transform="translate(-288.701 310.214)" fill="#ebebeb" stroke="#d9d9d9" stroke-width="1"/><path d="M522.375,485.062l1.285-.465,1.012.355,1.285.834,1.272,2.529,1.244,4.2.273,1.394.971.861,1.149.041,4.607.615.684-.041h0l.834-.164,2.611-1.6,2.83-.52,3.35.109,2.051.465.752.793,1.791.082,4.238-.93,4.689-.656,2.516-.67,2.857-1.395,6.494-1.777,3.24-.205,1.641-.67.383-.342.232-.014h6.822l3.418-.014h6.836l3.418-.014h6.6l.355.807,1.34,1.586,1.9,1.353,1.244,1.422.56,1.477-.93,3.377-2.42,5.25-1.312,3.336-.219,1.449-1.189,2.447-2.187,3.459-1.066,2.557.055,1.654.738.971,1.422.26.984.547.52.807.014.766-.492.684-.137.711.205.738-.164,1.313-.82,2.68.014.1v4.348l.014,3.938v7.848l.014,3.9v3.883l.014,3.883v3.855h-89.3l-3.514-.014-1.627-2.105L507.063,554l-.137-1.326.191-3.527-.492-1.5-1.23-2.488.533-2.174.561-1.326,1.395-5.783.328-.465.588.014,1.012-1-.465-.219-.711.465.629-2.3.711-1.982.451-.711.233-6.48.41-4.963.67-1.654-.232-1.7.26-2.31-.191-2.338,1.436-11.32-.191-1.381.438-1.846-.41-4.881.178-5.5-.355-.7-.191-.766.342-.109.656.807,3.063-.014,1.969-.738.711.246.82,1,1.039.205Z" transform="translate(-363.152 267.609)" fill="#ebebeb" stroke="#d9d9d9" stroke-width="1"/><path d="M994.7,551.287l-1.012.56-.451.4-.369.561-.916,1.941-1.531,1.75-1.176.9v.465l.615,1.477-.014.479-.465.916-.807.451-.137.533-.082.916.041,1.586.232.328.943.561.807,2.078.752.246,3.1,4.225-2.242,1.244-1.477,1.053-.643.561-1.271,1.49-1.9.492-1.039.56-.26.26-1.148-.465-1.6.068-.547.205-.41.41-.971,1.34h-41.59l-2.967-.014H933.2l-1.682.014h-11.73v-3.869l-.014-1.928V565.3l.014-1.941-.014-1.791V540.445l2.393-.889,1.066-.6,1.066-.574.561-.342.629-.3,4.033-2.242v4.744H931.3l1.764.014h15.982l1.764.014h15.969l1.777.014h15.969l1.777.014,1,.889.451.93,1.5.67.342.383v.547l.533.588-.164.9V546l.191,1,.369.957.533.766.588.574,2.31.861.465.506Z" transform="translate(-210.996 286.615)" fill="#ebebeb" stroke="#d9d9d9" stroke-width="1"/><path d="M1009.3,544.119l-.479.437-.506-.67-.26-.725-.369-.41-.4-.15.342,1.586-.807,1.189-.219,3.076-1.025,1.271-3.172.82-.943-.082.164-.984.328-.41.068-1.066.041-.7-.014-1.176-.014-1.354-.014-1.477-.014-1.3-.014-.943-.014-1.3v-.93l.971-.014,1.326-.014,1.271-.027.793-.014.971-.014.041.779.055,1.19.533.191-.027.971-.014.643.465.4.479.41.451.793Zm-.1,3.678-.642.465-.711-.082.355-.629.137-.93.355-1.025.205-.314.424-.273Zm-1.6.109-.355.315-.137-.834.246-.957.26-.027.123.506-.137,1Z" transform="translate(-181 287.808)" fill="#ebebeb" stroke="#d9d9d9" stroke-width="1"/><path d="M954.745,641.29l-.164.055-3.4,2.3-1.012,1.012-2.8,3.883-.711,2.475-.574-1.039.137-.779.014-.643-.711,1.367.67,2-.6.766-1.846,1.422-1.012.232-1.148.4-.356,1.408-1.545,1.285-.9.574-1.641-.356.506,1.244-.6.93-1.053.725-1.3.465-.738-.055-.629.246-.506.6-1.217.56-1.258-.314-1.435-.191-.793.328,1.34.56.711.793-.137,1.08-.369.41-.848.561-.369-.082-.219-.506-.273-1.053-.4.219-.068.492-.342.178-1.2-1.682.068,1.285.41.984.41.506.41.287.1.465-.82,1.107-.424.246-.752.178-.424.684.137.6-2.611-1.217-.779-1.094.027-1.408-.492-1.6-1.531-2.68-1.107-.766-.738-1.832-.725-3.172-1.135-2.023-1.559-.889-1.039-1.053-.533-1.2-.547-.793-.574-.369-.314-.615-.041-.889-.889-1.162-2.611-2.16-.615-1.313L906,641.891l-3.062-2.775h0l-2.94-5.4h-.014l-.369-1.094-.629-.451-1.012-.164-1-.533-1.449-1.367-.014-.014-2.434-1.7.506-1.518,1.873-2,.629-1.053.1-.014h.232l2.051-.67,2.051-.656.438.027,1.189-.684,2.406-.779.93-.52.465.15,2.037.082,2.051.1,2.037.082,2.037.1,2.037.1,2.051.082,2.037.1,2.037.082.4.164.123.232-.055.656.082.369,1.435-.752.67.861,1.135,1.49.055.875.068,1.231,1.818.055,1.818.068,1.818.055,1.818.068,1.818.055,1.818.068,1.818.055,1.818.068,1.736,1.777,1.736,1.777,1.736,1.777,1.736,1.764,1.736,1.777,1.75,1.764,1.736,1.764Z" transform="translate(-220.796 317.841)" fill="#ebebeb" stroke="#d9d9d9" stroke-width="1"/><path d="M794.672,487.556l-.438,1.832-.3.807L793.3,491l-1.941,1.777-.478.615.068.547.4.7,1,1.641.533.67,2.133,1.094L796,499.4v32.252l-1.859.068.219,1.107.506,1.08.1.629-.109.506-.342.451.082.711.1.205.848.451.273.629.1.711-.014.533-.52.984-.137,1.3-.629,1.928-.7,1.176-.137.6.068.478,1.066,1.244.068.492.342.643.328,1.435-.984-.246-.971-.752-.547-1.2-1.654-1.121-2.776-1.025-1.859-.93-.957-.82-2.283-.355-3.623.109-2.351.438-1.094.766-2.283-.807-3.842-2.611H698.5l-.014-4.4-.014-4.4-.014-4.43-.014-4.457-.014-4.457-.014-4.484-.014-4.512-.014-4.525h.41v-.109l.014-.055v-.055l-.027-4.225-.014-4.252-.027-4.252-.014-4.279h95.936Z" transform="translate(-292.285 269.012)" fill="#ebebeb" stroke="#d9d9d9" stroke-width="1"/><path d="M913.046,604.784l2.926.014,6.234.027,4.43.027,3.637.014,2.146.014,2.707.014.6-.328,1.354.055,1.818.068-.588,1.231-.041.82-.328,1.217-.014.807-.943.041-.56.205-.738.533-1.832,2.912-.643.26-1.053-.752-1.449.314-.943.547-1.408,1.422-.547.451-.424.164-.3-.014-.15-.232-.123-.711-.164-.246h-.437l-.711.273-.711.478-.738.82-.971-.068-.178.205-.232.957-.383.7-.52.533-1.682.41-2.105,1.463-2.912,1.545-2.734.383-1.135.314-.766.4-1.709,1.586-.752,2.01-.861.383-1.326.014-.369.178-.342.766-.478,3.322-4.184-.041-4.184-.055-4.17-.055-4.184-.041-2.064-.027-2.065-.027-2.064-.027-2.065-.014-2.064-.028-2.065-.027-2.064-.014-2.065-.027-2.064-.027-2.065-.027-2.064-.014-2.065-.027-2.064-.027-2.065-.014-2.064-.027-2.065-.027-.164.014.15.191.232.205h-3.5l-3.418-.014h-6.836l-3.418-.014h-6.836l-3.281-.014v-.041l.479-.656,1.463-1.067.643-1.408-.191-1.736.533-1.559,1.271-1.408.52-1.395-.219-1.381.629-1.121,1.49-.875.205-.356-.055-.26-.027-.3.014-.123.068-.273.328-.15.437-.137.192-.219V615.3l-.26-.629.055-.287.1-.465.711-1.176.109-1-.52-.834.26-.437.328-.123.438-.068.137-.191v-.246l-.356-.547.1-.478.629-.342.191-.848-.219-1.189.9-.027.027.082.178.137.246-.137.027-.041h7l2.215.014h8.682l.041-.027v-1.422l-.519-1.641h.068l1.736.178,1.135.109.369.492,4.293-.082,4.279-.082,4.279-.082,4.293-.082,4.471.15,4.457.164,4.471.15,4.471.164,4.471.15,4.471.15,4.457.164,4.471.15.109-.041.1-.027.1-.041.109-.041.1-.027.109-.041.1-.027Z" transform="translate(-244.777 311.54)" fill="#ebebeb" stroke="#d9d9d9" stroke-width="1"/><path d="M830.43,650.271l.67.752.533.219.164.3.26.082.328-.068.492-.342.725.1.6-.123,1.189.178.656.356.014,2.078.014,2.078.014,2.078.014,2.078v15.381l1.777,1.846.766,1.271.246.643.082,2.2.178.533.889.82.014.547.93,1.586-.027.738.889,1.7.506.437.082,1.135.273.862-.41.615.178.861-.246.793-.137,1.053-.588,1.627-.52.793L840.274,697l.068,1.258-.41,1.381-.055.533.383.916.137,2.516-.205.533-.861,1.477-.615-.041-1.353,2.434.766,1.367-.055.492-2.693.273-6.111,2.734-2.379,1.477.123-.492,2.885-1.914-1.012-.287-1.641.478-.588-.178.7-1.586-.232-1.394-1.162-.041-.738,1.121L824.7,710l-.67-.478-.52.15.383,2.529.738,1.039.615,1.326-1.668,1.627-1.559,1.34-.164,1.3-1.559,1.7-1.463.957-3.459,2.242-.984.478-1.559,1.039-2.146.779-2.065,1.244-.7.191,1.313-1.053,1.559-1.039-1.34.137-2.064-.479L806.135,725l-.014.383-.957.533-1-.779-.437-.533-.205-.451-.424-.109-.41.219,1.49,3.213.629.137.7.314-.875.752-.943.561-1.477.383-1.258-1.176-.273,1.463-.164,1.463-.424.369-.67.533-.369-.4-.178-.56-.424.506-.629.383-1.039.068-.779.205.014.6.219.6,1.381-.479-.506,1.559-1.272,1.545-1.025.369-1.572-.232-.4.15-.342.314,1.832,2.406-1.176,3.623-.752,1.313-.52.164-.574.041-2.037-1.162-1.107-.9.984,2.461,2.666.711.137.93-.014.793-.52.93-.492,1.23.369.861.424,2.119.355.971.4,2.953.424,1.271,2.42,4.689.82.041.137.506-.082.971-1.75.287-.738.438-.137.369-.109.205-.219-.014-.834-.273-1.887-1.326-2.762-.82-3.623-.314-2.475-.67-1.326-1.012-1.381-.6-1.449-.191-1.2-.547-.943-.916-1.395-.588-1.832-.26-1.189-.684-.834-1.682V755.2l-.738-2.8-.93-1.764-1.818-2.187-.164-.287h0l-.014-.355.232-1.272-.191-.916-.574-.752-.137-.793.314-.834.027-1-.273-1.162-1.162-1.258-2.051-1.367-1.736-1.982-1.435-2.625-1.422-1.818-1.408-1.012-.957-1.231-.52-1.463-.15-.848.205-.232-.861-1.627-1.941-3.022-1.121-2.215L751,718.973l-1.231-1.668-2.187-1.941-1.189-1.258-.287-.875h0l-3.4-2.557-.984-1.6-.779-.506-.889.055-.451-.15-.027-.356-.287-.014-.547.328-1.8.068-3.076-.191-2.215-.437-1.367-.684-.957.1-.547.861-1.162.56-1.791.246-1.531,1.6L723,713.49l-.561,1.887.164.848-.342.615-.834.383-.848.848-.861,1.326-1.012.643L717.555,720l-2.133-1.025-3.1-2-2.434-1.23-1.764-.465-1.559-.93-1.354-1.381-1.244-.916-1.135-.465-1.326-1.531-1.518-2.611-.766-2.01V703.3l-2-4.648-1.053-2.023-.779-.93-1.531-1.107-2.283-1.3-3.062-2.584-3.842-3.9-2.721-2.352-1.6-.793-1.381-1.408L677.8,680.24l-1.148-1.285-.123-.055-1.559-.766h0l-1.313-2.734h46.457l.014-4.252.014-4.266.014-4.279.014-4.293L720.18,654l.014-4.32.014-4.334.014-4.348.014-4.361.014-4.375.014-4.389.014-4.416.014-4.43.014-4.443.014-4.457.014-4.471.533-.014h38.5v30.147l.752.164.943.52,2.338,1.982.684.424,1.23-.246,1.34.246.355-.041.26-.848.123-.178.191.027,1.162.752.219.3.684,1.08.178,1.285.369.192.711.15,1.723.082,2.187.834.889.123,1.572-.232,1.477,1.121.52.164.424-.15.834-.82,1.818.1,1.49-.15.109.943.26.684,1.23.725.3.342.055,1.148.314.287.492.109.52-.068.6-.356,1.326-1.135.41-.273.246-.027.246.055.205.246.451.861,1.148.465.656.725.41.109.451-.137.711-.451.561.027.643-.451.26.1.109.314-.191.957.109.355.26.424.355.3.342.041.26-.246.478-1.2-.027-.437.547-.15.246-.233.314-.875.561-.232.3.041.273.246.547.793,1.3.451.342.027.342-.164.588-.656.3-.082.246.1.137.1.055.779,1.34.875.984.26.957.889.273.1.465-.711.916-.26.875-.738,2.543-.943,1.012.3,1.025-.014.273-.41,1.8-.6.369-.232.506.3.178.437.232.178,1.244.219.684-.027,1.258-.561.492-.711.287-.041.9.342,2.365,1.435,1.2,1.162,1.34.561.724.492,2.94.738Zm-7.151,67.594-.642.137,2.8-2.256.588-.752.752.027-1.258,1.272ZM801.09,732.357l-.479.055.588-.779.957-.4,2.092-1.5.848-.109.451-.52.191-.082-.123.643-1.682.9-2.844,1.791Zm-3.227,3.637-.273.041.629-1.189.109-.479,1.025-1.5.533-.219.232.643-1.053,1.053-1.2,1.654Zm-4.361,8.7-.4.834.109-1.23,1.039-2.816,2.119-3.705.889-.615-2.447,4.06-1.313,3.473Zm2.352,16.352-.178.656-1.066-3.09-1.736-7.027-.068-4.02.273-1.381.451,5.674,1.914,7.178.41,2.01Z" transform="translate(-301.369 312.373)" fill="#ebebeb" stroke="#d9d9d9" stroke-width="1"/><path d="M642.715,538.966l.014,2.16V556.1h25.785v65.994H656.455l-4.019-.014H636.371l-4.02-.014H620.306l-4.019-.014H604.242V609.445l-.014-2.529V573.447l-.014-2.611V538.966h38.5Z" transform="translate(-326.867 287.889)" fill="#ebebeb" stroke="#d9d9d9" stroke-width="1"/><path d="M966.648,572.255l.738.615,1.736.725.711.738-.314.752-.041.547.328.492,2.311.984,1.422,1.394.875.424.26.123.629.342.287.424-.191,1.873-.6.93-.943.711-1.231,1.258-.3,1.162-.383,2.174.52.738.533.191,1.572-.492.807.219,1.8,2.611,3.363,1.025,1.23.643,1,1.353,1.5.779,1.162,1.135.027.738-.41.875-.164,1.176-.492.738-1.189.082-.725-.191-3.869-4.156-.465-.383-1.436-2.174-1.682-1.176-.52.027,2.393,2.16.971,1.5,1.723,2.105,1.231.889.9,1.395.848.656,2.3.93-.793.67,1.271.574.178,1.039-.123,1.19-1.764-.465-.055.875.164.519-.779.424-1.08-.574-2.816-3.158.027.424.232.492,1.641,2.037,1.463,1.217,1.244.547.957,1.025.342.615.219.93-.711.629-.807.356-.793-.629-.574-.67-1.23-1.135-.369-1.271-.93.068-3.91-1.613-3.144-.191.3.328.4.219,2.5.4.984.738,2.051.656,1.2.178.492,2.01,1.668,1.381.219,1.025,1.135.109,2-1.012,1.285.355,1.859.287.424.807.314,1.545.656,1.736.424,1.7h-.41l-1-.014-3.2-.027-4.662-.041-4.662-.041-4.662-.041-4.662-.041-4.662-.041-4.662-.041-4.662-.041-4.662-.041-4.662-.041-4.662-.041-4.662-.041-4.662-.041-4.662-.041-4.662-.041-4.662-.041-.219-.246-1.832-.068-1.34-.055-.6.328-2.693-.014-2.147-.014-3.637-.014-4.43-.027-6.248-.027-2.912-.014,1.3-.766,1.928-.451,3.432-1.3,1.367-1.326,1.928-.971.807-1.162,1.285-1.107.478-1.258.178-.191,2.119-1.135,2.228-1.422,4.867-3.924.1.52-.178.561.41.656.342,1.025.478.629.6.506,1,.451,1.176.793.93.219.314-.027,1.025-.766.848-.41.889-.834,1.586,1.135h.629l1.559-.492,1.463-.137.369-.15.547-.465.014-.943.123-.246.246-.109.287-.027.656.342.643.014,2.734-1.094.205.082.342.506,1.2-.643.711-.6.314-.9.588-.889-.123-.4-.383-.52.506-1.2.738-1.19,2.789-3.609.889-2.187,1.162-1.408.383-1.121.875-1.107.6-2.3.369-.465.533-.082.547.287.4.424.26.684,1.408.6,1.176.068.82-.438.478-.807.643-1.518.615-.9.4-1.135.41-.779.629-.492,1.586.028.82-.7.629-.793.383-.26.451.041,1.435-1.271,1.887-2.666.41-1.682.492-1.217.191-1.244.369-.684,1.668,1.353.957.779,2.188,1.778,1.449,1.176.574-1.354.93-2.023Zm31.842,21.492.342-.041h0l-1.381,2.475-.588.26Zm-5.236,1.367.506-.738,1.941-.26,1.2-.164-2.844,6.385.123,1.176-.574.383-.861.3-.875.7-.574.766-.533,2.078-1.039,2.324-.642-.971-.164-.834.287-2.174,1.121-3.568,1.23-2.228.943-1.053Z" transform="translate(-221.912 299.485)" fill="#ebebeb" stroke="#d9d9d9" stroke-width="1"/><path d="M998.9,540.586l-1.258-.041-1.271-.055-1.258-.041-1.272-.055-1.271-.041-1.258-.055-1.271-.041-1.258-.055-.342-1.053.164-.9.027-1.244.041-1.6.027-1.777.055-2.42.027-1.613.041-1.463.041-2-.766-1.121-.314-.191-.246.123-.533.738-.178-.014-.137-.191.027-.67.479-2.379.014-.752-.1-1.272-.547-2.9-.014-.656.219-1,.369-1.012.629-1.026.137-.424-.041-1.777.191-1.654-.807-2.475.3-3.213-.219-1.531.26-1.422-.082-1.2,2.187-.014h5.359l5.346-.014,5.359-.014h5.359l-.205.355.3,1.435-1.422,2.475.027.793.642,2.174-.041.506-.205.246-.287.93-.369.574-.574.574-1.832,1.367-.547.342-1.723.451-.383.52-.4,3.295-.561,1.846-.123.848-.752,1.449-.629,1.654-.957,1.353-.52,1.641-.328.629-.287,1.025-.287,3.473-.4,1.9-.451,3.268-.3.82-.287.437-.4,1.408-.041.52.178.465.711,1.121Z" transform="translate(-186.475 273.609)" fill="#ebebeb" stroke="#d9d9d9" stroke-width="1"/><path d="M604.366,502.016h-27.33l-.383.342-1.641.67-3.24.205-6.508,1.777-2.857,1.395-2.516.684-4.689.656-4.238.93-1.791-.082-.752-.793-2.051-.451-3.35-.109-2.83.533-2.611,1.6-.834.164h0l-.683.055-4.608-.629-1.148-.041-.984-.848-.26-1.395-1.244-4.211-1.271-2.529-1.285-.834-1.012-.342-1.285.465-.4-.26-.615-.068-1.367-.93-.779-.93-2.393.068-.492-.6-2.666.6-.82-.615-1.449.4.355-1.736-.068-2.187.068-2.133.355,1.559.9,1.654.437-1.873.3-2.365-.889-.916-1.463-.67-.52-2.215,3.473-1.887-1.846-.4-.725-.848-.889-.109-.068.656-.287.861-.315-1.135-.1-1.34-.369-2.3-1.422-3.705-.861-4.826-1.08-2.393-2.078-2.3-.547-1.34-.492-3.4.273-2.584-.383-1.818,1,.109,2.625,1.436,3.268,1.121.984.82,1.586.6,8.764.943.574-.1,1.135-.588.478.068,1.285,1.326.643.164.834-.068.615-.26,1.053-.916.137.342-.014.848.383,1.2.779,1.559.287.971L528.6,469.45l-.3.055-.041-.916-.205-.178L525.1,473l-1.039,2.174-.109.984.041.574.41.137.943-.219,1.395-.9.068-.191-1.3.314-.629.027.082-1.025.15-.492.848-1.518.889-.916,1.271-.971.738-.807.506-1.176,1.408-1.408.26-.4-.055-1.162.1-.219.684.15.287,1.982-.164.889-1.217,1.08-.15.383.219,1.477-.191.137-.465-.178-.15.1,1.148,1.6.369,1.244.055,1.107-.315,2.119-.342.355-.574-.123-.766-.656-.164.219-.6,1.641-.205-.15-.383-1.941-.205-.15-1.176.889-.465.848-.41,1.354-.519.629,1.463.137,1.312-.273,1.053.643.356.014.971-.629.3-.424.793-2.051.4-.369.6-.014.574-.314.848-1.121.027-.451-.314-2.529.1-1.436-.164-.451-.383-.479.055-.465.3-.752.027-.684-.26-.615.109-.7.807-1.49.15-.656.984-1.49-.246-.6-.725-.738-.451-.642-.465-1.012-.355-.342-.109.15.492,1.654-.109.109-1.272-.889-.3-.561-.151-.766.109-.574.684-.561.82-.205-.068-.479-1.025-1.545-.684-.711-.533-.342-.711-.1-.314-.26-.082-.369.15-.479.383-.15L531.6,455l.588-.342-.055-.615-.178-.342.027-2.215-.424-1.8-.219-.3-.232-.027-.246.246-.684.068-.424-.588-.465-1.148-.848-2.734H602.37l.027,3.117.014,3.117.014,3.117.014,3.1.014,3.09.014,3.076.014,3.076.014,3.062.014,3.049.014,3.049.014,3.035.014,3.021.014,3.021.014,3.008.014,2.994.014,2.994-.1.178-.082.437.369,1.244.861,1.8.273,1.271-.328.725.232,1.258.533.971Zm-75.742-50.572.178.424-.519.41-.369.068-.588-.656-.26-.082.205,1.012-.068.342-1.2-.629-.219-.492.342-.519.752-.547.26-.068,1.49.738Zm-2.98,3.336.342.629L524.6,455l-.588-.369-.178-.355-.2-1.176.1-.383.615-.137,1.162,1.449.137.752Zm2.475,1.34-.205.191-.684-.26-.41-.438-.137-.533.26-1.025.342-.26.219.055.1.9.615.957Zm3.2,5.3.629,2.516.273-1.053,1.75,1.818v.889l-.219.3-.369.109-.342-.26-.315-.629-.4-.328-.834-.219-.438-.711-.15-.492-.041-1.408-.205-.437-.451-.1-.424-.342-.656-.984-.1-.26.314-.807.711-1.353.52-.643.328.068.4.41.478.738-.082.52-1.928,1.025-.068.232.93.287.342.26Zm.971,10.746-.068.369-.711-.437-.232-.4.027-.9.178-.588.137-.123.424.26.123.15.123,1.668Zm1.326,3.787-.055.438-.492.342-.26-.082-.014-.506-.137-.082-.533.615.041-1.2.26-1.271.232-.027.342.834.615.943Zm-5.906,3.609-.123.369-.178-.014-.4-.752-.055-.533.342-.383.465,1.107-.055.205Z" transform="translate(-363.754 253.458)" fill="#ebebeb" stroke="#d9d9d9" stroke-width="1"/><path d="M835.058,473.024l-.424.3-.164-.137.1-.574.219-.342.328-.1.164.137v.369l-.219.342Zm-3.623,1.859-.191.137-.492-.314-.068-.26.137-.26.232.055.328.383Zm3.856,6.262-.068.15.26.684.656-.178.287.41.4.178.738.328.356.779.355.779.356.779.355.779,1.613.451,1.613.451,1.613.451,1.613.451,1.613.451,1.613.451,1.613.451,1.613.451.9.519.9.52.9.52.9.519,1.422.1,1.258.315,1.764.014,1.777.4,2.611.861.615.738.109.492-.26,1.148,2.488,1.025,1.066.766.4.588-.068.533.246,1.121-.26.6v1.053l-.56,1.107-.192.6-.014.506.123.328.3.123.943-.068.93-.342.41.205.082.178-.068.3-.752,1.873.027.752.314.738.52.711.615.246-.027.465-.246.916-.725.725-1.887.916-.3.615-.041.506-1.217,2.105-.6,1.285-.4,1.34.123.848.642.342.52-.137.4-.615.6-.547.82-.492.6-.725.834-1.777.93-1.025.492-.055.137.027.971-.465.779.15.465.7.478.479.109.451-.246,1-.438,1.053-.642,1.108-.588,1.654-.52,2.215-.109,1.668.3,1.121-.287,1-.875.875-.711,1.176-.533,1.476-.3,1.231-.068,1,.082.752.328,1.012-.027.506-.957,2.215-.342,1.08-.055.848-.232.834-.725,1.7-.232.943-.041.861.164,1.408-.1.479.041.355.178.246v.438l-.191.643.068.506.328.355.219.684.1,1.012.246.834.41.67.068.971-.26,1.271-.137,2.393v.793l-1.641-.014-5.8-.041-5.8-.041-5.8-.041-5.8-.041-5.8-.041-5.92-.041-.082-.137-.4-1.559-1.3-1.162-2.2-.752-1.408-1.19-.615-1.627-.4-1.832-.164-2.037.178-1.709.519-1.381-.137-.93-.793-.492-.519-.643-.246-.793-.1-1.094-.424-5.223-.533-2.475-.807-.971-1.7-1.135-2.6-1.285-1.6-1.2-.916-1.7-1.832-2-1.2-.82-1.176-.3-.93-.643-.7-.984-.957-.615-1.23-.26-1.367-.807-1.627-1.449-.041-.109-.342-1.053.191-.588.274-2.023-.027-.643-.355-1.846.437-.711-.1-2.283.15-.752.875-1.873.041-.957-.314-1.107-.643-.9-1.736-.943-.055-1.176.287-.875,1.135-1.641.629-1.463.574-.629,3.473-2.187.738-.15.533-.629.424-.273V479.941l.875-.191.383-.67.889-1.053.232.014v.014l.438.479,1.094.7.861.082,1.094-.15,4.334-1.2,1.832-.834,1.791-1.408.178-.041.752.26.232.123,2.338-1.613.766-.205.6.041.752.629.178.383-.246.738-.67,1.094-.328.916.014.752-.287.807-.738,1.094.26.3,1.969-.793.287-.3.027-.178-.123-.219.232-.1,1.545,1.08,1.039.6.861.287.752-.233Zm-1.777-6.111-.424.109-.93-.164.014-.273.957-.383.424-.109.1.164-.137.656Zm-2.119,2.543-.738.26-.3-.055.123-.355.383-.424,1.709-1.053.3.014.1.246-.834.52-.314.273-.041.287-.383.287Zm49.533,26.469-.383.178-.711-.068-.26-.41.369-1.053.15.191.615.014.219.109.068.26-.068.779Zm-1.668,2.023-.232.232-.4-.15-.15.342.082.834-.137.383-.356-.068-.014.15.314.369.027.41-.246.438-.232.205-.232-.027-.355.506-.478,1.039-.164.6.15.164-.109.342-1.189,1.572-.451.15-.506-.219-.355-.465-.205-.7-.055-.547.082-.383,1.039-1.395.465-.916.26-1.025.478-.656.711-.287.574-.643.438-1,.506-.437.574.123.246.383-.082.67Z" transform="translate(-253.77 263.364)" fill="#ebebeb" stroke="#d9d9d9" stroke-width="1"/><path d="M940.456,571.38l-.041,2.133-.027,2.133-.041,2.119-.027,2.119,1.641-1.23.861-.437,2.8-2.721.369-.014.971.383,2.01-1.942.246-.7.232-.232.26.027.15.178-.1.41.15.191.834.465,1.148.26.164.027,1.025-.014.451-.383.232-.752.465-.437,1.039-.192,1.859-.766,1.066.123.916.779.916.369.93-.027.369.178-.219.4.246.465.7.52.246.479-.232.438.082.328.369.219.232.479.068.752.164.137-.834,1.982-.574,1.354L960.13,579.8l-2.187-1.777-.957-.779-1.668-1.354-.369.684-.191,1.244-.492,1.217-.4,1.682-1.887,2.666-1.436,1.271-.437-.027-.383.26-.629.793-.807.684-1.586-.027-.643.492-.41.793-.4,1.135-.615.889-.656,1.518-.479.807-.82.438-1.189-.068-1.394-.615-.26-.683-.4-.424-.547-.287-.533.068-.369.465-.6,2.3-.875,1.107-.383,1.135-1.162,1.408L934.085,599l-2.775,3.609-.752,1.19-.506,1.189.383.52.123.4-.588.889-.314.9-.711.6-1.189.643-.356-.506-.205-.082-2.734,1.107-.643-.014-.656-.356-.287.027-.246.123-.123.232-.014.957-.547.465-.369.15-1.463.137-1.545.492h-.629l-1.586-1.135-.889.834-.861.4-1.012.766-.315.027-.93-.219-1.176-.793-.984-.451-.6-.492-.479-.643-.342-1.025-.41-.643.178-.561-.1-.519-1.777-.506-2.283-1.887-1.463-2.283-.465-1.066-.533-.725-.137-.725-1.367-1.9-.369-.82-.028-.519.438-.984.1-.479-.15-2.434-.3-.451,1.49.547,1.422-.314.889-.752.342-1.176.506-.7.629-.191.3-.52-.109-1.271-.191-.875.506-1.258,1.176-1.941.916-.793.656.356.41.6.137.861.137.109.191-.014.492-.656.451-.26.178.068.191-.014.027-.424-.342-1.176.027-.7.41-.205.438-.793.465-1.367.561-.711.656-.027.7-.561.766-1.094.684-.314.6.465.766.027.9-.4,1.586-1.148,2.269-1.914,1.148-1.545.027-1.189.875-2.9,1.75-4.621.848-3.008-.027-1.367-.246-1.121-.465-.861.287-.684,1.518-.738-.014,1.941V565.6l.014,1.928v3.869h11.73Z" transform="translate(-218.251 294.098)" fill="#ebebeb" stroke="#d9d9d9" stroke-width="1"/><path d="M722.749,535.826l.014,4.375.014,4.348.014,4.348.014,4.32v4.307l.014,4.293.014,4.266.014,4.266H632.392V555.377l-.014-2.16V514.826l-.014-2.789v-2.8l.014-2.27v-6.809H722.64l.014,4.525.014,4.512.014,4.484.014,4.457.014,4.457.014,4.43.014,4.4Z" transform="translate(-316.53 273.638)" fill="#ebebeb" stroke="#d9d9d9" stroke-width="1"/></g></svg>